<?xml version="1.0" standalone="no"?>
<!DOCTYPE svg PUBLIC "-//W3C//DTD SVG 1.1//EN" "http://www.w3.org/Graphics/SVG/1.1/DTD/svg11.dtd" >
<svg xmlns="http://www.w3.org/2000/svg" xmlns:xlink="http://www.w3.org/1999/xlink" version="1.1">
<metadata></metadata>
<defs>
<font id="SSBlack Tie - Solid" horiz-adv-x="2048" >
  <font-face 
    font-family="SS Black Tie - Solid"
    font-weight="400"
    font-stretch="normal"
    units-per-em="2048"
    panose-1="2 0 10 3 0 0 0 0 0 0"
    ascent="2048"
    descent="0"
    bbox="0 -4.634 2341 2051.77"
    underline-thickness="102.4"
    underline-position="-204.8"
    unicode-range="U+0020-1F6AB"
  />
    <missing-glyph />
    <glyph unicode="&#xe9a1;" 
d="M2048 585v-439h-2048v439h2048zM2048 1243v-438h-2048v438h2048zM2048 1902v-439h-2048v439h2048z" />
    <glyph unicode="&#x1f50e;" 
d="M2048 310l-310 -310l-415 414c-130 -77 -283 -121 -445 -121c-485 0 -878 393 -878 877c0 485 393 878 878 878c484 0 877 -393 877 -878c0 -162 -44 -315 -121 -445zM878 731c242 0 439 197 439 439s-197 439 -439 439s-439 -197 -439 -439s197 -439 439 -439z" />
    <glyph unicode="&#xe003;" 
d="M1634 725l414 -415l-310 -310l-415 414c-130 -77 -283 -121 -445 -121c-485 0 -878 393 -878 877c0 485 393 878 878 878c484 0 877 -393 877 -878c0 -162 -44 -315 -121 -445zM1317 1024v293h-878v-293h878z" />
    <glyph unicode="&#xe399;" 
d="M1536 1426c-101 0 -183 -82 -183 -183s82 -182 183 -182s183 81 183 182s-82 183 -183 183zM1024 1426c-101 0 -183 -82 -183 -183s82 -182 183 -182s183 81 183 182s-82 183 -183 183zM512 1426c-101 0 -183 -82 -183 -183s82 -182 183 -182s183 81 183 182
s-82 183 -183 183zM0 2048h2048v-1609h-1097l-439 -439h-73v439h-439v1609z" />
    <glyph unicode="&#xe310;" 
d="M658 329c0 -182 -147 -329 -329 -329s-329 147 -329 329s147 329 329 329s329 -147 329 -329zM1390 0h-439c0 524 -427 951 -951 951v439c766 0 1390 -624 1390 -1390zM2048 0h-439c0 887 -722 1609 -1609 1609v439c1129 0 2048 -919 2048 -2048z" />
    <glyph unicode="&#xe1a1;" 
d="M1170 2048v-1641l-768 -407l-146 146l183 659l-439 475l73 183h549l311 585h237z" />
    <glyph unicode="&#xf013;" 
d="M914 439l805 804l-220 220l-585 -585l-329 329l-219 -220zM2048 1024c0 -565 -459 -1024 -1024 -1024s-1024 459 -1024 1024s459 1024 1024 1024s1024 -459 1024 -1024z" />
    <glyph unicode="&#xf014;" 
d="M914 439l805 804l-220 220l-585 -585l-329 329l-219 -220zM2048 2048v-2048h-2048v2048h2048z" />
    <glyph unicode="&#xe9a0;" 
d="M2048 585v-585h-585v585h585zM2048 1317v-586h-585v586h585zM2048 2048v-585h-585v585h585zM1317 585v-585h-586v585h586zM1317 1317v-586h-586v586h586zM1317 2048v-585h-586v585h586zM585 585v-585h-585v585h585zM585 1317v-586h-585v586h585zM585 2048v-585h-585v585
h585z" />
    <glyph unicode="&#xe9a3;" 
d="M2048 878v-878h-878v878h878zM878 878v-878h-878v878h878zM2048 2048v-878h-878v878h878zM878 2048v-878h-878v878h878z" />
    <glyph unicode="&#xf01c;" 
d="M1609 878v292h-439v439h-292v-439h-439v-292h439v-439h292v439h439zM2048 1024c0 -566 -458 -1024 -1024 -1024s-1024 458 -1024 1024s458 1024 1024 1024s1024 -458 1024 -1024z" />
    <glyph unicode="&#xf01d;" 
d="M1609 878v292h-439v439h-292v-439h-439v-292h439v-439h292v439h439zM2048 2048v-2048h-2048v2048h2048z" />
    <glyph unicode="&#x2712;" 
d="M1390 2048l658 -658v-732l-1536 -658l-204 204l714 714c43 -25 94 -40 148 -40c162 0 293 131 293 292c0 162 -131 293 -293 293c-161 0 -292 -131 -292 -293c0 -54 15 -105 40 -148l-714 -714l-204 204l658 1536h732z" />
    <glyph unicode="&#xf022;" 
d="M1609 878v292h-1170v-292h1170zM2048 1024c0 -566 -458 -1024 -1024 -1024s-1024 458 -1024 1024s458 1024 1024 1024s1024 -458 1024 -1024z" />
    <glyph unicode="&#xf023;" 
d="M1609 878v292h-1170v-292h1170zM2048 2048v-2048h-2048v2048h2048z" />
    <glyph unicode="&#x1f4dd;" 
d="M1317 731h438v-731h-1755v2048h1024v-439h-585v-1170h878v292zM1792 1426l-768 -768l-439 -73l73 439l768 768zM2048 1682l-183 -183l-366 366l183 183h73l293 -293v-73z" />
    <glyph unicode="&#x1f680;" 
d="M1609 1463c0 81 -65 146 -146 146s-146 -65 -146 -146s65 -146 146 -146s146 65 146 146zM2048 2048c0 -663 -293 -878 -585 -1170v-512l-366 -366h-366v512l-219 219h-512v366l366 366h512c292 292 516 585 1170 585z" />
    <glyph unicode="&#x1f4d5;" 
d="M366 146h1243v293h-1243c-81 0 -147 -66 -147 -146c0 -81 66 -147 147 -147zM1755 2048v-2048h-1462c-162 0 -293 131 -293 293v1462c0 162 131 293 293 293h1462z" />
    <glyph unicode="&#x1f4d6;" 
d="M1097 1682v-1536h-110c-119 81 -201 147 -352 147h-635v1609h658c122 0 439 -49 439 -220zM2341 1902v-1609h-636c-150 0 -232 -66 -352 -147h-110v1536c0 171 318 220 439 220h659z" />
    <glyph unicode="&#x1f4d3;" 
d="M293 2048h1755v-2048h-1755v293h-293v292h293v293h-293v292h293v293h-293v292h293v293zM1609 1170v439h-878v-439h878z" />
    <glyph unicode="&#x1f4f7;" 
d="M1609 1024c0 242 -196 439 -439 439c-242 0 -439 -197 -439 -439s197 -439 439 -439c243 0 439 197 439 439zM2341 1755v-1609h-2341v1609h512l293 293h731l293 -293h512z" />
    <glyph unicode="&#x1f4c1;" 
d="M1243 1609h1098v-1463h-2341v1756h951z" />
    <glyph unicode="&#x201d;" 
d="M0 1024v1024h1024v-1170c0 -603 -455 -878 -878 -878v439c103 0 439 31 439 439v146h-585zM1170 1024v1024h1024v-1170c0 -603 -455 -878 -877 -878v439c103 0 438 31 438 439v146h-585z" />
    <glyph unicode="&#xeb83;" 
d="M664 481c0 -101 -83 -183 -183 -183c-101 0 -183 82 -183 183c0 100 82 183 183 183c100 0 183 -83 183 -183zM1207 256c0 -101 -82 -183 -183 -183s-183 82 -183 183s82 183 183 183s183 -82 183 -183zM439 1024c0 -101 -82 -183 -183 -183s-183 82 -183 183
s82 183 183 183s183 -82 183 -183zM700 1567c0 -121 -98 -219 -219 -219s-219 98 -219 219s98 219 219 219s219 -98 219 -219zM1750 481c0 -101 -82 -183 -183 -183c-100 0 -183 82 -183 183c0 100 83 183 183 183c101 0 183 -83 183 -183zM1975 1024
c0 -101 -82 -183 -183 -183s-183 82 -183 183s82 183 183 183s183 -82 183 -183zM1280 1792c0 -141 -115 -256 -256 -256s-256 115 -256 256s115 256 256 256s256 -115 256 -256zM1860 1567c0 -161 -132 -293 -293 -293s-293 132 -293 293s132 293 293 293
s293 -132 293 -293z" />
    <glyph unicode="&#x1f527;" 
d="M1402 1134h594c-100 -237 -334 -403 -606 -403c-46 0 -90 5 -133 14l-745 -745h-146l-366 366v146l745 745c-9 43 -14 87 -14 133c0 363 295 658 659 658c272 0 506 -166 606 -402h-594l-148 -256z" />
    <glyph unicode="&#x2601;" 
d="M1901 1165c249 -36 440 -249 440 -507c0 -282 -230 -512 -512 -512h-1207c-344 0 -622 279 -622 622c0 290 199 533 467 602c87 307 368 532 703 532c404 0 732 -328 732 -732c0 -2 -1 -4 -1 -5z" />
    <glyph unicode="&#xeb40;" 
d="M1901 1165c249 -36 440 -249 440 -507c0 -282 -230 -512 -512 -512h-512v659l219 -220l219 220l-585 585l-585 -585l220 -220l219 220v-659h-402c-344 0 -622 279 -622 622c0 290 199 533 467 602c87 307 368 532 703 532c404 0 732 -328 732 -732c0 -2 -1 -4 -1 -5z" />
    <glyph unicode="&#xeb00;" 
d="M1901 1165c249 -36 440 -249 440 -507c0 -282 -230 -512 -512 -512h-586l512 512l-219 220l-219 -220v659h-293v-659l-219 220l-220 -220l512 -512h-475c-344 0 -622 279 -622 622c0 290 199 533 467 602c87 307 368 532 703 532c404 0 732 -328 732 -732
c0 -2 -1 -4 -1 -5z" />
    <glyph unicode="&#xf601;" 
d="M1609 878c243 0 439 -197 439 -439c0 -243 -196 -439 -439 -439c-242 0 -438 196 -439 437l-487 222c-70 -47 -154 -74 -244 -74c-243 0 -439 197 -439 439s196 439 439 439c90 0 174 -27 244 -74l487 222c1 241 197 437 439 437c243 0 439 -196 439 -439
c0 -242 -196 -439 -439 -439c-110 0 -210 41 -287 108l-447 -204c2 -16 3 -33 3 -50s-1 -34 -3 -50l447 -204c77 67 177 108 287 108z" />
    <glyph unicode="&#xe8b0;" 
d="M293 293h292v292h-292v-292zM293 878h292v292h-292v-292zM293 1463h292v292h-292v-292zM1755 293h293v292h-293v-292zM1755 878h293v292h-293v-292zM1755 1463h293v292h-293v-292zM2341 1902v-1756h-2341v1756h2341z" />
    <glyph unicode="&#x1f3c6;" 
d="M1755 1755h586v-659c0 -366 -600 -530 -878 -566v-164h439v-366h-1463v366h439v164c-279 36 -878 200 -878 566v659h585v293h1170v-293zM366 1112c36 -56 159 -112 219 -135v413h-219v-278zM1975 1112v278h-220v-413c60 23 183 79 220 135z" />
    <glyph unicode="&#xe780;" 
d="M1499 1426l330 256l512 -658l-512 -658l-330 256l293 402zM1499 1993l-219 -1993l-439 55l220 1993zM841 622l-329 -256l-512 658l512 658l329 -256l-292 -402z" />
    <glyph unicode="&#x1f4e0;" 
d="M475 293c0 60 -49 109 -109 109c-61 0 -110 -49 -110 -109c0 -61 49 -110 110 -110c60 0 109 49 109 110zM0 0v1170h293v-585h1462v585h293v-1170h-2048zM439 731v1317h804l366 -366v-951h-1170z" />
    <glyph unicode="&#xe577;" 
d="M2158 585h183v-585h-659v585h183v293h-548v-293h182v-585h-658v585h183v293h-549v-293h183v-585h-658v585h183v585h841v293h-183v585h658v-585h-182v-293h841v-585z" />
    <glyph unicode="&#xeb41;" 
d="M2048 878v-878h-2048v878h439v-439h1170v439h439zM219 1317l732 731h146l732 -731l-293 -293l-293 293v-732h-438v732l-293 -293z" />
    <glyph unicode="&#xeb01;" 
d="M2048 878v-878h-2048v878h439v-439h1170v439h439zM1829 1317l-805 -805l-805 805l293 292l293 -292v731h438v-731l293 292z" />
    <glyph unicode="&#x1f511;" 
d="M1503 1057l545 -545v-512h-585v293h-293v292h-77c-98 -46 -209 -73 -325 -73c-424 0 -768 344 -768 768s344 768 768 768s768 -344 768 -768c0 -78 -12 -152 -33 -223zM585 1243c121 0 220 99 220 220s-99 219 -220 219s-219 -98 -219 -219s98 -220 219 -220z" />
    <glyph unicode="&#x2615;" 
d="M1609 1755h732v-914c0 -245 -303 -455 -732 -542v-299h-1609v2048h1609v-293zM1902 884v433h-293v-568c156 42 254 100 293 135z" />
    <glyph unicode="&#x1f516;" 
d="M0 0v2048h1755v-2048h-219l-658 366l-659 -366h-219z" />
    <glyph unicode="&#x2691;" 
d="M2341 1902v-1171l-951 -146v293l-951 -147v-731h-439v2048h439v-146l951 146v-293z" />
    <glyph unicode="&#x21aa;" 
d="M1463 731h439v-731h-1902v1902h731v-439h-292v-1024h1024v292zM878 2048h1170v-1170h-439v402l-731 -731l-329 329l731 731h-402v439z" />
    <glyph unicode="&#x263b;" 
d="M1755 1024h-219c0 -282 -230 -512 -512 -512s-512 230 -512 512h-219c0 -403 328 -731 731 -731s731 328 731 731zM914 1390c0 100 -82 183 -183 183c-100 0 -182 -83 -182 -183c0 -101 82 -183 182 -183c101 0 183 82 183 183zM1499 1390c0 100 -82 183 -182 183
c-101 0 -183 -83 -183 -183c0 -101 82 -183 183 -183c100 0 182 82 182 183zM2048 1024c0 -565 -459 -1024 -1024 -1024s-1024 459 -1024 1024s459 1024 1024 1024s1024 -459 1024 -1024z" />
    <glyph unicode="&#x2639;" 
d="M1465 508l203 82c-106 263 -360 434 -644 434s-538 -171 -644 -434l203 -82c73 179 247 297 441 297s368 -118 441 -297zM914 1390c0 100 -82 183 -183 183c-100 0 -182 -83 -182 -183c0 -101 82 -183 182 -183c101 0 183 82 183 183zM1499 1390c0 100 -82 183 -182 183
c-101 0 -183 -83 -183 -183c0 -101 82 -183 183 -183c100 0 182 82 182 183zM2048 1024c0 -565 -459 -1024 -1024 -1024s-1024 459 -1024 1024s459 1024 1024 1024s1024 -459 1024 -1024z" />
    <glyph unicode="&#xe203;" 
d="M613 795l310 -310l-485 -485l-310 310zM1935 1719l94 -241l-256 -279l105 -380l-186 -186l-375 199l-376 -199l-186 187l105 380l-256 278l94 241h332l177 329h219l176 -329h333z" />
    <glyph unicode="&#x2607;" 
d="M1682 1463l-951 -1463h-329l256 878h-585l146 1170h768l-146 -585h841z" />
    <glyph unicode="&#xf4c0;" 
d="M731 2048h586v-585l731 -1170l-183 -293h-1682l-183 293l731 1170v585z" />
    <glyph unicode="&#x1f4cc;" 
d="M1390 2048l658 -658l-366 -366l-146 146l-267 -266c95 -238 47 -519 -145 -711l-356 356l-402 -403l-366 -146l146 366l403 402l-356 356c192 192 473 240 711 145l266 267l-146 146z" />
    <glyph unicode="&#xe012;" 
d="M505 612l958 767v376l-1141 -915c44 -87 113 -162 183 -228zM1755 2048v-1097c0 -404 -572 -798 -877 -951c-305 152 -878 549 -878 951v1097h1755z" />
    <glyph unicode="&#xf068;" 
d="M878 1902l877 -659l-109 -219h-1536l-110 219zM878 0l-878 658l110 220h1536l109 -220z" />
    <glyph unicode="&#x21a9;" 
d="M2341 293v-293h-439v293c0 282 -263 512 -585 512h-439l512 -512l-293 -293l-1024 1024l1024 1024l293 -293l-512 -512h439c564 0 1024 -426 1024 -950z" />
    <glyph unicode="&#xf06a;" 
d="M73 0v293c0 524 459 950 1024 950h439l-512 512l293 293l1024 -1024l-1024 -1024l-293 293l512 512h-439c-323 0 -585 -230 -585 -512v-293h-439z" />
    <glyph unicode="&#xe355;" 
d="M549 1097l512 -695l-366 -256l-695 951l695 951l366 -256zM2341 512v-512h-439v512c0 202 -197 366 -439 366h-21l350 -476l-366 -256l-695 951l695 951l366 -256l-350 -475h21c484 0 878 -361 878 -805z" />
    <glyph unicode="&#xf06c;" 
d="M1792 1097l-512 695l366 256l695 -951l-695 -951l-366 256zM878 1317h21l-350 475l365 256l695 -951l-695 -951l-365 256l350 476h-21c-242 0 -439 -164 -439 -366v-512h-439v512c0 444 394 805 878 805z" />
    <glyph unicode="&#x1f6ab;" 
d="M1024 2048c566 0 1024 -458 1024 -1024s-458 -1024 -1024 -1024s-1024 458 -1024 1024s458 1024 1024 1024zM1024 1609c-323 0 -585 -262 -585 -585c0 -81 16 -158 46 -228l767 767c-70 30 -147 46 -228 46zM1024 439c323 0 585 262 585 585c0 81 -16 158 -46 228
l-767 -767c70 -30 147 -46 228 -46z" />
    <glyph unicode="&#xe7a0;" 
d="M1755 665v-446c0 -189 -760 -219 -877 -219c-118 0 -878 30 -878 219v446c219 -127 625 -153 878 -153c252 0 658 26 877 153zM1755 1324v-446c0 -190 -759 -220 -877 -220c-119 0 -878 31 -878 220v446c219 -128 626 -154 878 -154c251 0 659 26 877 154zM1755 1829
v-293c0 -189 -760 -219 -877 -219s-878 30 -878 219v293c0 189 760 219 878 219c117 0 877 -30 877 -219z" />
    <glyph unicode="&#xeb81;" 
d="M1829 1536l512 -512l-512 -512l-220 37v256h-439l-658 -659h-512v439h329l439 439l-439 439h-329v439h512l658 -659h439v256z" />
    <glyph unicode="&#xeb80;" 
d="M1865 987l476 -475l-476 -475l-256 36v220h-622l-512 512h-475v438h475l512 512h622v220l256 36l476 -475l-476 -475l-256 36v220h-402l-293 -293l293 -293h402v220z" />
    <glyph unicode="&#xeb84;" 
d="M1463 439c0 -162 -131 -293 -293 -293c-161 0 -292 131 -292 293c0 161 131 292 292 292c162 0 293 -131 293 -292zM1942 966l-304 -322c-107 142 -277 234 -468 234s-361 -92 -468 -234l-303 322c188 215 464 351 771 351c308 0 584 -136 772 -351zM2341 1390l-299 -317
c-215 239 -526 390 -872 390s-657 -151 -872 -390l-298 317c293 311 709 512 1170 512s877 -201 1171 -512z" />
    <glyph unicode="&#xe353;" 
d="M2341 2048l-293 -1755l-683 194l-487 -487v549l951 914l-1216 -760l-613 175z" />
    <glyph unicode="&#x1f4e5;" 
d="M2341 878v-732h-2341v732h695l146 -147h658l140 147h702zM1902 1902l439 -878h-768l-147 -146h-512l-146 146h-768l439 878h1463z" />
    <glyph unicode="&#x1f525;" 
d="M1017 538l-78 -99c-316 82 -646 327 -646 681c0 399 512 462 512 647c0 58 -37 133 -67 182l78 99c316 -82 647 -327 647 -681c0 -399 -512 -462 -512 -647c0 -58 36 -133 66 -182zM1755 439v-439h-1755v439h1755z" />
    <glyph unicode="&#x25b6;" 
d="M1755 914l-1536 -914l-219 146v1756l219 146l1536 -914v-220z" />
    <glyph unicode="&#xe8a0;" 
d="M2048 2048v-2048h-731v2048h731zM731 2048v-2048h-731v2048h731z" />
    <glyph unicode="&#xf07b;" 
d="M805 512l731 475v74l-731 475l-74 -37v-950zM1024 2048c566 0 1024 -458 1024 -1024s-458 -1024 -1024 -1024s-1024 458 -1024 1024s458 1024 1024 1024z" />
    <glyph unicode="&#x23ee;" 
d="M0 2048h439v-914l1098 914l218 -146v-1756l-218 -146l-1098 914v-914h-439v2048z" />
    <glyph unicode="&#x1f501;" 
d="M2189 1470c98 -127 152 -285 152 -446c0 -404 -328 -731 -732 -731h-585v-256l-219 -37l-512 512l512 512l219 -37v-256h585c161 0 293 132 293 293c0 44 -11 89 -30 129zM1536 2048l512 -512l-512 -512l-219 37v256h-586c-160 0 -292 -132 -292 -293
c0 -44 10 -89 30 -129l-317 -317c-98 127 -152 285 -152 446c0 404 328 731 731 731h586v256z" />
    <glyph unicode="&#x23e9;" 
d="M1170 1902l219 146l952 -951v-146l-952 -951l-219 146v805l-951 -951l-219 146v1756l219 146l951 -951v805z" />
    <glyph unicode="&#x23ea;" 
d="M951 2048l219 -146v-805l952 951l219 -146v-1756l-219 -146l-952 951v-805l-219 -146l-951 951v146z" />
    <glyph unicode="&#xee04;" 
d="M2341 2048v-878h-439v439h-439v439h878zM2341 878v-878h-878v439h439v439h439zM0 0v878h439v-439h439v-439h-878zM0 1170v878h878v-439h-439v-439h-439z" />
    <glyph unicode="&#xee05;" 
d="M878 878v-878h-439v439h-439v439h878zM878 2048v-878h-878v439h439v439h439zM2341 1609v-439h-878v878h439v-439h439zM1902 439v-439h-439v878h878v-439h-439z" />
    <glyph unicode="&#xf088;" 
d="M0 1902h2341v-1756h-2341v1756zM768 439c187 0 346 127 424 316l-266 123c-31 -88 -90 -147 -158 -147c-101 0 -183 131 -183 293s82 293 183 293c68 0 127 -59 158 -147l266 123c-78 189 -237 316 -424 316c-267 0 -475 -257 -475 -585s208 -585 475 -585zM1646 731
c-101 0 -183 131 -183 293s82 293 183 293c57 0 107 -42 141 -107l268 115c-82 171 -233 284 -409 284c-267 0 -476 -257 -476 -585s209 -585 476 -585c176 0 327 113 409 284l-268 115c-34 -65 -84 -107 -141 -107z" />
    <glyph unicode="&#x1f500;" 
d="M1865 2011l476 -475l-476 -475l-256 36v220h-110l-1024 -1024h-475v438h256l1024 1024h329v220zM1865 987l476 -475l-476 -475l-256 36v220h-329l-329 329l329 329l219 -220h110v220zM475 1755l330 -329l-330 -329l-219 220h-256v438h475z" />
    <glyph unicode="&#x25b2;" 
d="M0 293l987 1755h366l988 -1755l-220 -293h-1902z" />
    <glyph unicode="&#x25cb;" 
d="M2048 1024c0 -566 -458 -1024 -1024 -1024s-1024 458 -1024 1024s458 1024 1024 1024s1024 -458 1024 -1024z" />
    <glyph unicode="&#x2b21;" 
d="M1755 0h-1170l-585 1024l585 1024h1170l586 -1024z" />
    <glyph unicode="&#x2bc3;" 
d="M1448 0h-848l-600 600v848l600 600h848l600 -600v-848z" />
    <glyph unicode="&#xf500;" 
d="M1024 1609l1024 -841l-293 -329l-731 585l-731 -585l-293 329z" />
    <glyph unicode="&#xf501;" 
d="M2048 1280l-1024 -841l-1024 841l293 329l731 -585l731 585z" />
    <glyph unicode="&#xf094;" 
d="M1024 1170l1024 -841l-293 -329l-731 585l-731 -585l-293 329zM1024 2048l1024 -841l-293 -329l-731 585l-731 -585l-293 329z" />
    <glyph unicode="&#xf095;" 
d="M2048 841l-1024 -841l-1024 841l293 329l731 -585l731 585zM2048 1719l-1024 -841l-1024 841l293 329l731 -585l731 585z" />
    <glyph unicode="&#xf096;" 
d="M878 1024l841 1024l329 -293l-585 -731l585 -731l-329 -293zM0 1024l841 1024l329 -293l-585 -731l585 -731l-329 -293z" />
    <glyph unicode="&#xf097;" 
d="M329 2048l841 -1024l-841 -1024l-329 293l585 731l-585 731zM1207 2048l841 -1024l-841 -1024l-329 293l585 731l-585 731z" />
    <glyph unicode="&#x2b06;" 
d="M0 1207l1024 841l1024 -841l-293 -329l-512 439v-1317h-438v1317l-512 -439z" />
    <glyph unicode="&#x2b07;" 
d="M1024 0l-1024 841l293 329l512 -439v1317h438v-1317l512 439l293 -329z" />
    <glyph unicode="&#x1f4ca;" 
d="M439 585v-585h-439v585h439zM1024 1317v-1317h-439v1317h439zM1609 878v-878h-439v878h439zM2194 2048v-2048h-439v2048h439z" />
    <glyph unicode="&#xe570;" 
d="M878 1755v-877h877c0 -485 -393 -878 -877 -878c-485 0 -878 393 -878 878c0 484 393 877 878 877zM2048 1024h-1024v1024c566 0 1024 -458 1024 -1024z" />
    <glyph unicode="&#x2b89;" 
d="M0 1024c0 565 459 1024 1024 1024s1024 -459 1024 -1024s-459 -1024 -1024 -1024s-1024 459 -1024 1024zM1749 1018l-725 725l-725 -725l207 -207l372 372v-890h292v890l372 -372z" />
    <glyph unicode="&#x2b8b;" 
d="M2048 1024c0 -565 -459 -1024 -1024 -1024s-1024 459 -1024 1024s459 1024 1024 1024s1024 -459 1024 -1024zM299 1030l725 -725l725 725l-207 207l-372 -372v890h-292v-890l-372 372z" />
    <glyph unicode="&#x2b88;" 
d="M305 1024l725 -725l207 207l-372 372h890v292h-890l372 372l-207 207zM1024 2048c565 0 1024 -459 1024 -1024s-459 -1024 -1024 -1024s-1024 459 -1024 1024s459 1024 1024 1024z" />
    <glyph unicode="&#x2b8a;" 
d="M1024 2048c565 0 1024 -459 1024 -1024s-459 -1024 -1024 -1024s-1024 459 -1024 1024s459 1024 1024 1024zM1018 299l725 725l-725 725l-207 -207l372 -372h-890v-292h890l-372 -372z" />
    <glyph unicode="&#x25c3;" 
d="M1170 1792v-1536l-219 -110l-878 878l878 878z" />
    <glyph unicode="&#x25b9;" 
d="M219 1902l878 -878l-878 -878l-219 110v1536z" />
    <glyph unicode="&#x2b61;" 
d="M0 1463l585 585l585 -585l-36 -146h-329v-1317h-439v1317h-329z" />
    <glyph unicode="&#x2b63;" 
d="M585 0l-585 585l37 146h329v1317h439v-1317h329l36 -146z" />
    <glyph unicode="&#x2b60;" 
d="M0 1024l585 585l146 -36v-330h1317v-438h-1317v-330l-146 -36z" />
    <glyph unicode="&#x2b62;" 
d="M1463 1609l585 -585l-585 -585l-146 36v330h-1317v438h1317v330z" />
    <glyph unicode="&#xf0ac;" 
d="M1317 622c0 101 -82 183 -183 183h-695v-366h695c101 0 183 82 183 183zM1243 1426c0 101 -82 183 -182 183h-622v-366h622c100 0 182 82 182 183zM1755 622c0 -343 -278 -622 -621 -622h-1134v2048h1061c342 0 621 -279 621 -622c0 -167 -67 -293 -175 -378
c151 -82 248 -224 248 -426z" />
    <glyph unicode="&#xf0ad;" 
d="M1597 1609h-283l-426 -1170h286l-158 -439h-1016l158 439h263l426 1170h-266l159 439h1015z" />
    <glyph unicode="&#xf0ae;" 
d="M1755 293v-293h-1755v293h1755zM1755 2048v-768c0 -472 -385 -841 -877 -841s-878 369 -878 841v768h439v-768c0 -233 184 -402 439 -402c254 0 439 169 439 402v768h438z" />
    <glyph unicode="&#x1f517;" 
d="M1573 841c0 -289 -131 -434 -324 -627c-137 -136 -324 -214 -518 -214c-404 0 -731 326 -731 731c0 240 107 411 271 574l96 -45c-9 -132 15 -266 67 -388c-21 -44 -32 -92 -32 -141c0 -181 148 -329 329 -329c92 0 177 41 241 105c105 104 198 175 198 334
c0 178 -146 283 -261 397l285 285c210 -210 379 -365 379 -682zM2048 1317c0 -214 -91 -396 -241 -545l-125 54c2 121 -21 238 -69 349c21 44 32 93 32 142c0 180 -143 326 -324 326c-91 0 -180 -37 -245 -102c-105 -104 -198 -176 -198 -334c0 -180 144 -281 261 -397
l-285 -285c-215 215 -379 358 -379 682c0 417 424 841 842 841c403 0 731 -328 731 -731z" />
    <glyph unicode="&#xf0b2;" 
d="M2048 0h-2048v402h2048v-402zM1317 549h-1317v402h1317v-402zM2048 1097h-2048v402h2048v-402zM1317 1646h-1317v402h1317v-402z" />
    <glyph unicode="&#xf0b3;" 
d="M2048 0h-2048v402h2048v-402zM1609 549h-1170v402h1170v-402zM2048 1097h-2048v402h2048v-402zM1609 1646h-1170v402h1170v-402z" />
    <glyph unicode="&#xf0b4;" 
d="M2048 0h-2048v402h2048v-402zM2048 549h-1317v402h1317v-402zM2048 1097h-2048v402h2048v-402zM2048 1646h-1317v402h1317v-402z" />
    <glyph unicode="&#xf0b5;" 
d="M2048 0h-2048v402h2048v-402zM2048 549h-2048v402h2048v-402zM2048 1097h-2048v402h2048v-402zM2048 1646h-2048v402h2048v-402z" />
    <glyph unicode="&#xf0ba;" 
d="M1243 146v439h1098v-439h-1098zM1097 1170v-439h-1097v439h1097zM0 585h1097v-439h-1097v439zM0 1902h2341v-585h-2341v585zM1243 731v439h1098v-439h-1098z" />
    <glyph unicode="&#xf0bd;" 
d="M2048 402v-402h-2048v402h2048zM146 1499l439 -475l-439 -475l-146 73v804zM2048 951v-402h-1317v402h1317zM2048 1499v-402h-1317v402h1317zM2048 2048v-402h-2048v402h2048z" />
    <glyph unicode="&#xf0be;" 
d="M0 1024l439 475l146 -73v-804l-146 -73zM2048 0h-2048v402h2048v-402zM2048 549h-1317v402h1317v-402zM2048 1097h-1317v402h1317v-402zM2048 1646h-2048v402h2048v-402z" />
    <glyph unicode="&#xf0c4;" 
d="M1061 1170v-365h-330v-659h-365v659h-366v365h1061zM2341 1902v-439h-586v-1317h-438v1317h-586v439h1610z" />
    <glyph unicode="&#xf0c5;" 
d="M553 439h-474l651 1609h588l651 -1609h-474l-118 292h-706zM1024 1605l-205 -508h410zM2048 0h-2048v293h2048v-293z" />
    <glyph unicode="&#xf0c6;" 
d="M2341 805l-293 -293l293 -293l-220 -219l-292 293l-293 -293l-219 219l292 293l-292 293l219 219l293 -293l292 293zM527 731l320 878h-475l160 439h1317l-160 -439h-375l-319 -878h-468zM106 585h1244l-107 -292h-1243z" />
    <glyph unicode="&#x1f310;" 
d="M1463 805c0 166 -318 219 -441 219h-144c-81 0 -147 66 -147 146c0 81 66 147 147 147h109v-110c0 -60 50 -110 110 -110s110 50 110 110v146c128 127 110 148 110 329c0 101 -82 183 -183 183h-256c-243 0 -439 -196 -439 -439v-208c0 -124 62 -183 144 -265
c48 -48 113 -75 181 -75h112c0 -25 2 -49 2 -73c0 -69 96 -151 146 -183v-369c0 -42 33 -73 74 -73c25 0 48 13 61 34l245 388c38 60 59 131 59 203zM2048 1024c0 -565 -459 -1024 -1024 -1024s-1024 459 -1024 1024s459 1024 1024 1024s1024 -459 1024 -1024z" />
    <glyph unicode="&#xe673;" 
d="M658 658c0 81 -65 147 -146 147s-146 -66 -146 -147c0 -80 65 -146 146 -146s146 66 146 146zM805 1097c0 81 -66 146 -147 146c-80 0 -146 -65 -146 -146s66 -146 146 -146c81 0 147 65 147 146zM1243 1243c0 81 -65 147 -146 147s-146 -66 -146 -147
c0 -80 65 -146 146 -146s146 66 146 146zM1861 910l155 155l-179 178l179 179l-155 155l-179 -178l-178 178l-155 -155l178 -179l-178 -178l155 -155l178 178zM2341 1755v-1755l-732 293l-878 -293l-731 293v1755l731 -293l878 293z" />
    <glyph unicode="&#xe6d0;" 
d="M731 2048c404 0 732 -327 732 -731c0 -119 -26 -232 -79 -330l-543 -987h-219l-543 987c-54 98 -79 211 -79 330c0 404 327 731 731 731zM731 1097c122 0 220 98 220 220c0 121 -98 219 -220 219c-121 0 -219 -98 -219 -219c0 -122 98 -220 219 -220z" />
    <glyph unicode="&#x1f4cd;" 
d="M878 616v-616h-439v616c71 -21 145 -31 219 -31s148 10 220 31zM658 2048c363 0 659 -295 659 -658s-296 -659 -659 -659c-362 0 -658 296 -658 659s295 658 658 658zM439 1463c80 0 146 66 146 146c0 81 -66 146 -146 146c-81 0 -146 -65 -146 -146
c0 -80 65 -146 146 -146z" />
    <glyph unicode="&#xe602;" 
d="M1317 1024l731 439v-1463h-2048v2048h585v-1024l732 439v-439z" />
    <glyph unicode="&#xea00;" 
d="M2048 2048v-1463h-1755v1463h1755zM1609 1024v585h-878v-585h878zM0 439h2341v-439h-2341v439z" />
    <glyph unicode="&#xf0d5;" 
d="M1024 2048c566 0 1024 -458 1024 -1024s-458 -1024 -1024 -1024s-1024 458 -1024 1024s458 1024 1024 1024zM1024 731c161 0 293 132 293 293s-132 293 -293 293s-293 -132 -293 -293s132 -293 293 -293z" />
    <glyph unicode="&#x1f451;" 
d="M2341 1609c0 -108 -59 -202 -147 -253v-1210h-2048v1210c-87 51 -146 145 -146 253c0 162 131 293 293 293c161 0 292 -131 292 -293c0 -151 -115 -275 -262 -291l408 -587l319 612c-101 45 -172 147 -172 266c0 162 131 293 292 293c162 0 293 -131 293 -293
c0 -119 -71 -221 -173 -266l319 -612l408 587c-147 16 -262 140 -262 291c0 162 131 293 293 293s293 -131 293 -293z" />
    <glyph unicode="&#x1f4b3;" 
d="M293 439h292v146h-292v-146zM731 439h586v146h-586v-146zM146 1024h2048v439h-2048v-439zM2341 1902v-1756h-2341v1756h2341z" />
    <glyph unicode="&#xf0da;" 
d="M1317 585v-585h-439v585h439zM2194 1170v-439h-2194v439h2194zM2048 2048v-439h-731v-292h-439v292h-732v439h1902z" />
    <glyph unicode="&#x23cf;" 
d="M2048 585v-439h-2048v439h2048zM1024 1902l1024 -952l-146 -219h-1756l-146 219z" />
    <glyph unicode="&#x2026;" 
d="M2341 951c0 -202 -164 -366 -366 -366s-366 164 -366 366s164 366 366 366s366 -164 366 -366zM1536 951c0 -202 -164 -366 -366 -366s-365 164 -365 366s163 366 365 366s366 -164 366 -366zM731 951c0 -202 -163 -366 -365 -366s-366 164 -366 366s164 366 366 366
s365 -164 365 -366z" />
    <glyph unicode="&#xf0dd;" 
d="M439 0c-182 0 -329 147 -329 329s147 329 329 329s329 -147 329 -329s-147 -329 -329 -329zM439 695c-182 0 -329 147 -329 329s147 329 329 329s329 -147 329 -329s-147 -329 -329 -329zM439 1390c-182 0 -329 147 -329 329s147 329 329 329s329 -147 329 -329
s-147 -329 -329 -329z" />
    <glyph unicode="&#xe002;" 
d="M1634 725l414 -415l-310 -310l-415 414c-130 -77 -283 -121 -445 -121c-485 0 -878 393 -878 877c0 485 393 878 878 878c484 0 877 -393 877 -878c0 -162 -44 -315 -121 -445zM1317 1024v293h-293v292h-293v-292h-292v-293h292v-293h293v293h293z" />
    <glyph unicode="&#x2421;" 
d="M2048 1682l-658 -658l658 -658l-366 -366l-658 658l-658 -658l-366 366l658 658l-658 658l366 366l658 -658l658 658z" />
    <glyph unicode="&#xf00d;" 
d="M1243 1024l293 293l-219 219l-293 -293l-293 293l-219 -219l293 -293l-293 -293l219 -219l293 293l293 -293l219 219zM2048 1024c0 -566 -458 -1024 -1024 -1024s-1024 458 -1024 1024s458 1024 1024 1024s1024 -458 1024 -1024z" />
    <glyph unicode="&#x23f2;" 
d="M1024 2048c566 0 1024 -458 1024 -1024s-458 -1024 -1024 -1024s-1024 458 -1024 1024s458 1024 1024 1024zM1170 731v805h-292v-512h-366v-293h658z" />
    <glyph unicode="&#x22c6;" 
d="M1024 329l-622 -329l-146 146l183 659l-439 475l73 183h549l311 585h182l311 -585h549l73 -183l-439 -475l183 -659l-146 -146z" />
    <glyph unicode="&#x2665;" 
d="M2164 1871c235 -235 233 -615 0 -853c0 0 -236 -236 -994 -1018c-758 782 -993 1018 -993 1018c-233 238 -236 618 0 853c235 236 628 246 853 0c0 0 65 -64 140 -152c76 88 140 152 140 152c226 246 618 236 854 0z" />
    <glyph unicode="&#xe1a0;" 
d="M1170 1719v-1719c-758 782 -993 1018 -993 1018c-233 238 -236 618 0 853c235 236 628 246 853 0c0 0 65 -64 140 -152z" />
    <glyph unicode="&#x1f4c5;" 
d="M0 0v1170h2048v-1170h-2048zM1755 1755h293v-438h-2048v438h293v293h292v-293h878v293h292v-293z" />
    <glyph unicode="&#xe500;" 
d="M1646 256c0 -141 -115 -256 -256 -256c-142 0 -256 115 -256 256s114 256 256 256c141 0 256 -115 256 -256zM768 256c0 -141 -115 -256 -256 -256s-256 115 -256 256s115 256 256 256s256 -115 256 -256zM2048 1298l-380 -713h-1375v1024h-293v439h731v-439h1317v-311z
" />
    <glyph unicode="&#x2b;" 
d="M2048 1243v-438h-805v-805h-438v805h-805v438h805v805h438v-805h805z" />
    <glyph unicode="&#xe0d0;" 
d="M329 0l-146 1463h1682l-146 -1463h-1390zM1463 1902h585v-293h-2048v293h585l146 146h586z" />
    <glyph unicode="&#x2139;" 
d="M1024 2048c566 0 1024 -458 1024 -1024s-458 -1024 -1024 -1024s-1024 458 -1024 1024s458 1024 1024 1024zM1170 439v768h-292v-768h292zM1024 1280c101 0 183 82 183 183s-82 183 -183 183s-183 -82 -183 -183s82 -183 183 -183z" />
    <glyph unicode="&#x201c;" 
d="M2194 1024v-1024h-1024v1170c0 603 455 878 878 878v-439c-103 0 -439 -31 -439 -439v-146h585zM1024 1024v-1024h-1024v1170c0 603 455 878 878 878v-439c-103 0 -439 -31 -439 -439v-146h585z" />
    <glyph unicode="&#x1f381;" 
d="M2048 1317v-586h-146v-731h-732v1170h-292v-1170h-732v731h-146v586h259c-72 80 -113 184 -113 292c0 242 197 439 439 439c130 0 243 -52 329 -150c39 -44 73 -96 109 -143c37 47 74 96 111 143c79 100 203 150 329 150c242 0 439 -197 439 -439
c0 -108 -41 -212 -113 -292h259zM585 1463h297l-190 245c-25 31 -68 47 -107 47c-80 0 -146 -65 -146 -146c0 -80 66 -146 146 -146zM1166 1463h297c80 0 146 66 146 146c0 81 -66 146 -146 146c-39 0 -82 -16 -107 -47z" />
    <glyph unicode="&#xf03c;" 
d="M1024 2048c566 0 1024 -458 1024 -1024s-458 -1024 -1024 -1024s-1024 458 -1024 1024s458 1024 1024 1024zM1170 878v731h-292v-731h292z" />
    <glyph unicode="&#xeb82;" 
d="M1024 439c272 0 501 187 566 439h447c-71 -496 -498 -878 -1013 -878c-251 0 -480 91 -658 241v-241h-366v951h951v-366h-313c103 -91 238 -146 386 -146zM1682 2048h366v-951h-951v366h313c-103 91 -238 146 -386 146c-272 0 -501 -187 -566 -439h-447
c71 496 498 878 1013 878c251 0 480 -91 658 -241v241z" />
    <glyph unicode="&#x2753;" 
d="M1207 475c0 101 -82 183 -183 183s-183 -82 -183 -183c0 -100 82 -182 183 -182s183 82 183 182zM1536 1280c0 278 -256 439 -512 439c-265 0 -466 -150 -505 -417l288 -54c12 122 89 215 217 215c104 0 219 -67 219 -183c0 -201 -365 -231 -365 -549h292
c4 240 366 204 366 549zM2048 1024c0 -565 -459 -1024 -1024 -1024s-1024 459 -1024 1024s459 1024 1024 1024s1024 -459 1024 -1024z" />
    <glyph unicode="&#x1f4bc;" 
d="M1463 731v147h878v-878h-2341v878h878v-147h585zM1755 1609h586v-585h-2341v585h585v293l146 146h878l146 -146v-293zM1463 1609v146h-585v-146h585z" />
    <glyph unicode="&#x1f4a1;" 
d="M1024 439v-293h-86c-31 -87 -114 -146 -207 -146c-92 0 -175 59 -206 146h-86v293h585zM1390 1390c0 -250 -142 -478 -366 -589v-216h-585v216c-224 111 -366 339 -366 589c0 363 295 658 658 658c364 0 659 -295 659 -658z" />
    <glyph unicode="&#x2399;" 
d="M439 0v1317h1170v-951l-366 -366h-804zM0 2048h2048v-1170h-293v585h-1462v-585h-293v1170zM366 1646c60 0 109 49 109 109c0 61 -49 110 -109 110c-61 0 -110 -49 -110 -110c0 -60 49 -109 110 -109z" />
    <glyph unicode="&#x1f4f6;" 
d="M439 293v-293h-439v293h439zM1024 585v-585h-439v585h439zM1609 1170v-1170h-439v1170h439zM2194 2048v-2048h-439v2048h439z" />
    <glyph unicode="&#x1f610;" 
d="M439 658h1170v220h-1170v-220zM914 1390c0 100 -82 183 -183 183c-100 0 -182 -83 -182 -183c0 -101 82 -183 182 -183c101 0 183 82 183 183zM1499 1390c0 100 -82 183 -182 183c-101 0 -183 -83 -183 -183c0 -101 82 -183 183 -183c100 0 182 82 182 183zM2048 1024
c0 -565 -459 -1024 -1024 -1024s-1024 459 -1024 1024s459 1024 1024 1024s1024 -459 1024 -1024z" />
    <glyph unicode="&#x26a0;" 
d="M1353 439c0 100 -82 183 -183 183c-100 0 -183 -83 -183 -183c0 -101 83 -183 183 -183c101 0 183 82 183 183zM1280 731l37 732h-293l37 -732h219zM1353 2048l988 -1755l-220 -293h-1902l-219 293l987 1755h366z" />
    <glyph unicode="&#xf063;" 
d="M1207 585c0 101 -82 183 -183 183s-183 -82 -183 -183c0 -100 82 -183 183 -183s183 83 183 183zM1134 841l36 768h-292l36 -768h220zM2048 1024c0 -565 -459 -1024 -1024 -1024s-1024 459 -1024 1024s459 1024 1024 1024s1024 -459 1024 -1024z" />
    <glyph unicode="&#xe7b0;" 
d="M2121 512c0 81 -65 146 -146 146s-146 -65 -146 -146s65 -146 146 -146s146 65 146 146zM2341 878v-732h-2341v732h2341zM1902 1902l439 -878h-2341l439 878h1463z" />
    <glyph unicode="&#x25a0;" 
d="M2048 2048v-2048h-2048v2048h2048z" />
    <glyph unicode="&#x23ed;" 
d="M1317 2048h438v-2048h-438v914l-1098 -914l-219 146v1756l219 146l1098 -914v914z" />
    <glyph unicode="&#xe808;" 
d="M0 1463h366l292 439h366v-1756h-366l-292 439h-366v878zM2048 1609l293 -292l-293 -293l293 -293l-293 -292l-293 292l-292 -292l-293 292l293 293l-293 293l293 292l292 -292z" />
    <glyph unicode="&#x1f50a;" 
d="M1508 1634c158 -163 247 -383 247 -610c0 -226 -89 -447 -246 -610l-316 305c79 81 124 192 124 305s-45 224 -124 305zM1929 2048c263 -272 412 -645 412 -1024c0 -378 -148 -744 -411 -1016l-316 305c183 190 288 447 288 711s-105 522 -289 712zM0 1463h366l292 439
h366v-1756h-366l-292 439h-366v878z" />
    <glyph unicode="&#x1f509;" 
d="M1508 1634c158 -163 247 -383 247 -610c0 -226 -89 -447 -246 -610l-316 305c79 81 124 192 124 305s-45 224 -124 305zM0 1463h366l292 439h366v-1756h-366l-292 439h-366v878z" />
    <glyph unicode="&#x25c5;" 
d="M841 0l-841 1024l841 1024l329 -293l-585 -731l585 -731z" />
    <glyph unicode="&#x25bb;" 
d="M1170 1024l-841 -1024l-329 293l585 731l-585 731l329 293z" />
    <glyph unicode="&#x2b05;" 
d="M0 1024l841 1024l329 -293l-439 -512h1317v-438h-1317l439 -512l-329 -293z" />
    <glyph unicode="&#x27a1;" 
d="M1207 2048l841 -1024l-841 -1024l-329 293l439 512h-1317v438h1317l-439 512z" />
    <glyph unicode="&#x2702;" 
d="M2048 1939l-803 -915l803 -915c-184 -171 -459 -142 -619 40l-476 542l-99 -112c15 -44 24 -91 24 -140c0 -243 -197 -439 -439 -439c-243 0 -439 196 -439 439c0 242 196 439 439 439c29 0 58 -3 86 -9l136 155l-136 155c-28 -6 -57 -9 -86 -9c-243 0 -439 197 -439 439
c0 243 196 439 439 439c242 0 439 -196 439 -439c0 -49 -9 -96 -24 -140l99 -112l476 542c160 182 428 189 619 40zM329 1609c0 -60 49 -110 110 -110c60 0 110 50 110 110c0 61 -50 110 -110 110c-61 0 -110 -49 -110 -110zM439 329c60 0 110 49 110 110
c0 60 -50 110 -110 110c-61 0 -110 -50 -110 -110c0 -61 49 -110 110 -110z" />
    <glyph unicode="&#x1f4cb;" 
d="M878 1463c80 0 146 66 146 146c0 81 -66 146 -146 146c-81 0 -147 -65 -147 -146c0 -80 66 -146 147 -146zM878 2048c185 0 352 -118 413 -293h464v-1755h-1755v1755h464c62 175 229 293 414 293z" />
    <glyph unicode="&#xf0c2;" 
d="M2341 1170v-292h-805v251c89 74 512 419 512 525c0 59 -54 101 -110 101c-78 0 -123 -49 -163 -110l-244 162c96 145 227 241 407 241c225 0 403 -177 403 -402c0 -155 -218 -378 -318 -476h318zM1000 658l463 -658h-536l-196 277l-195 -277h-536l463 658l-463 659h536
l195 -278l196 278h536z" />
    <glyph unicode="&#xf0c3;" 
d="M1463 2048l-463 -658l463 -659h-536l-196 278l-195 -278h-536l463 659l-463 658h536l195 -277l196 277h536zM2341 0h-805v251c89 74 512 419 512 525c0 59 -54 102 -110 102c-78 0 -123 -49 -163 -111l-244 163c96 145 227 240 407 240c225 0 403 -177 403 -402
c0 -155 -218 -377 -318 -475h318v-293z" />
    <glyph unicode="&#x2302;" 
d="M1902 898v-898h-512v585h-439v-585h-512v898l731 596zM1902 1454l439 -357l-183 -219l-988 804l-987 -804l-183 219l1170 951l439 -357v357h293v-594z" />
    <glyph unicode="&#x1f3e2;" 
d="M0 2048h1463v-2048h-585v439h-293v-439h-585v2048zM585 878v292h-292v-292h292zM585 1463v292h-292v-292h292zM1170 878v292h-292v-292h292zM1170 1463v292h-292v-292h292z" />
    <glyph unicode="&#xea01;" 
d="M1024 293c0 80 -66 146 -146 146c-81 0 -147 -66 -147 -146c0 -81 66 -147 147 -147c80 0 146 66 146 147zM366 585h1024v1097h-1024v-1097zM1755 2048v-2048h-1755v2048h1755z" />
    <glyph unicode="&#x1f4fa;" 
d="M0 293v1609h2341v-1609h-586v-147h-1170v147h-585zM439 1463v-732h1463v732h-1463z" />
    <glyph unicode="&#x1f467;" 
d="M1317 549l731 -220l-73 -329h-1902l-73 329l731 220v86c-111 11 -621 75 -621 243c130 0 240 105 240 236c0 16 -2 31 -5 47c-9 52 -16 103 -16 156c0 387 296 731 695 731s695 -344 695 -731c0 -53 -7 -104 -16 -156c-3 -16 -5 -31 -5 -47c0 -131 110 -236 240 -236
c0 -168 -510 -232 -621 -243v-86z" />
    <glyph unicode="&#x2709;" 
d="M2341 1298v-1152h-2341v1152l1030 -676h281zM2341 1902v-298l-1171 -768l-1170 768v298h2341z" />
    <glyph unicode="&#x1f4de;" 
d="M1463 841l585 -402l-256 -439h-402c-236 34 -541 237 -847 543s-509 611 -543 847v402l439 256l402 -585l-292 -256c133 -236 422 -525 658 -658z" />
    <glyph unicode="&#x1f4ac;" 
d="M0 2048h2048v-1609h-1097l-439 -439h-73v439h-439v1609z" />
    <glyph unicode="&#x1f5ea;" 
d="M0 2048h1609v-1317h-804l-439 -438h-73v438h-293v1317zM1755 1317h293v-1024h-146v-293h-73l-293 293h-951l293 292h877v732z" />
    <glyph unicode="&#x2713;" 
d="M2048 1975l293 -293l-1463 -1463l-878 878l293 293l585 -585z" />
    <glyph unicode="&#x270e;" 
d="M146 658l951 951l512 -512l-951 -951l-658 -146zM1682 2048l366 -366v-146l-293 -293l-512 512l293 293h146z" />
    <glyph unicode="&#x1f44d;" 
d="M0 0v1317h439v-1317h-439zM2048 768c0 -75 -34 -148 -92 -196c12 -31 19 -64 19 -97c0 -83 -42 -162 -110 -210c15 -142 -120 -265 -256 -265h-549c-151 0 -363 130 -475 219v1024l366 366c81 81 146 252 146 366c0 40 33 73 73 73h110c129 0 183 -148 183 -256
c0 -197 -112 -315 -220 -475h476c141 0 256 -116 256 -256c0 -33 -7 -66 -19 -97c58 -48 92 -121 92 -196z" />
    <glyph unicode="&#x1f44e;" 
d="M2048 1280c0 -75 -34 -148 -92 -196c12 -31 19 -64 19 -97c0 -140 -115 -256 -256 -256h-476c108 -160 220 -278 220 -475c0 -108 -54 -256 -183 -256h-110c-40 0 -73 33 -73 73c0 114 -65 285 -146 366l-366 366v1024c112 89 324 219 475 219h549
c136 0 271 -123 256 -265c68 -48 110 -127 110 -210c0 -33 -7 -66 -19 -97c58 -48 92 -121 92 -196zM0 731v1317h439v-1317h-439z" />
    <glyph unicode="&#x2699;" 
d="M1819 1145c13 -80 13 -162 0 -242l201 -116c-46 -193 -149 -371 -293 -507l-200 116c-64 -51 -135 -92 -210 -121v-232c-95 -29 -194 -43 -293 -43s-198 14 -293 43v232c-75 29 -146 70 -210 121l-200 -116c-144 136 -247 314 -293 507l201 116c-13 80 -13 162 0 242
l-201 116c46 193 149 371 293 507l200 -116c64 51 135 92 210 121v232c95 29 194 43 293 43s198 -14 293 -43v-232c75 -29 146 -70 210 -121l200 116c144 -136 247 -314 293 -507zM1024 658c201 0 366 165 366 366s-165 366 -366 366s-366 -165 -366 -366s165 -366 366 -366
z" />
    <glyph unicode="&#x1f4c4;" 
d="M1755 1390v-1390h-1755v2048h1097z" />
    <glyph unicode="&#x1f4b2;" 
d="M1536 786c0 288 -271 366 -512 366c-74 0 -219 29 -219 128c0 102 138 146 219 146c99 0 196 -63 226 -159l280 85c-51 165 -196 254 -360 282v121h-292v-125c-179 -39 -366 -167 -366 -368c0 -260 295 -366 512 -366c85 0 219 -16 219 -128c0 -110 -131 -146 -219 -146
c-99 0 -196 63 -226 159l-280 -85c51 -165 196 -254 360 -282v-121h292v125c179 39 366 167 366 368zM2048 1024c0 -565 -459 -1024 -1024 -1024s-1024 459 -1024 1024s459 1024 1024 1024s1024 -459 1024 -1024z" />
    <glyph unicode="&#x1f4e2;" 
d="M2304 1170c0 -121 -98 -219 -219 -219c-13 0 -25 1 -37 3v-661h-293l-585 438h-236l200 -548l-512 -183l-266 731h-210l-146 147v585l146 146h1024l585 439h293v-662c12 2 24 4 37 4c121 0 219 -99 219 -220z" />
    <glyph unicode="&#xee03;" 
d="M731 1829l805 -805l-805 -805l-292 293l292 293h-731v438h731l-292 293zM2194 2048v-2048h-877v439h438v1170h-438v439h877z" />
    <glyph unicode="&#xee02;" 
d="M878 439v-439h-878v2048h878v-439h-439v-1170h439zM1463 1829l804 -805l-804 -805l-293 293l293 293h-732v438h732l-293 293z" />
    <glyph unicode="&#x1f4f9;" 
d="M2121 1902h220v-1756h-220l-512 512v-512h-1609v1756h1609v-512z" />
    <glyph unicode="&#x266b;" 
d="M658 1755l1683 293v-1536c0 -202 -230 -366 -512 -366c-283 0 -512 164 -512 366s229 366 512 366c50 0 99 -6 146 -16v464l-951 -165v-795c0 -202 -229 -366 -512 -366s-512 164 -512 366s229 365 512 365c51 0 100 -5 146 -15v1039z" />
    <glyph unicode="&#x1f514;" 
d="M2048 731v-438h-731c0 -162 -131 -293 -293 -293s-293 131 -293 293h-731v438h146c81 0 147 66 147 147v439c0 412 342 745 758 731c396 -15 704 -352 704 -749v-421c0 -81 66 -147 147 -147h146z" />
    <glyph unicode="&#x1f515;" 
d="M2048 731h146v-438h-731c0 -162 -131 -293 -293 -293c-153 0 -279 118 -291 268l1023 695v-85c0 -81 65 -147 146 -147zM2084 2048l256 -329l-2084 -1463l-256 366l439 300v395c0 412 342 745 758 731c208 -8 392 -105 519 -252z" />
    <glyph unicode="&#x1f508;" 
d="M1024 1902v-1756h-366l-292 439h-366v878h366l292 439h366z" />
    <glyph unicode="&#x25b4;" 
d="M878 1536l877 -878l-109 -219h-1536l-110 219z" />
    <glyph unicode="&#x1f4ce;" 
d="M2048 1318c0 -133 -37 -265 -107 -379l-87 37c-17 149 -94 288 -211 381c-20 164 -161 289 -325 289c-86 0 -171 -35 -232 -96l-588 -588c-61 -61 -96 -146 -96 -232c0 -180 149 -328 328 -328c86 0 171 35 232 96c59 58 384 356 384 411c0 34 -29 63 -63 63
c-56 0 -390 -363 -453 -427l-285 284l409 409c86 87 207 136 329 136c257 0 466 -209 466 -465c0 -123 -50 -243 -137 -329l-366 -366c-135 -136 -325 -214 -516 -214c-402 0 -730 328 -730 730c0 192 78 381 214 516l588 588c135 136 324 214 516 214
c402 0 730 -328 730 -730z" />
    <glyph unicode="&#xe202;" 
d="M439 2048h1609v-1609h-1609v1609zM293 293h1316v-293h-1609v1609h293v-1316z" />
    <glyph unicode="&#xed50;" 
d="M585 366c0 -162 -131 -293 -292 -293c-162 0 -293 131 -293 293c0 161 131 292 293 292c161 0 292 -131 292 -292zM585 1024c0 -162 -131 -293 -292 -293c-162 0 -293 131 -293 293s131 293 293 293c161 0 292 -131 292 -293zM585 1682c0 -161 -131 -292 -292 -292
c-162 0 -293 131 -293 292c0 162 131 293 293 293c161 0 292 -131 292 -293zM2341 585v-439h-1610v439h1610zM2341 1902v-439h-1610v439h1610zM2341 1243v-438h-1610v438h1610z" />
    <glyph unicode="&#xf0bc;" 
d="M731 293v-293h-694v300l67 43c165 105 335 259 335 317c0 39 -33 71 -73 71c-38 0 -86 -29 -132 -89c-12 -17 -24 -32 -37 -47l-197 200c5 5 10 13 17 21c50 68 157 208 349 208c201 0 365 -164 365 -366c0 -58 -25 -191 -211 -365h211zM585 2048v-951h-292v499l-74 -83
l-219 192l299 343h286zM878 585h1463v-439h-1463v439zM878 1902h1463v-439h-1463v439zM878 1243h1463v-438h-1463v438z" />
    <glyph unicode="&#x21ba;" 
d="M1024 2048c564 0 1024 -460 1024 -1024s-460 -1024 -1024 -1024c-330 0 -641 161 -833 429l357 255c110 -152 288 -245 476 -245c322 0 585 263 585 585s-263 585 -585 585c-141 0 -280 -53 -386 -146h240v-366h-878v951h366v-240c183 154 418 240 658 240z" />
    <glyph unicode="&#x21bb;" 
d="M1024 2048c240 0 475 -86 658 -240v240h366v-951h-878v366h240c-106 93 -245 146 -386 146c-322 0 -585 -263 -585 -585s263 -585 585 -585c188 0 366 93 476 245l357 -255c-192 -268 -503 -429 -833 -429c-564 0 -1024 460 -1024 1024s460 1024 1024 1024z" />
    <glyph unicode="&#xe670;" 
d="M0 731v330l1865 987l183 -183l-987 -1865h-330v731h-731z" />
    <glyph unicode="&#x1f4bb;" 
d="M2341 2048v-1609h-825l239 -220v-219h-1170v219l240 220h-825v1609h2341zM1902 878v731h-1463v-731h1463z" />
    <glyph unicode="&#x1f464;" 
d="M1317 585l731 -219l-73 -366h-1902l-73 366l731 219v61c-266 117 -438 380 -438 671c0 403 327 731 731 731s731 -328 731 -731c0 -291 -172 -554 -438 -671v-61z" />
    <glyph unicode="&#xea02;" 
d="M805 293c0 80 -66 146 -147 146s-146 -66 -146 -146c0 -81 65 -147 146 -147s147 66 147 147zM366 585h585v1097h-585v-1097zM1317 2048v-2048h-1317v2048h1317z" />
    <glyph unicode="&#x25be;" 
d="M1646 1463l109 -220l-877 -877l-878 877l110 220h1536z" />
    <glyph unicode="&#x1f513;" 
d="M1573 2048h73c382 0 695 -312 695 -695v-475h-439v475c0 141 -115 256 -256 256h-73c-141 0 -256 -115 -256 -256v-183h292v-1170h-1609v1170h878v183c0 383 312 695 695 695z" />
    <glyph unicode="&#x1f512;" 
d="M585 1170h585v183c0 141 -115 256 -256 256h-73c-141 0 -256 -115 -256 -256v-183zM1755 1170v-1170h-1755v1170h146v183c0 383 312 695 695 695h73c383 0 695 -312 695 -695v-183h146z" />
    <glyph unicode="&#x2d;" 
d="M2048 1243v-438h-2048v438h2048z" />
    <glyph unicode="&#x1f440;" 
d="M1609 1024c0 -242 -197 -439 -439 -439s-439 197 -439 439s197 439 439 439s439 -197 439 -439zM1940 1024c-152 289 -433 512 -770 512s-617 -223 -769 -512c152 -289 432 -512 769 -512s618 223 770 512zM2341 1024c-188 -492 -626 -878 -1171 -878
c-544 0 -982 386 -1170 878c188 492 626 878 1170 878c545 0 983 -386 1171 -878z" />
    <glyph unicode="&#xe100;" 
d="M768 1463c0 100 -82 183 -183 183c-100 0 -183 -83 -183 -183c0 -101 83 -183 183 -183c101 0 183 82 183 183zM951 2048l1097 -1097l-951 -951l-1097 1097v732l219 219h732z" />
    <glyph unicode="&#x1f304;" 
d="M0 1902h2341v-1756h-2341v1756zM2048 439v219l-366 366l-219 -219l-658 658l-512 -512v-512h1755zM1829 1170c121 0 219 99 219 220s-98 219 -219 219c-122 0 -220 -98 -220 -219s98 -220 220 -220z" />
    <glyph unicode=" " horiz-adv-x="0" 
 />
    <glyph unicode="A" horiz-adv-x="0" 
 />
    <glyph unicode="C" horiz-adv-x="0" 
 />
    <glyph unicode="B" horiz-adv-x="0" 
 />
    <glyph unicode="E" horiz-adv-x="0" 
 />
    <glyph unicode="D" horiz-adv-x="0" 
 />
    <glyph unicode="G" horiz-adv-x="0" 
 />
    <glyph unicode="F" horiz-adv-x="0" 
 />
    <glyph unicode="I" horiz-adv-x="0" 
 />
    <glyph unicode="H" horiz-adv-x="0" 
 />
    <glyph unicode="K" horiz-adv-x="0" 
 />
    <glyph unicode="J" horiz-adv-x="0" 
 />
    <glyph unicode="M" horiz-adv-x="0" 
 />
    <glyph unicode="L" horiz-adv-x="0" 
 />
    <glyph unicode="O" horiz-adv-x="0" 
 />
    <glyph unicode="N" horiz-adv-x="0" 
 />
    <glyph unicode="Q" horiz-adv-x="0" 
 />
    <glyph unicode="P" horiz-adv-x="0" 
 />
    <glyph unicode="S" horiz-adv-x="0" 
 />
    <glyph unicode="R" horiz-adv-x="0" 
 />
    <glyph unicode="U" horiz-adv-x="0" 
 />
    <glyph unicode="T" horiz-adv-x="0" 
 />
    <glyph unicode="W" horiz-adv-x="0" 
 />
    <glyph unicode="V" horiz-adv-x="0" 
 />
    <glyph unicode="Y" horiz-adv-x="0" 
 />
    <glyph unicode="X" horiz-adv-x="0" 
 />
    <glyph unicode="Z" horiz-adv-x="0" 
 />
    <glyph unicode="a" horiz-adv-x="0" 
 />
    <glyph unicode="c" horiz-adv-x="0" 
 />
    <glyph unicode="b" horiz-adv-x="0" 
 />
    <glyph unicode="e" horiz-adv-x="0" 
 />
    <glyph unicode="d" horiz-adv-x="0" 
 />
    <glyph unicode="g" horiz-adv-x="0" 
 />
    <glyph unicode="f" horiz-adv-x="0" 
 />
    <glyph unicode="i" horiz-adv-x="0" 
 />
    <glyph unicode="h" horiz-adv-x="0" 
 />
    <glyph unicode="k" horiz-adv-x="0" 
 />
    <glyph unicode="j" horiz-adv-x="0" 
 />
    <glyph unicode="m" horiz-adv-x="0" 
 />
    <glyph unicode="l" horiz-adv-x="0" 
 />
    <glyph unicode="o" horiz-adv-x="0" 
 />
    <glyph unicode="n" horiz-adv-x="0" 
 />
    <glyph unicode="q" horiz-adv-x="0" 
 />
    <glyph unicode="p" horiz-adv-x="0" 
 />
    <glyph unicode="s" horiz-adv-x="0" 
 />
    <glyph unicode="r" horiz-adv-x="0" 
 />
    <glyph unicode="u" horiz-adv-x="0" 
 />
    <glyph unicode="t" horiz-adv-x="0" 
 />
    <glyph unicode="w" horiz-adv-x="0" 
 />
    <glyph unicode="v" horiz-adv-x="0" 
 />
    <glyph unicode="y" horiz-adv-x="0" 
 />
    <glyph unicode="x" horiz-adv-x="0" 
 />
    <glyph unicode="z" horiz-adv-x="0" 
 />
  </font>
</defs>
</svg>
