<?xml version="1.0" standalone="no"?>
<!DOCTYPE svg PUBLIC "-//W3C//DTD SVG 1.1//EN" "http://www.w3.org/Graphics/SVG/1.1/DTD/svg11.dtd" >
<svg xmlns="http://www.w3.org/2000/svg" xmlns:xlink="http://www.w3.org/1999/xlink" version="1.1">
<metadata>
Created by FontForge 20160405 at Sun Nov 13 15:17:02 2016
 By www-data
Copyright (c) The Font Bureau, Inc., 2008. All rights reserved.
</metadata>
<defs>
<font id="HeronSans-SemiBold" horiz-adv-x="555" >
  <font-face 
    font-family="HeronSans SemiBold"
    font-weight="600"
    font-stretch="normal"
    units-per-em="1000"
    panose-1="2 0 5 3 4 0 0 2 0 4"
    ascent="800"
    descent="-200"
    x-height="536"
    cap-height="750"
    bbox="-68 -269 1271 1017"
    underline-thickness="50"
    underline-position="-100"
    unicode-range="U+0020-FB04"
  />
<missing-glyph horiz-adv-x="500" 
d="M0 0v700h500v-700h-500zM50 650v-600h400v600h-400z" />
    <glyph glyph-name="f_i" unicode="fi" horiz-adv-x="604" 
d="M95 0v418h-76v118h76v70c0 112 32 174 170 174h76v-126h-57c-40 0 -45 -16 -45 -54v-64h102v-118h-102v-418h-144zM401 0v536h144v-536h-144zM401 600v139h145v-139h-145z" />
    <glyph glyph-name="f_l" unicode="fl" horiz-adv-x="604" 
d="M401 0v780h144v-780h-144zM95 0v418h-76v118h76v70c0 112 32 174 170 174h76v-126h-57c-40 0 -45 -16 -45 -54v-64h102v-118h-102v-418h-144z" />
    <glyph glyph-name="f_f" unicode="ff" horiz-adv-x="660" 
d="M95 0v418h-76v118h76v70c0 112 32 174 170 174h76v-126h-57c-40 0 -45 -16 -45 -54v-64h162v70c0 112 32 174 171 174h75v-126h-58c-39 0 -44 -16 -44 -54v-64h102v-118h-102v-418h-144v418h-162v-418h-144z" />
    <glyph glyph-name="f_f_i" unicode="ffi" horiz-adv-x="910" 
d="M95 0v418h-76v118h76v70c0 112 32 174 170 174h76v-126h-57c-40 0 -45 -16 -45 -54v-64h162v70c0 112 32 174 171 174h75v-126h-58c-39 0 -44 -16 -44 -54v-64h102v-118h-102v-418h-144v418h-162v-418h-144zM708 0v536h143v-536h-143zM706 600v139h146v-139h-146z" />
    <glyph glyph-name="f_f_l" unicode="ffl" horiz-adv-x="910" 
d="M95 0v414h-76v123h76v69c0 112 32 174 170 174h76v-132h-57c-40 0 -45 -16 -45 -54v-57h162v69c0 112 32 174 171 174h75v-132h-58c-39 0 -44 -16 -44 -54v-57h102v-123h-102v-414h-144v414h-162v-414h-144zM708 0v780h143v-780h-143z" />
    <glyph glyph-name="f_j" unicode="fj" horiz-adv-x="604" 
d="M95 0v418h-76v118h76v70c0 112 32 174 170 174h76v-126h-57c-40 0 -45 -16 -45 -54v-64h102v-118h-102v-418h-144zM323 -198v125h33c38 0 45 16 45 59v550h144v-571c0 -109 -45 -163 -171 -163h-51zM401 600v139h145v-139h-145z" />
    <glyph glyph-name="f_t" unicode="ft" horiz-adv-x="695" 
d="M95 0v418h-76v118h76v69c0 112 37 175 176 175h70v-126h-52c-42 0 -50 -20 -50 -59v-59h155v165h144v-165h124v-118h-124v-243c0 -40 5 -57 44 -57h80v-118h-97c-139 0 -171 53 -171 171v247h-155v-418h-144z" />
    <glyph glyph-name=".notdef" horiz-adv-x="500" 
d="M0 0v700h500v-700h-500zM50 650v-600h400v600h-400z" />
    <glyph glyph-name="space" unicode=" " horiz-adv-x="179" 
 />
    <glyph glyph-name="uni00A0" unicode="&#xa0;" horiz-adv-x="179" 
 />
    <glyph glyph-name="space.en" unicode="&#x2002;" horiz-adv-x="500" 
 />
    <glyph glyph-name="space.em" unicode="&#x2003;" horiz-adv-x="1000" 
 />
    <glyph glyph-name="space.thin" unicode="&#x2009;" horiz-adv-x="125" 
 />
    <glyph glyph-name="zero" unicode="0" horiz-adv-x="617" 
d="M309 -8c-166 0 -268 81 -268 256v254c0 176 103 256 268 256s267 -80 267 -256v-254c0 -175 -102 -256 -267 -256zM309 118c88 0 120 45 120 138v234c0 94 -32 139 -120 139c-89 0 -121 -45 -121 -139v-234c0 -93 32 -138 121 -138z" />
    <glyph glyph-name="zero.salt_slash" horiz-adv-x="617" 
d="M309 -8c-166 0 -268 81 -268 256v254c0 176 103 256 268 256s267 -80 267 -256v-254c0 -175 -102 -256 -267 -256zM309 114c94 0 124 49 124 142v234c0 8 -1 17 -1 25l-172 -396c14 -3 30 -5 49 -5zM185 256v-23l170 395c-13 3 -29 5 -46 5c-95 0 -124 -49 -124 -143
v-234z" />
    <glyph glyph-name="one" unicode="1" horiz-adv-x="367" 
d="M138 0v619h-123l22 131h248v-750h-147z" />
    <glyph glyph-name="two" unicode="2" horiz-adv-x="562" 
d="M34 0v115c0 290 353 264 353 428c0 63 -32 89 -104 89c-65 0 -104 -28 -110 -116l-139 13c8 127 67 229 246 229c212 0 249 -96 249 -215c0 -244 -353 -235 -353 -404v-12h362v-127h-504z" />
    <glyph glyph-name="three" unicode="3" horiz-adv-x="589" 
d="M293 -8c-200 0 -253 97 -265 235l141 14c8 -84 41 -126 124 -126c79 0 116 31 116 110s-31 104 -108 104h-115v122h114c78 0 100 32 100 92c0 54 -26 88 -108 88c-80 0 -111 -37 -118 -114l-137 14c11 133 71 227 256 227c187 0 250 -71 250 -189
c0 -89 -24 -139 -100 -166c85 -25 108 -82 108 -187c0 -148 -77 -224 -258 -224z" />
    <glyph glyph-name="four" unicode="4" horiz-adv-x="606" 
d="M360 0v157h-328v118l277 475h153l-279 -475h177v166h136v-166h86v-118h-86v-157h-136z" />
    <glyph glyph-name="five" unicode="5" horiz-adv-x="582" 
d="M293 -8c-187 0 -245 74 -260 234l139 13c7 -86 36 -124 121 -124c79 0 112 38 112 111v39c0 84 -35 117 -117 117c-47 0 -94 -13 -119 -26l-119 42l11 352h453l-23 -131h-302l-6 -154c25 18 80 34 133 34c139 0 228 -39 228 -222v-50c0 -165 -76 -235 -251 -235z" />
    <glyph glyph-name="six" unicode="6" horiz-adv-x="591" 
d="M300 -8c-155 0 -258 72 -258 230v280c0 175 94 256 255 256c145 0 243 -52 256 -207l-139 -13c-6 72 -42 93 -117 93c-76 0 -114 -40 -114 -123v-79c27 36 72 58 145 58c150 0 231 -65 231 -223v-38c0 -166 -100 -234 -259 -234zM300 119c76 0 118 39 118 111v24
c0 78 -42 111 -118 111c-75 0 -117 -35 -117 -111v-24c0 -74 41 -111 117 -111z" />
    <glyph glyph-name="seven" unicode="7" horiz-adv-x="513" 
d="M101 0l242 619h-330l23 131h456v-131l-244 -619h-147z" />
    <glyph glyph-name="eight" unicode="8" horiz-adv-x="597" 
d="M299 -8c-198 0 -263 98 -263 199v36c0 80 23 144 111 177c-79 29 -105 78 -105 146v29c0 102 82 179 257 179s256 -73 256 -179v-29c0 -67 -27 -117 -106 -146c90 -33 113 -96 113 -177v-36c0 -101 -66 -199 -263 -199zM299 109c83 0 123 41 123 100v28
c0 61 -40 103 -123 103s-123 -42 -123 -103v-28c0 -59 39 -100 123 -100zM299 450c77 0 115 35 115 86v16c0 51 -38 86 -115 86c-78 0 -116 -35 -116 -86v-16c0 -51 38 -86 116 -86z" />
    <glyph glyph-name="nine" unicode="9" horiz-adv-x="591" 
d="M293 -8c-144 0 -241 52 -254 207l139 13c6 -69 37 -97 115 -97c77 0 116 41 116 125v81c-23 -35 -73 -57 -145 -57c-150 0 -231 64 -231 223v37c0 166 98 234 258 234c156 0 258 -72 258 -230v-280c0 -176 -94 -256 -256 -256zM291 381c76 0 118 33 118 109v25
c0 74 -42 112 -118 112s-118 -39 -118 -112v-25c0 -78 42 -109 118 -109z" />
    <glyph glyph-name="A" unicode="A" horiz-adv-x="615" 
d="M17 0l209 750h163l209 -750h-147l-43 159h-206l-41 -159h-144zM229 276h152l-75 285h-2z" />
    <glyph glyph-name="B" unicode="B" horiz-adv-x="613" 
d="M66 0v750h251c146 0 238 -40 238 -172v-28c0 -80 -35 -127 -106 -143c96 -17 124 -71 124 -160v-55c0 -127 -71 -192 -236 -192h-271zM210 117h124c70 0 96 22 96 89v43c0 68 -30 86 -96 86h-124v-218zM210 451h110c63 0 93 16 93 75v28c0 61 -30 76 -93 76h-110v-179z
" />
    <glyph glyph-name="C" unicode="C" horiz-adv-x="598" 
d="M308 -8c-158 0 -267 81 -267 256v254c0 176 111 256 267 256c169 0 246 -57 261 -232l-143 -19c-7 87 -35 121 -118 121c-84 0 -120 -53 -120 -141v-228c0 -87 30 -140 120 -140c87 0 112 35 120 125l140 -18c-18 -165 -89 -234 -260 -234z" />
    <glyph glyph-name="D" unicode="D" horiz-adv-x="627" 
d="M66 0v750h254c165 0 266 -74 266 -250v-250c0 -175 -101 -250 -266 -250h-254zM213 125h107c89 0 119 39 119 134v228c0 96 -30 134 -119 134h-107v-496z" />
    <glyph glyph-name="E" unicode="E" 
d="M66 0v750h450l-23 -131h-280v-164h204v-133h-204v-195h280l23 -127h-450z" />
    <glyph glyph-name="F" unicode="F" horiz-adv-x="542" 
d="M66 0v750h450l-23 -131h-280v-164h201v-133h-201v-322h-147z" />
    <glyph glyph-name="G" unicode="G" horiz-adv-x="610" 
d="M308 -8c-158 0 -267 81 -267 256v254c0 176 111 254 267 254c167 0 246 -55 260 -218l-143 -20c-5 80 -34 111 -117 111c-84 0 -120 -52 -120 -139v-231c0 -87 35 -142 120 -142c101 0 130 38 130 142v28h-132v121h267v-151c0 -198 -110 -265 -265 -265z" />
    <glyph glyph-name="H" unicode="H" horiz-adv-x="658" 
d="M66 0v750h147v-278h231v278h147v-750h-147v334h-231v-334h-147z" />
    <glyph glyph-name="I" unicode="I" horiz-adv-x="293" 
d="M73 0v750h146v-750h-146z" />
    <glyph glyph-name="J" unicode="J" horiz-adv-x="353" 
d="M22 0v127h33c84 0 98 24 98 118v505h146v-510c0 -165 -39 -240 -241 -240h-36z" />
    <glyph glyph-name="K" unicode="K" horiz-adv-x="611" 
d="M72 0v750h147v-285l210 285h158l-215 -287l226 -463h-159l-167 341l-53 -69v-272h-147z" />
    <glyph glyph-name="L" unicode="L" horiz-adv-x="540" 
d="M66 0v750h147v-623h280l23 -127h-450z" />
    <glyph glyph-name="M" unicode="M" horiz-adv-x="814" 
d="M66 0v750h187l154 -536h2l152 536h186v-750h-147v455h-2l-126 -455h-131l-130 455h-2v-455h-143z" />
    <glyph glyph-name="N" unicode="N" horiz-adv-x="658" 
d="M66 0v750h153l229 -462h2v462h141v-750h-144l-235 480h-2v-480h-144z" />
    <glyph glyph-name="O" unicode="O" horiz-adv-x="630" 
d="M315 -8c-168 0 -274 81 -274 256v254c0 176 107 256 274 256s274 -80 274 -256v-254c0 -175 -107 -256 -274 -256zM315 119c90 0 127 45 127 140v228c0 96 -37 141 -127 141s-127 -45 -127 -141v-228c0 -95 37 -140 127 -140z" />
    <glyph glyph-name="P" unicode="P" horiz-adv-x="603" 
d="M66 0v750h254c177 0 253 -62 253 -205v-64c0 -142 -76 -206 -253 -206h-107v-275h-147zM213 397h112c77 0 105 22 105 92v42c0 70 -28 91 -105 91h-112v-225z" />
    <glyph glyph-name="Q" unicode="Q" horiz-adv-x="630" 
d="M315 -5c-168 0 -274 78 -274 253v254c0 176 107 256 274 256s274 -80 274 -256v-254c0 -93 -33 -161 -92 -203l81 -169h-154l-58 122c-17 -2 -34 -3 -51 -3zM315 117c90 0 127 43 127 141v229c0 96 -37 141 -127 141s-127 -45 -127 -141v-229c0 -95 37 -141 127 -141z
" />
    <glyph glyph-name="R" unicode="R" horiz-adv-x="610" 
d="M440 0l-141 279h-86v-279h-147v750h250c177 0 251 -63 251 -206v-59c0 -84 -28 -150 -124 -184l152 -301h-155zM213 402h108c77 0 105 21 105 92v37c0 70 -28 91 -105 91h-108v-220z" />
    <glyph glyph-name="S" unicode="S" horiz-adv-x="591" 
d="M291 -8c-185 0 -248 80 -263 220l140 21c12 -93 47 -118 124 -118c94 0 124 31 124 100c0 67 -45 84 -130 109c-128 35 -241 66 -241 222c0 126 66 212 250 212s240 -85 251 -214l-142 -20c-6 86 -36 107 -109 107c-74 0 -109 -21 -109 -81c0 -64 54 -79 138 -101
c128 -34 233 -67 233 -226c0 -141 -63 -231 -266 -231z" />
    <glyph glyph-name="T" unicode="T" horiz-adv-x="558" 
d="M206 0v619h-189v131h525v-131h-189v-619h-147z" />
    <glyph glyph-name="U" unicode="U" horiz-adv-x="633" 
d="M316 -8c-168 0 -262 81 -262 256v502h146v-490c0 -93 26 -139 116 -139c91 0 117 46 117 139v490h146v-502c0 -175 -96 -256 -263 -256z" />
    <glyph glyph-name="V" unicode="V" horiz-adv-x="615" 
d="M226 0l-209 750h147l145 -550h2l143 550h144l-209 -750h-163z" />
    <glyph glyph-name="W" unicode="W" horiz-adv-x="912" 
d="M198 0l-185 750h147l114 -501h2l110 501h144l109 -501h2l116 501h143l-186 -750h-150l-106 493h-2l-108 -493h-150z" />
    <glyph glyph-name="X" unicode="X" horiz-adv-x="591" 
d="M8 0l210 389l-193 361h155l121 -226l118 226h147l-194 -359l210 -391h-155l-138 257l-134 -257h-147z" />
    <glyph glyph-name="Y" unicode="Y" horiz-adv-x="600" 
d="M226 0v301l-220 449h152l145 -307h2l146 307h143l-220 -449v-301h-148z" />
    <glyph glyph-name="Z" unicode="Z" horiz-adv-x="532" 
d="M29 0v126l296 493h-284v131h450v-130l-295 -493h308v-127h-475z" />
    <glyph glyph-name="a" unicode="a" horiz-adv-x="521" 
d="M196 -7c-113 0 -168 54 -168 166c0 114 61 170 240 170h66v37c0 40 -9 64 -65 64c-58 0 -71 -14 -80 -60l-140 22c21 108 74 152 225 152c156 0 201 -61 201 -182v-362h-141v57c-25 -38 -60 -64 -138 -64zM258 103c53 0 77 26 77 76v52h-72c-72 0 -96 -18 -96 -63
c0 -50 24 -65 91 -65z" />
    <glyph glyph-name="b" unicode="b" horiz-adv-x="548" 
d="M319 -8c-56 0 -98 24 -122 61v-53h-144v780h144v-301c27 40 68 65 134 65c142 0 185 -78 185 -197v-158c0 -117 -47 -197 -197 -197zM286 110c58 0 86 31 86 81v155c0 51 -28 81 -86 81c-56 0 -89 -28 -89 -76v-160c0 -50 31 -81 89 -81z" />
    <glyph glyph-name="c" unicode="c" horiz-adv-x="501" 
d="M256 -8c-171 0 -224 93 -224 204v144c0 114 55 204 224 204c168 0 207 -67 220 -178l-140 -21c-6 53 -19 80 -80 80c-63 0 -81 -35 -81 -82v-154c0 -46 18 -81 81 -81c65 0 73 22 82 76l132 -20c-14 -96 -50 -172 -214 -172z" />
    <glyph glyph-name="d" unicode="d" horiz-adv-x="549" 
d="M219 -8c-141 0 -187 79 -187 197v158c0 118 43 197 192 197c57 0 100 -25 128 -63v299h144v-780h-144v54c-26 -39 -66 -62 -133 -62zM262 108c56 0 88 27 90 75v164c0 47 -33 78 -90 78c-58 0 -86 -32 -86 -82v-154c0 -51 28 -81 86 -81z" />
    <glyph glyph-name="e" unicode="e" horiz-adv-x="508" 
d="M256 -8c-166 0 -224 93 -224 204v144c0 114 57 204 224 204c169 0 220 -89 220 -223v-96h-304v-44c0 -46 15 -81 84 -81c68 0 77 25 83 73l137 -21c-10 -80 -54 -160 -220 -160zM172 326h165v27c0 52 -20 79 -81 79c-63 0 -84 -32 -84 -79v-27z" />
    <glyph glyph-name="f" unicode="f" horiz-adv-x="375" 
d="M95 0v418h-76v118h76v69c0 112 37 175 176 175h92v-126h-74c-42 0 -50 -20 -50 -59v-59h124v-118h-124v-418h-144z" />
    <glyph glyph-name="g" unicode="g" horiz-adv-x="517" 
d="M256 176h-13h-6c-37 0 -43 -7 -43 -25s6 -24 40 -24l54 -2c175 -4 212 -53 212 -150v-12c0 -83 -40 -163 -243 -163c-208 0 -242 60 -242 142v12c0 46 25 84 78 109c-12 17 -17 38 -17 62c0 35 13 60 39 77c-63 31 -82 85 -82 139v34c0 84 44 167 220 167
c29 0 55 -2 77 -6h170v-115h-48c10 -20 16 -43 16 -61v-21c0 -79 -38 -163 -212 -163zM253 270c64 0 87 31 87 76v18c0 40 -23 71 -87 71c-65 0 -85 -31 -85 -71v-20c0 -46 20 -74 85 -74zM174 16h-1c-21 -17 -25 -38 -25 -53v-9c0 -34 17 -56 109 -56s111 19 111 54v9
c0 36 -13 49 -106 52z" />
    <glyph glyph-name="h" unicode="h" 
d="M53 0v780h144v-307c33 49 79 71 144 71c131 0 168 -70 168 -158v-386h-144v362c0 37 -28 60 -82 60c-43 0 -86 -25 -86 -64v-358h-144z" />
    <glyph glyph-name="i" unicode="i" horiz-adv-x="261" 
d="M59 0v536h144v-536h-144zM58 600v139h146v-139h-146z" />
    <glyph glyph-name="j" unicode="j" horiz-adv-x="261" 
d="M-20 -198v125h33c39 0 46 16 46 59v550h144v-571c0 -109 -45 -163 -171 -163h-52zM58 600v139h146v-139h-146z" />
    <glyph glyph-name="k" unicode="k" horiz-adv-x="504" 
d="M53 0v780h144v-412l145 168h155l-172 -196l179 -340h-153l-123 233l-31 -34v-199h-144z" />
    <glyph glyph-name="l" unicode="l" horiz-adv-x="261" 
d="M59 0v780h144v-780h-144z" />
    <glyph glyph-name="m" unicode="m" horiz-adv-x="853" 
d="M53 0v536h144v-61c31 47 76 69 140 69c81 0 126 -25 145 -73c38 51 87 73 160 73c131 0 165 -70 165 -158v-386h-144v362c0 37 -25 60 -78 60c-44 0 -83 -25 -83 -67v-355h-144v362c0 37 -25 60 -78 60c-43 0 -83 -24 -83 -63v-359h-144z" />
    <glyph glyph-name="n" unicode="n" 
d="M53 0v536h144v-63c33 49 79 71 144 71c131 0 168 -70 168 -158v-386h-144v362c0 37 -28 60 -82 60c-44 0 -86 -25 -86 -67v-355h-144z" />
    <glyph glyph-name="o" unicode="o" horiz-adv-x="528" 
d="M263 108c58 0 89 31 89 81v154c0 51 -31 82 -89 82s-87 -31 -87 -82v-154c0 -50 29 -81 87 -81zM263 -8c-166 0 -231 87 -231 204v144c0 119 66 204 231 204s233 -85 233 -204v-144c0 -117 -68 -204 -233 -204z" />
    <glyph glyph-name="p" unicode="p" horiz-adv-x="548" 
d="M53 -198v734h144v-57c27 40 68 65 135 65c141 0 184 -78 184 -197v-158c0 -117 -47 -195 -191 -195c-62 0 -102 19 -128 57v-249h-144zM286 108c58 0 86 31 86 81v154c0 51 -28 82 -86 82c-56 0 -89 -29 -89 -76v-160c0 -50 31 -81 89 -81z" />
    <glyph glyph-name="q" unicode="q" horiz-adv-x="548" 
d="M352 -198v252c-28 -42 -69 -62 -130 -62c-147 0 -190 79 -190 197v158c0 117 43 197 192 197c55 0 99 -22 128 -63v55h144v-734h-144zM262 108c56 0 90 27 90 75v164c0 47 -33 78 -90 78c-58 0 -86 -32 -86 -82v-154c0 -51 28 -81 86 -81z" />
    <glyph glyph-name="r" unicode="r" horiz-adv-x="360" 
d="M53 0v536h144v-65c29 44 71 70 128 71h20v-121h-20c-69 0 -128 -22 -128 -76v-345h-144z" />
    <glyph glyph-name="s" unicode="s" horiz-adv-x="497" 
d="M253 -7c-152 0 -213 43 -226 150l138 21c8 -53 27 -64 90 -64c57 0 76 14 76 46c0 39 -22 49 -79 60c-92 16 -216 30 -215 166c0 105 56 171 215 171c145 0 200 -51 212 -152l-142 -22c-5 47 -20 63 -74 63c-44 0 -71 -12 -71 -44c0 -43 31 -49 99 -61
c89 -15 196 -38 196 -161c0 -100 -44 -173 -219 -173z" />
    <glyph glyph-name="t" unicode="t" horiz-adv-x="396" 
d="M265 0c-138 0 -170 53 -170 171v247h-76v118h76v165h143v-165h125v-118h-125v-243c0 -40 6 -57 46 -57h79v-118h-98z" />
    <glyph glyph-name="u" unicode="u" 
d="M215 -8c-131 0 -168 70 -168 158v386h144v-362c0 -37 27 -60 81 -60c45 0 87 25 87 68v354h144v-536h-144v62c-33 -48 -80 -70 -144 -70z" />
    <glyph glyph-name="v" unicode="v" horiz-adv-x="506" 
d="M175 0l-171 536h144l105 -359h2l105 359h142l-170 -536h-157z" />
    <glyph glyph-name="w" unicode="w" horiz-adv-x="765" 
d="M157 0l-143 536h142l81 -333h2l72 333h149l71 -330h2l81 330h137l-139 -536h-154l-73 334h-1l-72 -334h-155z" />
    <glyph glyph-name="x" unicode="x" horiz-adv-x="491" 
d="M1 0l165 281l-154 255h151l90 -149l86 149h141l-155 -265l165 -271h-152l-100 164l-95 -164h-142z" />
    <glyph glyph-name="y" unicode="y" horiz-adv-x="505" 
d="M113 -198l69 202l-179 532h145l104 -349h2l105 349h142l-246 -734h-142z" />
    <glyph glyph-name="z" unicode="z" horiz-adv-x="456" 
d="M25 0v107l225 309h-219v120h394v-111l-224 -310h231v-115h-407z" />
    <glyph glyph-name="ampersand" unicode="&#x26;" horiz-adv-x="668" 
d="M285 -7c-193 0 -261 76 -261 211c0 102 50 165 143 211c-42 58 -57 99 -57 158c0 120 60 185 200 185c145 0 189 -66 189 -181c0 -84 -42 -144 -140 -198l111 -139c16 41 28 95 38 164h118c-17 -118 -43 -203 -75 -264l113 -140h-164l-32 40c-53 -37 -114 -47 -183 -47z
M285 111c41 0 76 6 106 23l-155 194c-57 -33 -77 -70 -77 -122c0 -65 41 -95 126 -95zM241 577c0 -40 10 -62 52 -116c71 40 83 72 83 115c0 49 -20 72 -66 72c-48 0 -69 -23 -69 -71z" />
    <glyph glyph-name="period" unicode="." horiz-adv-x="283" 
d="M59 0v169h165v-169h-165z" />
    <glyph glyph-name="comma" unicode="," horiz-adv-x="283" 
d="M81 -123l49 123h-71v169h165v-169l-49 -123h-94z" />
    <glyph glyph-name="colon" unicode=":" horiz-adv-x="290" 
d="M66 0v162h158v-162h-158zM66 374v162h158v-162h-158z" />
    <glyph glyph-name="semicolon" unicode=";" horiz-adv-x="290" 
d="M81 -123l49 123h-64v162h158v-162l-49 -123h-94zM66 374v162h158v-162h-158z" />
    <glyph glyph-name="ellipsis" unicode="&#x2026;" horiz-adv-x="849" 
d="M59 0v169h165v-169h-165zM342 0v169h165v-169h-165zM625 0v169h165v-169h-165z" />
    <glyph glyph-name="exclamdown" unicode="&#xa1;" horiz-adv-x="327" 
d="M89 0l7 541h136l7 -541h-150zM87 607v143h153v-143h-153z" />
    <glyph glyph-name="exclam" unicode="!" horiz-adv-x="327" 
d="M87 0v144h153v-144h-153zM96 210l-7 540h150l-7 -540h-136z" />
    <glyph glyph-name="questiondown" unicode="&#xbf;" horiz-adv-x="556" 
d="M277 -8c-157 0 -245 51 -245 205c0 101 64 150 119 195c57 46 79 67 79 117v31h141v-31c0 -101 -41 -132 -120 -195c-55 -43 -76 -61 -76 -114c0 -48 24 -83 99 -83c72 0 104 31 111 115l139 -14c-11 -136 -65 -226 -247 -226zM224 606v144h153v-144h-153z" />
    <glyph glyph-name="question" unicode="?" horiz-adv-x="556" 
d="M183 210v31c0 101 41 133 121 195c55 43 76 61 76 114c0 48 -24 83 -99 83c-72 0 -104 -31 -111 -115l-139 14c11 136 65 226 247 226c157 0 244 -51 244 -205c0 -101 -64 -150 -118 -195c-57 -46 -80 -67 -80 -117v-31h-141zM177 0v144h153v-144h-153z" />
    <glyph glyph-name="parenleft" unicode="(" horiz-adv-x="381" 
d="M287 -198c-171 0 -233 82 -233 253v466c0 171 63 252 233 252h72v-124h-72c-71 0 -93 -34 -93 -135v-452c0 -101 22 -137 93 -137h72v-123h-72z" />
    <glyph glyph-name="parenright" unicode=")" horiz-adv-x="381" 
d="M23 -198v123h71c72 0 92 36 92 137v452c0 101 -21 135 -92 135h-71v124h71c171 0 234 -81 234 -252v-466c0 -171 -63 -253 -234 -253h-71z" />
    <glyph glyph-name="bracketleft" unicode="[" horiz-adv-x="381" 
d="M54 -198v971h302v-124h-161v-724h161v-123h-302z" />
    <glyph glyph-name="bracketright" unicode="]" horiz-adv-x="381" 
d="M25 -198v123h162v724h-162v124h302v-971h-302z" />
    <glyph glyph-name="braceleft" unicode="{" horiz-adv-x="444" 
d="M350 -198c-172 0 -233 82 -233 253v180h-86v119h86v167c0 171 62 252 233 252h71v-124h-71c-72 0 -94 -36 -94 -140v-442c0 -105 22 -142 94 -142h71v-123h-71z" />
    <glyph glyph-name="braceright" unicode="}" horiz-adv-x="445" 
d="M24 -198v123h71c71 0 92 37 92 142v442c0 104 -21 140 -92 140h-71v124h71c170 0 233 -81 233 -252v-167h86v-119h-86v-180c0 -171 -62 -253 -233 -253h-71z" />
    <glyph glyph-name="hyphen" unicode="-" horiz-adv-x="438" 
d="M31 259v124h375v-124h-375z" />
    <glyph glyph-name="underscore" unicode="_" horiz-adv-x="435" 
d="M-31 -152v113h497v-113h-497z" />
    <glyph glyph-name="endash" unicode="&#x2013;" horiz-adv-x="560" 
d="M31 259v124h498v-124h-498z" />
    <glyph glyph-name="endash.salt_en" horiz-adv-x="500" 
d="M0 259v124h500v-124h-500z" />
    <glyph glyph-name="emdash" unicode="&#x2014;" horiz-adv-x="792" 
d="M31 259v124h730v-124h-730z" />
    <glyph glyph-name="emdash.salt_em" unicode="&#x2015;" horiz-adv-x="1000" 
d="M0 259v124h1000v-124h-1000z" />
    <glyph glyph-name="quoteleft" unicode="&#x2018;" horiz-adv-x="242" 
d="M39 439v169l49 142h95l-50 -142h71v-169h-165z" />
    <glyph glyph-name="quoteright" unicode="&#x2019;" horiz-adv-x="242" 
d="M61 439l49 142h-71v169h165v-169l-49 -142h-94z" />
    <glyph glyph-name="quotedblleft" unicode="&#x201c;" horiz-adv-x="433" 
d="M39 439v169l49 142h91l-49 -142h70v-169h-161zM232 439v169l50 142h90l-49 -142h71v-169h-162z" />
    <glyph glyph-name="quotedblright" unicode="&#x201d;" horiz-adv-x="433" 
d="M61 439l49 142h-71v169h161v-169l-48 -142h-91zM254 439l49 142h-71v169h162v-169l-49 -142h-91z" />
    <glyph glyph-name="quotesinglbase" unicode="&#x201a;" horiz-adv-x="242" 
d="M61 -142l49 142h-71v169h165v-169l-49 -142h-94z" />
    <glyph glyph-name="quotedblbase" unicode="&#x201e;" horiz-adv-x="433" 
d="M61 -142l49 142h-71v169h161v-169l-48 -142h-91zM254 -142l49 142h-71v169h162v-169l-49 -142h-91z" />
    <glyph glyph-name="guillemotleft" unicode="&#xab;" horiz-adv-x="587" 
d="M173 0l-136 268l136 268h148l-137 -268l137 -268h-148zM423 0l-137 268l137 268h146l-136 -268l136 -268h-146z" />
    <glyph glyph-name="guillemotright" unicode="&#xbb;" horiz-adv-x="587" 
d="M267 0l136 268l-136 268h147l137 -268l-137 -268h-147zM18 0l136 268l-136 268h146l137 -268l-137 -268h-146z" />
    <glyph glyph-name="guilsinglleft" unicode="&#x2039;" horiz-adv-x="338" 
d="M173 0l-136 268l136 268h148l-137 -268l137 -268h-148z" />
    <glyph glyph-name="guilsinglright" unicode="&#x203a;" horiz-adv-x="338" 
d="M18 0l137 268l-137 268h147l137 -268l-137 -268h-147z" />
    <glyph glyph-name="brokenbar" unicode="&#xa6;" horiz-adv-x="275" 
d="M68 337v436h140v-436h-140zM68 -198v435h140v-435h-140z" />
    <glyph glyph-name="slash" unicode="/" horiz-adv-x="436" 
d="M-13 0l321 750h141l-323 -750h-139z" />
    <glyph glyph-name="backslash" unicode="\" horiz-adv-x="436" 
d="M310 0l-323 750h141l321 -750h-139z" />
    <glyph glyph-name="bar" unicode="|" horiz-adv-x="275" 
d="M68 -198v971h140v-971h-140z" />
    <glyph glyph-name="asterisk" unicode="*" horiz-adv-x="518" 
d="M168 315l-88 68l100 125l-153 48l32 96l153 -59l-7 160h109l-7 -160l155 58l32 -95l-155 -48l103 -125l-88 -68l-95 139z" />
    <glyph glyph-name="dagger" unicode="&#x2020;" horiz-adv-x="489" 
d="M172 -198v596h-147v125h147v227h146v-227h146v-125h-146v-596h-146z" />
    <glyph glyph-name="daggerdbl" unicode="&#x2021;" horiz-adv-x="489" 
d="M172 -198v227h-147v125h147v244h-147v125h147v227h146v-227h146v-125h-146v-244h146v-125h-146v-227h-146z" />
    <glyph glyph-name="periodcentered" unicode="&#xb7;" horiz-adv-x="283" 
d="M59 238v169h165v-169h-165z" />
    <glyph glyph-name="bullet" unicode="&#x2022;" horiz-adv-x="426" 
d="M213 82c-120 0 -148 65 -148 172v120c0 108 28 172 148 172s148 -64 148 -172v-120c0 -107 -28 -172 -148 -172z" />
    <glyph glyph-name="quotesingle" unicode="'" horiz-adv-x="277" 
d="M77 478l-7 272h136l-7 -272h-122z" />
    <glyph glyph-name="quotedbl" unicode="&#x22;" horiz-adv-x="487" 
d="M77 478l-7 272h129l-7 -272h-115zM295 478l-8 272h129l-8 -272h-113z" />
    <glyph glyph-name="parenleft.uc" horiz-adv-x="381" 
d="M287 -70c-171 0 -233 82 -233 253v385c0 171 63 252 233 252h72v-123h-72c-71 0 -93 -34 -93 -136v-371c0 -101 22 -137 93 -137h72v-123h-72z" />
    <glyph glyph-name="parenright.uc" horiz-adv-x="381" 
d="M23 -70v123h71c72 0 92 36 92 137v370c0 102 -21 136 -92 136h-71v123h71c171 0 234 -80 234 -251v-385c0 -171 -63 -253 -234 -253h-71z" />
    <glyph glyph-name="bracketleft.uc" horiz-adv-x="381" 
d="M54 -70v890h302v-124h-161v-643h161v-123h-302z" />
    <glyph glyph-name="bracketright.uc" horiz-adv-x="381" 
d="M25 -70v123h162v643h-162v124h302v-890h-302z" />
    <glyph glyph-name="braceleft.uc" horiz-adv-x="444" 
d="M350 -70c-172 0 -233 82 -233 253v135h-86v120h86v130c0 171 62 252 233 252h71v-123h-71c-72 0 -94 -36 -94 -141v-361c0 -104 22 -141 94 -141h71v-124h-71z" />
    <glyph glyph-name="braceright.uc" horiz-adv-x="445" 
d="M24 -70v123h71c71 0 92 37 92 142v361c0 105 -21 141 -92 141h-71v123h71c170 0 233 -81 233 -252v-130h86v-120h-86v-135c0 -171 -62 -253 -233 -253h-71z" />
    <glyph glyph-name="hyphen.uc" horiz-adv-x="438" 
d="M31 319v124h375v-124h-375z" />
    <glyph glyph-name="endash.uc" horiz-adv-x="560" 
d="M31 319v124h498v-124h-498z" />
    <glyph glyph-name="endash.uc_salt_en" horiz-adv-x="500" 
d="M0 319v124h500v-124h-500z" />
    <glyph glyph-name="emdash.uc" horiz-adv-x="792" 
d="M31 319v124h730v-124h-730z" />
    <glyph glyph-name="emdash.uc_salt_em" horiz-adv-x="1000" 
d="M0 319v124h1000v-124h-1000z" />
    <glyph glyph-name="guillemotleft.uc" horiz-adv-x="587" 
d="M173 83l-136 267l136 268h148l-137 -268l137 -267h-148zM423 83l-137 267l137 268h146l-136 -268l136 -267h-146z" />
    <glyph glyph-name="guillemotright.uc" horiz-adv-x="587" 
d="M267 83l136 267l-136 268h147l137 -268l-137 -267h-147zM18 83l136 267l-136 268h146l137 -268l-137 -267h-146z" />
    <glyph glyph-name="guilsinglleft.uc" horiz-adv-x="338" 
d="M173 83l-136 267l136 268h148l-137 -268l137 -267h-148z" />
    <glyph glyph-name="guilsinglright.uc" horiz-adv-x="338" 
d="M18 83l137 267l-137 268h147l137 -268l-137 -267h-147z" />
    <glyph glyph-name="Agrave" unicode="&#xc0;" horiz-adv-x="615" 
d="M17 0l209 750h163l209 -750h-147l-43 159h-206l-41 -159h-144zM229 276h152l-75 285h-2zM260 780l-108 177h139l92 -177h-123z" />
    <glyph glyph-name="Aacute" unicode="&#xc1;" horiz-adv-x="615" 
d="M17 0l209 750h163l209 -750h-147l-43 159h-206l-41 -159h-144zM229 276h152l-75 285h-2zM245 780l93 179h138l-107 -179h-124z" />
    <glyph glyph-name="Acircumflex" unicode="&#xc2;" horiz-adv-x="615" 
d="M17 0l209 750h163l209 -750h-147l-43 159h-206l-41 -159h-144zM229 276h152l-75 285h-2zM114 780l121 167h143l121 -167h-113l-79 75l-77 -75h-116z" />
    <glyph glyph-name="Atilde" unicode="&#xc3;" horiz-adv-x="615" 
d="M17 0l209 750h163l209 -750h-147l-43 159h-206l-41 -159h-144zM229 276h152l-75 285h-2zM228 780h-100c0 85 20 139 105 139c54 0 105 -36 129 -36c18 0 26 11 26 36h100c0 -85 -21 -139 -107 -139c-52 0 -104 36 -127 36c-18 0 -26 -11 -26 -36z" />
    <glyph glyph-name="Adieresis" unicode="&#xc4;" horiz-adv-x="615" 
d="M17 0l209 750h163l209 -750h-147l-43 159h-206l-41 -159h-144zM229 276h152l-75 285h-2zM146 780v129h125v-129h-125zM343 780v129h125v-129h-125z" />
    <glyph glyph-name="Aring" unicode="&#xc5;" horiz-adv-x="615" 
d="M17 0l200 719c-20 19 -31 48 -31 91c0 90 47 121 121 121c75 0 121 -31 121 -121c0 -43 -11 -72 -31 -90l201 -720h-147l-43 159h-206l-41 -159h-144zM229 276h152l-75 285h-2zM307 757c34 0 48 16 48 53c0 38 -14 55 -48 55c-33 0 -48 -17 -48 -55c0 -37 15 -53 48 -53z
" />
    <glyph glyph-name="Amacron" unicode="&#x100;" horiz-adv-x="615" 
d="M17 0l209 750h163l209 -750h-147l-43 159h-206l-41 -159h-144zM229 276h152l-75 285h-2zM158 780v100h298v-100h-298z" />
    <glyph glyph-name="Abreve" unicode="&#x102;" horiz-adv-x="615" 
d="M17 0l209 750h163l209 -750h-147l-43 159h-206l-41 -159h-144zM229 276h152l-75 285h-2zM307 778c-136 0 -180 62 -180 154h115c0 -50 25 -70 65 -70s65 20 65 70h115c0 -92 -43 -154 -180 -154z" />
    <glyph glyph-name="Aogonek" unicode="&#x104;" horiz-adv-x="615" 
d="M17 0l209 750h163l209 -750h-100c14 18 34 38 62 64h-88c-12 -8 -22 -17 -32 -25l-32 120h-206l-41 -159h-144zM568 -198h-60c-70 0 -130 22 -130 103c0 52 19 95 62 134l11 -39h47c-21 -27 -28 -48 -28 -72c0 -35 13 -43 52 -43h46v-83zM229 276h152l-75 285h-2z" />
    <glyph glyph-name="AE" unicode="&#xc6;" horiz-adv-x="885" 
d="M260 305h140v326h-2zM-8 0l321 750h534l-24 -131h-280v-164h204v-133h-204v-195h280l23 -127h-446v180h-183l-78 -180h-147z" />
    <glyph glyph-name="Ccedilla" unicode="&#xc7;" horiz-adv-x="598" 
d="M220 -241v77h36c49 0 72 6 72 40c0 29 -23 36 -69 36h-11v85c-125 18 -207 99 -207 251v254c0 176 111 256 267 256c169 0 246 -57 261 -232l-143 -19c-7 87 -35 121 -118 121c-84 0 -120 -53 -120 -141v-228c0 -87 30 -140 120 -140c87 0 112 35 120 125l140 -18
c-18 -161 -86 -230 -247 -234v-31c52 -3 88 -24 88 -87c0 -73 -38 -115 -151 -115h-38z" />
    <glyph glyph-name="Cacute" unicode="&#x106;" horiz-adv-x="598" 
d="M308 -8c-158 0 -267 81 -267 256v254c0 176 111 256 267 256c169 0 246 -57 261 -232l-143 -19c-7 87 -35 121 -118 121c-84 0 -120 -53 -120 -141v-228c0 -87 30 -140 120 -140c87 0 112 35 120 125l140 -18c-18 -165 -89 -234 -260 -234zM236 780l93 179h138l-107 -179
h-124z" />
    <glyph glyph-name="Ccircumflex" unicode="&#x108;" horiz-adv-x="598" 
d="M308 -8c-158 0 -267 81 -267 256v254c0 176 111 256 267 256c169 0 246 -57 261 -232l-143 -19c-7 87 -35 121 -118 121c-84 0 -120 -53 -120 -141v-228c0 -87 30 -140 120 -140c87 0 112 35 120 125l140 -18c-18 -165 -89 -234 -260 -234zM109 780l121 167h143l121 -167
h-113l-79 75l-77 -75h-116z" />
    <glyph glyph-name="Cdotaccent" unicode="&#x10a;" horiz-adv-x="598" 
d="M308 -8c-158 0 -267 81 -267 256v254c0 176 111 256 267 256c169 0 246 -57 261 -232l-143 -19c-7 87 -35 121 -118 121c-84 0 -120 -53 -120 -141v-228c0 -87 30 -140 120 -140c87 0 112 35 120 125l140 -18c-18 -165 -89 -234 -260 -234zM232 780v144h141v-144h-141z
" />
    <glyph glyph-name="Ccaron" unicode="&#x10c;" horiz-adv-x="598" 
d="M308 -8c-158 0 -267 81 -267 256v254c0 176 111 256 267 256c169 0 246 -57 261 -232l-143 -19c-7 87 -35 121 -118 121c-84 0 -120 -53 -120 -141v-228c0 -87 30 -140 120 -140c87 0 112 35 120 125l140 -18c-18 -165 -89 -234 -260 -234zM230 780l-121 167h115l78 -76
l78 76h114l-121 -167h-143z" />
    <glyph glyph-name="Eth" unicode="&#xd0;" horiz-adv-x="627" 
d="M66 0v343h-49v125h49v282h254c165 0 266 -74 266 -250v-250c0 -175 -101 -250 -266 -250h-254zM213 125h107c89 0 119 39 119 134v228c0 96 -30 134 -119 134h-107v-153h110v-125h-110v-218z" />
    <glyph glyph-name="Dcaron" unicode="&#x10e;" horiz-adv-x="627" 
d="M66 0v750h254c165 0 266 -74 266 -250v-250c0 -175 -101 -250 -266 -250h-254zM213 125h107c89 0 119 39 119 134v228c0 96 -30 134 -119 134h-107v-496zM241 780l-121 167h115l78 -76l78 76h114l-121 -167h-143z" />
    <glyph glyph-name="Dcroat" unicode="&#x110;" horiz-adv-x="627" 
d="M66 0v343h-49v125h49v282h254c165 0 266 -74 266 -250v-250c0 -175 -101 -250 -266 -250h-254zM213 125h107c89 0 119 39 119 134v228c0 96 -30 134 -119 134h-107v-153h110v-125h-110v-218z" />
    <glyph glyph-name="Egrave" unicode="&#xc8;" 
d="M66 0v750h450l-23 -131h-280v-164h204v-133h-204v-195h280l23 -127h-450zM236 780l-108 177h139l92 -177h-123z" />
    <glyph glyph-name="Eacute" unicode="&#xc9;" 
d="M66 0v750h450l-23 -131h-280v-164h204v-133h-204v-195h280l23 -127h-450zM215 780l93 179h138l-107 -179h-124z" />
    <glyph glyph-name="Ecircumflex" unicode="&#xca;" 
d="M66 0v750h450l-23 -131h-280v-164h204v-133h-204v-195h280l23 -127h-450zM90 780l121 167h143l121 -167h-113l-79 75l-77 -75h-116z" />
    <glyph glyph-name="Edieresis" unicode="&#xcb;" 
d="M66 0v750h450l-23 -131h-280v-164h204v-133h-204v-195h280l23 -127h-450zM122 780v129h125v-129h-125zM319 780v129h125v-129h-125z" />
    <glyph glyph-name="Emacron" unicode="&#x112;" 
d="M66 0v750h450l-23 -131h-280v-164h204v-133h-204v-195h280l23 -127h-450zM134 780v100h298v-100h-298z" />
    <glyph glyph-name="Ebreve" unicode="&#x114;" 
d="M66 0v750h450l-23 -131h-280v-164h204v-133h-204v-195h280l23 -127h-450zM283 778c-136 0 -180 62 -180 154h115c0 -50 25 -70 65 -70s65 20 65 70h115c0 -92 -43 -154 -180 -154z" />
    <glyph glyph-name="Edotaccent" unicode="&#x116;" 
d="M66 0v750h450l-23 -131h-280v-164h204v-133h-204v-195h280l23 -127h-450zM213 780v144h141v-144h-141z" />
    <glyph glyph-name="Eogonek" unicode="&#x118;" 
d="M66 0v750h450l-23 -131h-280v-164h204v-133h-204v-195h280l23 -127h-73c-19 -23 -27 -46 -27 -72c0 -35 13 -43 52 -43h46v-83h-59c-71 0 -131 22 -131 103c0 35 9 67 28 95h-286z" />
    <glyph glyph-name="Ecaron" unicode="&#x11a;" 
d="M66 0v750h450l-23 -131h-280v-164h204v-133h-204v-195h280l23 -127h-450zM211 780l-121 167h115l78 -76l78 76h114l-121 -167h-143z" />
    <glyph glyph-name="Gcircumflex" unicode="&#x11c;" horiz-adv-x="610" 
d="M308 -8c-158 0 -267 81 -267 256v254c0 176 111 254 267 254c167 0 246 -55 260 -218l-143 -20c-5 80 -34 111 -117 111c-84 0 -120 -52 -120 -139v-231c0 -87 35 -142 120 -142c101 0 130 38 130 142v28h-132v121h267v-151c0 -198 -110 -265 -265 -265zM112 780l121 167
h143l121 -167h-113l-79 75l-77 -75h-116z" />
    <glyph glyph-name="Gbreve" unicode="&#x11e;" horiz-adv-x="610" 
d="M308 -8c-158 0 -267 81 -267 256v254c0 176 111 254 267 254c167 0 246 -55 260 -218l-143 -20c-5 80 -34 111 -117 111c-84 0 -120 -52 -120 -139v-231c0 -87 35 -142 120 -142c101 0 130 38 130 142v28h-132v121h267v-151c0 -198 -110 -265 -265 -265zM305 778
c-136 0 -180 62 -180 154h115c0 -50 25 -70 65 -70s65 20 65 70h115c0 -92 -43 -154 -180 -154z" />
    <glyph glyph-name="Gdotaccent" unicode="&#x120;" horiz-adv-x="610" 
d="M308 -8c-158 0 -267 81 -267 256v254c0 176 111 254 267 254c167 0 246 -55 260 -218l-143 -20c-5 80 -34 111 -117 111c-84 0 -120 -52 -120 -139v-231c0 -87 35 -142 120 -142c101 0 130 38 130 142v28h-132v121h267v-151c0 -198 -110 -265 -265 -265zM235 780v144h141
v-144h-141z" />
    <glyph glyph-name="Gcommaaccent" unicode="&#x122;" horiz-adv-x="610" 
d="M308 -8c-158 0 -267 81 -267 256v254c0 176 111 254 267 254c167 0 246 -55 260 -218l-143 -20c-5 80 -34 111 -117 111c-84 0 -120 -52 -120 -139v-231c0 -87 35 -142 120 -142c101 0 130 38 130 142v28h-132v121h267v-151c0 -198 -110 -265 -265 -265zM255 -269l41 102
h-59v139h136v-139l-40 -102h-78z" />
    <glyph glyph-name="Hcircumflex" unicode="&#x124;" horiz-adv-x="658" 
d="M66 0v750h147v-278h231v278h147v-750h-147v334h-231v-334h-147zM135 780l121 167h143l121 -167h-113l-79 75l-77 -75h-116z" />
    <glyph glyph-name="Hbar" unicode="&#x126;" horiz-adv-x="658" 
d="M17 508v125h49v117h147v-117h231v117h147v-117h49v-125h-49v-508h-147v305h-231v-305h-147v508h-49zM213 442h231v66h-231v-66z" />
    <glyph glyph-name="Igrave" unicode="&#xcc;" horiz-adv-x="293" 
d="M73 0v750h146v-750h-146zM83 780l-108 177h139l92 -177h-123z" />
    <glyph glyph-name="Iacute" unicode="&#xcd;" horiz-adv-x="293" 
d="M73 0v750h146v-750h-146zM86 780l93 179h138l-107 -179h-124z" />
    <glyph glyph-name="Icircumflex" unicode="&#xce;" horiz-adv-x="293" 
d="M73 0v750h146v-750h-146zM-47 780l121 167h143l121 -167h-113l-79 75l-77 -75h-116z" />
    <glyph glyph-name="Itilde" unicode="&#x128;" horiz-adv-x="293" 
d="M73 0v750h146v-750h-146zM67 780h-100c0 85 20 139 105 139c54 0 105 -36 129 -36c18 0 26 11 26 36h100c0 -85 -21 -139 -107 -139c-52 0 -104 36 -127 36c-18 0 -26 -11 -26 -36z" />
    <glyph glyph-name="Idieresis" unicode="&#xcf;" horiz-adv-x="293" 
d="M73 0v750h146v-750h-146zM-15 780v129h125v-129h-125zM182 780v129h125v-129h-125z" />
    <glyph glyph-name="Imacron" unicode="&#x12a;" horiz-adv-x="293" 
d="M73 0v750h146v-750h-146zM-3 780v100h298v-100h-298z" />
    <glyph glyph-name="Ibreve" unicode="&#x12c;" horiz-adv-x="293" 
d="M73 0v750h146v-750h-146zM146 778c-136 0 -180 62 -180 154h115c0 -50 25 -70 65 -70s65 20 65 70h115c0 -92 -43 -154 -180 -154z" />
    <glyph glyph-name="Iogonek" unicode="&#x12e;" horiz-adv-x="293" 
d="M210 -198h-60c-70 0 -130 22 -130 103c0 48 16 88 53 125v720h146v-750h-79c-21 -27 -28 -48 -28 -72c0 -35 13 -43 52 -43h46v-83z" />
    <glyph glyph-name="Idotaccent" unicode="&#x130;" horiz-adv-x="293" 
d="M73 0v750h146v-750h-146zM76 780v144h141v-144h-141z" />
    <glyph glyph-name="IJ" unicode="&#x132;" horiz-adv-x="612" 
d="M73 0v750h146v-750h-146zM295 0v127h19c84 0 98 24 98 118v505h146v-510c0 -165 -39 -240 -241 -240h-22z" />
    <glyph glyph-name="Jcircumflex" unicode="&#x134;" horiz-adv-x="353" 
d="M22 0v127h33c84 0 98 24 98 118v505h146v-510c0 -165 -39 -240 -241 -240h-36zM32 780l121 167h143l121 -167h-113l-79 75l-77 -75h-116z" />
    <glyph glyph-name="Kcommaaccent" unicode="&#x136;" horiz-adv-x="611" 
d="M79 0v750h147v-285l210 285h158l-215 -287l226 -463h-159l-167 341l-53 -69v-272h-147zM254 -269l41 102h-59v139h136v-139l-40 -102h-78z" />
    <glyph glyph-name="Lacute" unicode="&#x139;" horiz-adv-x="540" 
d="M66 0v750h147v-623h280l23 -127h-450zM82 780l93 179h138l-107 -179h-124z" />
    <glyph glyph-name="Lcommaaccent" unicode="&#x13b;" horiz-adv-x="540" 
d="M66 0v750h147v-623h280l23 -127h-450zM220 -269l41 102h-59v139h136v-139l-40 -102h-78z" />
    <glyph glyph-name="Lcaron" unicode="&#x13d;" horiz-adv-x="540" 
d="M295 502l20 248h129l-43 -248h-106zM66 0v750h147v-623h280l23 -127h-450z" />
    <glyph glyph-name="Ldot" unicode="&#x13f;" horiz-adv-x="540" 
d="M66 0v750h147v-623h280l23 -127h-450zM333 347v144h141v-144h-141z" />
    <glyph glyph-name="Lslash" unicode="&#x141;" horiz-adv-x="534" 
d="M66 0v291l-50 -21v138l50 20v322h147v-272l147 59v-138l-147 -58v-214h280l23 -127h-450z" />
    <glyph glyph-name="Ntilde" unicode="&#xd1;" horiz-adv-x="658" 
d="M66 0v750h153l229 -462h2v462h141v-750h-144l-235 480h-2v-480h-144zM249 780h-100c0 85 20 139 105 139c54 0 105 -36 129 -36c18 0 26 11 26 36h100c0 -85 -21 -139 -107 -139c-52 0 -104 36 -127 36c-18 0 -26 -11 -26 -36z" />
    <glyph glyph-name="Nacute" unicode="&#x143;" horiz-adv-x="658" 
d="M66 0v750h153l229 -462h2v462h141v-750h-144l-235 480h-2v-480h-144zM266 780l93 179h138l-107 -179h-124z" />
    <glyph glyph-name="Ncommaaccent" unicode="&#x145;" horiz-adv-x="658" 
d="M66 0v750h153l229 -462h2v462h141v-750h-144l-235 480h-2v-480h-144zM278 -269l41 102h-59v139h136v-139l-40 -102h-78z" />
    <glyph glyph-name="Ncaron" unicode="&#x147;" horiz-adv-x="658" 
d="M66 0v750h153l229 -462h2v462h141v-750h-144l-235 480h-2v-480h-144zM256 780l-121 167h115l78 -76l78 76h114l-121 -167h-143z" />
    <glyph glyph-name="Eng" unicode="&#x14a;" horiz-adv-x="645" 
d="M366 -198v125h33c38 0 45 16 45 59v533c0 91 -48 110 -105 110c-75 0 -126 -16 -126 -119v-510h-147v750h147v-69c43 61 100 76 178 76c145 0 200 -91 200 -222v-570c0 -109 -48 -163 -174 -163h-51z" />
    <glyph glyph-name="Ograve" unicode="&#xd2;" horiz-adv-x="630" 
d="M315 -8c-168 0 -274 81 -274 256v254c0 176 107 256 274 256s274 -80 274 -256v-254c0 -175 -107 -256 -274 -256zM315 119c90 0 127 45 127 140v228c0 96 -37 141 -127 141s-127 -45 -127 -141v-228c0 -95 37 -140 127 -140zM268 780l-108 177h139l92 -177h-123z" />
    <glyph glyph-name="Oacute" unicode="&#xd3;" horiz-adv-x="630" 
d="M315 -8c-168 0 -274 81 -274 256v254c0 176 107 256 274 256s274 -80 274 -256v-254c0 -175 -107 -256 -274 -256zM315 119c90 0 127 45 127 140v228c0 96 -37 141 -127 141s-127 -45 -127 -141v-228c0 -95 37 -140 127 -140zM252 780l93 179h138l-107 -179h-124z" />
    <glyph glyph-name="Ocircumflex" unicode="&#xd4;" horiz-adv-x="630" 
d="M315 -8c-168 0 -274 81 -274 256v254c0 176 107 256 274 256s274 -80 274 -256v-254c0 -175 -107 -256 -274 -256zM315 119c90 0 127 45 127 140v228c0 96 -37 141 -127 141s-127 -45 -127 -141v-228c0 -95 37 -140 127 -140zM121 780l121 167h143l121 -167h-113l-79 75
l-77 -75h-116z" />
    <glyph glyph-name="Otilde" unicode="&#xd5;" horiz-adv-x="630" 
d="M315 -8c-168 0 -274 81 -274 256v254c0 176 107 256 274 256s274 -80 274 -256v-254c0 -175 -107 -256 -274 -256zM315 119c90 0 127 45 127 140v228c0 96 -37 141 -127 141s-127 -45 -127 -141v-228c0 -95 37 -140 127 -140zM235 780h-100c0 85 20 139 105 139
c54 0 105 -36 129 -36c18 0 26 11 26 36h100c0 -85 -21 -139 -107 -139c-52 0 -104 36 -127 36c-18 0 -26 -11 -26 -36z" />
    <glyph glyph-name="Odieresis" unicode="&#xd6;" horiz-adv-x="630" 
d="M315 -8c-168 0 -274 81 -274 256v254c0 176 107 256 274 256s274 -80 274 -256v-254c0 -175 -107 -256 -274 -256zM315 119c90 0 127 45 127 140v228c0 96 -37 141 -127 141s-127 -45 -127 -141v-228c0 -95 37 -140 127 -140zM153 780v129h125v-129h-125zM350 780v129
h125v-129h-125z" />
    <glyph glyph-name="Omacron" unicode="&#x14c;" horiz-adv-x="630" 
d="M315 -8c-168 0 -274 81 -274 256v254c0 176 107 256 274 256s274 -80 274 -256v-254c0 -175 -107 -256 -274 -256zM315 119c90 0 127 45 127 140v228c0 96 -37 141 -127 141s-127 -45 -127 -141v-228c0 -95 37 -140 127 -140zM165 780v100h298v-100h-298z" />
    <glyph glyph-name="Obreve" unicode="&#x14e;" horiz-adv-x="630" 
d="M315 -8c-168 0 -274 81 -274 256v254c0 176 107 256 274 256s274 -80 274 -256v-254c0 -175 -107 -256 -274 -256zM315 119c90 0 127 45 127 140v228c0 96 -37 141 -127 141s-127 -45 -127 -141v-228c0 -95 37 -140 127 -140zM314 778c-136 0 -180 62 -180 154h115
c0 -50 25 -70 65 -70s65 20 65 70h115c0 -92 -43 -154 -180 -154z" />
    <glyph glyph-name="Ohungarumlaut" unicode="&#x150;" horiz-adv-x="630" 
d="M315 -8c-168 0 -274 81 -274 256v254c0 176 107 256 274 256s274 -80 274 -256v-254c0 -175 -107 -256 -274 -256zM315 119c90 0 127 45 127 140v228c0 96 -37 141 -127 141s-127 -45 -127 -141v-228c0 -95 37 -140 127 -140zM162 780l93 179h127l-108 -179h-112z
M343 780l92 179h128l-108 -179h-112z" />
    <glyph glyph-name="Oslash" unicode="&#xd8;" horiz-adv-x="630" 
d="M40 -89l65 154c-41 41 -64 102 -64 183v254c0 176 107 254 274 254c28 0 55 -3 79 -7l38 90h146l-61 -147c46 -41 72 -104 72 -190v-254c0 -175 -107 -254 -274 -254c-33 0 -63 3 -90 9l-38 -92h-147zM315 119c90 0 127 45 127 140v228c0 96 -35 141 -127 141
c-90 0 -127 -45 -127 -141v-228c0 -95 35 -140 127 -140z" />
    <glyph glyph-name="OE" unicode="&#x152;" horiz-adv-x="898" 
d="M860 0h-553c-164 0 -266 75 -266 250v250c0 176 102 250 266 250h553l-24 -131h-279v-164h203v-133h-203v-195h279zM307 125h107v496h-107c-89 0 -119 -38 -119 -134v-228c0 -95 30 -134 119 -134z" />
    <glyph glyph-name="Racute" unicode="&#x154;" horiz-adv-x="610" 
d="M440 0l-141 279h-86v-279h-147v750h250c177 0 251 -63 251 -206v-59c0 -84 -28 -150 -124 -184l152 -301h-155zM213 402h108c77 0 105 21 105 92v37c0 70 -28 91 -105 91h-108v-220zM242 780l93 179h138l-107 -179h-124z" />
    <glyph glyph-name="Rcommaaccent" unicode="&#x156;" horiz-adv-x="610" 
d="M440 0l-141 279h-86v-279h-147v750h250c177 0 251 -63 251 -206v-59c0 -84 -28 -150 -124 -184l152 -301h-155zM213 402h108c77 0 105 21 105 92v37c0 70 -28 91 -105 91h-108v-220zM254 -269l41 102h-59v139h136v-139l-40 -102h-78z" />
    <glyph glyph-name="Rcaron" unicode="&#x158;" horiz-adv-x="610" 
d="M440 0l-141 279h-86v-279h-147v750h250c177 0 251 -63 251 -206v-59c0 -84 -28 -150 -124 -184l152 -301h-155zM213 402h108c77 0 105 21 105 92v37c0 70 -28 91 -105 91h-108v-220zM232 780l-121 167h115l78 -76l78 76h114l-121 -167h-143z" />
    <glyph glyph-name="Sacute" unicode="&#x15a;" horiz-adv-x="591" 
d="M291 -8c-185 0 -248 80 -263 220l140 21c12 -93 47 -118 124 -118c94 0 124 31 124 100c0 67 -45 84 -130 109c-128 35 -241 66 -241 222c0 126 66 212 250 212s240 -85 251 -214l-142 -20c-6 86 -36 107 -109 107c-74 0 -109 -21 -109 -81c0 -64 54 -79 138 -101
c128 -34 233 -67 233 -226c0 -141 -63 -231 -266 -231zM233 780l93 179h138l-107 -179h-124z" />
    <glyph glyph-name="Scircumflex" unicode="&#x15c;" horiz-adv-x="591" 
d="M291 -8c-185 0 -248 80 -263 220l140 21c12 -93 47 -118 124 -118c94 0 124 31 124 100c0 67 -45 84 -130 109c-128 35 -241 66 -241 222c0 126 66 212 250 212s240 -85 251 -214l-142 -20c-6 86 -36 107 -109 107c-74 0 -109 -21 -109 -81c0 -64 54 -79 138 -101
c128 -34 233 -67 233 -226c0 -141 -63 -231 -266 -231zM102 780l121 167h143l121 -167h-113l-79 75l-77 -75h-116z" />
    <glyph glyph-name="Scedilla" unicode="&#x15e;" horiz-adv-x="591" 
d="M217 -241v77h36c49 0 72 6 72 40c0 29 -23 36 -69 36h-11v82c-150 12 -204 90 -217 218l140 21c12 -93 47 -118 124 -118c94 0 124 31 124 100c0 67 -45 84 -130 109c-128 35 -241 66 -241 222c0 126 66 212 250 212s240 -85 251 -214l-142 -20c-6 86 -36 107 -109 107
c-74 0 -109 -21 -109 -81c0 -64 54 -79 138 -101c128 -34 233 -67 233 -226c0 -135 -58 -223 -239 -230v-32c52 -3 88 -24 88 -87c0 -73 -38 -115 -151 -115h-38z" />
    <glyph glyph-name="Scaron" unicode="&#x160;" horiz-adv-x="591" 
d="M291 -8c-185 0 -248 80 -263 220l140 21c12 -93 47 -118 124 -118c94 0 124 31 124 100c0 67 -45 84 -130 109c-128 35 -241 66 -241 222c0 126 66 212 250 212s240 -85 251 -214l-142 -20c-6 86 -36 107 -109 107c-74 0 -109 -21 -109 -81c0 -64 54 -79 138 -101
c128 -34 233 -67 233 -226c0 -141 -63 -231 -266 -231zM223 780l-121 167h115l78 -76l78 76h114l-121 -167h-143z" />
    <glyph glyph-name="Scommaaccent" unicode="&#x218;" horiz-adv-x="591" 
d="M291 -8c-185 0 -248 80 -263 220l140 21c12 -93 47 -118 124 -118c94 0 124 31 124 100c0 67 -45 84 -130 109c-128 35 -241 66 -241 222c0 126 66 212 250 212s240 -85 251 -214l-142 -20c-6 86 -36 107 -109 107c-74 0 -109 -21 -109 -81c0 -64 54 -79 138 -101
c128 -34 233 -67 233 -226c0 -141 -63 -231 -266 -231zM245 -269l41 102h-59v139h136v-139l-40 -102h-78z" />
    <glyph glyph-name="Tcommaaccent" unicode="&#x162;" horiz-adv-x="558" 
d="M206 0v619h-189v131h525v-131h-189v-619h-147zM229 -269l41 102h-59v139h136v-139l-40 -102h-78z" />
    <glyph glyph-name="Tcommaaccent" unicode="&#x21a;" horiz-adv-x="558" 
d="M206 0v619h-189v131h525v-131h-189v-619h-147zM229 -269l41 102h-59v139h136v-139l-40 -102h-78z" />
    <glyph glyph-name="Tcaron" unicode="&#x164;" horiz-adv-x="558" 
d="M206 0v619h-189v131h525v-131h-189v-619h-147zM207 780l-121 167h115l78 -76l78 76h114l-121 -167h-143z" />
    <glyph glyph-name="Tbar" unicode="&#x166;" horiz-adv-x="558" 
d="M97 343v125h109v151h-189v131h525v-131h-189v-151h109v-125h-109v-343h-147v343h-109z" />
    <glyph glyph-name="Thorn" unicode="&#xde;" horiz-adv-x="603" 
d="M66 0v750h148v-109h106c177 0 253 -63 253 -206v-65c0 -142 -76 -207 -253 -207h-107v-163h-147zM213 295h112c77 0 105 21 105 88v39c0 66 -28 88 -105 88h-112v-215z" />
    <glyph glyph-name="Ugrave" unicode="&#xd9;" horiz-adv-x="633" 
d="M316 -8c-168 0 -262 81 -262 256v502h146v-490c0 -93 26 -139 116 -139c91 0 117 46 117 139v490h146v-502c0 -175 -96 -256 -263 -256zM269 780l-108 177h139l92 -177h-123z" />
    <glyph glyph-name="Uacute" unicode="&#xda;" horiz-adv-x="633" 
d="M316 -8c-168 0 -262 81 -262 256v502h146v-490c0 -93 26 -139 116 -139c91 0 117 46 117 139v490h146v-502c0 -175 -96 -256 -263 -256zM254 780l93 179h138l-107 -179h-124z" />
    <glyph glyph-name="Ucircumflex" unicode="&#xdb;" horiz-adv-x="633" 
d="M316 -8c-168 0 -262 81 -262 256v502h146v-490c0 -93 26 -139 116 -139c91 0 117 46 117 139v490h146v-502c0 -175 -96 -256 -263 -256zM123 780l121 167h143l121 -167h-113l-79 75l-77 -75h-116z" />
    <glyph glyph-name="Utilde" unicode="&#x168;" horiz-adv-x="633" 
d="M316 -8c-168 0 -262 81 -262 256v502h146v-490c0 -93 26 -139 116 -139c91 0 117 46 117 139v490h146v-502c0 -175 -96 -256 -263 -256zM237 780h-100c0 85 20 139 105 139c54 0 105 -36 129 -36c18 0 26 11 26 36h100c0 -85 -21 -139 -107 -139c-52 0 -104 36 -127 36
c-18 0 -26 -11 -26 -36z" />
    <glyph glyph-name="Udieresis" unicode="&#xdc;" horiz-adv-x="633" 
d="M316 -8c-168 0 -262 81 -262 256v502h146v-490c0 -93 26 -139 116 -139c91 0 117 46 117 139v490h146v-502c0 -175 -96 -256 -263 -256zM155 780v129h125v-129h-125zM352 780v129h125v-129h-125z" />
    <glyph glyph-name="Umacron" unicode="&#x16a;" horiz-adv-x="633" 
d="M316 -8c-168 0 -262 81 -262 256v502h146v-490c0 -93 26 -139 116 -139c91 0 117 46 117 139v490h146v-502c0 -175 -96 -256 -263 -256zM167 780v100h298v-100h-298z" />
    <glyph glyph-name="Ubreve" unicode="&#x16c;" horiz-adv-x="633" 
d="M316 -8c-168 0 -262 81 -262 256v502h146v-490c0 -93 26 -139 116 -139c91 0 117 46 117 139v490h146v-502c0 -175 -96 -256 -263 -256zM316 778c-136 0 -180 62 -180 154h115c0 -50 25 -70 65 -70s65 20 65 70h115c0 -92 -43 -154 -180 -154z" />
    <glyph glyph-name="Uring" unicode="&#x16e;" horiz-adv-x="633" 
d="M316 -8c-168 0 -262 81 -262 256v502h146v-490c0 -93 26 -139 116 -139c91 0 117 46 117 139v490h146v-502c0 -175 -96 -256 -263 -256zM316 778c-74 0 -121 30 -121 118c0 90 47 121 121 121c75 0 121 -31 121 -121c0 -88 -46 -118 -121 -118zM316 843c34 0 48 16 48 53
c0 38 -14 55 -48 55c-33 0 -48 -17 -48 -55c0 -37 15 -53 48 -53z" />
    <glyph glyph-name="Uhungarumlaut" unicode="&#x170;" horiz-adv-x="633" 
d="M316 -8c-168 0 -262 81 -262 256v502h146v-490c0 -93 26 -139 116 -139c91 0 117 46 117 139v490h146v-502c0 -175 -96 -256 -263 -256zM164 780l93 179h127l-108 -179h-112zM345 780l92 179h128l-108 -179h-112z" />
    <glyph glyph-name="Uogonek" unicode="&#x172;" horiz-adv-x="633" 
d="M352 -199c-70 0 -130 22 -130 103c0 35 8 65 26 93c-125 20 -194 101 -194 251v502h146v-490c0 -93 26 -139 116 -139c91 0 117 46 117 139v490h146v-502c0 -168 -88 -249 -243 -255c-17 -24 -22 -44 -22 -66c0 -35 13 -43 52 -43h46v-83h-60z" />
    <glyph glyph-name="Wgrave" unicode="&#x1e80;" horiz-adv-x="912" 
d="M198 0l-185 750h147l114 -501h2l110 501h144l109 -501h2l116 501h143l-186 -750h-150l-106 493h-2l-108 -493h-150zM409 780l-108 177h139l92 -177h-123z" />
    <glyph glyph-name="Wacute" unicode="&#x1e82;" horiz-adv-x="912" 
d="M198 0l-185 750h147l114 -501h2l110 501h144l109 -501h2l116 501h143l-186 -750h-150l-106 493h-2l-108 -493h-150zM393 780l93 179h138l-107 -179h-124z" />
    <glyph glyph-name="Wcircumflex" unicode="&#x174;" horiz-adv-x="912" 
d="M198 0l-185 750h147l114 -501h2l110 501h144l109 -501h2l116 501h143l-186 -750h-150l-106 493h-2l-108 -493h-150zM262 780l121 167h143l121 -167h-113l-79 75l-77 -75h-116z" />
    <glyph glyph-name="Wdieresis" unicode="&#x1e84;" horiz-adv-x="912" 
d="M198 0l-185 750h147l114 -501h2l110 501h144l109 -501h2l116 501h143l-186 -750h-150l-106 493h-2l-108 -493h-150zM294 780v129h125v-129h-125zM491 780v129h125v-129h-125z" />
    <glyph glyph-name="Ygrave" unicode="&#x1ef2;" horiz-adv-x="600" 
d="M226 0v301l-220 449h152l145 -307h2l146 307h143l-220 -449v-301h-148zM253 780l-108 177h139l92 -177h-123z" />
    <glyph glyph-name="Yacute" unicode="&#xdd;" horiz-adv-x="600" 
d="M226 0v301l-220 449h152l145 -307h2l146 307h143l-220 -449v-301h-148zM237 780l93 179h138l-107 -179h-124z" />
    <glyph glyph-name="Ycircumflex" unicode="&#x176;" horiz-adv-x="600" 
d="M226 0v301l-220 449h152l145 -307h2l146 307h143l-220 -449v-301h-148zM106 780l121 167h143l121 -167h-113l-79 75l-77 -75h-116z" />
    <glyph glyph-name="Ydieresis" unicode="&#x178;" horiz-adv-x="600" 
d="M226 0v301l-220 449h152l145 -307h2l146 307h143l-220 -449v-301h-148zM138 780v129h125v-129h-125zM335 780v129h125v-129h-125z" />
    <glyph glyph-name="Zacute" unicode="&#x179;" horiz-adv-x="532" 
d="M29 0v126l296 493h-284v131h450v-130l-295 -493h308v-127h-475zM203 780l93 179h138l-107 -179h-124z" />
    <glyph glyph-name="Zdotaccent" unicode="&#x17b;" horiz-adv-x="532" 
d="M29 0v126l296 493h-284v131h450v-130l-295 -493h308v-127h-475zM195 780v144h141v-144h-141z" />
    <glyph glyph-name="Zcaron" unicode="&#x17d;" horiz-adv-x="532" 
d="M29 0v126l296 493h-284v131h450v-130l-295 -493h308v-127h-475zM193 780l-121 167h115l78 -76l78 76h114l-121 -167h-143z" />
    <glyph glyph-name="agrave" unicode="&#xe0;" horiz-adv-x="521" 
d="M196 -7c-113 0 -168 54 -168 166c0 114 61 170 240 170h66v37c0 40 -9 64 -65 64c-58 0 -71 -14 -80 -60l-140 22c21 108 74 152 225 152c156 0 201 -61 201 -182v-362h-141v57c-25 -38 -60 -64 -138 -64zM258 103c53 0 77 26 77 76v52h-72c-72 0 -96 -18 -96 -63
c0 -50 24 -65 91 -65zM214 576l-108 177h139l92 -177h-123z" />
    <glyph glyph-name="aacute" unicode="&#xe1;" horiz-adv-x="521" 
d="M196 -7c-113 0 -168 54 -168 166c0 114 61 170 240 170h66v37c0 40 -9 64 -65 64c-58 0 -71 -14 -80 -60l-140 22c21 108 74 152 225 152c156 0 201 -61 201 -182v-362h-141v57c-25 -38 -60 -64 -138 -64zM258 103c53 0 77 26 77 76v52h-72c-72 0 -96 -18 -96 -63
c0 -50 24 -65 91 -65zM198 576l93 179h138l-107 -179h-124z" />
    <glyph glyph-name="acircumflex" unicode="&#xe2;" horiz-adv-x="521" 
d="M196 -7c-113 0 -168 54 -168 166c0 114 61 170 240 170h66v37c0 40 -9 64 -65 64c-58 0 -71 -14 -80 -60l-140 22c21 108 74 152 225 152c156 0 201 -61 201 -182v-362h-141v57c-25 -38 -60 -64 -138 -64zM258 103c53 0 77 26 77 76v52h-72c-72 0 -96 -18 -96 -63
c0 -50 24 -65 91 -65zM67 576l121 167h143l121 -167h-113l-79 75l-77 -75h-116z" />
    <glyph glyph-name="atilde" unicode="&#xe3;" horiz-adv-x="521" 
d="M196 -7c-113 0 -168 54 -168 166c0 114 61 170 240 170h66v37c0 40 -9 64 -65 64c-58 0 -71 -14 -80 -60l-140 22c21 108 74 152 225 152c156 0 201 -61 201 -182v-362h-141v57c-25 -38 -60 -64 -138 -64zM258 103c53 0 77 26 77 76v52h-72c-72 0 -96 -18 -96 -63
c0 -50 24 -65 91 -65zM181 576h-100c0 85 20 139 105 139c54 0 105 -36 129 -36c18 0 26 11 26 36h100c0 -85 -21 -139 -107 -139c-52 0 -104 36 -127 36c-18 0 -26 -11 -26 -36z" />
    <glyph glyph-name="adieresis" unicode="&#xe4;" horiz-adv-x="521" 
d="M196 -7c-113 0 -168 54 -168 166c0 114 61 170 240 170h66v37c0 40 -9 64 -65 64c-58 0 -71 -14 -80 -60l-140 22c21 108 74 152 225 152c156 0 201 -61 201 -182v-362h-141v57c-25 -38 -60 -64 -138 -64zM258 103c53 0 77 26 77 76v52h-72c-72 0 -96 -18 -96 -63
c0 -50 24 -65 91 -65zM99 576v129h125v-129h-125zM296 576v129h125v-129h-125z" />
    <glyph glyph-name="aring" unicode="&#xe5;" horiz-adv-x="521" 
d="M196 -7c-113 0 -168 54 -168 166c0 114 61 170 240 170h66v37c0 40 -9 64 -65 64c-58 0 -71 -14 -80 -60l-140 22c21 108 74 152 225 152c156 0 201 -61 201 -182v-362h-141v57c-25 -38 -60 -64 -138 -64zM258 103c53 0 77 26 77 76v52h-72c-72 0 -96 -18 -96 -63
c0 -50 24 -65 91 -65zM260 574c-74 0 -121 30 -121 118c0 90 47 121 121 121c75 0 121 -31 121 -121c0 -88 -46 -118 -121 -118zM260 639c34 0 48 16 48 53c0 38 -14 55 -48 55c-33 0 -48 -17 -48 -55c0 -37 15 -53 48 -53z" />
    <glyph glyph-name="amacron" unicode="&#x101;" horiz-adv-x="521" 
d="M196 -7c-113 0 -168 54 -168 166c0 114 61 170 240 170h66v37c0 40 -9 64 -65 64c-58 0 -71 -14 -80 -60l-140 22c21 108 74 152 225 152c156 0 201 -61 201 -182v-362h-141v57c-25 -38 -60 -64 -138 -64zM258 103c53 0 77 26 77 76v52h-72c-72 0 -96 -18 -96 -63
c0 -50 24 -65 91 -65zM111 576v100h298v-100h-298z" />
    <glyph glyph-name="abreve" unicode="&#x103;" horiz-adv-x="521" 
d="M196 -7c-113 0 -168 54 -168 166c0 114 61 170 240 170h66v37c0 40 -9 64 -65 64c-58 0 -71 -14 -80 -60l-140 22c21 108 74 152 225 152c156 0 201 -61 201 -182v-362h-141v57c-25 -38 -60 -64 -138 -64zM258 103c53 0 77 26 77 76v52h-72c-72 0 -96 -18 -96 -63
c0 -50 24 -65 91 -65zM260 574c-136 0 -180 62 -180 154h115c0 -50 25 -70 65 -70s65 20 65 70h115c0 -92 -43 -154 -180 -154z" />
    <glyph glyph-name="aogonek" unicode="&#x105;" horiz-adv-x="521" 
d="M479 -198h-60c-70 0 -130 22 -130 103c0 45 14 83 45 117v35c-25 -38 -60 -64 -138 -64c-113 0 -168 54 -168 166c0 114 61 170 240 170h66v37c0 40 -9 64 -65 64c-58 0 -71 -14 -80 -60l-140 22c21 108 74 152 225 152c156 0 201 -61 201 -182v-362h-66
c-21 -27 -28 -48 -28 -72c0 -35 13 -43 52 -43h46v-83zM258 103c53 0 77 26 77 76v52h-72c-72 0 -96 -18 -96 -63c0 -50 24 -65 91 -65z" />
    <glyph glyph-name="ae" unicode="&#xe6;" horiz-adv-x="807" 
d="M196 -7c-113 0 -168 54 -168 166c0 113 61 170 240 170h66v37c0 40 -9 64 -65 64c-58 0 -71 -14 -80 -60l-140 22c21 108 74 152 225 152c68 0 111 -15 138 -39c33 24 79 39 143 39c169 0 221 -89 221 -223v-96h-305v-44c0 -46 15 -81 84 -81c68 0 77 25 84 73l136 -21
c-9 -80 -54 -160 -220 -160c-93 0 -150 28 -183 73c-26 -47 -71 -72 -176 -72zM258 103c53 0 77 26 77 76v52h-72c-72 0 -96 -18 -96 -63c0 -50 24 -65 91 -65zM471 326h165v27c0 52 -19 79 -81 79c-63 0 -84 -32 -84 -79v-27z" />
    <glyph glyph-name="ccedilla" unicode="&#xe7;" horiz-adv-x="501" 
d="M172 -241v77h36c49 0 72 6 72 40c0 29 -23 36 -69 36h-11v84c-127 18 -168 102 -168 200v144c0 114 55 204 224 204c168 0 207 -67 220 -178l-140 -21c-6 53 -19 80 -80 80c-63 0 -81 -35 -81 -82v-154c0 -46 18 -81 81 -81c65 0 73 22 82 76l132 -20
c-14 -93 -48 -167 -197 -172v-31c52 -3 88 -24 88 -87c0 -73 -38 -115 -151 -115h-38z" />
    <glyph glyph-name="cacute" unicode="&#x107;" horiz-adv-x="501" 
d="M256 -8c-171 0 -224 93 -224 204v144c0 114 55 204 224 204c168 0 207 -67 220 -178l-140 -21c-6 53 -19 80 -80 80c-63 0 -81 -35 -81 -82v-154c0 -46 18 -81 81 -81c65 0 73 22 82 76l132 -20c-14 -96 -50 -172 -214 -172zM188 576l93 179h138l-107 -179h-124z" />
    <glyph glyph-name="ccircumflex" unicode="&#x109;" horiz-adv-x="501" 
d="M256 -8c-171 0 -224 93 -224 204v144c0 114 55 204 224 204c168 0 207 -67 220 -178l-140 -21c-6 53 -19 80 -80 80c-63 0 -81 -35 -81 -82v-154c0 -46 18 -81 81 -81c65 0 73 22 82 76l132 -20c-14 -96 -50 -172 -214 -172zM59 576l121 167h143l121 -167h-113l-79 75
l-77 -75h-116z" />
    <glyph glyph-name="cdotaccent" unicode="&#x10b;" horiz-adv-x="501" 
d="M256 -8c-171 0 -224 93 -224 204v144c0 114 55 204 224 204c168 0 207 -67 220 -178l-140 -21c-6 53 -19 80 -80 80c-63 0 -81 -35 -81 -82v-154c0 -46 18 -81 81 -81c65 0 73 22 82 76l132 -20c-14 -96 -50 -172 -214 -172zM182 576v144h141v-144h-141z" />
    <glyph glyph-name="ccaron" unicode="&#x10d;" horiz-adv-x="501" 
d="M256 -8c-171 0 -224 93 -224 204v144c0 114 55 204 224 204c168 0 207 -67 220 -178l-140 -21c-6 53 -19 80 -80 80c-63 0 -81 -35 -81 -82v-154c0 -46 18 -81 81 -81c65 0 73 22 82 76l132 -20c-14 -96 -50 -172 -214 -172zM180 576l-121 167h115l78 -76l78 76h114
l-121 -167h-143z" />
    <glyph glyph-name="dcaron" unicode="&#x10f;" horiz-adv-x="549" 
d="M541 569l20 249h129l-44 -249h-105zM219 -8c-141 0 -187 79 -187 197v158c0 118 43 197 192 197c57 0 100 -25 128 -63v299h144v-780h-144v54c-26 -39 -66 -62 -133 -62zM262 108c56 0 88 27 90 75v164c0 47 -33 78 -90 78c-58 0 -86 -32 -86 -82v-154
c0 -51 28 -81 86 -81z" />
    <glyph glyph-name="dcroat" unicode="&#x111;" horiz-adv-x="549" 
d="M254 583v118h98v79h144v-79h54v-118h-54v-583h-144v54c-26 -39 -66 -62 -133 -62c-141 0 -187 79 -187 197v158c0 118 43 197 192 197c57 0 100 -25 128 -63v102h-98zM262 108c56 0 88 27 90 75v164c0 47 -33 78 -90 78c-58 0 -86 -32 -86 -82v-154c0 -51 28 -81 86 -81z
" />
    <glyph glyph-name="eth" unicode="&#xf0;" horiz-adv-x="528" 
d="M234 511v101l95 16c-17 18 -48 26 -100 26h-45v126h55c120 0 206 -34 239 -126l57 10v-102l-41 -7v-359c0 -117 -67 -204 -231 -204c-167 0 -232 87 -232 204v88c0 119 73 198 205 198c47 0 97 -14 114 -47v95zM263 108c57 0 88 31 88 81v101c0 51 -31 81 -88 81
c-59 0 -88 -30 -88 -81v-101c0 -50 29 -81 88 -81z" />
    <glyph glyph-name="egrave" unicode="&#xe8;" horiz-adv-x="508" 
d="M256 -8c-166 0 -224 93 -224 204v144c0 114 57 204 224 204c169 0 220 -89 220 -223v-96h-304v-44c0 -46 15 -81 84 -81c68 0 77 25 83 73l137 -21c-10 -80 -54 -160 -220 -160zM172 326h165v27c0 52 -20 79 -81 79c-63 0 -84 -32 -84 -79v-27zM207 576l-108 177h139
l92 -177h-123z" />
    <glyph glyph-name="eacute" unicode="&#xe9;" horiz-adv-x="508" 
d="M256 -8c-166 0 -224 93 -224 204v144c0 114 57 204 224 204c169 0 220 -89 220 -223v-96h-304v-44c0 -46 15 -81 84 -81c68 0 77 25 83 73l137 -21c-10 -80 -54 -160 -220 -160zM172 326h165v27c0 52 -20 79 -81 79c-63 0 -84 -32 -84 -79v-27zM192 576l93 179h138
l-107 -179h-124z" />
    <glyph glyph-name="ecircumflex" unicode="&#xea;" horiz-adv-x="508" 
d="M256 -8c-166 0 -224 93 -224 204v144c0 114 57 204 224 204c169 0 220 -89 220 -223v-96h-304v-44c0 -46 15 -81 84 -81c68 0 77 25 83 73l137 -21c-10 -80 -54 -160 -220 -160zM172 326h165v27c0 52 -20 79 -81 79c-63 0 -84 -32 -84 -79v-27zM61 576l121 167h143
l121 -167h-113l-79 75l-77 -75h-116z" />
    <glyph glyph-name="edieresis" unicode="&#xeb;" horiz-adv-x="508" 
d="M256 -8c-166 0 -224 93 -224 204v144c0 114 57 204 224 204c169 0 220 -89 220 -223v-96h-304v-44c0 -46 15 -81 84 -81c68 0 77 25 83 73l137 -21c-10 -80 -54 -160 -220 -160zM172 326h165v27c0 52 -20 79 -81 79c-63 0 -84 -32 -84 -79v-27zM93 576v129h125v-129h-125
zM290 576v129h125v-129h-125z" />
    <glyph glyph-name="emacron" unicode="&#x113;" horiz-adv-x="508" 
d="M256 -8c-166 0 -224 93 -224 204v144c0 114 57 204 224 204c169 0 220 -89 220 -223v-96h-304v-44c0 -46 15 -81 84 -81c68 0 77 25 83 73l137 -21c-10 -80 -54 -160 -220 -160zM172 326h165v27c0 52 -20 79 -81 79c-63 0 -84 -32 -84 -79v-27zM105 576v100h298v-100
h-298z" />
    <glyph glyph-name="ebreve" unicode="&#x115;" horiz-adv-x="508" 
d="M256 -8c-166 0 -224 93 -224 204v144c0 114 57 204 224 204c169 0 220 -89 220 -223v-96h-304v-44c0 -46 15 -81 84 -81c68 0 77 25 83 73l137 -21c-10 -80 -54 -160 -220 -160zM172 326h165v27c0 52 -20 79 -81 79c-63 0 -84 -32 -84 -79v-27zM254 574
c-136 0 -180 62 -180 154h115c0 -50 25 -70 65 -70s65 20 65 70h115c0 -92 -43 -154 -180 -154z" />
    <glyph glyph-name="edotaccent" unicode="&#x117;" horiz-adv-x="508" 
d="M256 -8c-166 0 -224 93 -224 204v144c0 114 57 204 224 204c169 0 220 -89 220 -223v-96h-304v-44c0 -46 15 -81 84 -81c68 0 77 25 83 73l137 -21c-10 -80 -54 -160 -220 -160zM172 326h165v27c0 52 -20 79 -81 79c-63 0 -84 -32 -84 -79v-27zM184 576v144h141v-144
h-141z" />
    <glyph glyph-name="eogonek" unicode="&#x119;" horiz-adv-x="508" 
d="M339 173l137 -21c-9 -73 -46 -145 -177 -157c14 19 36 41 67 69h-88c-32 -22 -54 -45 -70 -69c-129 16 -176 101 -176 201v144c0 114 57 204 224 204c169 0 220 -89 220 -223v-96h-304v-44c0 -46 15 -81 84 -81c68 0 77 25 83 73zM374 -198h-60c-70 0 -130 22 -130 103
c0 33 8 63 24 90c15 -2 31 -3 48 -3c15 0 30 1 43 3c-17 -25 -23 -45 -23 -67c0 -35 13 -43 52 -43h46v-83zM172 326h165v27c0 52 -20 79 -81 79c-63 0 -84 -32 -84 -79v-27z" />
    <glyph glyph-name="ecaron" unicode="&#x11b;" horiz-adv-x="508" 
d="M256 -8c-166 0 -224 93 -224 204v144c0 114 57 204 224 204c169 0 220 -89 220 -223v-96h-304v-44c0 -46 15 -81 84 -81c68 0 77 25 83 73l137 -21c-10 -80 -54 -160 -220 -160zM172 326h165v27c0 52 -20 79 -81 79c-63 0 -84 -32 -84 -79v-27zM182 576l-121 167h115
l78 -76l78 76h114l-121 -167h-143z" />
    <glyph glyph-name="gcircumflex" unicode="&#x11d;" horiz-adv-x="517" 
d="M256 176h-19c-37 0 -43 -7 -43 -25s6 -24 40 -24l54 -2c175 -4 212 -53 212 -150v-12c0 -83 -40 -163 -243 -163c-208 0 -242 60 -242 142v12c0 46 25 84 78 109c-12 17 -17 38 -17 62c0 35 13 60 39 77c-63 31 -82 85 -82 139v34c0 84 44 167 220 167c29 0 55 -2 77 -6
h170v-115h-48c10 -20 16 -43 16 -61v-21c0 -79 -38 -163 -212 -163zM61 576l121 167h143l121 -167h-113l-79 75l-77 -75h-116zM253 270c64 0 87 31 87 76v18c0 40 -23 71 -87 71c-65 0 -85 -31 -85 -71v-20c0 -46 20 -74 85 -74zM174 16h-1c-21 -17 -25 -38 -25 -53v-9
c0 -34 17 -56 109 -56s111 19 111 54v9c0 36 -13 49 -106 52z" />
    <glyph glyph-name="gbreve" unicode="&#x11f;" horiz-adv-x="517" 
d="M256 176h-19c-37 0 -43 -7 -43 -25s6 -24 40 -24l54 -2c175 -4 212 -53 212 -150v-12c0 -83 -40 -163 -243 -163c-208 0 -242 60 -242 142v12c0 46 25 84 78 109c-12 17 -17 38 -17 62c0 35 13 60 39 77c-63 31 -82 85 -82 139v34c0 84 44 167 220 167c29 0 55 -2 77 -6
h170v-115h-48c10 -20 16 -43 16 -61v-21c0 -79 -38 -163 -212 -163zM257 574c-136 0 -180 62 -180 154h115c0 -50 25 -70 65 -70s65 20 65 70h115c0 -92 -43 -154 -180 -154zM253 270c64 0 87 31 87 76v18c0 40 -23 71 -87 71c-65 0 -85 -31 -85 -71v-20
c0 -46 20 -74 85 -74zM174 16h-1c-21 -17 -25 -38 -25 -53v-9c0 -34 17 -56 109 -56s111 19 111 54v9c0 36 -13 49 -106 52z" />
    <glyph glyph-name="gdotaccent" unicode="&#x121;" horiz-adv-x="517" 
d="M256 176h-19c-37 0 -43 -7 -43 -25s6 -24 40 -24l54 -2c175 -4 212 -53 212 -150v-12c0 -83 -40 -163 -243 -163c-208 0 -242 60 -242 142v12c0 46 25 84 78 109c-12 17 -17 38 -17 62c0 35 13 60 39 77c-63 31 -82 85 -82 139v34c0 84 44 167 220 167c29 0 55 -2 77 -6
h170v-115h-48c10 -20 16 -43 16 -61v-21c0 -79 -38 -163 -212 -163zM253 270c64 0 87 31 87 76v18c0 40 -23 71 -87 71c-65 0 -85 -31 -85 -71v-20c0 -46 20 -74 85 -74zM174 16h-1c-21 -17 -25 -38 -25 -53v-9c0 -34 17 -56 109 -56s111 19 111 54v9c0 36 -13 49 -106 52z
M184 576v144h141v-144h-141z" />
    <glyph glyph-name="gcommaaccent" unicode="&#x123;" horiz-adv-x="517" 
d="M256 176h-19c-37 0 -43 -7 -43 -25s6 -24 40 -24l54 -2c175 -4 212 -53 212 -150v-12c0 -83 -40 -163 -243 -163c-208 0 -242 60 -242 142v12c0 46 25 84 78 109c-12 17 -17 38 -17 62c0 35 13 60 39 77c-63 31 -82 85 -82 139v34c0 84 44 167 220 167c29 0 55 -2 77 -6
h170v-115h-48c10 -20 16 -43 16 -61v-21c0 -79 -38 -163 -212 -163zM192 576v139l41 102h77l-40 -102h58v-139h-136zM253 270c64 0 87 31 87 76v18c0 40 -23 71 -87 71c-65 0 -85 -31 -85 -71v-20c0 -46 20 -74 85 -74zM174 16h-1c-21 -17 -25 -38 -25 -53v-9
c0 -34 17 -56 109 -56s111 19 111 54v9c0 36 -13 49 -106 52z" />
    <glyph glyph-name="hcircumflex" unicode="&#x125;" 
d="M53 0v780h144v-307c33 49 79 71 144 71c131 0 168 -70 168 -158v-386h-144v362c0 37 -28 60 -82 60c-43 0 -86 -25 -86 -64v-358h-144zM-68 797l121 167h143l121 -167h-113l-79 75l-77 -75h-116z" />
    <glyph glyph-name="hbar" unicode="&#x127;" 
d="M-2 583v118h55v79h144v-79h97v-118h-97v-110c33 49 79 71 144 71c131 0 168 -70 168 -158v-386h-144v362c0 37 -28 60 -82 60c-43 0 -86 -25 -86 -64v-358h-144v583h-55z" />
    <glyph glyph-name="igrave" unicode="&#xec;" horiz-adv-x="261" 
d="M59 0v536h144v-536h-144zM81 576l-108 177h139l92 -177h-123z" />
    <glyph glyph-name="iacute" unicode="&#xed;" horiz-adv-x="261" 
d="M59 0v536h144v-536h-144zM71 576l93 179h138l-107 -179h-124z" />
    <glyph glyph-name="icircumflex" unicode="&#xee;" horiz-adv-x="261" 
d="M59 0v536h144v-536h-144zM-63 576l121 167h143l121 -167h-113l-79 75l-77 -75h-116z" />
    <glyph glyph-name="itilde" unicode="&#x129;" horiz-adv-x="261" 
d="M59 0v536h144v-536h-144zM51 576h-100c0 85 20 139 105 139c54 0 105 -36 129 -36c18 0 26 11 26 36h100c0 -85 -21 -139 -107 -139c-52 0 -104 36 -127 36c-18 0 -26 -11 -26 -36z" />
    <glyph glyph-name="idieresis" unicode="&#xef;" horiz-adv-x="261" 
d="M59 0v536h144v-536h-144zM-31 576v129h125v-129h-125zM166 576v129h125v-129h-125z" />
    <glyph glyph-name="imacron" unicode="&#x12b;" horiz-adv-x="261" 
d="M59 0v536h144v-536h-144zM-19 576v100h298v-100h-298z" />
    <glyph glyph-name="ibreve" unicode="&#x12d;" horiz-adv-x="261" 
d="M59 0v536h144v-536h-144zM130 574c-136 0 -180 62 -180 154h115c0 -50 25 -70 65 -70s65 20 65 70h115c0 -92 -43 -154 -180 -154z" />
    <glyph glyph-name="iogonek" unicode="&#x12f;" horiz-adv-x="261" 
d="M176 -198h-60c-70 0 -130 22 -130 103c0 56 22 101 73 143v488h144v-536h-97c-21 -27 -28 -48 -28 -72c0 -35 13 -43 52 -43h46v-83zM58 600v139h146v-139h-146z" />
    <glyph glyph-name="dotlessi" unicode="&#x131;" horiz-adv-x="261" 
d="M59 0v536h144v-536h-144z" />
    <glyph glyph-name="ij" unicode="&#x133;" horiz-adv-x="505" 
d="M59 0v536h144v-536h-144zM58 600v139h146v-139h-146zM224 -198v125h33c38 0 45 16 45 59v550h144v-571c0 -109 -45 -163 -171 -163h-51zM302 600v139h145v-139h-145z" />
    <glyph glyph-name="jcircumflex" unicode="&#x135;" horiz-adv-x="261" 
d="M-20 -198v125h33c39 0 46 16 46 59v550h144v-571c0 -109 -45 -163 -171 -163h-52zM-63 576l121 167h143l121 -167h-113l-79 75l-77 -75h-116z" />
    <glyph glyph-name="kcommaaccent" unicode="&#x137;" horiz-adv-x="504" 
d="M53 0v780h144v-412l145 168h155l-172 -196l179 -340h-153l-123 233l-31 -34v-199h-144zM201 -269l41 102h-59v139h136v-139l-40 -102h-78z" />
    <glyph glyph-name="lacute" unicode="&#x13a;" horiz-adv-x="261" 
d="M59 0v780h144v-780h-144zM69 800l93 179h138l-107 -179h-124z" />
    <glyph glyph-name="lcommaaccent" unicode="&#x13c;" horiz-adv-x="261" 
d="M59 0v780h144v-780h-144zM80 -269l41 102h-59v139h136v-139l-40 -102h-78z" />
    <glyph glyph-name="lcaron" unicode="&#x13e;" horiz-adv-x="261" 
d="M249 569l20 249h129l-43 -249h-106zM59 0v780h144v-780h-144z" />
    <glyph glyph-name="ldot" unicode="&#x140;" horiz-adv-x="361" 
d="M247 277v132h129v-132h-129zM59 0v780h144v-780h-144z" />
    <glyph glyph-name="lslash" unicode="&#x142;" horiz-adv-x="275" 
d="M68 0v370l-52 -19v125l52 20v284h142v-236l50 20v-125l-50 -19v-420h-142z" />
    <glyph glyph-name="ntilde" unicode="&#xf1;" 
d="M53 0v536h144v-63c33 49 79 71 144 71c131 0 168 -70 168 -158v-386h-144v362c0 37 -28 60 -82 60c-44 0 -86 -25 -86 -67v-355h-144zM198 576h-100c0 85 20 139 105 139c54 0 105 -36 129 -36c18 0 26 11 26 36h100c0 -85 -21 -139 -107 -139c-52 0 -104 36 -127 36
c-18 0 -26 -11 -26 -36z" />
    <glyph glyph-name="nacute" unicode="&#x144;" 
d="M53 0v536h144v-63c33 49 79 71 144 71c131 0 168 -70 168 -158v-386h-144v362c0 37 -28 60 -82 60c-44 0 -86 -25 -86 -67v-355h-144zM215 576l93 179h138l-107 -179h-124z" />
    <glyph glyph-name="ncommaaccent" unicode="&#x146;" 
d="M53 0v536h144v-63c33 49 79 71 144 71c131 0 168 -70 168 -158v-386h-144v362c0 37 -28 60 -82 60c-44 0 -86 -25 -86 -67v-355h-144zM227 -269l41 102h-59v139h136v-139l-40 -102h-78z" />
    <glyph glyph-name="ncaron" unicode="&#x148;" 
d="M53 0v536h144v-63c33 49 79 71 144 71c131 0 168 -70 168 -158v-386h-144v362c0 37 -28 60 -82 60c-44 0 -86 -25 -86 -67v-355h-144zM205 576l-121 167h115l78 -76l78 76h114l-121 -167h-143z" />
    <glyph glyph-name="eng" unicode="&#x14b;" 
d="M286 -198v125h33c39 0 46 16 46 59v376c0 37 -28 60 -82 60c-44 0 -86 -25 -86 -67v-355h-144v536h144v-63c33 49 79 71 144 71c131 0 168 -70 168 -158v-421c0 -109 -45 -163 -171 -163h-52z" />
    <glyph glyph-name="ograve" unicode="&#xf2;" horiz-adv-x="528" 
d="M263 108c58 0 89 31 89 81v154c0 51 -31 82 -89 82s-87 -31 -87 -82v-154c0 -50 29 -81 87 -81zM263 -8c-166 0 -231 87 -231 204v144c0 119 66 204 231 204s233 -85 233 -204v-144c0 -117 -68 -204 -233 -204zM217 576l-108 177h139l92 -177h-123z" />
    <glyph glyph-name="oacute" unicode="&#xf3;" horiz-adv-x="528" 
d="M263 108c58 0 89 31 89 81v154c0 51 -31 82 -89 82s-87 -31 -87 -82v-154c0 -50 29 -81 87 -81zM263 -8c-166 0 -231 87 -231 204v144c0 119 66 204 231 204s233 -85 233 -204v-144c0 -117 -68 -204 -233 -204zM201 576l93 179h138l-107 -179h-124z" />
    <glyph glyph-name="ocircumflex" unicode="&#xf4;" horiz-adv-x="528" 
d="M263 108c58 0 89 31 89 81v154c0 51 -31 82 -89 82s-87 -31 -87 -82v-154c0 -50 29 -81 87 -81zM263 -8c-166 0 -231 87 -231 204v144c0 119 66 204 231 204s233 -85 233 -204v-144c0 -117 -68 -204 -233 -204zM70 576l121 167h143l121 -167h-113l-79 75l-77 -75h-116z
" />
    <glyph glyph-name="otilde" unicode="&#xf5;" horiz-adv-x="528" 
d="M263 108c58 0 89 31 89 81v154c0 51 -31 82 -89 82s-87 -31 -87 -82v-154c0 -50 29 -81 87 -81zM263 -8c-166 0 -231 87 -231 204v144c0 119 66 204 231 204s233 -85 233 -204v-144c0 -117 -68 -204 -233 -204zM184 576h-100c0 85 20 139 105 139c54 0 105 -36 129 -36
c18 0 26 11 26 36h100c0 -85 -21 -139 -107 -139c-52 0 -104 36 -127 36c-18 0 -26 -11 -26 -36z" />
    <glyph glyph-name="odieresis" unicode="&#xf6;" horiz-adv-x="528" 
d="M263 108c58 0 89 31 89 81v154c0 51 -31 82 -89 82s-87 -31 -87 -82v-154c0 -50 29 -81 87 -81zM263 -8c-166 0 -231 87 -231 204v144c0 119 66 204 231 204s233 -85 233 -204v-144c0 -117 -68 -204 -233 -204zM102 576v129h125v-129h-125zM299 576v129h125v-129h-125z
" />
    <glyph glyph-name="omacron" unicode="&#x14d;" horiz-adv-x="528" 
d="M263 108c58 0 89 31 89 81v154c0 51 -31 82 -89 82s-87 -31 -87 -82v-154c0 -50 29 -81 87 -81zM263 -8c-166 0 -231 87 -231 204v144c0 119 66 204 231 204s233 -85 233 -204v-144c0 -117 -68 -204 -233 -204zM114 576v100h298v-100h-298z" />
    <glyph glyph-name="obreve" unicode="&#x14f;" horiz-adv-x="528" 
d="M263 108c58 0 89 31 89 81v154c0 51 -31 82 -89 82s-87 -31 -87 -82v-154c0 -50 29 -81 87 -81zM263 -8c-166 0 -231 87 -231 204v144c0 119 66 204 231 204s233 -85 233 -204v-144c0 -117 -68 -204 -233 -204zM263 574c-136 0 -180 62 -180 154h115c0 -50 25 -70 65 -70
s65 20 65 70h115c0 -92 -43 -154 -180 -154z" />
    <glyph glyph-name="ohungarumlaut" unicode="&#x151;" horiz-adv-x="528" 
d="M263 108c58 0 89 31 89 81v154c0 51 -31 82 -89 82s-87 -31 -87 -82v-154c0 -50 29 -81 87 -81zM263 -8c-166 0 -231 87 -231 204v144c0 119 66 204 231 204s233 -85 233 -204v-144c0 -117 -68 -204 -233 -204zM111 576l93 179h127l-108 -179h-112zM292 576l92 179h128
l-108 -179h-112z" />
    <glyph glyph-name="oslash" unicode="&#xf8;" horiz-adv-x="528" 
d="M39 -72l54 116c-43 36 -61 89 -61 152v144c0 119 66 202 231 202c23 0 44 -2 63 -5l33 69h138l-56 -120c38 -36 55 -86 55 -146v-144c0 -117 -68 -202 -233 -202c-19 0 -37 2 -53 4l-32 -70h-139zM263 108c58 0 89 31 89 81v154c0 54 -31 82 -89 82s-87 -31 -87 -82v-154
c0 -54 29 -81 87 -81z" />
    <glyph glyph-name="oe" unicode="&#x153;" horiz-adv-x="828" 
d="M263 -8c-166 0 -231 87 -231 204v144c0 119 66 204 231 204c73 0 124 -21 157 -53c33 32 83 53 155 53c170 0 221 -89 221 -223v-96h-305v-44c0 -46 16 -81 84 -81c69 0 78 25 84 73l137 -21c-10 -80 -54 -160 -221 -160c-71 0 -122 20 -155 53c-33 -33 -84 -53 -157 -53
zM263 108c58 0 89 31 89 81v154c0 51 -31 82 -89 82s-87 -31 -87 -82v-154c0 -50 29 -81 87 -81zM491 326h166v27c0 52 -20 79 -82 79s-84 -32 -84 -79v-27z" />
    <glyph glyph-name="racute" unicode="&#x155;" horiz-adv-x="360" 
d="M53 0v536h144v-65c29 44 71 70 128 71h20v-121h-20c-69 0 -128 -22 -128 -76v-345h-144zM118 576l93 179h138l-107 -179h-124z" />
    <glyph glyph-name="rcommaaccent" unicode="&#x157;" horiz-adv-x="360" 
d="M53 0v536h144v-65c29 44 71 70 128 71h20v-121h-20c-69 0 -128 -22 -128 -76v-345h-144zM73 -269l41 102h-59v139h136v-139l-40 -102h-78z" />
    <glyph glyph-name="rcaron" unicode="&#x159;" horiz-adv-x="360" 
d="M53 0v536h144v-65c29 44 71 70 128 71h20v-121h-20c-69 0 -128 -22 -128 -76v-345h-144zM108 576l-121 167h115l78 -76l78 76h114l-121 -167h-143z" />
    <glyph glyph-name="sacute" unicode="&#x15b;" horiz-adv-x="497" 
d="M253 -7c-152 0 -213 43 -226 150l138 21c8 -53 27 -64 90 -64c57 0 76 14 76 46c0 39 -22 49 -79 60c-92 16 -216 30 -215 166c0 105 56 171 215 171c145 0 200 -51 212 -152l-142 -22c-5 47 -20 63 -74 63c-44 0 -71 -12 -71 -44c0 -43 31 -49 99 -61
c89 -15 196 -38 196 -161c0 -100 -44 -173 -219 -173zM186 576l93 179h138l-107 -179h-124z" />
    <glyph glyph-name="scircumflex" unicode="&#x15d;" horiz-adv-x="497" 
d="M253 -7c-152 0 -213 43 -226 150l138 21c8 -53 27 -64 90 -64c57 0 76 14 76 46c0 39 -22 49 -79 60c-92 16 -216 30 -215 166c0 105 56 171 215 171c145 0 200 -51 212 -152l-142 -22c-5 47 -20 63 -74 63c-44 0 -71 -12 -71 -44c0 -43 31 -49 99 -61
c89 -15 196 -38 196 -161c0 -100 -44 -173 -219 -173zM55 576l121 167h143l121 -167h-113l-79 75l-77 -75h-116z" />
    <glyph glyph-name="scedilla" unicode="&#x15f;" horiz-adv-x="497" 
d="M170 -241v77h36c49 0 72 6 72 40c0 29 -23 36 -69 36h-11v83c-112 10 -160 55 -171 148l138 21c8 -53 27 -64 90 -64c57 0 76 14 76 46c0 39 -22 49 -79 60c-92 16 -216 30 -215 166c0 105 56 171 215 171c145 0 200 -51 212 -152l-142 -22c-5 47 -20 63 -74 63
c-44 0 -71 -12 -71 -44c0 -43 31 -49 99 -61c89 -15 196 -38 196 -161c0 -97 -41 -168 -201 -173v-32c52 -3 88 -24 88 -87c0 -73 -38 -115 -151 -115h-38z" />
    <glyph glyph-name="scaron" unicode="&#x161;" horiz-adv-x="497" 
d="M253 -7c-152 0 -213 43 -226 150l138 21c8 -53 27 -64 90 -64c57 0 76 14 76 46c0 39 -22 49 -79 60c-92 16 -216 30 -215 166c0 105 56 171 215 171c145 0 200 -51 212 -152l-142 -22c-5 47 -20 63 -74 63c-44 0 -71 -12 -71 -44c0 -43 31 -49 99 -61
c89 -15 196 -38 196 -161c0 -100 -44 -173 -219 -173zM176 576l-121 167h115l78 -76l78 76h114l-121 -167h-143z" />
    <glyph glyph-name="scommaaccent" unicode="&#x219;" horiz-adv-x="497" 
d="M253 -7c-152 0 -213 43 -226 150l138 21c8 -53 27 -64 90 -64c57 0 76 14 76 46c0 39 -22 49 -79 60c-92 16 -216 30 -215 166c0 105 56 171 215 171c145 0 200 -51 212 -152l-142 -22c-5 47 -20 63 -74 63c-44 0 -71 -12 -71 -44c0 -43 31 -49 99 -61
c89 -15 196 -38 196 -161c0 -100 -44 -173 -219 -173zM198 -269l41 102h-59v139h136v-139l-40 -102h-78z" />
    <glyph glyph-name="germandbls" unicode="&#xdf;" horiz-adv-x="568" 
d="M53 0v585c0 120 71 188 234 188c147 0 233 -60 233 -196v-16c0 -73 -18 -125 -69 -144c53 -13 82 -53 82 -147v-71c0 -131 -70 -198 -232 -199h-56v125h56c70 0 89 36 89 75v75c0 39 -17 69 -87 69h-58v124h43c69 0 90 21 90 74v34c0 43 -28 70 -91 70
c-64 0 -91 -24 -91 -66v-580h-143z" />
    <glyph glyph-name="tcommaaccent" unicode="&#x163;" horiz-adv-x="396" 
d="M363 0h-98c-138 0 -170 53 -170 171v247h-76v118h76v165h143v-165h125v-118h-125v-243c0 -40 6 -57 46 -57h79v-118zM128 -269l41 102h-59v139h136v-139l-40 -102h-78z" />
    <glyph glyph-name="tcommaaccent" unicode="&#x21b;" horiz-adv-x="396" 
d="M363 0h-98c-138 0 -170 53 -170 171v247h-76v118h76v165h143v-165h125v-118h-125v-243c0 -40 6 -57 46 -57h79v-118zM128 -269l41 102h-59v139h136v-139l-40 -102h-78z" />
    <glyph glyph-name="tcaron" unicode="&#x165;" horiz-adv-x="396" 
d="M284 569l20 249h129l-43 -249h-106zM363 0h-98c-138 0 -170 53 -170 171v247h-76v118h76v165h143v-165h125v-118h-125v-243c0 -40 6 -57 46 -57h79v-118z" />
    <glyph glyph-name="tbar" unicode="&#x167;" horiz-adv-x="396" 
d="M19 235v118h76v65h-76v118h76v165h143v-165h125v-118h-125v-65h125v-118h-125v-60c0 -40 6 -57 46 -57h79v-118h-98c-138 0 -170 53 -170 171v64h-76z" />
    <glyph glyph-name="thorn" unicode="&#xfe;" horiz-adv-x="548" 
d="M53 -198v978h144v-301c27 40 68 65 135 65c141 0 184 -78 184 -197v-158c0 -117 -47 -195 -191 -195c-62 0 -102 19 -128 57v-249h-144zM286 108c58 0 86 31 86 81v154c0 51 -28 82 -86 82c-56 0 -89 -29 -89 -76v-160c0 -50 31 -81 89 -81z" />
    <glyph glyph-name="ugrave" unicode="&#xf9;" 
d="M215 -8c-131 0 -168 70 -168 158v386h144v-362c0 -37 27 -60 81 -60c45 0 87 25 87 68v354h144v-536h-144v62c-33 -48 -80 -70 -144 -70zM230 576l-108 177h139l92 -177h-123z" />
    <glyph glyph-name="uacute" unicode="&#xfa;" 
d="M215 -8c-131 0 -168 70 -168 158v386h144v-362c0 -37 27 -60 81 -60c45 0 87 25 87 68v354h144v-536h-144v62c-33 -48 -80 -70 -144 -70zM215 576l93 179h138l-107 -179h-124z" />
    <glyph glyph-name="ucircumflex" unicode="&#xfb;" 
d="M215 -8c-131 0 -168 70 -168 158v386h144v-362c0 -37 27 -60 81 -60c45 0 87 25 87 68v354h144v-536h-144v62c-33 -48 -80 -70 -144 -70zM84 576l121 167h143l121 -167h-113l-79 75l-77 -75h-116z" />
    <glyph glyph-name="utilde" unicode="&#x169;" 
d="M215 -8c-131 0 -168 70 -168 158v386h144v-362c0 -37 27 -60 81 -60c45 0 87 25 87 68v354h144v-536h-144v62c-33 -48 -80 -70 -144 -70zM198 576h-100c0 85 20 139 105 139c54 0 105 -36 129 -36c18 0 26 11 26 36h100c0 -85 -21 -139 -107 -139c-52 0 -104 36 -127 36
c-18 0 -26 -11 -26 -36z" />
    <glyph glyph-name="udieresis" unicode="&#xfc;" 
d="M215 -8c-131 0 -168 70 -168 158v386h144v-362c0 -37 27 -60 81 -60c45 0 87 25 87 68v354h144v-536h-144v62c-33 -48 -80 -70 -144 -70zM116 576v129h125v-129h-125zM313 576v129h125v-129h-125z" />
    <glyph glyph-name="umacron" unicode="&#x16b;" 
d="M215 -8c-131 0 -168 70 -168 158v386h144v-362c0 -37 27 -60 81 -60c45 0 87 25 87 68v354h144v-536h-144v62c-33 -48 -80 -70 -144 -70zM128 576v100h298v-100h-298z" />
    <glyph glyph-name="ubreve" unicode="&#x16d;" 
d="M215 -8c-131 0 -168 70 -168 158v386h144v-362c0 -37 27 -60 81 -60c45 0 87 25 87 68v354h144v-536h-144v62c-33 -48 -80 -70 -144 -70zM277 574c-136 0 -180 62 -180 154h115c0 -50 25 -70 65 -70s65 20 65 70h115c0 -92 -43 -154 -180 -154z" />
    <glyph glyph-name="uring" unicode="&#x16f;" 
d="M215 -8c-131 0 -168 70 -168 158v386h144v-362c0 -37 27 -60 81 -60c45 0 87 25 87 68v354h144v-536h-144v62c-33 -48 -80 -70 -144 -70zM277 574c-74 0 -121 30 -121 118c0 90 47 121 121 121c75 0 121 -31 121 -121c0 -88 -46 -118 -121 -118zM277 639
c34 0 48 16 48 53c0 38 -14 55 -48 55c-33 0 -48 -17 -48 -55c0 -37 15 -53 48 -53z" />
    <glyph glyph-name="uhungarumlaut" unicode="&#x171;" 
d="M215 -8c-131 0 -168 70 -168 158v386h144v-362c0 -37 27 -60 81 -60c45 0 87 25 87 68v354h144v-536h-144v62c-33 -48 -80 -70 -144 -70zM125 576l93 179h127l-108 -179h-112zM306 576l92 179h128l-108 -179h-112z" />
    <glyph glyph-name="uogonek" unicode="&#x173;" 
d="M215 -8c-131 0 -168 70 -168 158v386h144v-362c0 -37 27 -60 81 -60c45 0 87 25 87 68v354h144v-536h-66c14 18 33 38 62 64h-88c-21 -15 -39 -30 -52 -46v44c-33 -48 -80 -70 -144 -70zM507 -198h-60c-70 0 -130 22 -130 103c0 43 13 80 42 113v-18h78
c-21 -27 -28 -48 -28 -72c0 -35 13 -43 52 -43h46v-83z" />
    <glyph glyph-name="wgrave" unicode="&#x1e81;" horiz-adv-x="765" 
d="M157 0l-143 536h142l81 -333h2l72 333h149l71 -330h2l81 330h137l-139 -536h-154l-73 334h-1l-72 -334h-155zM335 576l-108 177h139l92 -177h-123z" />
    <glyph glyph-name="wacute" unicode="&#x1e83;" horiz-adv-x="765" 
d="M157 0l-143 536h142l81 -333h2l72 333h149l71 -330h2l81 330h137l-139 -536h-154l-73 334h-1l-72 -334h-155zM320 576l93 179h138l-107 -179h-124z" />
    <glyph glyph-name="wcircumflex" unicode="&#x175;" horiz-adv-x="765" 
d="M157 0l-143 536h142l81 -333h2l72 333h149l71 -330h2l81 330h137l-139 -536h-154l-73 334h-1l-72 -334h-155zM189 576l121 167h143l121 -167h-113l-79 75l-77 -75h-116z" />
    <glyph glyph-name="wdieresis" unicode="&#x1e85;" horiz-adv-x="765" 
d="M157 0l-143 536h142l81 -333h2l72 333h149l71 -330h2l81 330h137l-139 -536h-154l-73 334h-1l-72 -334h-155zM221 576v129h125v-129h-125zM418 576v129h125v-129h-125z" />
    <glyph glyph-name="ygrave" unicode="&#x1ef3;" horiz-adv-x="505" 
d="M113 -198l69 202l-179 532h145l104 -349h2l105 349h142l-246 -734h-142zM205 576l-108 177h139l92 -177h-123z" />
    <glyph glyph-name="yacute" unicode="&#xfd;" horiz-adv-x="505" 
d="M113 -198l69 202l-179 532h145l104 -349h2l105 349h142l-246 -734h-142zM189 576l93 179h138l-107 -179h-124z" />
    <glyph glyph-name="ycircumflex" unicode="&#x177;" horiz-adv-x="505" 
d="M113 -198l69 202l-179 532h145l104 -349h2l105 349h142l-246 -734h-142zM58 576l121 167h143l121 -167h-113l-79 75l-77 -75h-116z" />
    <glyph glyph-name="ydieresis" unicode="&#xff;" horiz-adv-x="505" 
d="M113 -198l69 202l-179 532h145l104 -349h2l105 349h142l-246 -734h-142zM90 576v129h125v-129h-125zM287 576v129h125v-129h-125z" />
    <glyph glyph-name="zacute" unicode="&#x17a;" horiz-adv-x="456" 
d="M25 0v107l225 309h-219v120h394v-111l-224 -310h231v-115h-407zM166 576l93 179h138l-107 -179h-124z" />
    <glyph glyph-name="zdotaccent" unicode="&#x17c;" horiz-adv-x="456" 
d="M25 0v107l225 309h-219v120h394v-111l-224 -310h231v-115h-407zM158 576v144h141v-144h-141z" />
    <glyph glyph-name="zcaron" unicode="&#x17e;" horiz-adv-x="456" 
d="M25 0v107l225 309h-219v120h394v-111l-224 -310h231v-115h-407zM156 576l-121 167h115l78 -76l78 76h114l-121 -167h-143z" />
    <glyph glyph-name="schwa" unicode="&#x259;" horiz-adv-x="508" 
d="M252 -8c-169 0 -220 88 -220 222v97h304v42c0 46 -15 80 -84 80c-67 0 -77 -22 -83 -70l-137 21c10 80 54 160 220 160s224 -93 224 -205v-143c0 -114 -57 -204 -224 -204zM252 101c63 0 84 33 84 80v29h-165v-29c0 -52 20 -80 81 -80z" />
    <glyph glyph-name="a.salt_simple" horiz-adv-x="544" 
d="M219 -8c-141 0 -187 79 -187 197v158c0 118 43 197 192 197c57 0 95 -24 124 -63v55h144v-536h-144v54c-27 -39 -62 -62 -129 -62zM261 108c56 0 85 27 87 75v164c0 47 -31 78 -87 78c-58 0 -85 -32 -85 -82v-154c0 -51 27 -81 85 -81z" />
    <glyph glyph-name="agrave.salt_simple" horiz-adv-x="544" 
d="M219 -8c-141 0 -187 79 -187 197v158c0 118 43 197 192 197c57 0 95 -24 124 -63v55h144v-536h-144v54c-27 -39 -62 -62 -129 -62zM261 108c56 0 85 27 87 75v164c0 47 -31 78 -87 78c-58 0 -85 -32 -85 -82v-154c0 -51 27 -81 85 -81zM225 576l-108 177h139l92 -177
h-123z" />
    <glyph glyph-name="aacute.salt_simple" horiz-adv-x="544" 
d="M219 -8c-141 0 -187 79 -187 197v158c0 118 43 197 192 197c57 0 95 -24 124 -63v55h144v-536h-144v54c-27 -39 -62 -62 -129 -62zM261 108c56 0 85 27 87 75v164c0 47 -31 78 -87 78c-58 0 -85 -32 -85 -82v-154c0 -51 27 -81 85 -81zM210 576l93 179h138l-107 -179
h-124z" />
    <glyph glyph-name="acircumflex.salt_simple" horiz-adv-x="544" 
d="M219 -8c-141 0 -187 79 -187 197v158c0 118 43 197 192 197c57 0 95 -24 124 -63v55h144v-536h-144v54c-27 -39 -62 -62 -129 -62zM261 108c56 0 85 27 87 75v164c0 47 -31 78 -87 78c-58 0 -85 -32 -85 -82v-154c0 -51 27 -81 85 -81zM79 576l121 167h143l121 -167h-113
l-79 75l-77 -75h-116z" />
    <glyph glyph-name="atilde.salt_simple" horiz-adv-x="544" 
d="M219 -8c-141 0 -187 79 -187 197v158c0 118 43 197 192 197c57 0 95 -24 124 -63v55h144v-536h-144v54c-27 -39 -62 -62 -129 -62zM261 108c56 0 85 27 87 75v164c0 47 -31 78 -87 78c-58 0 -85 -32 -85 -82v-154c0 -51 27 -81 85 -81zM193 576h-100c0 85 20 139 105 139
c54 0 105 -36 129 -36c18 0 26 11 26 36h100c0 -85 -21 -139 -107 -139c-52 0 -104 36 -127 36c-18 0 -26 -11 -26 -36z" />
    <glyph glyph-name="adieresis.salt_simple" horiz-adv-x="544" 
d="M219 -8c-141 0 -187 79 -187 197v158c0 118 43 197 192 197c57 0 95 -24 124 -63v55h144v-536h-144v54c-27 -39 -62 -62 -129 -62zM261 108c56 0 85 27 87 75v164c0 47 -31 78 -87 78c-58 0 -85 -32 -85 -82v-154c0 -51 27 -81 85 -81zM111 576v129h125v-129h-125z
M308 576v129h125v-129h-125z" />
    <glyph glyph-name="aring.salt_simple" horiz-adv-x="544" 
d="M219 -8c-141 0 -187 79 -187 197v158c0 118 43 197 192 197c57 0 95 -24 124 -63v55h144v-536h-144v54c-27 -39 -62 -62 -129 -62zM261 108c56 0 85 27 87 75v164c0 47 -31 78 -87 78c-58 0 -85 -32 -85 -82v-154c0 -51 27 -81 85 -81zM272 574c-74 0 -121 30 -121 118
c0 90 47 121 121 121c75 0 121 -31 121 -121c0 -88 -46 -118 -121 -118zM272 639c34 0 48 16 48 53c0 38 -14 55 -48 55c-33 0 -48 -17 -48 -55c0 -37 15 -53 48 -53z" />
    <glyph glyph-name="amacron.salt_simple" horiz-adv-x="544" 
d="M219 -8c-141 0 -187 79 -187 197v158c0 118 43 197 192 197c57 0 95 -24 124 -63v55h144v-536h-144v54c-27 -39 -62 -62 -129 -62zM261 108c56 0 85 27 87 75v164c0 47 -31 78 -87 78c-58 0 -85 -32 -85 -82v-154c0 -51 27 -81 85 -81zM123 576v100h298v-100h-298z" />
    <glyph glyph-name="abreve.salt_simple" horiz-adv-x="544" 
d="M219 -8c-141 0 -187 79 -187 197v158c0 118 43 197 192 197c57 0 95 -24 124 -63v55h144v-536h-144v54c-27 -39 -62 -62 -129 -62zM261 108c56 0 85 27 87 75v164c0 47 -31 78 -87 78c-58 0 -85 -32 -85 -82v-154c0 -51 27 -81 85 -81zM272 574c-136 0 -180 62 -180 154
h115c0 -50 25 -70 65 -70s65 20 65 70h115c0 -92 -43 -154 -180 -154z" />
    <glyph glyph-name="aogonek.salt_simple" horiz-adv-x="544" 
d="M219 -8c-141 0 -187 79 -187 197v158c0 118 43 197 192 197c57 0 95 -24 124 -63v55h144v-536h-65c14 18 34 38 62 64h-88c-22 -15 -39 -31 -53 -47v37c-27 -39 -62 -62 -129 -62zM261 108c56 0 85 27 87 75v164c0 47 -31 78 -87 78c-58 0 -85 -32 -85 -82v-154
c0 -51 27 -81 85 -81zM497 -198h-60c-70 0 -130 22 -130 103c0 43 12 79 41 112v-17h79c-21 -27 -28 -48 -28 -72c0 -35 13 -43 52 -43h46v-83z" />
    <glyph glyph-name="g.salt_simple" horiz-adv-x="549" 
d="M267 -201c-146 0 -210 35 -224 146l141 26c7 -49 21 -64 83 -64c72 0 85 27 85 70v84c-28 -39 -69 -63 -126 -63c-151 0 -194 79 -194 197v152c0 117 43 197 192 197c62 0 101 -26 128 -63v55h144v-548c0 -133 -56 -189 -229 -189zM262 108c57 0 90 30 90 76v163
c0 47 -33 78 -90 78c-58 0 -86 -32 -86 -82v-154c0 -51 28 -81 86 -81z" />
    <glyph glyph-name="gcircumflex.salt_simple" horiz-adv-x="549" 
d="M267 -201c-146 0 -210 35 -224 146l141 26c7 -49 21 -64 83 -64c72 0 85 27 85 70v84c-28 -39 -69 -63 -126 -63c-151 0 -194 79 -194 197v152c0 117 43 197 192 197c62 0 101 -26 128 -63v55h144v-548c0 -133 -56 -189 -229 -189zM262 108c57 0 90 30 90 76v163
c0 47 -33 78 -90 78c-58 0 -86 -32 -86 -82v-154c0 -51 28 -81 86 -81zM81 576l121 167h143l121 -167h-113l-79 75l-77 -75h-116z" />
    <glyph glyph-name="gbreve.salt_simple" horiz-adv-x="549" 
d="M267 -201c-146 0 -210 35 -224 146l141 26c7 -49 21 -64 83 -64c72 0 85 27 85 70v84c-28 -39 -69 -63 -126 -63c-151 0 -194 79 -194 197v152c0 117 43 197 192 197c62 0 101 -26 128 -63v55h144v-548c0 -133 -56 -189 -229 -189zM262 108c57 0 90 30 90 76v163
c0 47 -33 78 -90 78c-58 0 -86 -32 -86 -82v-154c0 -51 28 -81 86 -81zM274 574c-136 0 -180 62 -180 154h115c0 -50 25 -70 65 -70s65 20 65 70h115c0 -92 -43 -154 -180 -154z" />
    <glyph glyph-name="gdotaccent.salt_simple" horiz-adv-x="549" 
d="M267 -201c-146 0 -210 35 -224 146l141 26c7 -49 21 -64 83 -64c72 0 85 27 85 70v84c-28 -39 -69 -63 -126 -63c-151 0 -194 79 -194 197v152c0 117 43 197 192 197c62 0 101 -26 128 -63v55h144v-548c0 -133 -56 -189 -229 -189zM262 108c57 0 90 30 90 76v163
c0 47 -33 78 -90 78c-58 0 -86 -32 -86 -82v-154c0 -51 28 -81 86 -81zM204 576v144h141v-144h-141z" />
    <glyph glyph-name="gcommaaccent.salt_simple" horiz-adv-x="549" 
d="M267 -201c-146 0 -210 35 -224 146l141 26c7 -49 21 -64 83 -64c72 0 85 27 85 70v84c-28 -39 -69 -63 -126 -63c-151 0 -194 79 -194 197v152c0 117 43 197 192 197c62 0 101 -26 128 -63v55h144v-548c0 -133 -56 -189 -229 -189zM262 108c57 0 90 30 90 76v163
c0 47 -33 78 -90 78c-58 0 -86 -32 -86 -82v-154c0 -51 28 -81 86 -81zM202 576v139l41 102h77l-40 -102h58v-139h-136z" />
    <glyph glyph-name="u.salt_simple" horiz-adv-x="549" 
d="M274 -7c-165 0 -227 80 -227 197v346h143v-347c0 -44 18 -80 84 -80c67 0 85 36 85 80v347h144v-346c0 -117 -64 -197 -229 -197z" />
    <glyph glyph-name="ugrave.salt_simple" horiz-adv-x="549" 
d="M274 -7c-165 0 -227 80 -227 197v346h143v-347c0 -44 18 -80 84 -80c67 0 85 36 85 80v347h144v-346c0 -117 -64 -197 -229 -197zM227 576l-108 177h139l92 -177h-123z" />
    <glyph glyph-name="uacute.salt_simple" horiz-adv-x="549" 
d="M274 -7c-165 0 -227 80 -227 197v346h143v-347c0 -44 18 -80 84 -80c67 0 85 36 85 80v347h144v-346c0 -117 -64 -197 -229 -197zM212 576l93 179h138l-107 -179h-124z" />
    <glyph glyph-name="ucircumflex.salt_simple" horiz-adv-x="549" 
d="M274 -7c-165 0 -227 80 -227 197v346h143v-347c0 -44 18 -80 84 -80c67 0 85 36 85 80v347h144v-346c0 -117 -64 -197 -229 -197zM81 576l121 167h143l121 -167h-113l-79 75l-77 -75h-116z" />
    <glyph glyph-name="udieresis.salt_simple" horiz-adv-x="549" 
d="M274 -7c-165 0 -227 80 -227 197v346h143v-347c0 -44 18 -80 84 -80c67 0 85 36 85 80v347h144v-346c0 -117 -64 -197 -229 -197zM113 576v129h125v-129h-125zM310 576v129h125v-129h-125z" />
    <glyph glyph-name="utilde.salt_simple" horiz-adv-x="549" 
d="M274 -7c-165 0 -227 80 -227 197v346h143v-347c0 -44 18 -80 84 -80c67 0 85 36 85 80v347h144v-346c0 -117 -64 -197 -229 -197zM195 576h-100c0 85 20 139 105 139c54 0 105 -36 129 -36c18 0 26 11 26 36h100c0 -85 -21 -139 -107 -139c-52 0 -104 36 -127 36
c-18 0 -26 -11 -26 -36z" />
    <glyph glyph-name="umacron.salt_simple" horiz-adv-x="549" 
d="M274 -7c-165 0 -227 80 -227 197v346h143v-347c0 -44 18 -80 84 -80c67 0 85 36 85 80v347h144v-346c0 -117 -64 -197 -229 -197zM125 576v100h298v-100h-298z" />
    <glyph glyph-name="ubreve.salt_simple" horiz-adv-x="549" 
d="M274 -7c-165 0 -227 80 -227 197v346h143v-347c0 -44 18 -80 84 -80c67 0 85 36 85 80v347h144v-346c0 -117 -64 -197 -229 -197zM274 574c-136 0 -180 62 -180 154h115c0 -50 25 -70 65 -70s65 20 65 70h115c0 -92 -43 -154 -180 -154z" />
    <glyph glyph-name="uring.salt_simple" horiz-adv-x="549" 
d="M274 -7c-165 0 -227 80 -227 197v346h143v-347c0 -44 18 -80 84 -80c67 0 85 36 85 80v347h144v-346c0 -117 -64 -197 -229 -197zM274 574c-74 0 -121 30 -121 118c0 90 47 121 121 121c75 0 121 -31 121 -121c0 -88 -46 -118 -121 -118zM274 639c34 0 48 16 48 53
c0 38 -14 55 -48 55c-33 0 -48 -17 -48 -55c0 -37 15 -53 48 -53z" />
    <glyph glyph-name="uhungarumlaut.salt_simple" horiz-adv-x="549" 
d="M274 -7c-165 0 -227 80 -227 197v346h143v-347c0 -44 18 -80 84 -80c67 0 85 36 85 80v347h144v-346c0 -117 -64 -197 -229 -197zM122 576l93 179h127l-108 -179h-112zM303 576l92 179h128l-108 -179h-112z" />
    <glyph glyph-name="uogonek.salt_simple" horiz-adv-x="549" 
d="M321 -198c-70 0 -130 22 -130 103c0 34 8 64 25 92c-122 16 -169 91 -169 193v346h143v-347c0 -44 18 -80 84 -80c67 0 85 36 85 80v347h144v-346c0 -109 -56 -186 -197 -196c-17 -24 -23 -44 -23 -66c0 -35 13 -43 52 -43h46v-83h-60z" />
    <glyph glyph-name="l.salt_tail" horiz-adv-x="318" 
d="M229 0c-139 0 -170 61 -170 171v609h144v-597c0 -40 5 -57 44 -57h48v-126h-66z" />
    <glyph glyph-name="lacute.salt_tail" horiz-adv-x="318" 
d="M295 0h-66c-139 0 -170 61 -170 171v609h144v-597c0 -40 5 -57 44 -57h48v-126zM70 800l93 179h138l-107 -179h-124z" />
    <glyph glyph-name="lcommaaccent.salt_tail" horiz-adv-x="318" 
d="M295 0h-66c-139 0 -170 61 -170 171v609h144v-597c0 -40 5 -57 44 -57h48v-126zM88 -269l41 102h-59v139h136v-139l-40 -102h-78z" />
    <glyph glyph-name="lcaron.salt_tail" horiz-adv-x="318" 
d="M295 0h-66c-139 0 -170 61 -170 171v609h144v-597c0 -40 5 -57 44 -57h48v-126zM248 569l20 249h129l-43 -249h-106z" />
    <glyph glyph-name="y.salt_tail" horiz-adv-x="505" 
d="M70 -198v125h40c43 0 52 10 66 49l7 22l-180 538h145l104 -350h2l105 350h142l-199 -592c-39 -116 -71 -142 -181 -142h-51z" />
    <glyph glyph-name="yacute.salt_tail" horiz-adv-x="505" 
d="M70 -198v125h40c43 0 52 10 66 49l7 22l-180 538h145l104 -350h2l105 350h142l-199 -592c-39 -116 -71 -142 -181 -142h-51zM189 576l93 179h138l-107 -179h-124z" />
    <glyph glyph-name="ydieresis.salt_tail" horiz-adv-x="505" 
d="M70 -198v125h40c43 0 52 10 66 49l7 22l-180 538h145l104 -350h2l105 350h142l-199 -592c-39 -116 -71 -142 -181 -142h-51zM90 576v129h125v-129h-125zM287 576v129h125v-129h-125z" />
    <glyph glyph-name="ycircumflex.salt_tail" horiz-adv-x="505" 
d="M70 -198v125h40c43 0 52 10 66 49l7 22l-180 538h145l104 -350h2l105 350h142l-199 -592c-39 -116 -71 -142 -181 -142h-51zM58 576l121 167h143l121 -167h-113l-79 75l-77 -75h-116z" />
    <glyph glyph-name="ygrave.salt_tail" horiz-adv-x="505" 
d="M70 -198v125h40c43 0 52 10 66 49l7 22l-180 538h145l104 -350h2l105 350h142l-199 -592c-39 -116 -71 -142 -181 -142h-51zM205 576l-108 177h139l92 -177h-123z" />
    <glyph glyph-name="ldot.salt_tail" horiz-adv-x="377" 
d="M295 0h-66c-139 0 -170 61 -170 171v609h144v-597c0 -40 5 -57 44 -57h48v-126zM256 307v132h128v-132h-128z" />
    <glyph glyph-name="lslash.salt_tail" horiz-adv-x="332" 
d="M16 351v125l50 18v286h144v-235l79 28v-125l-79 -28v-237c0 -40 5 -57 45 -57h48v-126h-67c-138 0 -170 61 -170 171v198z" />
    <glyph glyph-name="f_f_l.salt_tail" horiz-adv-x="967" 
d="M95 0v418h-76v118h76v70c0 112 32 174 170 174h76v-126h-57c-40 0 -45 -16 -45 -54v-64h162v70c0 112 32 174 171 174h75v-126h-58c-39 0 -44 -16 -44 -54v-64h102v-118h-102v-418h-144v418h-162v-418h-144zM944 0h-66c-139 0 -170 61 -170 171v609h143v-597
c0 -40 6 -57 45 -57h48v-126z" />
    <glyph glyph-name="f_l.salt_tail" horiz-adv-x="660" 
d="M95 0v418h-76v118h76v70c0 112 32 174 170 174h76v-126h-57c-40 0 -45 -16 -45 -54v-64h102v-118h-102v-418h-144zM638 0h-66c-139 0 -171 61 -171 171v609h144v-597c0 -40 6 -57 44 -57h49v-126z" />
    <glyph glyph-name="I.salt_bar" horiz-adv-x="412" 
d="M29 0v127h103v492h-103v131h354v-131h-104v-492h105v-127h-355z" />
    <glyph glyph-name="Igrave.salt_bar" horiz-adv-x="412" 
d="M29 0v127h103v492h-103v131h354v-131h-104v-492h105v-127h-355zM145 780l-108 177h139l92 -177h-123z" />
    <glyph glyph-name="Iacute.salt_bar" horiz-adv-x="412" 
d="M29 0v127h103v492h-103v131h354v-131h-104v-492h105v-127h-355zM144 780l93 179h138l-107 -179h-124z" />
    <glyph glyph-name="Icircumflex.salt_bar" horiz-adv-x="412" 
d="M29 0v127h103v492h-103v131h354v-131h-104v-492h105v-127h-355zM13 780l121 167h143l121 -167h-113l-79 75l-77 -75h-116z" />
    <glyph glyph-name="Idieresis.salt_bar" horiz-adv-x="412" 
d="M29 0v127h103v492h-103v131h354v-131h-104v-492h105v-127h-355zM45 780v129h125v-129h-125zM242 780v129h125v-129h-125z" />
    <glyph glyph-name="Itilde.salt_bar" horiz-adv-x="412" 
d="M29 0v127h103v492h-103v131h354v-131h-104v-492h105v-127h-355zM127 780h-100c0 85 20 139 105 139c54 0 105 -36 129 -36c18 0 26 11 26 36h100c0 -85 -21 -139 -107 -139c-52 0 -104 36 -127 36c-18 0 -26 -11 -26 -36z" />
    <glyph glyph-name="Imacron.salt_bar" horiz-adv-x="412" 
d="M29 0v127h103v492h-103v131h354v-131h-104v-492h105v-127h-355zM57 780v100h298v-100h-298z" />
    <glyph glyph-name="Ibreve.salt_bar" horiz-adv-x="412" 
d="M29 0v127h103v492h-103v131h354v-131h-104v-492h105v-127h-355zM206 778c-136 0 -180 62 -180 154h115c0 -50 25 -70 65 -70s65 20 65 70h115c0 -92 -43 -154 -180 -154z" />
    <glyph glyph-name="Iogonek.salt_bar" horiz-adv-x="412" 
d="M29 0v127h103v492h-103v131h354v-131h-104v-492h105v-127h-165c-21 -27 -28 -48 -28 -72c0 -35 13 -43 52 -43h46v-83h-60c-70 0 -130 22 -130 103c0 35 9 67 28 95h-98z" />
    <glyph glyph-name="Idotaccent.salt_bar" horiz-adv-x="412" 
d="M29 0v127h103v492h-103v131h354v-131h-104v-492h105v-127h-355zM136 780v144h141v-144h-141z" />
    <glyph glyph-name="IJ.salt_bar" horiz-adv-x="735" 
d="M29 0v127h103v492h-103v131h354v-131h-104v-492h95v-127h-345zM418 0v127h26c84 0 91 24 91 118v505h146v-510c0 -165 -32 -240 -234 -240h-29z" />
    <glyph glyph-name="at" unicode="@" horiz-adv-x="873" 
d="M569 -171h-134c-248 0 -380 120 -380 329v263c0 210 136 329 380 329c246 0 377 -119 377 -329v-230c0 -79 -37 -141 -151 -141h-26c-58 0 -98 22 -117 61c-25 -49 -70 -70 -130 -70c-129 0 -168 73 -168 180v143c0 108 37 180 172 180c52 0 83 -23 108 -57v49h132v-338
c0 -52 9 -69 46 -69c38 0 48 17 48 70v216c0 164 -96 253 -291 253c-194 0 -293 -89 -293 -253v-251c0 -163 97 -252 293 -252h134v-83zM426 148c50 0 72 25 74 67v149c0 43 -24 71 -74 71c-54 0 -74 -28 -74 -74v-140c0 -46 20 -73 74 -73z" />
    <glyph glyph-name="registered" unicode="&#xae;" horiz-adv-x="542" 
d="M164 319v332h114c79 0 110 -29 110 -92v-27c0 -36 -11 -66 -51 -81l61 -132h-73l-57 122h-34v-122h-70zM272 204c-151 0 -230 72 -230 199v156c0 127 81 199 230 199s229 -72 229 -199v-156c0 -127 -80 -199 -229 -199zM272 255c118 0 175 53 175 151v150
c0 99 -57 151 -175 151s-178 -52 -178 -151v-150c0 -98 59 -151 178 -151zM234 498h45c33 0 43 8 43 39v15c0 30 -10 39 -42 39h-46v-93z" />
    <glyph glyph-name="registered.salt_big" horiz-adv-x="734" 
d="M216 138v477h159c111 0 155 -41 155 -131v-37c0 -55 -18 -96 -74 -117l88 -192h-99l-82 177h-52v-177h-95zM368 -8c-209 0 -317 101 -317 276v215c0 176 111 275 317 275c207 0 315 -99 315 -275v-215c0 -175 -108 -276 -315 -276zM368 49c171 0 253 77 253 219v214
c0 142 -82 219 -253 219c-169 0 -254 -77 -254 -219v-214c0 -142 83 -219 254 -219zM311 392h65c50 0 64 15 64 60v23c0 45 -14 59 -62 59h-67v-142z" />
    <glyph glyph-name="copyright" unicode="&#xa9;" horiz-adv-x="734" 
d="M369 133c-104 0 -168 52 -168 164v152c0 113 65 164 168 164c112 0 155 -42 166 -150l-96 -12c-5 54 -15 76 -70 76s-70 -29 -70 -87v-136c0 -56 11 -87 70 -87c56 0 65 21 70 79l96 -12c-13 -105 -55 -151 -166 -151zM367 -8c-209 0 -316 101 -316 276v215
c0 176 110 275 316 275c207 0 316 -99 316 -275v-215c0 -175 -109 -276 -316 -276zM367 49c171 0 254 77 254 219v214c0 142 -83 219 -254 219c-170 0 -253 -77 -253 -219v-214c0 -142 81 -219 253 -219z" />
    <glyph glyph-name="copyrightsound" unicode="&#x2117;" horiz-adv-x="734" 
d="M368 -8c-209 0 -317 101 -317 276v215c0 176 111 275 317 275c207 0 315 -99 315 -275v-215c0 -175 -108 -276 -315 -276zM368 49c171 0 253 77 253 219v214c0 142 -82 219 -253 219c-169 0 -254 -77 -254 -219v-214c0 -142 83 -219 254 -219zM225 134v478h164
c111 0 160 -41 160 -132v-39c0 -92 -50 -135 -159 -135h-66v-172h-99zM324 385h65c50 0 64 14 64 60v26c0 46 -14 57 -61 57h-68v-143z" />
    <glyph glyph-name="trademark" unicode="&#x2122;" horiz-adv-x="866" 
d="M377 314v436h118l97 -279l95 279h119v-436h-101v228l-78 -228h-72l-80 232v-232h-98zM128 314v345h-109v91h327v-91h-110v-345h-108z" />
    <glyph glyph-name="estimated" unicode="&#x212e;" horiz-adv-x="697" 
d="M348 -12c-189 0 -310 150 -310 331c0 183 118 331 313 331s310 -150 313 -332h-490v-220c47 -46 105 -71 174 -71c119 0 184 62 237 145l37 -23c-62 -95 -136 -161 -274 -161zM174 358h351v182c-43 41 -108 71 -175 71c-68 0 -130 -24 -176 -71v-182z" />
    <glyph glyph-name="plus" unicode="+" horiz-adv-x="554" 
d="M214 156v163h-151v116h151v159h126v-159h152v-116h-152v-163h-126z" />
    <glyph glyph-name="minus" unicode="&#x2212;" horiz-adv-x="554" 
d="M63 319v116h429v-116h-429z" />
    <glyph glyph-name="multiply" unicode="&#xd7;" horiz-adv-x="554" 
d="M145 164l-80 81l132 132l-132 132l80 81l132 -132l133 133l80 -82l-132 -132l132 -132l-80 -81l-133 131z" />
    <glyph glyph-name="divide" unicode="&#xf7;" horiz-adv-x="554" 
d="M211 123v127h132v-127h-132zM63 319v116h429v-116h-429zM211 500v127h132v-127h-132z" />
    <glyph glyph-name="equal" unicode="=" horiz-adv-x="554" 
d="M63 213v119h429v-119h-429zM63 422v119h429v-119h-429z" />
    <glyph glyph-name="less" unicode="&#x3c;" horiz-adv-x="554" 
d="M492 152l-429 159v124l429 161v-119l-302 -105l302 -103v-117z" />
    <glyph glyph-name="greater" unicode="&#x3e;" horiz-adv-x="554" 
d="M64 152v117l302 103l-302 105v119l430 -161v-124z" />
    <glyph glyph-name="dollar" unicode="$" horiz-adv-x="580" 
d="M219 -124v124c-135 17 -181 90 -194 212l139 21c13 -93 44 -118 122 -118c93 0 121 31 121 100c0 67 -42 84 -128 109c-127 35 -238 66 -238 222c0 108 47 184 178 203v126h131v-125c135 -17 177 -93 187 -206l-142 -20c-7 86 -33 107 -106 107c-74 0 -106 -21 -106 -81
c0 -64 51 -79 134 -101c129 -34 231 -67 231 -226c0 -125 -48 -206 -198 -223v-124h-131z" />
    <glyph glyph-name="cent" unicode="&#xa2;" horiz-adv-x="507" 
d="M188 -124v125c-117 21 -156 100 -156 195v144c0 97 40 175 157 195v112h129v-110c116 -15 147 -76 158 -171l-140 -21c-6 53 -19 80 -80 80c-63 0 -81 -35 -81 -82v-154c0 -46 18 -81 81 -81c65 0 73 22 82 76l132 -20c-12 -83 -41 -148 -152 -164v-124h-130z" />
    <glyph glyph-name="Euro" unicode="&#x20ac;" horiz-adv-x="654" 
d="M31 407v109h78c5 166 105 242 256 242c162 0 236 -66 251 -232l-140 -19c-7 87 -28 124 -111 124s-109 -44 -114 -115h157v-109h-158v-64h158v-108h-158c3 -74 23 -121 115 -121c87 0 106 40 113 130l138 -18c-18 -166 -87 -234 -251 -234c-153 0 -251 77 -256 243h-78
v108h78v64h-78z" />
    <glyph glyph-name="sterling" unicode="&#xa3;" horiz-adv-x="572" 
d="M23 300v119h65c-12 42 -22 85 -22 123c0 130 68 216 243 216c162 0 233 -67 245 -228l-139 -14c-8 84 -28 118 -107 118c-78 0 -103 -36 -103 -94c0 -37 11 -78 23 -121h190v-119h-162c2 -15 4 -30 4 -44c0 -55 -16 -102 -35 -129h325v-127h-493v102c36 46 63 92 63 159
c0 12 -1 26 -3 39h-94z" />
    <glyph glyph-name="yen" unicode="&#xa5;" horiz-adv-x="600" 
d="M56 261v109h136l-183 380h152l142 -308h2l144 308h142l-184 -380h143v-109h-176v-64h176v-108h-176v-89h-148v89h-170v108h170v64h-170z" />
    <glyph glyph-name="florin" unicode="&#x192;" horiz-adv-x="414" 
d="M121 -198v533h-86v118h86v122c0 112 37 175 176 175h81v-126h-63c-42 0 -51 -20 -51 -59v-112h114v-118h-114v-533h-143z" />
    <glyph glyph-name="numbersign" unicode="#" horiz-adv-x="680" 
d="M105 0l23 204h-74v118h88l12 102h-100v119h113l25 207h133l-26 -207h118l25 207h132l-25 -207h77v-119h-90l-12 -102h102v-118h-115l-24 -204h-133l24 204h-117l-24 -204h-132zM272 320h122l13 106h-122z" />
    <glyph glyph-name="section" unicode="&#xa7;" horiz-adv-x="519" 
d="M261 -8c-146 0 -197 51 -209 153l137 21c5 -49 22 -70 76 -70c53 0 74 15 74 51c0 43 -26 53 -102 66c-89 16 -191 33 -191 156c0 46 11 84 39 114c-24 23 -39 56 -39 104c0 105 49 171 216 171c146 0 199 -51 212 -152l-137 -22c-5 49 -26 70 -79 70s-77 -15 -77 -51
c0 -43 29 -53 104 -66c90 -16 192 -33 192 -156c0 -47 -11 -85 -40 -116c22 -23 36 -56 36 -102c0 -105 -46 -171 -212 -171zM261 421c-22 4 -45 7 -68 12c-12 -13 -18 -29 -18 -44c0 -39 21 -48 86 -60c22 -4 46 -8 69 -13c12 13 18 29 18 45c0 39 -21 48 -87 60z" />
    <glyph glyph-name="paragraph" unicode="&#xb6;" horiz-adv-x="582" 
d="M176 -198v387c-90 26 -142 92 -142 201v145c0 154 94 215 260 215h225v-948h-134v371h-79v-371h-130zM292 298h93v326h-93c-68 0 -110 -20 -110 -106v-120c0 -83 44 -100 110 -100z" />
    <glyph glyph-name="percent" unicode="%" horiz-adv-x="943" 
d="M202 298c-101 0 -165 47 -165 153v153c0 106 65 154 165 154c98 0 163 -48 163 -154v-153c0 -106 -65 -153 -163 -153zM202 395c38 0 50 20 50 63v138c0 42 -12 62 -50 62s-52 -20 -52 -62v-138c0 -43 13 -63 52 -63zM743 -8c-100 0 -165 48 -165 154v153
c0 106 66 153 165 153s163 -47 163 -153v-153c0 -106 -64 -154 -163 -154zM743 90c38 0 50 19 50 62v138c0 43 -12 62 -50 62s-52 -19 -52 -62v-138c0 -43 13 -62 52 -62zM225 0l360 750h133l-360 -750h-133z" />
    <glyph glyph-name="perthousand" unicode="&#x2030;" horiz-adv-x="1308" 
d="M202 298c-101 0 -165 47 -165 153v153c0 106 65 154 165 154c98 0 163 -48 163 -154v-153c0 -106 -65 -153 -163 -153zM202 395c38 0 50 20 50 63v138c0 42 -12 62 -50 62s-52 -20 -52 -62v-138c0 -43 13 -63 52 -63zM743 -8c-100 0 -165 48 -165 154v153
c0 106 66 153 165 153s163 -47 163 -153v-153c0 -106 -64 -154 -163 -154zM743 90c38 0 50 19 50 62v138c0 43 -12 62 -50 62s-52 -19 -52 -62v-138c0 -43 13 -62 52 -62zM1107 -8c-99 0 -164 48 -164 154v153c0 106 66 153 164 153c100 0 164 -47 164 -153v-153
c0 -106 -64 -154 -164 -154zM1107 90c38 0 51 19 51 62v138c0 43 -13 62 -51 62c-37 0 -51 -19 -51 -62v-138c0 -43 14 -62 51 -62zM225 0l360 750h133l-360 -750h-133z" />
    <glyph glyph-name="degree" unicode="&#xb0;" horiz-adv-x="445" 
d="M222 306c-120 0 -182 63 -182 178v95c0 117 61 177 182 177s182 -60 182 -177v-95c0 -115 -61 -178 -182 -178zM222 408c54 0 76 27 76 82v78c0 55 -22 82 -76 82c-53 0 -76 -27 -76 -82v-78c0 -55 23 -82 76 -82z" />
    <glyph glyph-name="prime" unicode="&#x2032;" horiz-adv-x="310" 
d="M74 478l73 272h136l-87 -272h-122z" />
    <glyph glyph-name="primedbl" unicode="&#x2033;" horiz-adv-x="520" 
d="M74 478l73 272h129l-87 -272h-115zM292 478l72 272h129l-88 -272h-113z" />
    <glyph glyph-name="ordfeminine" unicode="&#xaa;" horiz-adv-x="466" 
d="M182 295c-95 0 -142 45 -142 140c0 93 52 140 202 140h56v33c0 35 -8 53 -55 53c-48 0 -57 -10 -65 -49l-120 19c18 90 62 127 190 127c131 0 171 -49 171 -152v-305h-121v48c-21 -32 -50 -54 -116 -54zM234 388c45 0 65 21 65 63v43h-60c-62 0 -79 -14 -79 -53
c0 -41 18 -53 74 -53z" />
    <glyph glyph-name="ordmasculine" unicode="&#xba;" horiz-adv-x="488" 
d="M243 393c48 0 74 24 74 67v129c0 43 -26 67 -74 67c-49 0 -73 -24 -73 -67v-129c0 -43 24 -67 73 -67zM243 294c-141 0 -196 73 -196 171v121c0 100 57 172 196 172s197 -72 197 -172v-121c0 -98 -58 -171 -197 -171z" />
    <glyph glyph-name="zero.tab" horiz-adv-x="620" 
d="M310 -8c-166 0 -260 81 -260 256v254c0 176 95 256 260 256s260 -80 260 -256v-254c0 -175 -95 -256 -260 -256zM310 118c89 0 113 45 113 138v234c0 94 -24 139 -113 139s-113 -45 -113 -139v-234c0 -93 23 -138 113 -138z" />
    <glyph glyph-name="zero.tab_salt_slash" horiz-adv-x="620" 
d="M310 -8c-166 0 -260 81 -260 256v254c0 176 95 256 260 256s260 -80 260 -256v-254c0 -175 -95 -256 -260 -256zM310 110c91 0 117 47 117 143v240v8l-167 -385c14 -4 30 -6 50 -6zM193 253v-4l164 381c-13 4 -29 6 -47 6c-92 0 -117 -45 -117 -143v-240z" />
    <glyph glyph-name="one.tab" horiz-adv-x="620" 
d="M117 0v127h142v492h-143l22 131h268v-623h129v-127h-418z" />
    <glyph glyph-name="two.tab" horiz-adv-x="620" 
d="M71 0v115c0 290 337 264 337 428c0 63 -24 89 -96 89c-66 0 -97 -28 -102 -116l-140 13c9 127 60 229 239 229c212 0 242 -96 242 -215c0 -244 -338 -235 -338 -404v-12h347v-127h-489z" />
    <glyph glyph-name="three.tab" horiz-adv-x="620" 
d="M308 -8c-200 0 -246 97 -258 235l142 14c7 -84 33 -126 116 -126c79 0 109 31 109 110c0 80 -24 103 -101 103h-108v123h107c78 0 93 31 93 92c0 54 -18 88 -101 88c-80 0 -103 -37 -111 -114l-137 14c11 133 64 227 249 227c187 0 242 -71 242 -189
c0 -89 -23 -139 -99 -166c85 -25 108 -82 108 -187c0 -148 -69 -224 -251 -224z" />
    <glyph glyph-name="four.tab" horiz-adv-x="620" 
d="M361 0v157h-320v118l277 475h152l-279 -475h170v166h136v-166h86v-118h-86v-157h-136z" />
    <glyph glyph-name="five.tab" horiz-adv-x="620" 
d="M311 -8c-186 0 -237 74 -252 234l139 13c7 -86 29 -124 113 -124c80 0 105 38 105 111v39c0 84 -27 117 -109 117c-48 0 -88 -13 -112 -26l-120 42l11 352h439l-23 -131h-287l-7 -154c25 18 74 34 126 34c139 0 222 -39 222 -222v-50c0 -165 -69 -235 -245 -235z" />
    <glyph glyph-name="six.tab" horiz-adv-x="620" 
d="M315 -8c-156 0 -251 72 -251 230v280c0 175 87 256 248 256c145 0 235 -52 248 -207l-139 -13c-6 72 -34 93 -109 93c-76 0 -107 -40 -107 -123v-79c27 36 64 58 137 58c150 0 224 -65 224 -223v-38c0 -166 -92 -234 -251 -234zM315 119c75 0 110 39 110 111v24
c0 78 -35 111 -110 111c-76 0 -110 -35 -110 -111v-24c0 -74 33 -111 110 -111z" />
    <glyph glyph-name="seven.tab" horiz-adv-x="620" 
d="M154 0l242 619h-330l23 131h457v-131l-244 -619h-148z" />
    <glyph glyph-name="eight.tab" horiz-adv-x="620" 
d="M310 -8c-198 0 -255 98 -255 199v36c0 80 23 144 111 177c-79 29 -105 78 -105 146v29c0 102 74 179 249 179s249 -73 249 -179v-29c0 -67 -26 -117 -106 -146c90 -33 113 -96 113 -177v-36c0 -101 -58 -199 -256 -199zM310 109c83 0 116 41 116 100v27
c0 61 -33 103 -116 103s-115 -42 -115 -103v-27c0 -59 32 -100 115 -100zM310 450c77 0 108 36 108 86v16c0 51 -31 86 -108 86s-108 -35 -108 -86v-16c0 -50 31 -86 108 -86z" />
    <glyph glyph-name="nine.tab" horiz-adv-x="620" 
d="M308 -8c-145 0 -235 52 -248 207l140 13c5 -69 29 -97 108 -97c76 0 108 41 108 125v81c-23 -35 -66 -57 -138 -57c-150 0 -223 64 -223 223v37c0 166 91 234 251 234c155 0 250 -72 250 -230v-280c0 -176 -87 -256 -248 -256zM306 381c75 0 110 33 110 109v25
c0 74 -34 112 -110 112c-77 0 -111 -39 -111 -112v-25c0 -78 34 -109 111 -109z" />
    <glyph glyph-name="plus.tab" horiz-adv-x="620" 
d="M247 156v163h-151v116h151v159h126v-159h152v-116h-152v-163h-126z" />
    <glyph glyph-name="minus.tab" horiz-adv-x="620" 
d="M96 319v116h429v-116h-429z" />
    <glyph glyph-name="multiply.tab" horiz-adv-x="620" 
d="M178 164l-80 81l132 132l-132 132l80 81l132 -132l133 133l80 -82l-133 -132l133 -132l-80 -81l-133 131z" />
    <glyph glyph-name="divide.tab" horiz-adv-x="620" 
d="M244 123v127h131v-127h-131zM96 319v116h429v-116h-429zM244 500v127h131v-127h-131z" />
    <glyph glyph-name="equal.tab" horiz-adv-x="620" 
d="M96 213v119h429v-119h-429zM96 422v119h429v-119h-429z" />
    <glyph glyph-name="less.tab" horiz-adv-x="620" 
d="M525 152l-429 159v124l429 161v-119l-302 -105l302 -103v-117z" />
    <glyph glyph-name="greater.tab" horiz-adv-x="620" 
d="M97 152v117l302 103l-302 105v119l429 -161v-124z" />
    <glyph glyph-name="dollar.tab" horiz-adv-x="620" 
d="M239 -124v124c-133 16 -174 90 -188 212l140 21c13 -93 37 -118 115 -118c93 0 116 31 116 100c0 67 -38 84 -123 109c-128 35 -230 66 -230 222c0 108 41 184 170 203v126h131v-125c133 -17 169 -93 179 -206l-141 -20c-7 86 -27 107 -100 107c-74 0 -101 -21 -101 -81
c0 -64 47 -79 130 -101c129 -34 223 -67 223 -226c0 -125 -41 -206 -190 -223v-124h-131z" />
    <glyph glyph-name="cent.tab" horiz-adv-x="620" 
d="M245 -124v124c-118 21 -157 101 -157 196v144c0 97 41 175 158 196v111h128v-110c117 -15 147 -75 159 -171l-141 -21c-5 53 -18 80 -80 80s-80 -35 -80 -82v-154c0 -46 18 -81 80 -81c66 0 74 22 83 76l132 -20c-12 -83 -41 -148 -153 -164v-124h-129z" />
    <glyph glyph-name="Euro.tab" horiz-adv-x="620" 
d="M21 407v109h78c5 166 97 242 248 242c163 0 229 -66 244 -232l-140 -19c-7 87 -20 124 -104 124c-83 0 -103 -44 -107 -115h150v-109h-150v-64h150v-108h-150c2 -74 15 -121 107 -121c88 0 99 40 106 130l138 -18c-18 -166 -79 -234 -244 -234c-153 0 -244 77 -248 243
h-78v108h78v64h-78z" />
    <glyph glyph-name="sterling.tab" horiz-adv-x="620" 
d="M54 300v119h64c-12 42 -22 85 -22 123c0 130 62 216 236 216c162 0 227 -67 238 -228l-139 -14c-8 84 -27 118 -99 118c-78 0 -96 -36 -96 -94c0 -37 10 -78 22 -121h176v-119h-148c2 -15 4 -30 4 -44c0 -55 -16 -102 -35 -129h311v-127h-479v102c36 46 63 92 63 159
c0 12 -1 26 -3 39h-93z" />
    <glyph glyph-name="yen.tab" horiz-adv-x="620" 
d="M59 261v109h144l-177 380h152l134 -308h2l137 308h143l-178 -380h149v-109h-181v-64h181v-108h-181v-89h-148v89h-177v108h177v64h-177z" />
    <glyph glyph-name="florin.tab" horiz-adv-x="620" 
d="M224 -198v533h-106v118h106v122c0 112 37 175 176 175h101v-126h-83c-43 0 -51 -20 -51 -59v-112h134v-118h-134v-533h-143z" />
    <glyph glyph-name="numbersign.tab" horiz-adv-x="620" 
d="M86 0l23 204h-74v118h88l12 102h-100v119h113l25 207h133l-25 -207h95l25 207h132l-24 -207h76v-119h-89l-12 -102h101v-118h-115l-24 -204h-133l25 204h-96l-24 -204h-132zM254 320h99l13 106h-100z" />
    <glyph glyph-name="prime.tab" horiz-adv-x="310" 
d="M74 478l73 272h136l-87 -272h-122z" />
    <glyph glyph-name="primedbl.tab" horiz-adv-x="620" 
d="M123 478l73 272h129l-87 -272h-115zM342 478l72 272h129l-88 -272h-113z" />
    <glyph glyph-name="period.tab" horiz-adv-x="310" 
d="M72 0v169h166v-169h-166z" />
    <glyph glyph-name="comma.tab" horiz-adv-x="310" 
d="M94 -123l49 123h-71v169h166v-169l-50 -123h-94z" />
    <glyph glyph-name="colon.tab" horiz-adv-x="310" 
d="M76 0v162h158v-162h-158zM76 374v162h158v-162h-158z" />
    <glyph glyph-name="semicolon.tab" horiz-adv-x="310" 
d="M91 -123l48 123h-63v162h158v-162l-49 -123h-94zM76 374v162h158v-162h-158z" />
    <glyph glyph-name="hyphen.tab" horiz-adv-x="620" 
d="M122 319v124h375v-124h-375z" />
    <glyph glyph-name="parenleft.tab" horiz-adv-x="310" 
d="M262 -70c-171 0 -234 82 -234 253v385c0 171 63 252 234 252h35v-123h-35c-71 0 -93 -34 -93 -136v-371c0 -101 21 -137 93 -137h35v-123h-35z" />
    <glyph glyph-name="parenright.tab" horiz-adv-x="310" 
d="M12 -70v123h35c72 0 93 36 93 137v370c0 102 -21 136 -93 136h-35v123h35c171 0 234 -80 234 -251v-385c0 -171 -63 -253 -234 -253h-35z" />
    <glyph glyph-name="endash.tab" unicode="&#x2012;" horiz-adv-x="620" 
d="M61 319v124h498v-124h-498z" />
    <glyph glyph-name="space.tab" horiz-adv-x="310" 
 />
    <glyph glyph-name="space.tab_en" unicode="&#x2007;" horiz-adv-x="620" 
 />
    <glyph glyph-name="space.tab_em" horiz-adv-x="1240" 
 />
    <glyph glyph-name="space.tab_thin" horiz-adv-x="155" 
 />
    <glyph glyph-name="zero.sups" unicode="&#x2070;" horiz-adv-x="508" 
d="M255 244c-117 0 -197 56 -197 179v178c0 123 81 179 197 179s195 -56 195 -179v-178c0 -123 -79 -179 -195 -179zM255 350c53 0 75 24 75 79v163c0 57 -22 80 -75 80c-54 0 -76 -23 -76 -80v-163c0 -55 22 -79 76 -79z" />
    <glyph glyph-name="one.sups" unicode="&#xb9;" horiz-adv-x="323" 
d="M118 250v415h-87l17 110h189v-525h-119z" />
    <glyph glyph-name="two.sups" unicode="&#xb2;" horiz-adv-x="470" 
d="M54 250v82c0 195 246 189 246 293c0 41 -24 54 -64 54c-49 0 -66 -28 -69 -73l-116 10c6 88 56 164 183 164c150 0 184 -76 184 -159c0 -158 -245 -178 -245 -262v-5h247v-104h-366z" />
    <glyph glyph-name="three.sups" unicode="&#xb3;" horiz-adv-x="489" 
d="M244 244c-149 0 -187 68 -195 165l113 11c6 -59 26 -79 84 -79c53 0 72 22 72 68c0 49 -19 66 -67 66h-92v94h91c55 0 62 24 62 58c0 29 -11 53 -68 53c-55 0 -71 -16 -75 -69l-114 9c8 95 48 160 189 160c132 0 183 -50 183 -132c0 -63 -19 -98 -73 -117
c63 -18 80 -57 80 -130c0 -104 -62 -157 -190 -157z" />
    <glyph glyph-name="four.sups" unicode="&#x2074;" horiz-adv-x="505" 
d="M287 250v100h-236v93l202 332h123l-205 -332h116v115h111v-115h60v-93h-60v-100h-111z" />
    <glyph glyph-name="five.sups" unicode="&#x2075;" horiz-adv-x="484" 
d="M243 244c-137 0 -180 52 -190 164l114 10c4 -49 18 -75 76 -75c46 0 70 21 70 70v28c0 53 -22 70 -74 70c-32 0 -73 -9 -90 -18l-86 30l8 252h336l-17 -102h-212l-4 -82c20 9 56 16 86 16c98 0 168 -33 168 -163v-36c0 -115 -60 -164 -185 -164z" />
    <glyph glyph-name="six.sups" unicode="&#x2076;" horiz-adv-x="491" 
d="M248 244c-109 0 -189 50 -189 161v196c0 122 73 179 187 179c102 0 179 -36 188 -145l-115 -9c-4 40 -21 53 -73 53s-73 -23 -73 -74v-47c20 25 57 36 95 36c106 0 170 -42 170 -152v-34c0 -116 -78 -164 -190 -164zM248 344c53 0 75 20 75 64v27c0 46 -22 64 -75 64
c-52 0 -75 -19 -75 -64v-27c0 -44 22 -64 75 -64z" />
    <glyph glyph-name="seven.sups" unicode="&#x2077;" horiz-adv-x="437" 
d="M100 250l170 419h-231l17 106h337v-106l-171 -419h-122z" />
    <glyph glyph-name="eight.sups" unicode="&#x2078;" horiz-adv-x="494" 
d="M247 244c-139 0 -193 68 -193 139v25c0 57 17 101 78 124c-55 21 -74 55 -74 103v20c0 71 67 125 189 125c123 0 188 -50 188 -125v-20c0 -48 -19 -82 -74 -103c64 -23 79 -67 79 -124v-25c0 -71 -54 -139 -193 -139zM247 338c57 0 78 25 78 61v19c0 36 -21 63 -78 63
c-56 0 -77 -27 -77 -63v-19c0 -36 20 -61 77 -61zM247 570c52 0 72 22 72 52v12c0 29 -20 51 -72 51s-72 -22 -72 -51v-12c0 -30 20 -52 72 -52z" />
    <glyph glyph-name="nine.sups" unicode="&#x2079;" horiz-adv-x="491" 
d="M244 244c-101 0 -178 36 -187 145l114 10c4 -41 21 -54 73 -54s74 23 74 74v47c-19 -25 -58 -36 -95 -36c-106 0 -170 41 -170 152v34c0 116 78 164 189 164c110 0 190 -50 190 -161v-196c0 -123 -73 -179 -188 -179zM242 524c53 0 76 19 76 63v27c0 44 -23 65 -76 65
c-52 0 -74 -21 -74 -65v-27c0 -46 22 -63 74 -63z" />
    <glyph glyph-name="zero.sinf" unicode="&#x2080;" horiz-adv-x="508" 
d="M255 -203c-117 0 -197 56 -197 179v178c0 123 81 179 197 179s195 -56 195 -179v-178c0 -123 -79 -179 -195 -179zM255 -97c53 0 75 24 75 79v163c0 57 -22 80 -75 80c-54 0 -76 -23 -76 -80v-163c0 -55 22 -79 76 -79z" />
    <glyph glyph-name="one.sinf" unicode="&#x2081;" horiz-adv-x="323" 
d="M118 -197v415h-87l17 110h189v-525h-119z" />
    <glyph glyph-name="two.sinf" unicode="&#x2082;" horiz-adv-x="470" 
d="M54 -197v82c0 195 246 189 246 293c0 41 -24 54 -64 54c-49 0 -66 -28 -69 -73l-116 10c6 88 56 164 183 164c150 0 184 -76 184 -159c0 -158 -245 -178 -245 -262v-5h247v-104h-366z" />
    <glyph glyph-name="three.sinf" unicode="&#x2083;" horiz-adv-x="489" 
d="M244 -203c-149 0 -187 68 -195 165l113 11c6 -59 26 -79 84 -79c53 0 72 22 72 68c0 49 -19 66 -67 66h-92v94h91c55 0 62 24 62 58c0 29 -11 53 -68 53c-55 0 -71 -16 -75 -69l-114 9c8 95 48 160 189 160c132 0 183 -50 183 -132c0 -63 -19 -98 -73 -117
c63 -18 80 -57 80 -130c0 -104 -62 -157 -190 -157z" />
    <glyph glyph-name="four.sinf" unicode="&#x2084;" horiz-adv-x="505" 
d="M287 -197v100h-236v93l202 332h123l-205 -332h116v115h111v-115h60v-93h-60v-100h-111z" />
    <glyph glyph-name="five.sinf" unicode="&#x2085;" horiz-adv-x="484" 
d="M243 -203c-137 0 -180 52 -190 164l114 10c4 -49 18 -75 76 -75c46 0 70 21 70 70v28c0 53 -22 70 -74 70c-32 0 -73 -9 -90 -18l-86 30l8 252h336l-17 -102h-212l-4 -82c20 9 56 16 86 16c98 0 168 -33 168 -163v-36c0 -115 -60 -164 -185 -164z" />
    <glyph glyph-name="six.sinf" unicode="&#x2086;" horiz-adv-x="491" 
d="M248 -203c-109 0 -189 50 -189 161v196c0 122 73 179 187 179c102 0 179 -36 188 -145l-115 -9c-4 40 -21 53 -73 53s-73 -23 -73 -74v-47c20 25 57 36 95 36c106 0 170 -42 170 -152v-34c0 -116 -78 -164 -190 -164zM248 -103c53 0 75 20 75 64v27c0 46 -22 64 -75 64
c-52 0 -75 -19 -75 -64v-27c0 -44 22 -64 75 -64z" />
    <glyph glyph-name="seven.sinf" unicode="&#x2087;" horiz-adv-x="437" 
d="M100 -197l170 419h-231l17 106h337v-106l-171 -419h-122z" />
    <glyph glyph-name="eight.sinf" unicode="&#x2088;" horiz-adv-x="494" 
d="M247 -203c-139 0 -193 68 -193 139v25c0 57 17 101 78 124c-55 21 -74 55 -74 103v20c0 71 67 125 189 125c123 0 188 -50 188 -125v-20c0 -48 -19 -82 -74 -103c64 -23 79 -67 79 -124v-25c0 -71 -54 -139 -193 -139zM247 -109c57 0 78 25 78 61v19c0 36 -21 63 -78 63
c-56 0 -77 -27 -77 -63v-19c0 -36 20 -61 77 -61zM247 123c52 0 72 22 72 52v12c0 29 -20 51 -72 51s-72 -22 -72 -51v-12c0 -30 20 -52 72 -52z" />
    <glyph glyph-name="nine.sinf" unicode="&#x2089;" horiz-adv-x="491" 
d="M244 -203c-101 0 -178 36 -187 145l114 10c4 -41 21 -54 73 -54s74 23 74 74v47c-19 -25 -58 -36 -95 -36c-106 0 -170 41 -170 152v34c0 116 78 164 189 164c110 0 190 -50 190 -161v-196c0 -123 -73 -179 -188 -179zM242 77c53 0 76 19 76 63v27c0 44 -23 65 -76 65
c-52 0 -74 -21 -74 -65v-27c0 -46 22 -63 74 -63z" />
    <glyph glyph-name="space.frac" horiz-adv-x="100" 
 />
    <glyph glyph-name="fraction" unicode="&#x2044;" 
d="M0 0l424 750h131l-424 -750h-131z" />
    <glyph glyph-name="zero.numr" horiz-adv-x="448" 
d="M225 222c-117 0 -197 56 -197 179v178c0 123 81 179 197 179s195 -56 195 -179v-178c0 -123 -79 -179 -195 -179zM225 328c53 0 75 24 75 79v163c0 57 -22 80 -75 80c-54 0 -76 -23 -76 -80v-163c0 -55 22 -79 76 -79z" />
    <glyph glyph-name="one.numr" horiz-adv-x="263" 
d="M88 228v415h-87l17 110h189v-525h-119z" />
    <glyph glyph-name="two.numr" horiz-adv-x="410" 
d="M24 228v82c0 195 246 189 246 293c0 41 -24 54 -64 54c-49 0 -66 -28 -69 -73l-116 10c6 88 56 164 183 164c150 0 184 -76 184 -159c0 -158 -245 -178 -245 -262v-5h247v-104h-366z" />
    <glyph glyph-name="three.numr" horiz-adv-x="429" 
d="M214 222c-149 0 -187 68 -195 165l113 11c6 -59 26 -79 84 -79c53 0 72 22 72 68c0 49 -19 66 -67 66h-92v94h91c55 0 62 24 62 58c0 29 -11 53 -68 53c-55 0 -71 -16 -75 -69l-114 9c8 95 48 160 189 160c132 0 183 -50 183 -132c0 -63 -19 -98 -73 -117
c63 -18 80 -57 80 -130c0 -104 -62 -157 -190 -157z" />
    <glyph glyph-name="four.numr" horiz-adv-x="445" 
d="M257 228v100h-236v93l202 332h123l-205 -332h116v115h111v-115h60v-93h-60v-100h-111z" />
    <glyph glyph-name="five.numr" horiz-adv-x="424" 
d="M213 222c-137 0 -180 52 -190 164l114 10c4 -49 18 -75 76 -75c46 0 70 21 70 70v28c0 53 -22 70 -74 70c-32 0 -73 -9 -90 -18l-86 30l8 252h336l-17 -102h-212l-4 -82c20 9 56 16 86 16c98 0 168 -33 168 -163v-36c0 -115 -60 -164 -185 -164z" />
    <glyph glyph-name="six.numr" horiz-adv-x="431" 
d="M218 222c-109 0 -189 50 -189 161v196c0 122 73 179 187 179c102 0 179 -36 188 -145l-115 -9c-4 40 -21 53 -73 53s-73 -23 -73 -74v-47c20 25 57 36 95 36c106 0 170 -42 170 -152v-34c0 -116 -78 -164 -190 -164zM218 322c53 0 75 20 75 64v27c0 46 -22 64 -75 64
c-52 0 -75 -19 -75 -64v-27c0 -44 22 -64 75 -64z" />
    <glyph glyph-name="seven.numr" horiz-adv-x="377" 
d="M70 228l170 419h-231l17 106h337v-106l-171 -419h-122z" />
    <glyph glyph-name="eight.numr" horiz-adv-x="434" 
d="M217 222c-139 0 -193 68 -193 139v25c0 57 17 101 78 124c-55 21 -74 55 -74 103v20c0 71 67 125 189 125c123 0 188 -50 188 -125v-20c0 -48 -19 -82 -74 -103c64 -23 79 -67 79 -124v-25c0 -71 -54 -139 -193 -139zM217 316c57 0 78 25 78 61v19c0 36 -21 63 -78 63
c-56 0 -77 -27 -77 -63v-19c0 -36 20 -61 77 -61zM217 548c52 0 72 22 72 52v12c0 29 -20 51 -72 51s-72 -22 -72 -51v-12c0 -30 20 -52 72 -52z" />
    <glyph glyph-name="nine.numr" horiz-adv-x="431" 
d="M214 222c-101 0 -178 36 -187 145l114 10c4 -41 21 -54 73 -54s74 23 74 74v47c-19 -25 -58 -36 -95 -36c-106 0 -170 41 -170 152v34c0 116 78 164 189 164c110 0 190 -50 190 -161v-196c0 -123 -73 -179 -188 -179zM212 502c53 0 76 19 76 63v27c0 44 -23 65 -76 65
c-52 0 -74 -21 -74 -65v-27c0 -46 22 -63 74 -63z" />
    <glyph glyph-name="zero.dnom" horiz-adv-x="448" 
d="M225 -5c-117 0 -197 56 -197 179v178c0 123 81 179 197 179s195 -56 195 -179v-178c0 -123 -79 -179 -195 -179zM225 101c53 0 75 24 75 79v163c0 57 -22 80 -75 80c-54 0 -76 -23 -76 -80v-163c0 -55 22 -79 76 -79z" />
    <glyph glyph-name="one.dnom" horiz-adv-x="263" 
d="M88 1v415h-87l17 110h189v-525h-119z" />
    <glyph glyph-name="two.dnom" horiz-adv-x="410" 
d="M24 1v82c0 195 246 189 246 293c0 41 -24 54 -64 54c-49 0 -66 -28 -69 -73l-116 10c6 88 56 164 183 164c150 0 184 -76 184 -159c0 -158 -245 -178 -245 -262v-5h247v-104h-366z" />
    <glyph glyph-name="three.dnom" horiz-adv-x="429" 
d="M214 -5c-149 0 -187 68 -195 165l113 11c6 -59 26 -79 84 -79c53 0 72 22 72 68c0 49 -19 66 -67 66h-92v94h91c55 0 62 24 62 58c0 29 -11 53 -68 53c-55 0 -71 -16 -75 -69l-114 9c8 95 48 160 189 160c132 0 183 -50 183 -132c0 -63 -19 -98 -73 -117
c63 -18 80 -57 80 -130c0 -104 -62 -157 -190 -157z" />
    <glyph glyph-name="four.dnom" horiz-adv-x="445" 
d="M257 1v100h-236v93l202 332h123l-205 -332h116v115h111v-115h60v-93h-60v-100h-111z" />
    <glyph glyph-name="five.dnom" horiz-adv-x="424" 
d="M213 -5c-137 0 -180 52 -190 164l114 10c4 -49 18 -75 76 -75c46 0 70 21 70 70v28c0 53 -22 70 -74 70c-32 0 -73 -9 -90 -18l-86 30l8 252h336l-17 -102h-212l-4 -82c20 9 56 16 86 16c98 0 168 -33 168 -163v-36c0 -115 -60 -164 -185 -164z" />
    <glyph glyph-name="six.dnom" horiz-adv-x="431" 
d="M218 -5c-109 0 -189 50 -189 161v196c0 122 73 179 187 179c102 0 179 -36 188 -145l-115 -9c-4 40 -21 53 -73 53s-73 -23 -73 -74v-47c20 25 57 36 95 36c106 0 170 -42 170 -152v-34c0 -116 -78 -164 -190 -164zM218 95c53 0 75 20 75 64v27c0 46 -22 64 -75 64
c-52 0 -75 -19 -75 -64v-27c0 -44 22 -64 75 -64z" />
    <glyph glyph-name="seven.dnom" horiz-adv-x="377" 
d="M70 1l170 419h-231l17 106h337v-106l-171 -419h-122z" />
    <glyph glyph-name="eight.dnom" horiz-adv-x="434" 
d="M217 -5c-139 0 -193 68 -193 139v25c0 57 17 101 78 124c-55 21 -74 55 -74 103v20c0 71 67 125 189 125c123 0 188 -50 188 -125v-20c0 -48 -19 -82 -74 -103c64 -23 79 -67 79 -124v-25c0 -71 -54 -139 -193 -139zM217 89c57 0 78 25 78 61v19c0 36 -21 63 -78 63
c-56 0 -77 -27 -77 -63v-19c0 -36 20 -61 77 -61zM217 321c52 0 72 22 72 52v12c0 29 -20 51 -72 51s-72 -22 -72 -51v-12c0 -30 20 -52 72 -52z" />
    <glyph glyph-name="nine.dnom" horiz-adv-x="431" 
d="M214 -5c-101 0 -178 36 -187 145l114 10c4 -41 21 -54 73 -54s74 23 74 74v47c-19 -25 -58 -36 -95 -36c-106 0 -170 41 -170 152v34c0 116 78 164 189 164c110 0 190 -50 190 -161v-196c0 -123 -73 -179 -188 -179zM212 275c53 0 76 19 76 63v27c0 44 -23 65 -76 65
c-52 0 -74 -21 -74 -65v-27c0 -46 22 -63 74 -63z" />
    <glyph glyph-name="onehalf" unicode="&#xbd;" horiz-adv-x="1003" 
d="M88 228v415h-87l17 110h189v-525h-119zM173 0l424 750h131l-424 -750h-131zM617 0v82c0 195 246 190 246 293c0 41 -24 54 -64 54c-48 0 -66 -27 -69 -72l-115 9c5 89 55 164 182 164c150 0 183 -75 183 -158c0 -159 -244 -179 -244 -263v-5h247v-104h-366z" />
    <glyph glyph-name="onequarter" unicode="&#xbc;" horiz-adv-x="977" 
d="M88 228v415h-87l17 110h189v-525h-119zM173 0l424 750h131l-424 -750h-131zM789 0v101h-236v92l202 332h123l-204 -332h115v116h111v-116h59v-92h-59v-101h-111z" />
    <glyph glyph-name="threequarters" unicode="&#xbe;" horiz-adv-x="1112" 
d="M214 222c-149 0 -187 68 -195 165l113 11c6 -58 26 -79 84 -79c53 0 72 22 72 69c0 48 -19 66 -67 66h-92v92h91c55 0 62 25 62 60c0 28 -11 52 -68 52c-55 0 -71 -15 -75 -69l-114 9c8 95 48 160 189 160c132 0 183 -49 183 -132c0 -62 -19 -97 -73 -117
c63 -17 80 -56 80 -130c0 -104 -62 -157 -190 -157zM309 0l423 750h131l-424 -750h-130zM924 0v101h-236v92l202 332h123l-205 -332h116v116h111v-116h60v-92h-60v-101h-111z" />
    <glyph glyph-name="asciicircum" unicode="^" horiz-adv-x="554" 
d="M41 315l160 435h151l161 -435h-131l-107 305l-104 -305h-130z" />
    <glyph glyph-name="asciitilde" unicode="~" horiz-adv-x="554" 
d="M49 320c0 104 29 155 119 155c57 0 163 -49 197 -49c28 0 35 23 35 49h104c0 -96 -24 -155 -118 -155c-57 0 -167 49 -196 49c-31 0 -36 -23 -36 -49h-105z" />
    <glyph glyph-name="lessequal" unicode="&#x2264;" horiz-adv-x="554" 
d="M491 217l-429 159v124l429 161v-119l-303 -105l303 -103v-117zM62 78v116h429v-116h-429z" />
    <glyph glyph-name="greaterequal" unicode="&#x2265;" horiz-adv-x="554" 
d="M64 217v117l303 103l-303 105v119l430 -161v-124zM64 78v116h430v-116h-430z" />
    <glyph glyph-name="plusminus" unicode="&#xb1;" horiz-adv-x="554" 
d="M214 264v140h-151v116h151v159h126v-159h152v-116h-152v-140h-126zM63 93v116h429v-116h-429z" />
    <glyph glyph-name="approxequal" unicode="&#x2248;" horiz-adv-x="554" 
d="M154 406h-105c0 105 29 156 119 156c57 0 163 -50 197 -50c28 0 35 23 35 50h104c0 -97 -24 -156 -118 -156c-57 0 -167 50 -196 50c-31 0 -36 -24 -36 -50zM154 197h-105c0 103 29 155 119 155c57 0 163 -49 197 -49c28 0 35 23 35 49h104c0 -97 -24 -155 -118 -155
c-57 0 -167 49 -196 49c-31 0 -36 -24 -36 -49z" />
    <glyph glyph-name="notequal" unicode="&#x2260;" horiz-adv-x="554" 
d="M68 105l60 108h-65v119h133l51 90h-184v119h243l62 108h118l-61 -108h67v-119h-134l-51 -90h185v-119h-245l-61 -108h-118z" />
    <glyph glyph-name="logicalnot" unicode="&#xac;" horiz-adv-x="567" 
d="M366 156v163h-303v116h429v-279h-126z" />
    <glyph glyph-name="radical" unicode="&#x221a;" horiz-adv-x="541" 
d="M182 0l-171 536h144l106 -359h1l168 573h141l-232 -750h-157z" />
    <glyph glyph-name="infinity" unicode="&#x221e;" horiz-adv-x="756" 
d="M529 142c-82 0 -125 15 -152 61c-27 -45 -71 -61 -146 -61c-129 0 -184 73 -184 172v120c0 101 57 172 184 172c76 0 119 -15 147 -58c27 43 70 58 150 58c122 0 181 -71 181 -172v-120c0 -99 -59 -172 -180 -172zM511 241c48 0 73 24 73 67v130c0 43 -25 67 -73 67
c-50 0 -73 -24 -73 -67v-130c0 -43 23 -67 73 -67zM244 241c49 0 75 24 75 67v130c0 43 -26 67 -75 67s-72 -24 -72 -67v-130c0 -43 23 -67 72 -67z" />
    <glyph glyph-name="lozenge" unicode="&#x25ca;" horiz-adv-x="554" 
d="M197 0l-179 375l179 375h161l178 -375l-178 -375h-161zM280 123l122 252l-125 256l-125 -256z" />
    <glyph glyph-name="currency" unicode="&#xa4;" horiz-adv-x="554" 
d="M465 101l-68 67c-30 -19 -70 -30 -121 -30s-90 10 -120 28l-66 -65l-81 82l78 76c-5 16 -7 33 -7 51v121c0 17 2 34 6 50l-77 75l81 82l64 -64c30 18 70 29 122 29s93 -11 123 -30l66 65l81 -82l-79 -77c4 -15 6 -32 6 -48v-121c0 -17 -2 -34 -7 -49l80 -78zM276 237
c48 0 74 25 74 67v130c0 43 -26 67 -74 67c-49 0 -73 -24 -73 -67v-130c0 -42 24 -67 73 -67z" />
    <glyph glyph-name="mu" unicode="&#xb5;" horiz-adv-x="561" 
d="M53 -198v734h144v-366c1 -34 29 -56 81 -56c45 0 87 25 87 68v354h144v-536h-144v62c-33 -48 -80 -65 -133 -65c-13 0 -30 4 -35 9v-204h-144z" />
    <glyph glyph-name="mu" unicode="&#x3bc;" horiz-adv-x="561" 
d="M53 -198v734h144v-366c1 -34 29 -56 81 -56c45 0 87 25 87 68v354h144v-536h-144v62c-33 -48 -80 -65 -133 -65c-13 0 -30 4 -35 9v-204h-144z" />
    <glyph glyph-name="summation" unicode="&#x2211;" horiz-adv-x="502" 
d="M21 -198v127l241 371l-241 319v131h458l-23 -131h-274l191 -254v-133l-198 -303h281l23 -127h-458z" />
    <glyph glyph-name="product" unicode="&#x220f;" horiz-adv-x="658" 
d="M66 -198v948h525v-948h-147v810h-231v-810h-147z" />
    <glyph glyph-name="pi" unicode="&#x3c0;" horiz-adv-x="646" 
d="M95 0v418h-76v118h608v-118h-76v-418h-144v418h-168v-418h-144z" />
    <glyph glyph-name="integral" unicode="&#x222b;" horiz-adv-x="414" 
d="M7 -198v126h64c42 0 50 20 50 59v588c0 112 37 175 176 175h81v-126h-63c-42 0 -51 -20 -51 -59v-588c0 -112 -37 -175 -176 -175h-81z" />
    <glyph glyph-name="Omega" unicode="&#x3a9;" horiz-adv-x="636" 
d="M44 0v127h93v83c-55 30 -93 84 -93 189v103c0 176 107 256 274 256s274 -80 274 -256v-103c0 -105 -38 -159 -93 -189v-83h93v-127h-221v271c62 20 76 48 76 139v77c0 96 -39 141 -129 141c-91 0 -128 -45 -128 -141v-77c0 -90 13 -119 75 -139v-271h-221z" />
    <glyph glyph-name="Omega" unicode="&#x2126;" horiz-adv-x="636" 
d="M44 0v127h93v83c-55 30 -93 84 -93 189v103c0 176 107 256 274 256s274 -80 274 -256v-103c0 -105 -38 -159 -93 -189v-83h93v-127h-221v271c62 20 76 48 76 139v77c0 96 -39 141 -129 141c-91 0 -128 -45 -128 -141v-77c0 -90 13 -119 75 -139v-271h-221z" />
    <glyph glyph-name="partialdiff" unicode="&#x2202;" horiz-adv-x="518" 
d="M211 -8c-176 0 -230 102 -209 219l28 155c21 119 77 178 199 178c83 0 120 -32 130 -65l12 62c15 87 -2 113 -101 113h-45l23 126h38c174 0 261 -69 231 -237l-62 -358c-22 -119 -89 -193 -244 -193zM214 108c57 0 88 23 98 75l27 158c9 49 -10 84 -68 84
c-59 0 -90 -24 -99 -76l-26 -154c-9 -51 10 -87 68 -87z" />
    <glyph glyph-name="Delta" unicode="&#x394;" horiz-adv-x="615" 
d="M17 0l209 750h163l209 -750h-581zM188 117h234l-116 444h-2z" />
    <glyph glyph-name="acute" unicode="&#xb4;" horiz-adv-x="500" 
d="M188 576l93 179h138l-107 -179h-124z" />
    <glyph glyph-name="breve" unicode="&#x2d8;" horiz-adv-x="500" 
d="M250 574c-136 0 -180 62 -180 154h115c0 -50 25 -70 65 -70s65 20 65 70h115c0 -92 -43 -154 -180 -154z" />
    <glyph glyph-name="caron" unicode="&#x2c7;" horiz-adv-x="500" 
d="M178 576l-121 167h115l78 -76l78 76h114l-121 -167h-143z" />
    <glyph glyph-name="cedilla" unicode="&#xb8;" horiz-adv-x="500" 
d="M172 -241v77h36c49 0 72 6 72 40c0 29 -23 36 -69 36h-11v113h73v-64c52 -3 88 -24 88 -87c0 -73 -38 -115 -151 -115h-38z" />
    <glyph glyph-name="circumflex" unicode="&#x2c6;" horiz-adv-x="500" 
d="M57 576l121 167h143l121 -167h-113l-79 75l-77 -75h-116z" />
    <glyph glyph-name="commaaccent" unicode="&#x326;" horiz-adv-x="500" 
d="M200 -269l41 102h-59v139h136v-139l-40 -102h-78z" />
    <glyph glyph-name="dieresis" unicode="&#xa8;" horiz-adv-x="500" 
d="M89 576v129h125v-129h-125zM286 576v129h125v-129h-125z" />
    <glyph glyph-name="dotaccent" unicode="&#x2d9;" horiz-adv-x="500" 
d="M180 576v144h141v-144h-141z" />
    <glyph glyph-name="grave" unicode="`" horiz-adv-x="500" 
d="M189 576l-108 177h139l92 -177h-123z" />
    <glyph glyph-name="hungarumlaut" unicode="&#x2dd;" horiz-adv-x="500" 
d="M98 576l93 179h127l-108 -179h-112zM279 576l92 179h128l-108 -179h-112z" />
    <glyph glyph-name="macron" unicode="&#xaf;" horiz-adv-x="500" 
d="M101 576v100h298v-100h-298z" />
    <glyph glyph-name="ogonek" unicode="&#x2db;" horiz-adv-x="500" 
d="M279 -237c-70 0 -130 22 -130 103c0 63 28 113 94 159h88c-71 -64 -90 -97 -90 -136c0 -35 13 -43 52 -43h46v-83h-60z" />
    <glyph glyph-name="ring" unicode="&#x2da;" horiz-adv-x="500" 
d="M250 574c-74 0 -121 30 -121 118c0 90 47 121 121 121c75 0 121 -31 121 -121c0 -88 -46 -118 -121 -118zM250 639c34 0 48 16 48 53c0 38 -14 55 -48 55c-33 0 -48 -17 -48 -55c0 -37 15 -53 48 -53z" />
    <glyph glyph-name="tilde" unicode="&#x2dc;" horiz-adv-x="500" 
d="M71 576c0 85 20 139 105 139c54 0 105 -36 129 -36c18 0 26 11 26 36h100c0 -85 -21 -139 -107 -139c-52 0 -104 36 -127 36c-18 0 -26 -11 -26 -36h-100z" />
    <glyph glyph-name="apple" unicode="&#xf8ff;" horiz-adv-x="544" 
d="M485 0h-234c-175 0 -228 65 -228 208v60c0 107 34 169 122 193l-122 289h153l118 -277h47v277h144v-750zM248 130h93v216h-92c-68 0 -84 -22 -84 -90v-36c0 -68 16 -90 83 -90z" />
    <glyph glyph-name="u2022.check" unicode="&#x2713;" horiz-adv-x="541" 
d="M182 0l-171 536h144l106 -359h1l168 573h141l-232 -750h-157z" />
    <glyph glyph-name="onesuperior" horiz-adv-x="323" 
d="M118 250v415h-87l17 110h189v-525h-119z" />
    <glyph glyph-name="twosuperior" horiz-adv-x="470" 
d="M54 250v82c0 195 246 189 246 293c0 41 -24 54 -64 54c-49 0 -66 -28 -69 -73l-116 10c6 88 56 164 183 164c150 0 184 -76 184 -159c0 -158 -245 -178 -245 -262v-5h247v-104h-366z" />
    <glyph glyph-name="threesuperior" horiz-adv-x="489" 
d="M244 244c-149 0 -187 68 -195 165l113 11c6 -59 26 -79 84 -79c53 0 72 22 72 68c0 49 -19 66 -67 66h-92v94h91c55 0 62 24 62 58c0 29 -11 53 -68 53c-55 0 -71 -16 -75 -69l-114 9c8 95 48 160 189 160c132 0 183 -50 183 -132c0 -63 -19 -98 -73 -117
c63 -18 80 -57 80 -130c0 -104 -62 -157 -190 -157z" />
    </font>
</defs>
</svg>
