<?xml version="1.0" standalone="no"?>
<!DOCTYPE svg PUBLIC "-//W3C//DTD SVG 1.1//EN" "http://www.w3.org/Graphics/SVG/1.1/DTD/svg11.dtd" >
<svg xmlns="http://www.w3.org/2000/svg" xmlns:xlink="http://www.w3.org/1999/xlink" version="1.1">
<metadata>
Created by FontForge 20160405 at Sun Nov 13 15:14:09 2016
 By www-data
Copyright (c) The Font Bureau, Inc., 2008. All rights reserved.
</metadata>
<defs>
<font id="HeronSans-Light" horiz-adv-x="620" >
  <font-face 
    font-family="HeronSans Light"
    font-weight="300"
    font-stretch="normal"
    units-per-em="1000"
    panose-1="2 0 5 6 0 0 0 2 0 3"
    ascent="800"
    descent="-200"
    x-height="520"
    cap-height="750"
    bbox="-45 -222 1114 994"
    underline-thickness="50"
    underline-position="-100"
    unicode-range="U+0020-FB04"
  />
<missing-glyph horiz-adv-x="500" 
d="M0 0v700h500v-700h-500zM50 650v-600h400v600h-400z" />
    <glyph glyph-name="f_i" unicode="fi" horiz-adv-x="548" 
d="M113 0v462h-94v58h94v116c0 99 31 144 125 144h72v-59h-72c-48 0 -62 -25 -62 -85v-116h134v-58h-134v-462h-63zM404 0v520h63v-520h-63zM401 619v89h70v-89h-70z" />
    <glyph glyph-name="f_l" unicode="fl" horiz-adv-x="548" 
d="M404 0v780h63v-780h-63zM113 0v462h-94v58h94v116c0 99 31 144 125 144h72v-59h-72c-48 0 -62 -25 -62 -85v-116h134v-58h-134v-462h-63z" />
    <glyph glyph-name="f_f" unicode="ff" horiz-adv-x="614" 
d="M113 0v462h-94v58h94v116c0 99 31 144 125 144h72v-59h-72c-48 0 -62 -25 -62 -85v-116h228v116c0 99 31 144 125 144h72v-59h-72c-48 0 -62 -25 -62 -85v-116h134v-58h-134v-462h-63v462h-228v-462h-63z" />
    <glyph glyph-name="f_f_i" unicode="ffi" horiz-adv-x="839" 
d="M113 0v462h-94v58h94v116c0 99 31 144 125 144h72v-59h-72c-48 0 -62 -25 -62 -85v-116h228v116c0 99 31 144 125 144h72v-59h-72c-48 0 -62 -25 -62 -85v-116h134v-58h-134v-462h-63v462h-228v-462h-63zM695 0v520h63v-520h-63zM692 619v89h70v-89h-70z" />
    <glyph glyph-name="f_f_l" unicode="ffl" horiz-adv-x="839" 
d="M113 0v462h-94v58h94v116c0 99 31 144 125 144h72v-59h-72c-48 0 -62 -25 -62 -85v-116h228v116c0 99 31 144 125 144h72v-59h-72c-48 0 -62 -25 -62 -85v-116h134v-58h-134v-462h-63v462h-228v-462h-63zM695 0v780h63v-780h-63z" />
    <glyph glyph-name="f_j" unicode="fj" horiz-adv-x="548" 
d="M113 0v461h-94v59h94v116c0 99 31 144 125 144h72v-59h-72c-48 0 -62 -25 -62 -85v-116h134v-59h-134v-461h-63zM303 -198v58h39c47 0 62 25 62 85v575h63v-574c0 -99 -31 -144 -125 -144h-39zM401 619v89h70v-89h-70z" />
    <glyph glyph-name="f_t" unicode="ft" horiz-adv-x="644" 
d="M113 0v462h-94v58h94v106c0 102 50 154 145 154h52v-59h-52c-59 0 -82 -35 -82 -95v-106h221v188h62v-188h135v-58h-135v-318c0 -60 15 -86 63 -86h72v-58h-72c-94 0 -125 45 -125 144v318h-221v-462h-63z" />
    <glyph glyph-name=".notdef" horiz-adv-x="500" 
d="M0 0v700h500v-700h-500zM50 650v-600h400v600h-400z" />
    <glyph glyph-name="space" unicode=" " horiz-adv-x="188" 
 />
    <glyph glyph-name="uni00A0" unicode="&#xa0;" horiz-adv-x="188" 
 />
    <glyph glyph-name="space.en" unicode="&#x2002;" horiz-adv-x="500" 
 />
    <glyph glyph-name="space.em" unicode="&#x2003;" horiz-adv-x="1000" 
 />
    <glyph glyph-name="space.thin" unicode="&#x2009;" horiz-adv-x="125" 
 />
    <glyph glyph-name="zero" unicode="0" horiz-adv-x="576" 
d="M288 -6c-145 0 -225 81 -225 256v250c0 176 81 256 225 256c143 0 225 -80 225 -256v-250c0 -175 -82 -256 -225 -256zM288 53c102 0 162 58 162 191v262c0 134 -60 192 -162 192c-103 0 -163 -58 -163 -192v-262c0 -133 59 -191 163 -191z" />
    <glyph glyph-name="zero.salt_slash" horiz-adv-x="576" 
d="M288 -6c-145 0 -225 81 -225 256v250c0 176 81 256 225 256c143 0 225 -80 225 -256v-250c0 -175 -82 -256 -225 -256zM125 506v-262c0 -51 8 -91 25 -121l235 549c-26 18 -58 26 -97 26c-103 0 -163 -58 -163 -192zM288 53c102 0 162 58 162 191v262c0 51 -9 90 -25 120
l-236 -547c26 -18 59 -26 99 -26z" />
    <glyph glyph-name="one" unicode="1" horiz-adv-x="315" 
d="M151 0v691h-136l8 59h191v-750h-63z" />
    <glyph glyph-name="two" unicode="2" horiz-adv-x="513" 
d="M50 0v72c0 277 360 274 360 497c0 81 -48 129 -145 129c-96 0 -145 -58 -154 -160l-61 10c11 127 81 208 215 208c141 0 207 -68 207 -187c0 -263 -360 -249 -360 -497v-13h369v-59h-431z" />
    <glyph glyph-name="three" unicode="3" horiz-adv-x="538" 
d="M265 -6c-150 0 -210 81 -221 209l61 10c9 -103 55 -160 160 -160c97 0 151 33 151 160c0 118 -33 161 -129 161h-88v59h88c96 0 123 45 123 136c0 80 -38 129 -145 129c-96 0 -145 -58 -154 -160l-61 10c11 127 81 208 215 208c147 0 207 -65 207 -187
c0 -80 -15 -135 -95 -165c83 -22 101 -94 101 -191c0 -167 -77 -219 -213 -219z" />
    <glyph glyph-name="four" unicode="4" horiz-adv-x="537" 
d="M356 0v191h-325v59l325 500h70l-326 -500h256v193h62v-193h94v-59h-94v-191h-62z" />
    <glyph glyph-name="five" unicode="5" horiz-adv-x="539" 
d="M270 -6c-149 0 -209 72 -221 209l61 10c9 -103 54 -160 160 -160c97 0 151 47 151 170v33c0 128 -59 175 -150 175c-70 0 -123 -16 -152 -28l-52 33l8 314h377l-7 -59h-307l-8 -226c20 10 83 25 141 25c126 0 213 -55 213 -232v-35c0 -156 -82 -229 -214 -229z" />
    <glyph glyph-name="six" unicode="6" horiz-adv-x="548" 
d="M283 -6c-138 0 -220 72 -220 230v276c0 171 75 256 217 256c128 0 201 -56 213 -183l-62 -10c-8 102 -61 135 -151 135c-102 0 -154 -58 -154 -192v-98c34 51 92 75 157 75c136 0 220 -72 220 -230v-29c0 -158 -84 -230 -220 -230zM283 53c97 0 157 52 157 172v26
c0 122 -60 173 -157 173c-98 0 -157 -51 -157 -173v-26c0 -120 58 -172 157 -172z" />
    <glyph glyph-name="seven" unicode="7" horiz-adv-x="444" 
d="M89 0l267 691h-343l7 59h399v-59l-268 -691h-62z" />
    <glyph glyph-name="eight" unicode="8" horiz-adv-x="557" 
d="M279 -6c-177 0 -225 98 -225 199v40c0 73 28 132 106 167c-72 32 -100 87 -100 149v29c0 89 54 178 219 178s217 -89 217 -178v-29c0 -62 -29 -117 -100 -148c79 -35 107 -95 107 -168v-40c0 -101 -49 -199 -224 -199zM279 53c131 0 162 71 162 140v40
c0 69 -31 138 -162 138c-132 0 -163 -69 -163 -138v-40c0 -69 30 -140 163 -140zM279 430c120 0 154 63 154 119v29c0 56 -34 120 -154 120c-122 0 -156 -64 -156 -120v-29c0 -56 34 -119 156 -119z" />
    <glyph glyph-name="nine" unicode="9" horiz-adv-x="547" 
d="M266 -6c-127 0 -200 56 -211 184l61 10c9 -103 60 -135 150 -135c103 0 156 57 156 191v97c-32 -45 -95 -73 -158 -73c-137 0 -219 71 -219 230v28c0 158 82 230 219 230s220 -72 220 -230v-276c0 -176 -75 -256 -218 -256zM264 326c97 0 158 52 158 173v26
c0 120 -60 173 -158 173s-157 -53 -157 -173v-26c0 -121 59 -173 157 -173z" />
    <glyph glyph-name="A" unicode="A" horiz-adv-x="535" 
d="M25 0l208 750h69l208 -750h-62l-64 230h-235l-64 -230h-60zM164 286h204l-101 368h-1z" />
    <glyph glyph-name="B" unicode="B" horiz-adv-x="553" 
d="M88 0v750h178c144 0 219 -35 219 -168v-34c0 -77 -26 -117 -97 -140c83 -22 115 -84 115 -182v-27c0 -141 -65 -199 -219 -199h-196zM150 59h134c111 0 155 29 155 140v31c0 117 -53 143 -155 143h-134v-314zM150 430h116c103 0 156 26 156 117v32c0 95 -53 112 -156 112
h-116v-261z" />
    <glyph glyph-name="C" unicode="C" horiz-adv-x="560" 
d="M286 -6c-137 0 -223 81 -223 256v250c0 176 87 256 223 256c137 0 211 -66 223 -208l-61 -10c-11 123 -64 160 -162 160c-97 0 -161 -58 -161 -192v-262c0 -133 63 -191 161 -191c109 0 150 57 158 159l61 -8c-14 -129 -74 -210 -219 -210z" />
    <glyph glyph-name="D" unicode="D" horiz-adv-x="585" 
d="M88 0v750h211c144 0 224 -74 224 -250v-250c0 -175 -80 -250 -224 -250h-211zM150 59h149c102 0 161 52 161 185v262c0 134 -59 185 -161 185h-149v-632z" />
    <glyph glyph-name="E" unicode="E" horiz-adv-x="505" 
d="M88 0v750h372l-10 -59h-300v-258h225v-59h-225v-315h300l10 -59h-372z" />
    <glyph glyph-name="F" unicode="F" horiz-adv-x="493" 
d="M88 0v750h372l-10 -59h-300v-258h215v-59h-215v-374h-62z" />
    <glyph glyph-name="G" unicode="G" horiz-adv-x="560" 
d="M286 -6c-137 0 -223 81 -223 256v250c0 176 87 256 223 256c137 0 210 -59 221 -200l-60 -10c-8 119 -63 152 -161 152c-97 0 -161 -58 -161 -192v-262c0 -133 63 -191 161 -191s163 34 163 197v70h-165v59h226v-129c0 -188 -87 -256 -224 -256z" />
    <glyph glyph-name="H" unicode="H" horiz-adv-x="623" 
d="M88 0v750h62v-317h323v317h62v-750h-62v374h-323v-374h-62z" />
    <glyph glyph-name="I" unicode="I" horiz-adv-x="250" 
d="M94 0v750h62v-750h-62z" />
    <glyph glyph-name="J" unicode="J" horiz-adv-x="306" 
d="M38 0v59h17c101 0 114 30 114 147v544h62v-537c0 -162 -33 -213 -177 -213h-16z" />
    <glyph glyph-name="K" unicode="K" horiz-adv-x="558" 
d="M108 0v750h62v-366l282 366h69l-215 -279l227 -471h-66l-202 417l-95 -123v-294h-62z" />
    <glyph glyph-name="L" unicode="L" horiz-adv-x="493" 
d="M88 0v750h62v-691h300l10 -59h-372z" />
    <glyph glyph-name="M" unicode="M" horiz-adv-x="771" 
d="M88 0v750h82l215 -659h2l214 659h83v-750h-62v628h-2l-203 -628h-64l-204 628h-2v-628h-59z" />
    <glyph glyph-name="N" unicode="N" horiz-adv-x="623" 
d="M88 0v750h68l317 -622h2v622h60v-750h-60l-325 639h-2v-639h-60z" />
    <glyph glyph-name="O" unicode="O" horiz-adv-x="596" 
d="M298 -6c-152 0 -235 81 -235 256v250c0 176 84 256 235 256c150 0 235 -80 235 -256v-250c0 -175 -85 -256 -235 -256zM298 53c107 0 172 58 172 191v262c0 134 -65 192 -172 192c-108 0 -173 -58 -173 -192v-262c0 -133 64 -191 173 -191z" />
    <glyph glyph-name="P" unicode="P" horiz-adv-x="546" 
d="M88 0v750h195c144 0 219 -46 219 -191v-56c0 -143 -75 -191 -219 -191h-133v-312h-62zM150 371h133c102 0 155 24 155 133v55c0 109 -53 132 -155 132h-133v-320z" />
    <glyph glyph-name="Q" unicode="Q" horiz-adv-x="596" 
d="M298 -5c-152 0 -235 80 -235 255v250c0 176 84 256 235 256c150 0 235 -80 235 -256v-250c0 -103 -31 -174 -88 -215l77 -160h-65l-65 134c-28 -9 -59 -14 -94 -14zM298 53c25 0 49 2 69 8l-90 189h65l77 -161c33 30 51 79 51 155v262c0 134 -65 192 -172 192
c-108 0 -173 -58 -173 -192v-262c0 -133 64 -191 173 -191z" />
    <glyph glyph-name="R" unicode="R" horiz-adv-x="561" 
d="M450 0l-175 322h-125v-322h-62v750h191c144 0 219 -52 219 -195v-38c0 -116 -54 -170 -157 -189l178 -328h-69zM150 380h129c102 0 155 25 155 134v45c0 109 -53 132 -155 132h-129v-311z" />
    <glyph glyph-name="S" unicode="S" horiz-adv-x="536" 
d="M265 -6c-137 0 -200 61 -217 202l62 10c14 -112 59 -153 155 -153c110 0 158 46 158 141c0 107 -81 139 -167 171c-94 36 -193 71 -193 210c0 116 72 181 206 181s194 -64 205 -196l-61 -10c-9 103 -48 148 -144 148c-97 0 -144 -45 -144 -122c0 -93 71 -124 152 -153
c98 -35 208 -75 208 -229c0 -131 -74 -200 -220 -200z" />
    <glyph glyph-name="T" unicode="T" horiz-adv-x="498" 
d="M218 0v691h-193v59h448v-59h-193v-691h-62z" />
    <glyph glyph-name="U" unicode="U" horiz-adv-x="598" 
d="M299 -6c-152 0 -224 81 -224 256v500h62v-506c0 -133 53 -191 162 -191c107 0 163 58 163 191v506h61v-500c0 -175 -73 -256 -224 -256z" />
    <glyph glyph-name="V" unicode="V" horiz-adv-x="535" 
d="M233 0l-208 750h62l181 -655h2l180 655h60l-208 -750h-69z" />
    <glyph glyph-name="W" unicode="W" horiz-adv-x="869" 
d="M220 0l-193 750h61l162 -631h1l153 631h62l153 -631h1l162 631h60l-193 -750h-61l-153 629h-1l-153 -629h-61z" />
    <glyph glyph-name="X" unicode="X" horiz-adv-x="522" 
d="M22 0l205 393l-187 357h66l157 -299l155 299h64l-188 -359l206 -391h-66l-175 333l-173 -333h-64z" />
    <glyph glyph-name="Y" unicode="Y" horiz-adv-x="515" 
d="M226 0v313l-220 437h66l187 -379h2l185 379h63l-220 -437v-313h-63z" />
    <glyph glyph-name="Z" unicode="Z" horiz-adv-x="481" 
d="M38 0v54l326 637h-314v59h381v-54l-326 -637h339v-59h-406z" />
    <glyph glyph-name="a" unicode="a" horiz-adv-x="484" 
d="M226 -6c-135 0 -177 53 -177 160c0 117 71 156 209 156h95v58c0 53 -15 100 -97 100c-88 0 -112 -17 -125 -73l-61 10c18 92 70 121 188 121c130 0 157 -70 157 -158v-368h-62v56c-27 -39 -61 -62 -127 -62zM239 53c87 0 114 48 114 126v74h-95c-107 0 -147 -27 -147 -99
c0 -74 34 -101 128 -101z" />
    <glyph glyph-name="b" unicode="b" horiz-adv-x="513" 
d="M283 -6c-69 0 -116 23 -145 64v-58h-63v780h63v-320c30 42 78 66 148 66c133 0 177 -78 177 -197v-138c0 -117 -48 -197 -180 -197zM274 53c89 0 126 52 126 132v150c0 81 -37 133 -126 133c-87 0 -136 -50 -136 -127v-156c0 -80 47 -132 136 -132z" />
    <glyph glyph-name="c" unicode="c" horiz-adv-x="451" 
d="M233 -6c-129 0 -184 80 -184 197v138c0 119 57 197 184 197c130 0 172 -65 181 -152l-62 -10c-7 68 -36 104 -119 104c-84 0 -121 -52 -121 -133v-150c0 -80 37 -132 121 -132c96 0 108 44 117 98l60 -8c-7 -65 -37 -149 -177 -149z" />
    <glyph glyph-name="d" unicode="d" horiz-adv-x="513" 
d="M226 -6c-132 0 -176 79 -176 197v138c0 117 48 197 180 197c69 0 117 -23 145 -64v318h63v-780h-63v60c-27 -43 -79 -66 -149 -66zM239 53c87 0 136 48 136 126v156c0 80 -47 133 -136 133s-126 -53 -126 -133v-150c0 -81 37 -132 126 -132z" />
    <glyph glyph-name="e" unicode="e" horiz-adv-x="462" 
d="M234 -6c-128 0 -184 80 -184 197v138c0 119 57 197 184 197c138 0 182 -83 182 -191v-84h-303v-66c0 -80 37 -132 121 -132c95 0 108 47 117 101l62 -10c-7 -65 -40 -150 -179 -150zM113 310h240v25c0 93 -37 133 -119 133c-84 0 -121 -52 -121 -133v-25z" />
    <glyph glyph-name="f" unicode="f" horiz-adv-x="323" 
d="M113 0v462h-94v58h94v106c0 102 50 154 145 154h52v-59h-52c-59 0 -82 -35 -82 -95v-106h134v-58h-134v-462h-63z" />
    <glyph glyph-name="g" unicode="g" horiz-adv-x="474" 
d="M237 172h-31c-39 0 -51 -11 -51 -33c0 -23 12 -29 41 -31l63 -3c153 -7 189 -41 189 -146v-12c0 -87 -43 -147 -209 -147c-175 0 -209 54 -209 147v12c0 59 29 98 80 125c-9 12 -14 27 -14 48c0 28 11 49 34 61c-58 30 -78 86 -78 144v22c0 86 43 167 185 167
c23 0 44 -2 62 -6h149v-57h-62c27 -27 36 -68 36 -104v-22c0 -84 -44 -165 -185 -165zM256 49l-99 5c-55 -26 -65 -59 -65 -91v-21c0 -56 31 -86 147 -86c113 0 148 30 148 86v21c0 64 -21 81 -131 86zM237 227c95 0 123 50 123 106v30c0 57 -28 106 -123 106
s-122 -49 -122 -106v-30c0 -56 27 -106 122 -106z" />
    <glyph glyph-name="h" unicode="h" horiz-adv-x="519" 
d="M75 0v780h63v-326c32 46 82 72 150 72c128 0 162 -70 162 -158v-368h-62v368c0 53 -30 100 -113 100c-68 0 -137 -45 -137 -105v-363h-63z" />
    <glyph glyph-name="i" unicode="i" horiz-adv-x="225" 
d="M81 0v520h63v-520h-63zM78 619v89h70v-89h-70z" />
    <glyph glyph-name="j" unicode="j" horiz-adv-x="225" 
d="M-20 -198v58h39c47 0 62 25 62 85v575h63v-574c0 -99 -31 -144 -125 -144h-39zM78 619v89h70v-89h-70z" />
    <glyph glyph-name="k" unicode="k" horiz-adv-x="443" 
d="M75 0v780h63v-476l207 216h76l-183 -188l193 -332h-71l-167 286l-55 -58v-228h-63z" />
    <glyph glyph-name="l" unicode="l" horiz-adv-x="225" 
d="M81 0v780h63v-780h-63z" />
    <glyph glyph-name="m" unicode="m" horiz-adv-x="816" 
d="M75 0v520h63v-64c31 45 78 70 146 70c88 0 129 -33 147 -81c31 51 82 81 158 81c129 0 159 -70 159 -158v-368h-63v368c0 53 -26 100 -109 100c-67 0 -133 -45 -133 -105v-363h-63v368c0 53 -26 100 -109 100c-67 0 -133 -45 -133 -105v-363h-63z" />
    <glyph glyph-name="n" unicode="n" horiz-adv-x="519" 
d="M75 0v520h63v-66c32 46 82 72 150 72c128 0 162 -70 162 -158v-368h-62v368c0 53 -30 100 -113 100c-68 0 -137 -45 -137 -105v-363h-63z" />
    <glyph glyph-name="o" unicode="o" horiz-adv-x="488" 
d="M244 53c89 0 131 52 131 132v150c0 81 -42 133 -131 133s-131 -52 -131 -133v-150c0 -80 42 -132 131 -132zM244 -6c-134 0 -194 80 -194 197v138c0 119 61 197 194 197c132 0 194 -78 194 -197v-138c0 -117 -62 -197 -194 -197z" />
    <glyph glyph-name="p" unicode="p" horiz-adv-x="513" 
d="M75 -198v718h63v-60c30 42 78 66 148 66c133 0 177 -78 177 -197v-138c0 -117 -48 -197 -180 -197c-69 0 -116 23 -145 64v-256h-63zM274 53c89 0 126 52 126 132v150c0 81 -37 133 -126 133c-87 0 -136 -50 -136 -127v-156c0 -80 47 -132 136 -132z" />
    <glyph glyph-name="q" unicode="q" horiz-adv-x="513" 
d="M375 -198v258c-30 -44 -79 -66 -149 -66c-132 0 -176 79 -176 197v138c0 117 48 197 180 197c69 0 116 -22 145 -64v58h63v-718h-63zM239 53c87 0 136 48 136 126v156c0 80 -47 133 -136 133s-126 -53 -126 -133v-150c0 -81 37 -132 126 -132z" />
    <glyph glyph-name="r" unicode="r" horiz-adv-x="318" 
d="M75 0v520h63v-67c32 47 80 72 137 73h20v-58h-20c-69 0 -137 -47 -137 -122v-346h-63z" />
    <glyph glyph-name="s" unicode="s" horiz-adv-x="445" 
d="M224 -6c-125 0 -167 56 -177 150l60 10c12 -73 34 -101 117 -101c78 0 116 21 116 86c0 68 -53 82 -117 96c-81 18 -168 34 -167 153c1 105 79 138 172 138c116 0 159 -60 169 -143l-62 -10c-7 66 -36 95 -107 95c-73 0 -110 -24 -110 -79c0 -68 54 -83 119 -97
c81 -18 166 -35 166 -152c0 -95 -59 -146 -179 -146z" />
    <glyph glyph-name="t" unicode="t" horiz-adv-x="360" 
d="M238 0c-94 0 -125 45 -125 144v318h-94v58h94v188h62v-188h135v-58h-135v-318c0 -60 15 -86 63 -86h72v-58h-72z" />
    <glyph glyph-name="u" unicode="u" horiz-adv-x="519" 
d="M232 -6c-129 0 -163 70 -163 159v367h63v-367c0 -54 30 -100 112 -100c69 0 138 46 138 108v359h62v-520h-62v66c-30 -45 -82 -72 -150 -72z" />
    <glyph glyph-name="v" unicode="v" horiz-adv-x="427" 
d="M177 0l-164 520h64l138 -440h1l136 440h62l-164 -520h-73z" />
    <glyph glyph-name="w" unicode="w" horiz-adv-x="695" 
d="M166 0l-145 520h62l117 -423h1l116 423h63l116 -423h1l117 423h60l-145 -520h-64l-117 418h-1l-117 -418h-64z" />
    <glyph glyph-name="x" unicode="x" horiz-adv-x="407" 
d="M7 0l162 269l-150 251h70l117 -195l116 195h67l-151 -249l163 -271h-70l-129 214l-128 -214h-67z" />
    <glyph glyph-name="y" unicode="y" horiz-adv-x="423" 
d="M117 -198l65 202l-171 516h65l138 -417h1l134 417h63l-234 -718h-61z" />
    <glyph glyph-name="z" unicode="z" horiz-adv-x="409" 
d="M38 0v52l255 410h-249v58h321v-52l-255 -410h261v-58h-333z" />
    <glyph glyph-name="ampersand" unicode="&#x26;" horiz-adv-x="573" 
d="M249 -6c-171 0 -221 74 -221 189c0 108 77 174 158 230c-46 61 -67 110 -67 177c0 116 50 166 145 166c102 0 143 -48 143 -166c0 -87 -52 -136 -133 -194l158 -210c14 46 24 107 31 189h57c-8 -109 -24 -187 -47 -244l98 -131h-76l-55 73c-46 -63 -110 -79 -191 -79z
M249 53c68 0 119 11 155 69l-184 246c-81 -57 -130 -109 -130 -186s24 -129 159 -129zM181 590c0 -49 12 -83 60 -149c77 53 105 85 105 149c0 69 -17 108 -82 108s-83 -39 -83 -108z" />
    <glyph glyph-name="period" unicode="." horiz-adv-x="239" 
d="M82 0v94h75v-94h-75z" />
    <glyph glyph-name="comma" unicode="," horiz-adv-x="239" 
d="M82 -98l31 98h-31v94h75v-94l-31 -98h-44z" />
    <glyph glyph-name="colon" unicode=":" horiz-adv-x="239" 
d="M82 0v94h75v-94h-75zM82 426v94h75v-94h-75z" />
    <glyph glyph-name="semicolon" unicode=";" horiz-adv-x="239" 
d="M82 -98l31 98h-31v94h75v-94l-31 -98h-44zM82 426v94h75v-94h-75z" />
    <glyph glyph-name="ellipsis" unicode="&#x2026;" horiz-adv-x="717" 
d="M82 0v94h75v-94h-75zM321 0v94h75v-94h-75zM560 0v94h75v-94h-75z" />
    <glyph glyph-name="exclamdown" unicode="&#xa1;" horiz-adv-x="288" 
d="M108 0l7 563h58l7 -563h-72zM106 656v94h75v-94h-75z" />
    <glyph glyph-name="exclam" unicode="!" horiz-adv-x="288" 
d="M106 0v94h75v-94h-75zM115 188l-7 562h72l-7 -562h-58z" />
    <glyph glyph-name="questiondown" unicode="&#xbf;" horiz-adv-x="504" 
d="M253 -6c-144 0 -199 68 -199 187c0 97 53 141 104 186c45 40 88 81 88 159v36h63v-36c0 -113 -64 -157 -118 -205c-40 -35 -75 -71 -75 -140c0 -81 37 -129 134 -129c96 0 134 58 143 160l61 -10c-11 -127 -70 -208 -201 -208zM240 656v94h75v-94h-75z" />
    <glyph glyph-name="question" unicode="?" horiz-adv-x="504" 
d="M195 188v36c0 113 64 157 118 205c40 35 75 71 75 140c0 81 -37 129 -134 129c-96 0 -134 -58 -143 -160l-61 10c11 127 70 208 201 208c144 0 199 -68 199 -187c0 -97 -53 -141 -104 -186c-45 -40 -88 -81 -88 -159v-36h-63zM189 0v94h75v-94h-75z" />
    <glyph glyph-name="parenleft" unicode="(" horiz-adv-x="335" 
d="M274 -198c-145 0 -194 82 -194 257v465c0 176 50 256 194 256h36v-59h-36c-103 0 -131 -57 -131 -191v-477c0 -133 27 -192 131 -192h36v-59h-36z" />
    <glyph glyph-name="parenright" unicode=")" horiz-adv-x="335" 
d="M25 -198v59h36c104 0 131 59 131 192v477c0 134 -28 191 -131 191h-36v59h36c144 0 194 -80 194 -256v-465c0 -175 -49 -257 -194 -257h-36z" />
    <glyph glyph-name="bracketleft" unicode="[" horiz-adv-x="335" 
d="M80 -198v978h224v-59h-161v-860h161v-59h-224z" />
    <glyph glyph-name="bracketright" unicode="]" horiz-adv-x="335" 
d="M31 -198v59h162v860h-162v59h224v-978h-224z" />
    <glyph glyph-name="braceleft" unicode="{" horiz-adv-x="398" 
d="M336 -198c-145 0 -193 82 -193 257v214h-94v58h94v193c0 176 50 256 193 256h37v-59h-37c-102 0 -131 -57 -131 -191v-477c0 -133 28 -192 131 -192h37v-59h-37z" />
    <glyph glyph-name="braceright" unicode="}" horiz-adv-x="398" 
d="M25 -198v59h37c103 0 131 59 131 192v477c0 134 -29 191 -131 191h-37v59h37c143 0 193 -80 193 -256v-193h94v-58h-94v-214c0 -175 -48 -257 -193 -257h-37z" />
    <glyph glyph-name="hyphen" unicode="-" horiz-adv-x="438" 
d="M31 305v59h375v-59h-375z" />
    <glyph glyph-name="underscore" unicode="_" horiz-adv-x="435" 
d="M-31 -125v59h497v-59h-497z" />
    <glyph glyph-name="endash" unicode="&#x2013;" horiz-adv-x="560" 
d="M31 305v59h498v-59h-498z" />
    <glyph glyph-name="endash.salt_en" horiz-adv-x="500" 
d="M0 305v59h500v-59h-500z" />
    <glyph glyph-name="emdash" unicode="&#x2014;" horiz-adv-x="785" 
d="M31 305v59h723v-59h-723z" />
    <glyph glyph-name="emdash.salt_em" unicode="&#x2015;" horiz-adv-x="1000" 
d="M0 305v59h1000v-59h-1000z" />
    <glyph glyph-name="quoteleft" unicode="&#x2018;" horiz-adv-x="199" 
d="M62 541v94l31 115h44l-31 -115h31v-94h-75z" />
    <glyph glyph-name="quoteright" unicode="&#x2019;" horiz-adv-x="199" 
d="M62 541l31 115h-31v94h75v-94l-31 -115h-44z" />
    <glyph glyph-name="quotedblleft" unicode="&#x201c;" horiz-adv-x="319" 
d="M62 541v94l31 115h44l-31 -115h31v-94h-75zM182 541v94l31 115h44l-31 -115h31v-94h-75z" />
    <glyph glyph-name="quotedblright" unicode="&#x201d;" horiz-adv-x="319" 
d="M62 541l31 115h-31v94h75v-94l-31 -115h-44zM182 541l31 115h-31v94h75v-94l-31 -115h-44z" />
    <glyph glyph-name="quotesinglbase" unicode="&#x201a;" horiz-adv-x="199" 
d="M62 -115l31 115h-31v94h75v-94l-31 -115h-44z" />
    <glyph glyph-name="quotedblbase" unicode="&#x201e;" horiz-adv-x="319" 
d="M62 -115l31 115h-31v94h75v-94l-31 -115h-44zM182 -115l31 115h-31v94h75v-94l-31 -115h-44z" />
    <glyph glyph-name="guillemotleft" unicode="&#xab;" horiz-adv-x="507" 
d="M195 0l-144 260l144 260h68l-142 -260l142 -260h-68zM403 0l-144 260l144 260h67l-142 -260l142 -260h-67z" />
    <glyph glyph-name="guillemotright" unicode="&#xbb;" horiz-adv-x="507" 
d="M244 0l142 260l-142 260h68l144 -260l-144 -260h-68zM37 0l142 260l-142 260h67l144 -260l-144 -260h-67z" />
    <glyph glyph-name="guilsinglleft" unicode="&#x2039;" horiz-adv-x="300" 
d="M195 0l-144 260l144 260h68l-142 -260l142 -260h-68z" />
    <glyph glyph-name="guilsinglright" unicode="&#x203a;" horiz-adv-x="300" 
d="M37 0l142 260l-142 260h68l144 -260l-144 -260h-68z" />
    <glyph glyph-name="brokenbar" unicode="&#xa6;" horiz-adv-x="245" 
d="M91 356v424h63v-424h-63zM91 -198v424h63v-424h-63z" />
    <glyph glyph-name="slash" unicode="/" horiz-adv-x="384" 
d="M0 0l321 750h63l-323 -750h-61z" />
    <glyph glyph-name="backslash" unicode="\" horiz-adv-x="384" 
d="M323 0l-323 750h63l321 -750h-61z" />
    <glyph glyph-name="bar" unicode="|" horiz-adv-x="245" 
d="M91 -198v978h63v-978h-63z" />
    <glyph glyph-name="asterisk" unicode="*" horiz-adv-x="511" 
d="M149 333l-46 33l122 154l-191 54l19 52l181 -67l-8 194h59l-7 -194l181 67l19 -52l-191 -54l122 -154l-46 -33l-108 158z" />
    <glyph glyph-name="dagger" unicode="&#x2020;" horiz-adv-x="363" 
d="M150 -198v670h-125v58h125v220h63v-220h125v-58h-125v-670h-63z" />
    <glyph glyph-name="daggerdbl" unicode="&#x2021;" horiz-adv-x="363" 
d="M150 -198v220h-125v58h125v392h-125v58h125v220h63v-220h125v-58h-125v-392h125v-58h-125v-220h-63z" />
    <glyph glyph-name="periodcentered" unicode="&#xb7;" horiz-adv-x="239" 
d="M82 269v94h75v-94h-75z" />
    <glyph glyph-name="bullet" unicode="&#x2022;" horiz-adv-x="440" 
d="M220 121c-89 0 -114 53 -114 133v120c0 81 25 132 114 132s114 -51 114 -132v-120c0 -80 -25 -133 -114 -133z" />
    <glyph glyph-name="quotesingle" unicode="'" horiz-adv-x="238" 
d="M90 500l-7 250h72l-7 -250h-58z" />
    <glyph glyph-name="quotedbl" unicode="&#x22;" horiz-adv-x="425" 
d="M90 500l-7 250h72l-7 -250h-58zM278 500l-8 250h73l-8 -250h-57z" />
    <glyph glyph-name="parenleft.uc" horiz-adv-x="335" 
d="M274 -70c-145 0 -194 82 -194 257v377c0 176 50 256 194 256h36v-59h-36c-103 0 -131 -57 -131 -191v-389c0 -133 27 -192 131 -192h36v-59h-36z" />
    <glyph glyph-name="parenright.uc" horiz-adv-x="335" 
d="M25 -70v59h36c104 0 131 59 131 192v389c0 134 -28 191 -131 191h-36v59h36c144 0 194 -80 194 -256v-377c0 -175 -49 -257 -194 -257h-36z" />
    <glyph glyph-name="bracketleft.uc" horiz-adv-x="335" 
d="M80 -70v890h224v-59h-161v-772h161v-59h-224z" />
    <glyph glyph-name="bracketright.uc" horiz-adv-x="335" 
d="M31 -70v59h162v772h-162v59h224v-890h-224z" />
    <glyph glyph-name="braceleft.uc" horiz-adv-x="398" 
d="M336 -69c-145 0 -193 82 -193 257v171h-94v58h94v147c0 176 50 256 193 256h37v-59h-37c-102 0 -131 -57 -131 -191v-388c0 -133 28 -192 131 -192h37v-59h-37z" />
    <glyph glyph-name="braceright.uc" horiz-adv-x="398" 
d="M25 -70v59h37c103 0 131 59 131 192v389c0 134 -29 191 -131 191h-37v59h37c143 0 193 -80 193 -256v-148h94v-58h-94v-171c0 -175 -48 -257 -193 -257h-37z" />
    <glyph glyph-name="hyphen.uc" horiz-adv-x="438" 
d="M31 365v59h375v-59h-375z" />
    <glyph glyph-name="endash.uc" horiz-adv-x="560" 
d="M31 365v59h498v-59h-498z" />
    <glyph glyph-name="endash.uc_salt_en" horiz-adv-x="500" 
d="M0 365v59h500v-59h-500z" />
    <glyph glyph-name="emdash.uc" horiz-adv-x="785" 
d="M31 365v59h723v-59h-723z" />
    <glyph glyph-name="emdash.uc_salt_em" horiz-adv-x="1000" 
d="M0 365v59h1000v-59h-1000z" />
    <glyph glyph-name="guillemotleft.uc" horiz-adv-x="507" 
d="M195 90l-144 260l144 260h68l-142 -260l142 -260h-68zM403 90l-144 260l144 260h67l-142 -260l142 -260h-67z" />
    <glyph glyph-name="guillemotright.uc" horiz-adv-x="507" 
d="M244 90l142 260l-142 260h68l144 -260l-144 -260h-68zM37 90l142 260l-142 260h67l144 -260l-144 -260h-67z" />
    <glyph glyph-name="guilsinglleft.uc" horiz-adv-x="300" 
d="M195 90l-144 260l144 260h68l-142 -260l142 -260h-68z" />
    <glyph glyph-name="guilsinglright.uc" horiz-adv-x="300" 
d="M37 90l142 260l-142 260h68l144 -260l-144 -260h-68z" />
    <glyph glyph-name="Agrave" unicode="&#xc0;" horiz-adv-x="535" 
d="M25 0l208 750h69l208 -750h-62l-64 230h-235l-64 -230h-60zM164 286h204l-101 368h-1zM246 782l-107 156h72l93 -156h-58z" />
    <glyph glyph-name="Aacute" unicode="&#xc1;" horiz-adv-x="535" 
d="M25 0l208 750h69l208 -750h-62l-64 230h-235l-64 -230h-60zM164 286h204l-101 368h-1zM230 782l92 156h73l-108 -156h-57z" />
    <glyph glyph-name="Acircumflex" unicode="&#xc2;" horiz-adv-x="535" 
d="M25 0l208 750h69l208 -750h-62l-64 230h-235l-64 -230h-60zM164 286h204l-101 368h-1zM116 782l112 156h77l112 -156h-55l-95 107l-94 -107h-57z" />
    <glyph glyph-name="Atilde" unicode="&#xc3;" horiz-adv-x="535" 
d="M25 0l208 750h69l208 -750h-62l-64 230h-235l-64 -230h-60zM164 286h204l-101 368h-1zM163 782h-53c0 42 7 108 83 108c50 0 114 -56 145 -56c25 0 33 19 33 56h54c0 -42 -8 -108 -84 -108c-49 0 -114 56 -145 56c-26 0 -33 -19 -33 -56z" />
    <glyph glyph-name="Adieresis" unicode="&#xc4;" horiz-adv-x="535" 
d="M25 0l208 750h69l208 -750h-62l-64 230h-235l-64 -230h-60zM164 286h204l-101 368h-1zM143 782v86h68v-86h-68zM323 782v86h68v-86h-68z" />
    <glyph glyph-name="Aring" unicode="&#xc5;" horiz-adv-x="535" 
d="M25 0l197 710c-39 11 -61 41 -61 100c0 79 41 106 106 106s106 -27 106 -106c0 -59 -22 -89 -60 -100l197 -710h-62l-64 230h-235l-64 -230h-60zM164 286h204l-101 368h-1zM267 751c33 0 56 14 56 59s-23 59 -56 59c-32 0 -56 -14 -56 -59s24 -59 56 -59z" />
    <glyph glyph-name="Amacron" unicode="&#x100;" horiz-adv-x="535" 
d="M25 0l208 750h69l208 -750h-62l-64 230h-235l-64 -230h-60zM164 286h204l-101 368h-1zM132 782v53h270v-53h-270z" />
    <glyph glyph-name="Abreve" unicode="&#x102;" horiz-adv-x="535" 
d="M25 0l208 750h69l208 -750h-62l-64 230h-235l-64 -230h-60zM164 286h204l-101 368h-1zM267 782c-106 0 -151 58 -151 131h57c0 -40 25 -78 94 -78c68 0 94 38 94 78h57c0 -73 -45 -131 -151 -131z" />
    <glyph glyph-name="Aogonek" unicode="&#x104;" horiz-adv-x="535" 
d="M25 0l208 750h69l208 -750h-39c8 7 17 16 28 25h-58l-57 205h-235l-64 -230h-60zM164 286h204l-101 368h-1zM516 -198h-27c-64 0 -124 10 -124 96c0 54 28 88 76 127l7 -25h23c-40 -37 -54 -60 -54 -97c0 -45 22 -53 72 -53h27v-48z" />
    <glyph glyph-name="AE" unicode="&#xc6;" horiz-adv-x="796" 
d="M197 306h182v396h-1zM-7 0l349 750h409l-10 -59h-300v-258h225v-59h-225v-315h300l10 -59h-372v250h-205l-116 -250h-65z" />
    <glyph glyph-name="Ccedilla" unicode="&#xc7;" horiz-adv-x="560" 
d="M221 -214v48h28c62 0 81 7 81 43c0 35 -20 43 -75 43h-6v76c-116 14 -186 95 -186 254v250c0 176 87 256 223 256c137 0 211 -66 223 -208l-61 -10c-11 123 -64 160 -162 160c-97 0 -161 -58 -161 -192v-262c0 -133 63 -191 161 -191c109 0 150 57 158 159l61 -8
c-14 -126 -72 -206 -209 -210v-34c52 -1 86 -23 86 -83s-37 -91 -123 -91h-38z" />
    <glyph glyph-name="Cacute" unicode="&#x106;" horiz-adv-x="560" 
d="M286 -6c-137 0 -223 81 -223 256v250c0 176 87 256 223 256c137 0 211 -66 223 -208l-61 -10c-11 123 -64 160 -162 160c-97 0 -161 -58 -161 -192v-262c0 -133 63 -191 161 -191c109 0 150 57 158 159l61 -8c-14 -129 -74 -210 -219 -210zM243 782l92 156h73l-108 -156
h-57z" />
    <glyph glyph-name="Ccircumflex" unicode="&#x108;" horiz-adv-x="560" 
d="M286 -6c-137 0 -223 81 -223 256v250c0 176 87 256 223 256c137 0 211 -66 223 -208l-61 -10c-11 123 -64 160 -162 160c-97 0 -161 -58 -161 -192v-262c0 -133 63 -191 161 -191c109 0 150 57 158 159l61 -8c-14 -129 -74 -210 -219 -210zM129 782l112 156h77l112 -156
h-55l-95 107l-94 -107h-57z" />
    <glyph glyph-name="Cdotaccent" unicode="&#x10a;" horiz-adv-x="560" 
d="M286 -6c-137 0 -223 81 -223 256v250c0 176 87 256 223 256c137 0 211 -66 223 -208l-61 -10c-11 123 -64 160 -162 160c-97 0 -161 -58 -161 -192v-262c0 -133 63 -191 161 -191c109 0 150 57 158 159l61 -8c-14 -129 -74 -210 -219 -210zM245 782v89h70v-89h-70z" />
    <glyph glyph-name="Ccaron" unicode="&#x10c;" horiz-adv-x="560" 
d="M286 -6c-137 0 -223 81 -223 256v250c0 176 87 256 223 256c137 0 211 -66 223 -208l-61 -10c-11 123 -64 160 -162 160c-97 0 -161 -58 -161 -192v-262c0 -133 63 -191 161 -191c109 0 150 57 158 159l61 -8c-14 -129 -74 -210 -219 -210zM241 782l-112 156h55l95 -108
l94 108h57l-112 -156h-77z" />
    <glyph glyph-name="Eth" unicode="&#xd0;" horiz-adv-x="586" 
d="M88 0v376h-62v57h62v317h211c144 0 224 -74 224 -250v-250c0 -175 -80 -250 -224 -250h-211zM150 59h149c102 0 161 52 161 185v262c0 134 -59 185 -161 185h-149v-258h156v-57h-156v-317z" />
    <glyph glyph-name="Dcaron" unicode="&#x10e;" horiz-adv-x="585" 
d="M88 0v750h211c144 0 224 -74 224 -250v-250c0 -175 -80 -250 -224 -250h-211zM150 59h149c102 0 161 52 161 185v262c0 134 -59 185 -161 185h-149v-632zM253 782l-112 156h55l95 -108l94 108h57l-112 -156h-77z" />
    <glyph glyph-name="Dcroat" unicode="&#x110;" horiz-adv-x="586" 
d="M88 0v376h-62v57h62v317h211c144 0 224 -74 224 -250v-250c0 -175 -80 -250 -224 -250h-211zM150 59h149c102 0 161 52 161 185v262c0 134 -59 185 -161 185h-149v-258h156v-57h-156v-317z" />
    <glyph glyph-name="Egrave" unicode="&#xc8;" horiz-adv-x="505" 
d="M88 0v750h372l-10 -59h-300v-258h225v-59h-225v-315h300l10 -59h-372zM251 782l-107 156h72l93 -156h-58z" />
    <glyph glyph-name="Eacute" unicode="&#xc9;" horiz-adv-x="505" 
d="M88 0v750h372l-10 -59h-300v-258h225v-59h-225v-315h300l10 -59h-372zM215 782l92 156h73l-108 -156h-57z" />
    <glyph glyph-name="Ecircumflex" unicode="&#xca;" horiz-adv-x="505" 
d="M88 0v750h372l-10 -59h-300v-258h225v-59h-225v-315h300l10 -59h-372zM121 782l112 156h77l112 -156h-55l-95 107l-94 -107h-57z" />
    <glyph glyph-name="Edieresis" unicode="&#xcb;" horiz-adv-x="505" 
d="M88 0v750h372l-10 -59h-300v-258h225v-59h-225v-315h300l10 -59h-372zM148 782v86h68v-86h-68zM328 782v86h68v-86h-68z" />
    <glyph glyph-name="Emacron" unicode="&#x112;" horiz-adv-x="505" 
d="M88 0v750h372l-10 -59h-300v-258h225v-59h-225v-315h300l10 -59h-372zM137 782v53h270v-53h-270z" />
    <glyph glyph-name="Ebreve" unicode="&#x114;" horiz-adv-x="505" 
d="M88 0v750h372l-10 -59h-300v-258h225v-59h-225v-315h300l10 -59h-372zM272 782c-106 0 -151 58 -151 131h57c0 -40 25 -78 94 -78c68 0 94 38 94 78h57c0 -73 -45 -131 -151 -131z" />
    <glyph glyph-name="Edotaccent" unicode="&#x116;" horiz-adv-x="505" 
d="M88 0v750h372l-10 -59h-300v-258h225v-59h-225v-315h300l10 -59h-372zM237 782v89h70v-89h-70z" />
    <glyph glyph-name="Eogonek" unicode="&#x118;" horiz-adv-x="505" 
d="M88 0v750h372l-10 -59h-300v-258h225v-59h-225v-315h300l10 -59h-43c-40 -37 -54 -60 -54 -97c0 -45 22 -53 72 -53h27v-48h-27c-64 0 -124 10 -124 96c0 42 17 73 47 102h-270z" />
    <glyph glyph-name="Ecaron" unicode="&#x11a;" horiz-adv-x="505" 
d="M88 0v750h372l-10 -59h-300v-258h225v-59h-225v-315h300l10 -59h-372zM233 782l-112 156h55l95 -108l94 108h57l-112 -156h-77z" />
    <glyph glyph-name="Gcircumflex" unicode="&#x11c;" horiz-adv-x="560" 
d="M286 -6c-137 0 -223 81 -223 256v250c0 176 87 256 223 256c137 0 210 -59 221 -200l-60 -10c-8 119 -63 152 -161 152c-97 0 -161 -58 -161 -192v-262c0 -133 63 -191 161 -191s163 34 163 197v70h-165v59h226v-129c0 -188 -87 -256 -224 -256zM129 782l112 156h77
l112 -156h-55l-95 107l-94 -107h-57z" />
    <glyph glyph-name="Gbreve" unicode="&#x11e;" horiz-adv-x="560" 
d="M286 -6c-137 0 -223 81 -223 256v250c0 176 87 256 223 256c137 0 210 -59 221 -200l-60 -10c-8 119 -63 152 -161 152c-97 0 -161 -58 -161 -192v-262c0 -133 63 -191 161 -191s163 34 163 197v70h-165v59h226v-129c0 -188 -87 -256 -224 -256zM280 782
c-106 0 -151 58 -151 131h57c0 -40 25 -78 94 -78c68 0 94 38 94 78h57c0 -73 -45 -131 -151 -131z" />
    <glyph glyph-name="Gdotaccent" unicode="&#x120;" horiz-adv-x="560" 
d="M286 -6c-137 0 -223 81 -223 256v250c0 176 87 256 223 256c137 0 210 -59 221 -200l-60 -10c-8 119 -63 152 -161 152c-97 0 -161 -58 -161 -192v-262c0 -133 63 -191 161 -191s163 34 163 197v70h-165v59h226v-129c0 -188 -87 -256 -224 -256zM245 782v89h70v-89h-70z
" />
    <glyph glyph-name="Gcommaaccent" unicode="&#x122;" horiz-adv-x="560" 
d="M286 -6c-137 0 -223 81 -223 256v250c0 176 87 256 223 256c137 0 210 -59 221 -200l-60 -10c-8 119 -63 152 -161 152c-97 0 -161 -58 -161 -192v-262c0 -133 63 -191 161 -191s163 34 163 197v70h-165v59h226v-129c0 -188 -87 -256 -224 -256zM246 -222l29 95h-31v88
h71v-88l-29 -95h-40z" />
    <glyph glyph-name="Hcircumflex" unicode="&#x124;" horiz-adv-x="623" 
d="M88 0v750h62v-317h323v317h62v-750h-62v374h-323v-374h-62zM160 782l112 156h77l112 -156h-55l-95 107l-94 -107h-57z" />
    <glyph glyph-name="Hbar" unicode="&#x126;" horiz-adv-x="623" 
d="M26 546v57h62v147h62v-147h323v147h62v-147h62v-57h-62v-546h-62v374h-323v-374h-62v546h-62zM150 433h323v113h-323v-113z" />
    <glyph glyph-name="Igrave" unicode="&#xcc;" horiz-adv-x="250" 
d="M94 0v750h62v-750h-62zM96 782l-107 156h72l93 -156h-58z" />
    <glyph glyph-name="Iacute" unicode="&#xcd;" horiz-adv-x="250" 
d="M94 0v750h62v-750h-62zM96 782l92 156h73l-108 -156h-57z" />
    <glyph glyph-name="Icircumflex" unicode="&#xce;" horiz-adv-x="250" 
d="M94 0v750h62v-750h-62zM-26 782l112 156h77l112 -156h-55l-95 107l-94 -107h-57z" />
    <glyph glyph-name="Itilde" unicode="&#x128;" horiz-adv-x="250" 
d="M94 0v750h62v-750h-62zM21 782h-53c0 42 7 108 83 108c50 0 114 -56 145 -56c25 0 33 19 33 56h54c0 -42 -8 -108 -84 -108c-49 0 -114 56 -145 56c-26 0 -33 -19 -33 -56z" />
    <glyph glyph-name="Idieresis" unicode="&#xcf;" horiz-adv-x="250" 
d="M94 0v750h62v-750h-62zM1 782v86h68v-86h-68zM181 782v86h68v-86h-68z" />
    <glyph glyph-name="Imacron" unicode="&#x12a;" horiz-adv-x="250" 
d="M94 0v750h62v-750h-62zM-10 782v53h270v-53h-270z" />
    <glyph glyph-name="Ibreve" unicode="&#x12c;" horiz-adv-x="250" 
d="M94 0v750h62v-750h-62zM125 782c-106 0 -151 58 -151 131h57c0 -40 25 -78 94 -78c68 0 94 38 94 78h57c0 -73 -45 -131 -151 -131z" />
    <glyph glyph-name="Iogonek" unicode="&#x12e;" horiz-adv-x="250" 
d="M172 -198h-27c-64 0 -124 10 -124 96c0 53 27 87 73 124v728h62v-750h-29c-40 -37 -54 -60 -54 -97c0 -45 22 -53 72 -53h27v-48z" />
    <glyph glyph-name="Idotaccent" unicode="&#x130;" horiz-adv-x="250" 
d="M94 0v750h62v-750h-62zM90 782v89h70v-89h-70z" />
    <glyph glyph-name="IJ" unicode="&#x132;" horiz-adv-x="535" 
d="M94 0v750h62v-750h-62zM267 0v59h17c101 0 114 30 114 147v544h62v-537c0 -162 -33 -213 -177 -213h-16z" />
    <glyph glyph-name="Jcircumflex" unicode="&#x134;" horiz-adv-x="306" 
d="M38 0v59h17c101 0 114 30 114 147v544h62v-537c0 -162 -33 -213 -177 -213h-16zM49 782l112 156h77l112 -156h-55l-95 107l-94 -107h-57z" />
    <glyph glyph-name="Kcommaaccent" unicode="&#x136;" horiz-adv-x="558" 
d="M108 0v750h62v-366l282 366h69l-215 -279l227 -471h-66l-202 417l-95 -123v-294h-62zM245 -222l29 95h-31v88h71v-88l-29 -95h-40z" />
    <glyph glyph-name="Lacute" unicode="&#x139;" horiz-adv-x="493" 
d="M88 0v750h62v-691h300l10 -59h-372zM90 782l92 156h73l-108 -156h-57z" />
    <glyph glyph-name="Lcommaaccent" unicode="&#x13b;" horiz-adv-x="493" 
d="M88 0v750h62v-691h300l10 -59h-372zM212 -222l29 95h-31v88h71v-88l-29 -95h-40z" />
    <glyph glyph-name="Lcaron" unicode="&#x13d;" horiz-adv-x="493" 
d="M254 533l20 217h65l-33 -217h-52zM88 0v750h62v-691h300l10 -59h-372z" />
    <glyph glyph-name="Ldot" unicode="&#x13f;" horiz-adv-x="493" 
d="M88 0v750h62v-691h300l10 -59h-372zM335 374v89h70v-89h-70z" />
    <glyph glyph-name="Lslash" unicode="&#x141;" horiz-adv-x="493" 
d="M88 0v325l-62 -30v59l62 30v366h62v-341l159 77v-59l-159 -77v-291h300l10 -59h-372z" />
    <glyph glyph-name="Ntilde" unicode="&#xd1;" horiz-adv-x="623" 
d="M88 0v750h68l317 -622h2v622h60v-750h-60l-325 639h-2v-639h-60zM207 782h-53c0 42 7 108 83 108c50 0 114 -56 145 -56c25 0 33 19 33 56h54c0 -42 -8 -108 -84 -108c-49 0 -114 56 -145 56c-26 0 -33 -19 -33 -56z" />
    <glyph glyph-name="Nacute" unicode="&#x143;" horiz-adv-x="623" 
d="M88 0v750h68l317 -622h2v622h60v-750h-60l-325 639h-2v-639h-60zM274 782l92 156h73l-108 -156h-57z" />
    <glyph glyph-name="Ncommaaccent" unicode="&#x145;" horiz-adv-x="623" 
d="M88 0v750h68l317 -622h2v622h60v-750h-60l-325 639h-2v-639h-60zM277 -222l29 95h-31v88h71v-88l-29 -95h-40z" />
    <glyph glyph-name="Ncaron" unicode="&#x147;" horiz-adv-x="623" 
d="M88 0v750h68l317 -622h2v622h60v-750h-60l-325 639h-2v-639h-60zM272 782l-112 156h55l95 -108l94 108h57l-112 -156h-77z" />
    <glyph glyph-name="Eng" unicode="&#x14a;" horiz-adv-x="610" 
d="M372 -198v58h39c47 0 62 25 62 85v581c0 121 -35 171 -142 171c-109 0 -181 -38 -181 -171v-526h-62v750h62v-84c33 69 110 90 192 90c140 0 193 -71 193 -232v-578c0 -99 -30 -144 -124 -144h-39z" />
    <glyph glyph-name="Ograve" unicode="&#xd2;" horiz-adv-x="596" 
d="M298 -6c-152 0 -235 81 -235 256v250c0 176 84 256 235 256c150 0 235 -80 235 -256v-250c0 -175 -85 -256 -235 -256zM298 53c107 0 172 58 172 191v262c0 134 -65 192 -172 192c-108 0 -173 -58 -173 -192v-262c0 -133 64 -191 173 -191zM277 782l-107 156h72l93 -156
h-58z" />
    <glyph glyph-name="Oacute" unicode="&#xd3;" horiz-adv-x="596" 
d="M298 -6c-152 0 -235 81 -235 256v250c0 176 84 256 235 256c150 0 235 -80 235 -256v-250c0 -175 -85 -256 -235 -256zM298 53c107 0 172 58 172 191v262c0 134 -65 192 -172 192c-108 0 -173 -58 -173 -192v-262c0 -133 64 -191 173 -191zM261 782l92 156h73l-108 -156
h-57z" />
    <glyph glyph-name="Ocircumflex" unicode="&#xd4;" horiz-adv-x="596" 
d="M298 -6c-152 0 -235 81 -235 256v250c0 176 84 256 235 256c150 0 235 -80 235 -256v-250c0 -175 -85 -256 -235 -256zM298 53c107 0 172 58 172 191v262c0 134 -65 192 -172 192c-108 0 -173 -58 -173 -192v-262c0 -133 64 -191 173 -191zM147 782l112 156h77l112 -156
h-55l-95 107l-94 -107h-57z" />
    <glyph glyph-name="Otilde" unicode="&#xd5;" horiz-adv-x="596" 
d="M298 -6c-152 0 -235 81 -235 256v250c0 176 84 256 235 256c150 0 235 -80 235 -256v-250c0 -175 -85 -256 -235 -256zM298 53c107 0 172 58 172 191v262c0 134 -65 192 -172 192c-108 0 -173 -58 -173 -192v-262c0 -133 64 -191 173 -191zM194 782h-53
c0 42 7 108 83 108c50 0 114 -56 145 -56c25 0 33 19 33 56h54c0 -42 -8 -108 -84 -108c-49 0 -114 56 -145 56c-26 0 -33 -19 -33 -56z" />
    <glyph glyph-name="Odieresis" unicode="&#xd6;" horiz-adv-x="596" 
d="M298 -6c-152 0 -235 81 -235 256v250c0 176 84 256 235 256c150 0 235 -80 235 -256v-250c0 -175 -85 -256 -235 -256zM298 53c107 0 172 58 172 191v262c0 134 -65 192 -172 192c-108 0 -173 -58 -173 -192v-262c0 -133 64 -191 173 -191zM174 782v86h68v-86h-68z
M354 782v86h68v-86h-68z" />
    <glyph glyph-name="Omacron" unicode="&#x14c;" horiz-adv-x="596" 
d="M298 -6c-152 0 -235 81 -235 256v250c0 176 84 256 235 256c150 0 235 -80 235 -256v-250c0 -175 -85 -256 -235 -256zM298 53c107 0 172 58 172 191v262c0 134 -65 192 -172 192c-108 0 -173 -58 -173 -192v-262c0 -133 64 -191 173 -191zM163 782v53h270v-53h-270z" />
    <glyph glyph-name="Obreve" unicode="&#x14e;" horiz-adv-x="596" 
d="M298 -6c-152 0 -235 81 -235 256v250c0 176 84 256 235 256c150 0 235 -80 235 -256v-250c0 -175 -85 -256 -235 -256zM298 53c107 0 172 58 172 191v262c0 134 -65 192 -172 192c-108 0 -173 -58 -173 -192v-262c0 -133 64 -191 173 -191zM298 782
c-106 0 -151 58 -151 131h57c0 -40 25 -78 94 -78c68 0 94 38 94 78h57c0 -73 -45 -131 -151 -131z" />
    <glyph glyph-name="Ohungarumlaut" unicode="&#x150;" horiz-adv-x="596" 
d="M298 -6c-152 0 -235 81 -235 256v250c0 176 84 256 235 256c150 0 235 -80 235 -256v-250c0 -175 -85 -256 -235 -256zM298 53c107 0 172 58 172 191v262c0 134 -65 192 -172 192c-108 0 -173 -58 -173 -192v-262c0 -133 64 -191 173 -191zM197 782l93 156h67l-107 -156
h-53zM339 782l92 156h68l-108 -156h-52z" />
    <glyph glyph-name="Oslash" unicode="&#xd8;" horiz-adv-x="596" 
d="M85 -74l48 121c-46 41 -70 108 -70 203v250c0 176 84 256 235 256c43 0 80 -7 112 -20l36 88h60l-47 -118c48 -42 74 -109 74 -206v-250c0 -175 -85 -256 -235 -256c-45 0 -85 7 -117 21l-36 -89h-60zM298 53c107 0 172 58 172 191v262c0 62 -13 108 -38 139l-230 -572
c25 -13 57 -20 96 -20zM125 506v-262c0 -60 11 -104 35 -135l229 570c-25 13 -55 19 -91 19c-108 0 -173 -58 -173 -192z" />
    <glyph glyph-name="OE" unicode="&#x152;" horiz-adv-x="852" 
d="M807 0h-520c-144 0 -224 75 -224 250v250c0 176 80 250 224 250h520l-10 -59h-300v-258h225v-59h-225v-315h300zM287 59h149v632h-149c-102 0 -161 -51 -161 -185v-262c0 -133 59 -185 161 -185z" />
    <glyph glyph-name="Racute" unicode="&#x154;" horiz-adv-x="561" 
d="M450 0l-175 322h-125v-322h-62v750h191c144 0 219 -52 219 -195v-38c0 -116 -54 -170 -157 -189l178 -328h-69zM150 380h129c102 0 155 25 155 134v45c0 109 -53 132 -155 132h-129v-311zM243 782l92 156h73l-108 -156h-57z" />
    <glyph glyph-name="Rcommaaccent" unicode="&#x156;" horiz-adv-x="561" 
d="M450 0l-175 322h-125v-322h-62v750h191c144 0 219 -52 219 -195v-38c0 -116 -54 -170 -157 -189l178 -328h-69zM150 380h129c102 0 155 25 155 134v45c0 109 -53 132 -155 132h-129v-311zM246 -222l29 95h-31v88h71v-88l-29 -95h-40z" />
    <glyph glyph-name="Rcaron" unicode="&#x158;" horiz-adv-x="561" 
d="M450 0l-175 322h-125v-322h-62v750h191c144 0 219 -52 219 -195v-38c0 -116 -54 -170 -157 -189l178 -328h-69zM150 380h129c102 0 155 25 155 134v45c0 109 -53 132 -155 132h-129v-311zM241 782l-112 156h55l95 -108l94 108h57l-112 -156h-77z" />
    <glyph glyph-name="Sacute" unicode="&#x15a;" horiz-adv-x="536" 
d="M265 -6c-137 0 -200 61 -217 202l62 10c14 -112 59 -153 155 -153c110 0 158 46 158 141c0 107 -81 139 -167 171c-94 36 -193 71 -193 210c0 116 72 181 206 181s194 -64 205 -196l-61 -10c-9 103 -48 148 -144 148c-97 0 -144 -45 -144 -122c0 -93 71 -124 152 -153
c98 -35 208 -75 208 -229c0 -131 -74 -200 -220 -200zM231 782l92 156h73l-108 -156h-57z" />
    <glyph glyph-name="Scircumflex" unicode="&#x15c;" horiz-adv-x="536" 
d="M265 -6c-137 0 -200 61 -217 202l62 10c14 -112 59 -153 155 -153c110 0 158 46 158 141c0 107 -81 139 -167 171c-94 36 -193 71 -193 210c0 116 72 181 206 181s194 -64 205 -196l-61 -10c-9 103 -48 148 -144 148c-97 0 -144 -45 -144 -122c0 -93 71 -124 152 -153
c98 -35 208 -75 208 -229c0 -131 -74 -200 -220 -200zM117 782l112 156h77l112 -156h-55l-95 107l-94 -107h-57z" />
    <glyph glyph-name="Scedilla" unicode="&#x15e;" horiz-adv-x="536" 
d="M209 -214v48h28c62 0 81 7 81 43c0 35 -20 43 -75 43h-6v75c-118 8 -173 70 -189 201l62 10c14 -112 59 -153 155 -153c110 0 158 46 158 141c0 107 -81 139 -167 171c-94 36 -193 71 -193 210c0 116 72 181 206 181s194 -64 205 -196l-61 -10c-9 103 -48 148 -144 148
c-97 0 -144 -45 -144 -122c0 -93 71 -124 152 -153c98 -35 208 -75 208 -229c0 -125 -68 -194 -201 -199v-35c52 -1 86 -23 86 -83s-37 -91 -123 -91h-38z" />
    <glyph glyph-name="Scaron" unicode="&#x160;" horiz-adv-x="536" 
d="M265 -6c-137 0 -200 61 -217 202l62 10c14 -112 59 -153 155 -153c110 0 158 46 158 141c0 107 -81 139 -167 171c-94 36 -193 71 -193 210c0 116 72 181 206 181s194 -64 205 -196l-61 -10c-9 103 -48 148 -144 148c-97 0 -144 -45 -144 -122c0 -93 71 -124 152 -153
c98 -35 208 -75 208 -229c0 -131 -74 -200 -220 -200zM229 782l-112 156h55l95 -108l94 108h57l-112 -156h-77z" />
    <glyph glyph-name="Scommaaccent" unicode="&#x218;" horiz-adv-x="536" 
d="M265 -6c-137 0 -200 61 -217 202l62 10c14 -112 59 -153 155 -153c110 0 158 46 158 141c0 107 -81 139 -167 171c-94 36 -193 71 -193 210c0 116 72 181 206 181s194 -64 205 -196l-61 -10c-9 103 -48 148 -144 148c-97 0 -144 -45 -144 -122c0 -93 71 -124 152 -153
c98 -35 208 -75 208 -229c0 -131 -74 -200 -220 -200zM234 -222l29 95h-31v88h71v-88l-29 -95h-40z" />
    <glyph glyph-name="Tcommaaccent" unicode="&#x162;" horiz-adv-x="498" 
d="M218 0v691h-193v59h448v-59h-193v-691h-62zM215 -222l29 95h-31v88h71v-88l-29 -95h-40z" />
    <glyph glyph-name="Tcommaaccent" unicode="&#x21a;" horiz-adv-x="498" 
d="M218 0v691h-193v59h448v-59h-193v-691h-62zM215 -222l29 95h-31v88h71v-88l-29 -95h-40z" />
    <glyph glyph-name="Tcaron" unicode="&#x164;" horiz-adv-x="498" 
d="M218 0v691h-193v59h448v-59h-193v-691h-62zM210 782l-112 156h55l95 -108l94 108h57l-112 -156h-77z" />
    <glyph glyph-name="Tbar" unicode="&#x166;" horiz-adv-x="498" 
d="M82 376v57h136v258h-193v59h448v-59h-193v-258h136v-57h-136v-376h-62v376h-136z" />
    <glyph glyph-name="Thorn" unicode="&#xde;" horiz-adv-x="546" 
d="M88 0v750h63v-125h132c144 0 219 -46 219 -191v-56c0 -143 -75 -191 -219 -191h-133v-187h-62zM150 246h133c102 0 155 24 155 133v55c0 109 -53 132 -155 132h-133v-320z" />
    <glyph glyph-name="Ugrave" unicode="&#xd9;" horiz-adv-x="598" 
d="M299 -6c-152 0 -224 81 -224 256v500h62v-506c0 -133 53 -191 162 -191c107 0 163 58 163 191v506h61v-500c0 -175 -73 -256 -224 -256zM278 782l-107 156h72l93 -156h-58z" />
    <glyph glyph-name="Uacute" unicode="&#xda;" horiz-adv-x="598" 
d="M299 -6c-152 0 -224 81 -224 256v500h62v-506c0 -133 53 -191 162 -191c107 0 163 58 163 191v506h61v-500c0 -175 -73 -256 -224 -256zM262 782l92 156h73l-108 -156h-57z" />
    <glyph glyph-name="Ucircumflex" unicode="&#xdb;" horiz-adv-x="598" 
d="M299 -6c-152 0 -224 81 -224 256v500h62v-506c0 -133 53 -191 162 -191c107 0 163 58 163 191v506h61v-500c0 -175 -73 -256 -224 -256zM148 782l112 156h77l112 -156h-55l-95 107l-94 -107h-57z" />
    <glyph glyph-name="Utilde" unicode="&#x168;" horiz-adv-x="598" 
d="M299 -6c-152 0 -224 81 -224 256v500h62v-506c0 -133 53 -191 162 -191c107 0 163 58 163 191v506h61v-500c0 -175 -73 -256 -224 -256zM195 782h-53c0 42 7 108 83 108c50 0 114 -56 145 -56c25 0 33 19 33 56h54c0 -42 -8 -108 -84 -108c-49 0 -114 56 -145 56
c-26 0 -33 -19 -33 -56z" />
    <glyph glyph-name="Udieresis" unicode="&#xdc;" horiz-adv-x="598" 
d="M299 -6c-152 0 -224 81 -224 256v500h62v-506c0 -133 53 -191 162 -191c107 0 163 58 163 191v506h61v-500c0 -175 -73 -256 -224 -256zM175 782v86h68v-86h-68zM355 782v86h68v-86h-68z" />
    <glyph glyph-name="Umacron" unicode="&#x16a;" horiz-adv-x="598" 
d="M299 -6c-152 0 -224 81 -224 256v500h62v-506c0 -133 53 -191 162 -191c107 0 163 58 163 191v506h61v-500c0 -175 -73 -256 -224 -256zM164 782v53h270v-53h-270z" />
    <glyph glyph-name="Ubreve" unicode="&#x16c;" horiz-adv-x="598" 
d="M299 -6c-152 0 -224 81 -224 256v500h62v-506c0 -133 53 -191 162 -191c107 0 163 58 163 191v506h61v-500c0 -175 -73 -256 -224 -256zM299 782c-106 0 -151 58 -151 131h57c0 -40 25 -78 94 -78c68 0 94 38 94 78h57c0 -73 -45 -131 -151 -131z" />
    <glyph glyph-name="Uring" unicode="&#x16e;" horiz-adv-x="598" 
d="M299 -6c-152 0 -224 81 -224 256v500h62v-506c0 -133 53 -191 162 -191c107 0 163 58 163 191v506h61v-500c0 -175 -73 -256 -224 -256zM299 782c-65 0 -106 27 -106 106s41 106 106 106s106 -27 106 -106s-41 -106 -106 -106zM299 829c33 0 56 14 56 59s-23 59 -56 59
c-32 0 -56 -14 -56 -59s24 -59 56 -59z" />
    <glyph glyph-name="Uhungarumlaut" unicode="&#x170;" horiz-adv-x="598" 
d="M299 -6c-152 0 -224 81 -224 256v500h62v-506c0 -133 53 -191 162 -191c107 0 163 58 163 191v506h61v-500c0 -175 -73 -256 -224 -256zM198 782l93 156h67l-107 -156h-53zM340 782l92 156h68l-108 -156h-52z" />
    <glyph glyph-name="Uogonek" unicode="&#x172;" horiz-adv-x="598" 
d="M357 -198c-64 0 -124 10 -124 96c0 40 15 69 42 97c-136 8 -200 89 -200 255v500h62v-506c0 -133 53 -191 162 -191c107 0 163 58 163 191v506h61v-500c0 -161 -62 -242 -189 -254c-36 -34 -49 -58 -49 -93c0 -45 22 -53 72 -53h27v-48h-27z" />
    <glyph glyph-name="Wgrave" unicode="&#x1e80;" horiz-adv-x="869" 
d="M220 0l-193 750h61l162 -631h1l153 631h62l153 -631h1l162 631h60l-193 -750h-61l-153 629h-1l-153 -629h-61zM413 782l-107 156h72l93 -156h-58z" />
    <glyph glyph-name="Wacute" unicode="&#x1e82;" horiz-adv-x="869" 
d="M220 0l-193 750h61l162 -631h1l153 631h62l153 -631h1l162 631h60l-193 -750h-61l-153 629h-1l-153 -629h-61zM397 782l92 156h73l-108 -156h-57z" />
    <glyph glyph-name="Wcircumflex" unicode="&#x174;" horiz-adv-x="869" 
d="M220 0l-193 750h61l162 -631h1l153 631h62l153 -631h1l162 631h60l-193 -750h-61l-153 629h-1l-153 -629h-61zM283 782l112 156h77l112 -156h-55l-95 107l-94 -107h-57z" />
    <glyph glyph-name="Wdieresis" unicode="&#x1e84;" horiz-adv-x="869" 
d="M220 0l-193 750h61l162 -631h1l153 631h62l153 -631h1l162 631h60l-193 -750h-61l-153 629h-1l-153 -629h-61zM310 782v86h68v-86h-68zM490 782v86h68v-86h-68z" />
    <glyph glyph-name="Ygrave" unicode="&#x1ef2;" horiz-adv-x="515" 
d="M226 0v313l-220 437h66l187 -379h2l185 379h63l-220 -437v-313h-63zM236 782l-107 156h72l93 -156h-58z" />
    <glyph glyph-name="Yacute" unicode="&#xdd;" horiz-adv-x="515" 
d="M226 0v313l-220 437h66l187 -379h2l185 379h63l-220 -437v-313h-63zM220 782l92 156h73l-108 -156h-57z" />
    <glyph glyph-name="Ycircumflex" unicode="&#x176;" horiz-adv-x="515" 
d="M226 0v313l-220 437h66l187 -379h2l185 379h63l-220 -437v-313h-63zM106 782l112 156h77l112 -156h-55l-95 107l-94 -107h-57z" />
    <glyph glyph-name="Ydieresis" unicode="&#x178;" horiz-adv-x="515" 
d="M226 0v313l-220 437h66l187 -379h2l185 379h63l-220 -437v-313h-63zM133 782v86h68v-86h-68zM313 782v86h68v-86h-68z" />
    <glyph glyph-name="Zacute" unicode="&#x179;" horiz-adv-x="481" 
d="M38 0v54l326 637h-314v59h381v-54l-326 -637h339v-59h-406zM203 782l92 156h73l-108 -156h-57z" />
    <glyph glyph-name="Zdotaccent" unicode="&#x17b;" horiz-adv-x="481" 
d="M38 0v54l326 637h-314v59h381v-54l-326 -637h339v-59h-406zM205 782v89h70v-89h-70z" />
    <glyph glyph-name="Zcaron" unicode="&#x17d;" horiz-adv-x="481" 
d="M38 0v54l326 637h-314v59h381v-54l-326 -637h339v-59h-406zM201 782l-112 156h55l95 -108l94 108h57l-112 -156h-77z" />
    <glyph glyph-name="agrave" unicode="&#xe0;" horiz-adv-x="484" 
d="M226 -6c-135 0 -177 53 -177 160c0 117 71 156 209 156h95v58c0 53 -15 100 -97 100c-88 0 -112 -17 -125 -73l-61 10c18 92 70 121 188 121c130 0 157 -70 157 -158v-368h-62v56c-27 -39 -61 -62 -127 -62zM239 53c87 0 114 48 114 126v74h-95c-107 0 -147 -27 -147 -99
c0 -74 34 -101 128 -101zM221 563l-107 156h72l93 -156h-58z" />
    <glyph glyph-name="aacute" unicode="&#xe1;" horiz-adv-x="484" 
d="M226 -6c-135 0 -177 53 -177 160c0 117 71 156 209 156h95v58c0 53 -15 100 -97 100c-88 0 -112 -17 -125 -73l-61 10c18 92 70 121 188 121c130 0 157 -70 157 -158v-368h-62v56c-27 -39 -61 -62 -127 -62zM239 53c87 0 114 48 114 126v74h-95c-107 0 -147 -27 -147 -99
c0 -74 34 -101 128 -101zM205 563l92 156h73l-108 -156h-57z" />
    <glyph glyph-name="acircumflex" unicode="&#xe2;" horiz-adv-x="484" 
d="M226 -6c-135 0 -177 53 -177 160c0 117 71 156 209 156h95v58c0 53 -15 100 -97 100c-88 0 -112 -17 -125 -73l-61 10c18 92 70 121 188 121c130 0 157 -70 157 -158v-368h-62v56c-27 -39 -61 -62 -127 -62zM239 53c87 0 114 48 114 126v74h-95c-107 0 -147 -27 -147 -99
c0 -74 34 -101 128 -101zM91 563l112 156h77l112 -156h-55l-95 107l-94 -107h-57z" />
    <glyph glyph-name="atilde" unicode="&#xe3;" horiz-adv-x="484" 
d="M226 -6c-135 0 -177 53 -177 160c0 117 71 156 209 156h95v58c0 53 -15 100 -97 100c-88 0 -112 -17 -125 -73l-61 10c18 92 70 121 188 121c130 0 157 -70 157 -158v-368h-62v56c-27 -39 -61 -62 -127 -62zM239 53c87 0 114 48 114 126v74h-95c-107 0 -147 -27 -147 -99
c0 -74 34 -101 128 -101zM138 563h-53c0 42 7 108 83 108c50 0 114 -56 145 -56c25 0 33 19 33 56h54c0 -42 -8 -108 -84 -108c-49 0 -114 56 -145 56c-26 0 -33 -19 -33 -56z" />
    <glyph glyph-name="adieresis" unicode="&#xe4;" horiz-adv-x="484" 
d="M226 -6c-135 0 -177 53 -177 160c0 117 71 156 209 156h95v58c0 53 -15 100 -97 100c-88 0 -112 -17 -125 -73l-61 10c18 92 70 121 188 121c130 0 157 -70 157 -158v-368h-62v56c-27 -39 -61 -62 -127 -62zM239 53c87 0 114 48 114 126v74h-95c-107 0 -147 -27 -147 -99
c0 -74 34 -101 128 -101zM118 563v86h68v-86h-68zM298 563v86h68v-86h-68z" />
    <glyph glyph-name="aring" unicode="&#xe5;" horiz-adv-x="484" 
d="M226 -6c-135 0 -177 53 -177 160c0 117 71 156 209 156h95v58c0 53 -15 100 -97 100c-88 0 -112 -17 -125 -73l-61 10c18 92 70 121 188 121c130 0 157 -70 157 -158v-368h-62v56c-27 -39 -61 -62 -127 -62zM239 53c87 0 114 48 114 126v74h-95c-107 0 -147 -27 -147 -99
c0 -74 34 -101 128 -101zM242 563c-65 0 -106 27 -106 106s41 106 106 106s106 -27 106 -106s-41 -106 -106 -106zM242 610c33 0 56 14 56 59s-23 59 -56 59c-32 0 -56 -14 -56 -59s24 -59 56 -59z" />
    <glyph glyph-name="amacron" unicode="&#x101;" horiz-adv-x="484" 
d="M226 -6c-135 0 -177 53 -177 160c0 117 71 156 209 156h95v58c0 53 -15 100 -97 100c-88 0 -112 -17 -125 -73l-61 10c18 92 70 121 188 121c130 0 157 -70 157 -158v-368h-62v56c-27 -39 -61 -62 -127 -62zM239 53c87 0 114 48 114 126v74h-95c-107 0 -147 -27 -147 -99
c0 -74 34 -101 128 -101zM107 563v53h270v-53h-270z" />
    <glyph glyph-name="abreve" unicode="&#x103;" horiz-adv-x="484" 
d="M226 -6c-135 0 -177 53 -177 160c0 117 71 156 209 156h95v58c0 53 -15 100 -97 100c-88 0 -112 -17 -125 -73l-61 10c18 92 70 121 188 121c130 0 157 -70 157 -158v-368h-62v56c-27 -39 -61 -62 -127 -62zM239 53c87 0 114 48 114 126v74h-95c-107 0 -147 -27 -147 -99
c0 -74 34 -101 128 -101zM242 563c-106 0 -151 58 -151 131h57c0 -40 25 -78 94 -78c68 0 94 38 94 78h57c0 -73 -45 -131 -151 -131z" />
    <glyph glyph-name="aogonek" unicode="&#x105;" horiz-adv-x="484" 
d="M431 -198h-27c-64 0 -124 10 -124 96c0 53 27 87 73 124v34c-27 -39 -61 -62 -127 -62c-135 0 -177 53 -177 160c0 117 71 156 209 156h95v58c0 53 -15 100 -97 100c-88 0 -112 -17 -125 -73l-61 10c18 92 70 121 188 121c130 0 157 -70 157 -158v-368h-29
c-40 -37 -54 -60 -54 -97c0 -45 22 -53 72 -53h27v-48zM239 53c87 0 114 48 114 126v74h-95c-107 0 -147 -27 -147 -99c0 -74 34 -101 128 -101z" />
    <glyph glyph-name="ae" unicode="&#xe6;" horiz-adv-x="764" 
d="M226 -6c-135 0 -177 53 -177 160c0 117 71 156 209 156h95v58c0 53 -15 100 -97 100c-88 0 -112 -17 -125 -73l-61 10c18 92 70 121 188 121c74 0 113 -26 133 -63c29 40 76 63 145 63c138 0 182 -83 182 -191v-84h-303v-66c0 -80 37 -132 121 -132c95 0 108 47 117 101
l62 -10c-7 -65 -40 -150 -179 -150c-78 0 -127 29 -154 78c-29 -43 -77 -78 -156 -78zM239 53c87 0 114 48 114 126v74h-95c-107 0 -147 -27 -147 -99c0 -74 34 -101 128 -101zM415 310h240v25c0 93 -37 133 -119 133c-84 0 -121 -52 -121 -133v-25z" />
    <glyph glyph-name="ccedilla" unicode="&#xe7;" horiz-adv-x="451" 
d="M166 -214v48h28c62 0 81 7 81 43c0 35 -20 43 -75 43h-6v77c-101 15 -145 89 -145 194v138c0 119 57 197 184 197c130 0 172 -65 181 -152l-62 -10c-7 68 -36 104 -119 104c-84 0 -121 -52 -121 -133v-150c0 -80 37 -132 121 -132c96 0 108 44 117 98l60 -8
c-7 -64 -36 -146 -169 -149v-34c52 -1 86 -23 86 -83s-37 -91 -123 -91h-38z" />
    <glyph glyph-name="cacute" unicode="&#x107;" horiz-adv-x="451" 
d="M233 -6c-129 0 -184 80 -184 197v138c0 119 57 197 184 197c130 0 172 -65 181 -152l-62 -10c-7 68 -36 104 -119 104c-84 0 -121 -52 -121 -133v-150c0 -80 37 -132 121 -132c96 0 108 44 117 98l60 -8c-7 -65 -37 -149 -177 -149zM188 563l92 156h73l-108 -156h-57z
" />
    <glyph glyph-name="ccircumflex" unicode="&#x109;" horiz-adv-x="451" 
d="M233 -6c-129 0 -184 80 -184 197v138c0 119 57 197 184 197c130 0 172 -65 181 -152l-62 -10c-7 68 -36 104 -119 104c-84 0 -121 -52 -121 -133v-150c0 -80 37 -132 121 -132c96 0 108 44 117 98l60 -8c-7 -65 -37 -149 -177 -149zM84 563l112 156h77l112 -156h-55
l-95 107l-94 -107h-57z" />
    <glyph glyph-name="cdotaccent" unicode="&#x10b;" horiz-adv-x="451" 
d="M233 -6c-129 0 -184 80 -184 197v138c0 119 57 197 184 197c130 0 172 -65 181 -152l-62 -10c-7 68 -36 104 -119 104c-84 0 -121 -52 -121 -133v-150c0 -80 37 -132 121 -132c96 0 108 44 117 98l60 -8c-7 -65 -37 -149 -177 -149zM200 563v89h70v-89h-70z" />
    <glyph glyph-name="ccaron" unicode="&#x10d;" horiz-adv-x="451" 
d="M233 -6c-129 0 -184 80 -184 197v138c0 119 57 197 184 197c130 0 172 -65 181 -152l-62 -10c-7 68 -36 104 -119 104c-84 0 -121 -52 -121 -133v-150c0 -80 37 -132 121 -132c96 0 108 44 117 98l60 -8c-7 -65 -37 -149 -177 -149zM196 563l-112 156h55l95 -108l94 108
h57l-112 -156h-77z" />
    <glyph glyph-name="dcaron" unicode="&#x10f;" horiz-adv-x="513" 
d="M498 563l20 217h65l-33 -217h-52zM226 -6c-132 0 -176 79 -176 197v138c0 117 48 197 180 197c69 0 117 -23 145 -64v318h63v-780h-63v60c-27 -43 -79 -66 -149 -66zM239 53c87 0 136 48 136 126v156c0 80 -47 133 -136 133s-126 -53 -126 -133v-150
c0 -81 37 -132 126 -132z" />
    <glyph glyph-name="dcroat" unicode="&#x111;" horiz-adv-x="513" 
d="M282 605v58h93v117h63v-117h69v-58h-69v-605h-63v60c-27 -43 -79 -66 -149 -66c-132 0 -176 79 -176 197v138c0 117 48 197 180 197c69 0 117 -23 145 -64v143h-93zM239 53c87 0 136 48 136 126v156c0 80 -47 133 -136 133s-126 -53 -126 -133v-150
c0 -81 37 -132 126 -132z" />
    <glyph glyph-name="eth" unicode="&#xf0;" horiz-adv-x="488" 
d="M215 565v58l133 44c-28 41 -80 54 -168 54h-14v59h14c115 0 191 -20 228 -92l80 27v-59l-62 -21c6 -26 9 -56 9 -91v-353c0 -117 -59 -197 -192 -197c-134 0 -196 80 -196 197v138c0 119 64 197 186 197c73 0 117 -21 140 -66v90c0 25 -2 47 -5 66zM243 53
c89 0 129 52 129 132v150c0 81 -40 133 -129 133s-133 -52 -133 -133v-150c0 -80 44 -132 133 -132z" />
    <glyph glyph-name="egrave" unicode="&#xe8;" horiz-adv-x="462" 
d="M234 -6c-128 0 -184 80 -184 197v138c0 119 57 197 184 197c138 0 182 -83 182 -191v-84h-303v-66c0 -80 37 -132 121 -132c95 0 108 47 117 101l62 -10c-7 -65 -40 -150 -179 -150zM113 310h240v25c0 93 -37 133 -119 133c-84 0 -121 -52 -121 -133v-25zM210 563
l-107 156h72l93 -156h-58z" />
    <glyph glyph-name="eacute" unicode="&#xe9;" horiz-adv-x="462" 
d="M234 -6c-128 0 -184 80 -184 197v138c0 119 57 197 184 197c138 0 182 -83 182 -191v-84h-303v-66c0 -80 37 -132 121 -132c95 0 108 47 117 101l62 -10c-7 -65 -40 -150 -179 -150zM113 310h240v25c0 93 -37 133 -119 133c-84 0 -121 -52 -121 -133v-25zM194 563l92 156
h73l-108 -156h-57z" />
    <glyph glyph-name="ecircumflex" unicode="&#xea;" horiz-adv-x="462" 
d="M234 -6c-128 0 -184 80 -184 197v138c0 119 57 197 184 197c138 0 182 -83 182 -191v-84h-303v-66c0 -80 37 -132 121 -132c95 0 108 47 117 101l62 -10c-7 -65 -40 -150 -179 -150zM113 310h240v25c0 93 -37 133 -119 133c-84 0 -121 -52 -121 -133v-25zM80 563l112 156
h77l112 -156h-55l-95 107l-94 -107h-57z" />
    <glyph glyph-name="edieresis" unicode="&#xeb;" horiz-adv-x="462" 
d="M234 -6c-128 0 -184 80 -184 197v138c0 119 57 197 184 197c138 0 182 -83 182 -191v-84h-303v-66c0 -80 37 -132 121 -132c95 0 108 47 117 101l62 -10c-7 -65 -40 -150 -179 -150zM113 310h240v25c0 93 -37 133 -119 133c-84 0 -121 -52 -121 -133v-25zM107 563v86h68
v-86h-68zM287 563v86h68v-86h-68z" />
    <glyph glyph-name="emacron" unicode="&#x113;" horiz-adv-x="462" 
d="M234 -6c-128 0 -184 80 -184 197v138c0 119 57 197 184 197c138 0 182 -83 182 -191v-84h-303v-66c0 -80 37 -132 121 -132c95 0 108 47 117 101l62 -10c-7 -65 -40 -150 -179 -150zM113 310h240v25c0 93 -37 133 -119 133c-84 0 -121 -52 -121 -133v-25zM96 563v53h270
v-53h-270z" />
    <glyph glyph-name="ebreve" unicode="&#x115;" horiz-adv-x="462" 
d="M234 -6c-128 0 -184 80 -184 197v138c0 119 57 197 184 197c138 0 182 -83 182 -191v-84h-303v-66c0 -80 37 -132 121 -132c95 0 108 47 117 101l62 -10c-7 -65 -40 -150 -179 -150zM113 310h240v25c0 93 -37 133 -119 133c-84 0 -121 -52 -121 -133v-25zM231 563
c-106 0 -151 58 -151 131h57c0 -40 25 -78 94 -78c68 0 94 38 94 78h57c0 -73 -45 -131 -151 -131z" />
    <glyph glyph-name="edotaccent" unicode="&#x117;" horiz-adv-x="462" 
d="M234 -6c-128 0 -184 80 -184 197v138c0 119 57 197 184 197c138 0 182 -83 182 -191v-84h-303v-66c0 -80 37 -132 121 -132c95 0 108 47 117 101l62 -10c-7 -65 -40 -150 -179 -150zM113 310h240v25c0 93 -37 133 -119 133c-84 0 -121 -52 -121 -133v-25zM196 563v89h70
v-89h-70z" />
    <glyph glyph-name="eogonek" unicode="&#x119;" horiz-adv-x="462" 
d="M351 154l62 -10c-6 -58 -33 -131 -135 -146l31 27h-58l-34 -30c-116 6 -167 84 -167 196v138c0 119 57 197 184 197c138 0 182 -83 182 -191v-84h-303v-66c0 -80 37 -132 121 -132c95 0 108 47 117 101zM113 310h240v25c0 93 -37 133 -119 133c-84 0 -121 -52 -121 -133
v-25zM326 -198h-27c-64 0 -124 10 -124 96c0 40 15 69 42 97c5 -1 11 -1 17 -1c16 0 30 2 44 4c-38 -36 -51 -59 -51 -95c0 -45 22 -53 72 -53h27v-48z" />
    <glyph glyph-name="ecaron" unicode="&#x11b;" horiz-adv-x="462" 
d="M234 -6c-128 0 -184 80 -184 197v138c0 119 57 197 184 197c138 0 182 -83 182 -191v-84h-303v-66c0 -80 37 -132 121 -132c95 0 108 47 117 101l62 -10c-7 -65 -40 -150 -179 -150zM113 310h240v25c0 93 -37 133 -119 133c-84 0 -121 -52 -121 -133v-25zM192 563
l-112 156h55l95 -108l94 108h57l-112 -156h-77z" />
    <glyph glyph-name="gcircumflex" unicode="&#x11d;" horiz-adv-x="474" 
d="M237 172h-31c-39 0 -51 -11 -51 -33c0 -23 12 -29 41 -31l63 -3c153 -7 189 -41 189 -146v-12c0 -87 -43 -147 -209 -147c-175 0 -209 54 -209 147v12c0 59 29 98 80 125c-9 12 -14 27 -14 48c0 28 11 49 34 61c-58 30 -78 86 -78 144v22c0 86 43 167 185 167
c23 0 44 -2 62 -6h149v-57h-62c27 -27 36 -68 36 -104v-22c0 -84 -44 -165 -185 -165zM256 49l-99 5c-55 -26 -65 -59 -65 -91v-21c0 -56 31 -86 147 -86c113 0 148 30 148 86v21c0 64 -21 81 -131 86zM237 227c95 0 123 50 123 106v30c0 57 -28 106 -123 106
s-122 -49 -122 -106v-30c0 -56 27 -106 122 -106zM85 563l112 156h77l112 -156h-55l-95 107l-94 -107h-57z" />
    <glyph glyph-name="gbreve" unicode="&#x11f;" horiz-adv-x="474" 
d="M237 172h-31c-39 0 -51 -11 -51 -33c0 -23 12 -29 41 -31l63 -3c153 -7 189 -41 189 -146v-12c0 -87 -43 -147 -209 -147c-175 0 -209 54 -209 147v12c0 59 29 98 80 125c-9 12 -14 27 -14 48c0 28 11 49 34 61c-58 30 -78 86 -78 144v22c0 86 43 167 185 167
c23 0 44 -2 62 -6h149v-57h-62c27 -27 36 -68 36 -104v-22c0 -84 -44 -165 -185 -165zM256 49l-99 5c-55 -26 -65 -59 -65 -91v-21c0 -56 31 -86 147 -86c113 0 148 30 148 86v21c0 64 -21 81 -131 86zM237 227c95 0 123 50 123 106v30c0 57 -28 106 -123 106
s-122 -49 -122 -106v-30c0 -56 27 -106 122 -106zM242 563c-106 0 -151 58 -151 131h57c0 -40 25 -78 94 -78c68 0 94 38 94 78h57c0 -73 -45 -131 -151 -131z" />
    <glyph glyph-name="gdotaccent" unicode="&#x121;" horiz-adv-x="474" 
d="M237 172h-31c-39 0 -51 -11 -51 -33c0 -23 12 -29 41 -31l63 -3c153 -7 189 -41 189 -146v-12c0 -87 -43 -147 -209 -147c-175 0 -209 54 -209 147v12c0 59 29 98 80 125c-9 12 -14 27 -14 48c0 28 11 49 34 61c-58 30 -78 86 -78 144v22c0 86 43 167 185 167
c23 0 44 -2 62 -6h149v-57h-62c27 -27 36 -68 36 -104v-22c0 -84 -44 -165 -185 -165zM256 49l-99 5c-55 -26 -65 -59 -65 -91v-21c0 -56 31 -86 147 -86c113 0 148 30 148 86v21c0 64 -21 81 -131 86zM237 227c95 0 123 50 123 106v30c0 57 -28 106 -123 106
s-122 -49 -122 -106v-30c0 -56 27 -106 122 -106zM201 563v89h70v-89h-70z" />
    <glyph glyph-name="gcommaaccent" unicode="&#x123;" horiz-adv-x="474" 
d="M237 172h-11h-20c-39 0 -51 -11 -51 -33c0 -23 12 -29 41 -31l63 -3c153 -7 189 -41 189 -146v-12c0 -87 -43 -147 -209 -147c-175 0 -209 54 -209 147v12c0 59 29 98 80 125c-9 12 -14 27 -14 48c0 28 11 49 34 61c-58 30 -78 86 -78 144v22c0 86 43 167 185 167
c23 0 44 -2 62 -6h149v-57h-62c27 -27 36 -68 36 -104v-22c0 -84 -44 -165 -185 -165zM256 49l-99 5c-55 -26 -65 -59 -65 -91v-21c0 -56 31 -86 147 -86c113 0 148 30 148 86v21c0 64 -21 81 -131 86zM237 227c95 0 123 50 123 106v30c0 57 -28 106 -123 106
s-122 -49 -122 -106v-30c0 -56 27 -106 122 -106zM201 563v88l29 95h40l-29 -95h31v-88h-71z" />
    <glyph glyph-name="hcircumflex" unicode="&#x125;" horiz-adv-x="519" 
d="M75 0v780h63v-326c32 46 82 72 150 72c128 0 162 -70 162 -158v-368h-62v368c0 53 -30 100 -113 100c-68 0 -137 -45 -137 -105v-363h-63zM-44 792l112 156h77l112 -156h-55l-95 107l-94 -107h-57z" />
    <glyph glyph-name="hbar" unicode="&#x127;" horiz-adv-x="519" 
d="M6 605v58h69v117h63v-117h93v-58h-93v-151c32 46 82 72 150 72c128 0 162 -70 162 -158v-368h-62v368c0 53 -30 100 -113 100c-68 0 -137 -45 -137 -105v-363h-63v605h-69z" />
    <glyph glyph-name="igrave" unicode="&#xec;" horiz-adv-x="225" 
d="M81 0v520h63v-520h-63zM81 563l-107 156h72l93 -156h-58z" />
    <glyph glyph-name="iacute" unicode="&#xed;" horiz-adv-x="225" 
d="M81 0v520h63v-520h-63zM85 563l92 156h73l-108 -156h-57z" />
    <glyph glyph-name="icircumflex" unicode="&#xee;" horiz-adv-x="225" 
d="M81 0v520h63v-520h-63zM-39 563l112 156h77l112 -156h-55l-95 107l-94 -107h-57z" />
    <glyph glyph-name="itilde" unicode="&#x129;" horiz-adv-x="225" 
d="M81 0v520h63v-520h-63zM8 563h-53c0 42 7 108 83 108c50 0 114 -56 145 -56c25 0 33 19 33 56h54c0 -42 -8 -108 -84 -108c-49 0 -114 56 -145 56c-26 0 -33 -19 -33 -56z" />
    <glyph glyph-name="idieresis" unicode="&#xef;" horiz-adv-x="225" 
d="M81 0v520h63v-520h-63zM-12 563v86h68v-86h-68zM168 563v86h68v-86h-68z" />
    <glyph glyph-name="imacron" unicode="&#x12b;" horiz-adv-x="225" 
d="M81 0v520h63v-520h-63zM-23 563v53h270v-53h-270z" />
    <glyph glyph-name="ibreve" unicode="&#x12d;" horiz-adv-x="225" 
d="M81 0v520h63v-520h-63zM112 563c-106 0 -151 58 -151 131h57c0 -40 25 -78 94 -78c68 0 94 38 94 78h57c0 -73 -45 -131 -151 -131z" />
    <glyph glyph-name="iogonek" unicode="&#x12f;" horiz-adv-x="225" 
d="M158 -198h-27c-64 0 -124 10 -124 96c0 54 27 87 74 125v497h63v-520h-31c-40 -37 -54 -60 -54 -97c0 -45 22 -53 72 -53h27v-48zM78 619v89h70v-89h-70z" />
    <glyph glyph-name="dotlessi" unicode="&#x131;" horiz-adv-x="225" 
d="M81 0v520h63v-520h-63z" />
    <glyph glyph-name="ij" unicode="&#x133;" horiz-adv-x="439" 
d="M81 0v520h63v-520h-63zM78 619v89h70v-89h-70zM194 -198v58h39c47 0 62 25 62 85v575h63v-574c0 -99 -31 -144 -125 -144h-39zM292 619v89h70v-89h-70z" />
    <glyph glyph-name="jcircumflex" unicode="&#x135;" horiz-adv-x="225" 
d="M-20 -198v58h39c47 0 62 25 62 85v575h63v-574c0 -99 -31 -144 -125 -144h-39zM-39 563l112 156h77l112 -156h-55l-95 107l-94 -107h-57z" />
    <glyph glyph-name="kcommaaccent" unicode="&#x137;" horiz-adv-x="443" 
d="M75 0v780h63v-476l207 216h76l-183 -188l193 -332h-71l-167 286l-55 -58v-228h-63zM187 -222l29 95h-31v88h71v-88l-29 -95h-40z" />
    <glyph glyph-name="lacute" unicode="&#x13a;" horiz-adv-x="225" 
d="M81 0v780h63v-780h-63zM83 802l92 156h73l-108 -156h-57z" />
    <glyph glyph-name="lcommaaccent" unicode="&#x13c;" horiz-adv-x="225" 
d="M81 0v780h63v-780h-63zM78 -222l29 95h-31v88h71v-88l-29 -95h-40z" />
    <glyph glyph-name="lcaron" unicode="&#x13e;" horiz-adv-x="225" 
d="M204 563l20 217h65l-33 -217h-52zM81 0v780h63v-780h-63z" />
    <glyph glyph-name="ldot" unicode="&#x140;" horiz-adv-x="245" 
d="M201 296v89h70v-89h-70zM81 0v780h63v-780h-63z" />
    <glyph glyph-name="lslash" unicode="&#x142;" horiz-adv-x="225" 
d="M81 0v439l-62 -27v58l62 27v283h63v-255l62 28v-58l-62 -28v-467h-63z" />
    <glyph glyph-name="ntilde" unicode="&#xf1;" horiz-adv-x="519" 
d="M75 0v520h63v-66c32 46 82 72 150 72c128 0 162 -70 162 -158v-368h-62v368c0 53 -30 100 -113 100c-68 0 -137 -45 -137 -105v-363h-63zM155 563h-53c0 42 7 108 83 108c50 0 114 -56 145 -56c25 0 33 19 33 56h54c0 -42 -8 -108 -84 -108c-49 0 -114 56 -145 56
c-26 0 -33 -19 -33 -56z" />
    <glyph glyph-name="nacute" unicode="&#x144;" horiz-adv-x="519" 
d="M75 0v520h63v-66c32 46 82 72 150 72c128 0 162 -70 162 -158v-368h-62v368c0 53 -30 100 -113 100c-68 0 -137 -45 -137 -105v-363h-63zM222 563l92 156h73l-108 -156h-57z" />
    <glyph glyph-name="ncommaaccent" unicode="&#x146;" horiz-adv-x="519" 
d="M75 0v520h63v-66c32 46 82 72 150 72c128 0 162 -70 162 -158v-368h-62v368c0 53 -30 100 -113 100c-68 0 -137 -45 -137 -105v-363h-63zM225 -222l29 95h-31v88h71v-88l-29 -95h-40z" />
    <glyph glyph-name="ncaron" unicode="&#x148;" horiz-adv-x="519" 
d="M75 0v520h63v-66c32 46 82 72 150 72c128 0 162 -70 162 -158v-368h-62v368c0 53 -30 100 -113 100c-68 0 -137 -45 -137 -105v-363h-63zM220 563l-112 156h55l95 -108l94 108h57l-112 -156h-77z" />
    <glyph glyph-name="eng" unicode="&#x14b;" horiz-adv-x="519" 
d="M286 -198v58h39c47 0 63 25 63 85v423c0 53 -30 100 -113 100c-68 0 -137 -45 -137 -105v-363h-63v520h63v-66c32 46 82 72 150 72c128 0 162 -70 162 -158v-422c0 -99 -31 -144 -125 -144h-39z" />
    <glyph glyph-name="ograve" unicode="&#xf2;" horiz-adv-x="488" 
d="M244 53c89 0 131 52 131 132v150c0 81 -42 133 -131 133s-131 -52 -131 -133v-150c0 -80 42 -132 131 -132zM244 -6c-134 0 -194 80 -194 197v138c0 119 61 197 194 197c132 0 194 -78 194 -197v-138c0 -117 -62 -197 -194 -197zM223 563l-107 156h72l93 -156h-58z" />
    <glyph glyph-name="oacute" unicode="&#xf3;" horiz-adv-x="488" 
d="M244 53c89 0 131 52 131 132v150c0 81 -42 133 -131 133s-131 -52 -131 -133v-150c0 -80 42 -132 131 -132zM244 -6c-134 0 -194 80 -194 197v138c0 119 61 197 194 197c132 0 194 -78 194 -197v-138c0 -117 -62 -197 -194 -197zM207 563l92 156h73l-108 -156h-57z" />
    <glyph glyph-name="ocircumflex" unicode="&#xf4;" horiz-adv-x="488" 
d="M244 53c89 0 131 52 131 132v150c0 81 -42 133 -131 133s-131 -52 -131 -133v-150c0 -80 42 -132 131 -132zM244 -6c-134 0 -194 80 -194 197v138c0 119 61 197 194 197c132 0 194 -78 194 -197v-138c0 -117 -62 -197 -194 -197zM93 563l112 156h77l112 -156h-55l-95 107
l-94 -107h-57z" />
    <glyph glyph-name="otilde" unicode="&#xf5;" horiz-adv-x="488" 
d="M244 53c89 0 131 52 131 132v150c0 81 -42 133 -131 133s-131 -52 -131 -133v-150c0 -80 42 -132 131 -132zM244 -6c-134 0 -194 80 -194 197v138c0 119 61 197 194 197c132 0 194 -78 194 -197v-138c0 -117 -62 -197 -194 -197zM140 563h-53c0 42 7 108 83 108
c50 0 114 -56 145 -56c25 0 33 19 33 56h54c0 -42 -8 -108 -84 -108c-49 0 -114 56 -145 56c-26 0 -33 -19 -33 -56z" />
    <glyph glyph-name="odieresis" unicode="&#xf6;" horiz-adv-x="488" 
d="M244 53c89 0 131 52 131 132v150c0 81 -42 133 -131 133s-131 -52 -131 -133v-150c0 -80 42 -132 131 -132zM244 -6c-134 0 -194 80 -194 197v138c0 119 61 197 194 197c132 0 194 -78 194 -197v-138c0 -117 -62 -197 -194 -197zM120 563v86h68v-86h-68zM300 563v86h68
v-86h-68z" />
    <glyph glyph-name="omacron" unicode="&#x14d;" horiz-adv-x="488" 
d="M244 53c89 0 131 52 131 132v150c0 81 -42 133 -131 133s-131 -52 -131 -133v-150c0 -80 42 -132 131 -132zM244 -6c-134 0 -194 80 -194 197v138c0 119 61 197 194 197c132 0 194 -78 194 -197v-138c0 -117 -62 -197 -194 -197zM109 563v53h270v-53h-270z" />
    <glyph glyph-name="obreve" unicode="&#x14f;" horiz-adv-x="488" 
d="M244 53c89 0 131 52 131 132v150c0 81 -42 133 -131 133s-131 -52 -131 -133v-150c0 -80 42 -132 131 -132zM244 -6c-134 0 -194 80 -194 197v138c0 119 61 197 194 197c132 0 194 -78 194 -197v-138c0 -117 -62 -197 -194 -197zM244 563c-106 0 -151 58 -151 131h57
c0 -40 25 -78 94 -78c68 0 94 38 94 78h57c0 -73 -45 -131 -151 -131z" />
    <glyph glyph-name="ohungarumlaut" unicode="&#x151;" horiz-adv-x="488" 
d="M244 53c89 0 131 52 131 132v150c0 81 -42 133 -131 133s-131 -52 -131 -133v-150c0 -80 42 -132 131 -132zM244 -6c-134 0 -194 80 -194 197v138c0 119 61 197 194 197c132 0 194 -78 194 -197v-138c0 -117 -62 -197 -194 -197zM143 563l93 156h67l-107 -156h-53z
M285 563l92 156h68l-108 -156h-52z" />
    <glyph glyph-name="oslash" unicode="&#xf8;" horiz-adv-x="488" 
d="M67 -64l45 98c-42 34 -62 89 -62 157v138c0 119 61 197 194 197c34 0 63 -6 88 -15l33 72h62l-47 -101c39 -35 58 -88 58 -153v-138c0 -117 -62 -197 -194 -197c-32 0 -59 4 -83 12l-32 -70h-62zM113 335v-150c0 -43 9 -74 27 -95l169 367c-18 7 -39 11 -65 11
c-89 0 -131 -52 -131 -133zM244 53c89 0 131 52 131 132v150c0 39 -8 68 -23 90l-168 -364c17 -6 37 -8 60 -8z" />
    <glyph glyph-name="oe" unicode="&#x153;" horiz-adv-x="786" 
d="M244 -6c-134 0 -194 80 -194 197v138c0 119 61 197 194 197c79 0 131 -31 161 -79c27 48 77 79 153 79c138 0 182 -83 182 -191v-84h-303v-66c0 -80 37 -132 121 -132c95 0 108 47 117 101l62 -10c-7 -65 -40 -150 -179 -150c-77 0 -126 31 -154 79
c-29 -48 -81 -79 -160 -79zM244 53c89 0 131 52 131 132v150c0 81 -42 133 -131 133s-131 -52 -131 -133v-150c0 -80 42 -132 131 -132zM437 310h240v25c0 93 -37 133 -119 133c-84 0 -121 -52 -121 -133v-25z" />
    <glyph glyph-name="racute" unicode="&#x155;" horiz-adv-x="318" 
d="M75 0v520h63v-67c32 47 80 72 137 73h20v-58h-20c-69 0 -137 -47 -137 -122v-346h-63zM122 563l92 156h73l-108 -156h-57z" />
    <glyph glyph-name="rcommaaccent" unicode="&#x157;" horiz-adv-x="318" 
d="M75 0v520h63v-67c32 47 80 72 137 73h20v-58h-20c-69 0 -137 -47 -137 -122v-346h-63zM74 -222l29 95h-31v88h71v-88l-29 -95h-40z" />
    <glyph glyph-name="rcaron" unicode="&#x159;" horiz-adv-x="318" 
d="M75 0v520h63v-67c32 47 80 72 137 73h20v-58h-20c-69 0 -137 -47 -137 -122v-346h-63zM120 563l-112 156h55l95 -108l94 108h57l-112 -156h-77z" />
    <glyph glyph-name="sacute" unicode="&#x15b;" horiz-adv-x="445" 
d="M224 -6c-125 0 -167 56 -177 150l60 10c12 -73 34 -101 117 -101c78 0 116 21 116 86c0 68 -53 82 -117 96c-81 18 -168 34 -167 153c1 105 79 138 172 138c116 0 159 -60 169 -143l-62 -10c-7 66 -36 95 -107 95c-73 0 -110 -24 -110 -79c0 -68 54 -83 119 -97
c81 -18 166 -35 166 -152c0 -95 -59 -146 -179 -146zM185 563l92 156h73l-108 -156h-57z" />
    <glyph glyph-name="scircumflex" unicode="&#x15d;" horiz-adv-x="445" 
d="M224 -6c-125 0 -167 56 -177 150l60 10c12 -73 34 -101 117 -101c78 0 116 21 116 86c0 68 -53 82 -117 96c-81 18 -168 34 -167 153c1 105 79 138 172 138c116 0 159 -60 169 -143l-62 -10c-7 66 -36 95 -107 95c-73 0 -110 -24 -110 -79c0 -68 54 -83 119 -97
c81 -18 166 -35 166 -152c0 -95 -59 -146 -179 -146zM71 563l112 156h77l112 -156h-55l-95 107l-94 -107h-57z" />
    <glyph glyph-name="scedilla" unicode="&#x15f;" horiz-adv-x="445" 
d="M163 -214v48h28c62 0 81 7 81 43c0 35 -20 43 -75 43h-6v76c-100 9 -135 63 -144 148l60 10c12 -73 34 -101 117 -101c78 0 116 21 116 86c0 68 -53 82 -117 96c-81 18 -168 34 -167 153c1 105 79 138 172 138c116 0 159 -60 169 -143l-62 -10c-7 66 -36 95 -107 95
c-73 0 -110 -24 -110 -79c0 -68 54 -83 119 -97c81 -18 166 -35 166 -152c0 -91 -55 -141 -165 -145v-35c52 -1 86 -23 86 -83s-37 -91 -123 -91h-38z" />
    <glyph glyph-name="scaron" unicode="&#x161;" horiz-adv-x="445" 
d="M224 -6c-125 0 -167 56 -177 150l60 10c12 -73 34 -101 117 -101c78 0 116 21 116 86c0 68 -53 82 -117 96c-81 18 -168 34 -167 153c1 105 79 138 172 138c116 0 159 -60 169 -143l-62 -10c-7 66 -36 95 -107 95c-73 0 -110 -24 -110 -79c0 -68 54 -83 119 -97
c81 -18 166 -35 166 -152c0 -95 -59 -146 -179 -146zM183 563l-112 156h55l95 -108l94 108h57l-112 -156h-77z" />
    <glyph glyph-name="scommaaccent" unicode="&#x219;" horiz-adv-x="445" 
d="M224 -6c-125 0 -167 56 -177 150l60 10c12 -73 34 -101 117 -101c78 0 116 21 116 86c0 68 -53 82 -117 96c-81 18 -168 34 -167 153c1 105 79 138 172 138c116 0 159 -60 169 -143l-62 -10c-7 66 -36 95 -107 95c-73 0 -110 -24 -110 -79c0 -68 54 -83 119 -97
c81 -18 166 -35 166 -152c0 -95 -59 -146 -179 -146zM188 -222l29 95h-31v88h71v-88l-29 -95h-40z" />
    <glyph glyph-name="germandbls" unicode="&#xdf;" horiz-adv-x="505" 
d="M75 0v624c0 102 61 156 186 156s186 -58 186 -172v-21c0 -85 -18 -132 -75 -157c58 -18 88 -67 88 -169v-65c0 -117 -58 -192 -194 -196h-54v59h54c102 0 131 68 131 132v76c0 70 -22 133 -130 133h-55v57h53c103 0 120 38 120 126v28c0 80 -45 110 -124 110
s-124 -27 -124 -97v-624h-62z" />
    <glyph glyph-name="tcommaaccent" unicode="&#x163;" horiz-adv-x="360" 
d="M310 0h-72c-94 0 -125 45 -125 144v318h-94v58h94v188h62v-188h135v-58h-135v-318c0 -60 15 -86 63 -86h72v-58zM146 -222l29 95h-31v88h71v-88l-29 -95h-40z" />
    <glyph glyph-name="tcommaaccent" unicode="&#x21b;" horiz-adv-x="360" 
d="M310 0h-72c-94 0 -125 45 -125 144v318h-94v58h94v188h62v-188h135v-58h-135v-318c0 -60 15 -86 63 -86h72v-58zM146 -222l29 95h-31v88h71v-88l-29 -95h-40z" />
    <glyph glyph-name="tcaron" unicode="&#x165;" horiz-adv-x="360" 
d="M234 563l20 217h65l-33 -217h-52zM310 0h-72c-94 0 -125 45 -125 144v318h-94v58h94v188h62v-188h135v-58h-135v-318c0 -60 15 -86 63 -86h72v-58z" />
    <glyph glyph-name="tbar" unicode="&#x167;" horiz-adv-x="360" 
d="M19 272v58h94v132h-94v58h94v188h62v-188h135v-58h-135v-132h135v-58h-135v-128c0 -60 15 -86 63 -86h72v-58h-72c-94 0 -125 45 -125 144v128h-94z" />
    <glyph glyph-name="thorn" unicode="&#xfe;" horiz-adv-x="513" 
d="M75 -198v978h63v-320c30 42 78 66 148 66c133 0 177 -78 177 -197v-138c0 -117 -48 -197 -180 -197c-69 0 -116 23 -145 64v-256h-63zM274 53c89 0 126 52 126 132v150c0 81 -37 133 -126 133c-87 0 -136 -50 -136 -127v-156c0 -80 47 -132 136 -132z" />
    <glyph glyph-name="ugrave" unicode="&#xf9;" horiz-adv-x="519" 
d="M232 -6c-129 0 -163 70 -163 159v367h63v-367c0 -54 30 -100 112 -100c69 0 138 46 138 108v359h62v-520h-62v66c-30 -45 -82 -72 -150 -72zM238 563l-107 156h72l93 -156h-58z" />
    <glyph glyph-name="uacute" unicode="&#xfa;" horiz-adv-x="519" 
d="M232 -6c-129 0 -163 70 -163 159v367h63v-367c0 -54 30 -100 112 -100c69 0 138 46 138 108v359h62v-520h-62v66c-30 -45 -82 -72 -150 -72zM222 563l92 156h73l-108 -156h-57z" />
    <glyph glyph-name="ucircumflex" unicode="&#xfb;" horiz-adv-x="519" 
d="M232 -6c-129 0 -163 70 -163 159v367h63v-367c0 -54 30 -100 112 -100c69 0 138 46 138 108v359h62v-520h-62v66c-30 -45 -82 -72 -150 -72zM108 563l112 156h77l112 -156h-55l-95 107l-94 -107h-57z" />
    <glyph glyph-name="utilde" unicode="&#x169;" horiz-adv-x="519" 
d="M232 -6c-129 0 -163 70 -163 159v367h63v-367c0 -54 30 -100 112 -100c69 0 138 46 138 108v359h62v-520h-62v66c-30 -45 -82 -72 -150 -72zM155 563h-53c0 42 7 108 83 108c50 0 114 -56 145 -56c25 0 33 19 33 56h54c0 -42 -8 -108 -84 -108c-49 0 -114 56 -145 56
c-26 0 -33 -19 -33 -56z" />
    <glyph glyph-name="udieresis" unicode="&#xfc;" horiz-adv-x="519" 
d="M232 -6c-129 0 -163 70 -163 159v367h63v-367c0 -54 30 -100 112 -100c69 0 138 46 138 108v359h62v-520h-62v66c-30 -45 -82 -72 -150 -72zM135 563v86h68v-86h-68zM315 563v86h68v-86h-68z" />
    <glyph glyph-name="umacron" unicode="&#x16b;" horiz-adv-x="519" 
d="M232 -6c-129 0 -163 70 -163 159v367h63v-367c0 -54 30 -100 112 -100c69 0 138 46 138 108v359h62v-520h-62v66c-30 -45 -82 -72 -150 -72zM124 563v53h270v-53h-270z" />
    <glyph glyph-name="ubreve" unicode="&#x16d;" horiz-adv-x="519" 
d="M232 -6c-129 0 -163 70 -163 159v367h63v-367c0 -54 30 -100 112 -100c69 0 138 46 138 108v359h62v-520h-62v66c-30 -45 -82 -72 -150 -72zM259 563c-106 0 -151 58 -151 131h57c0 -40 25 -78 94 -78c68 0 94 38 94 78h57c0 -73 -45 -131 -151 -131z" />
    <glyph glyph-name="uring" unicode="&#x16f;" horiz-adv-x="519" 
d="M232 -6c-129 0 -163 70 -163 159v367h63v-367c0 -54 30 -100 112 -100c69 0 138 46 138 108v359h62v-520h-62v66c-30 -45 -82 -72 -150 -72zM259 563c-65 0 -106 27 -106 106s41 106 106 106s106 -27 106 -106s-41 -106 -106 -106zM259 610c33 0 56 14 56 59
s-23 59 -56 59c-32 0 -56 -14 -56 -59s24 -59 56 -59z" />
    <glyph glyph-name="uhungarumlaut" unicode="&#x171;" horiz-adv-x="519" 
d="M232 -6c-129 0 -163 70 -163 159v367h63v-367c0 -54 30 -100 112 -100c69 0 138 46 138 108v359h62v-520h-62v66c-30 -45 -82 -72 -150 -72zM158 563l93 156h67l-107 -156h-53zM300 563l92 156h68l-108 -156h-52z" />
    <glyph glyph-name="uogonek" unicode="&#x173;" horiz-adv-x="519" 
d="M232 -6c-129 0 -163 70 -163 159v367h63v-367c0 -54 30 -100 112 -100c69 0 138 46 138 108v359h62v-520h-29c8 7 17 16 28 25h-58l-3 -3v44c-30 -45 -82 -72 -150 -72zM460 -198h-27c-64 0 -124 10 -124 96c0 53 27 87 73 124v-22h33c-40 -37 -54 -60 -54 -97
c0 -45 22 -53 72 -53h27v-48z" />
    <glyph glyph-name="wgrave" unicode="&#x1e81;" horiz-adv-x="695" 
d="M166 0l-145 520h62l117 -423h1l116 423h63l116 -423h1l117 423h60l-145 -520h-64l-117 418h-1l-117 -418h-64zM326 563l-107 156h72l93 -156h-58z" />
    <glyph glyph-name="wacute" unicode="&#x1e83;" horiz-adv-x="695" 
d="M166 0l-145 520h62l117 -423h1l116 423h63l116 -423h1l117 423h60l-145 -520h-64l-117 418h-1l-117 -418h-64zM310 563l92 156h73l-108 -156h-57z" />
    <glyph glyph-name="wcircumflex" unicode="&#x175;" horiz-adv-x="695" 
d="M166 0l-145 520h62l117 -423h1l116 423h63l116 -423h1l117 423h60l-145 -520h-64l-117 418h-1l-117 -418h-64zM196 563l112 156h77l112 -156h-55l-95 107l-94 -107h-57z" />
    <glyph glyph-name="wdieresis" unicode="&#x1e85;" horiz-adv-x="695" 
d="M166 0l-145 520h62l117 -423h1l116 423h63l116 -423h1l117 423h60l-145 -520h-64l-117 418h-1l-117 -418h-64zM223 563v86h68v-86h-68zM403 563v86h68v-86h-68z" />
    <glyph glyph-name="ygrave" unicode="&#x1ef3;" horiz-adv-x="423" 
d="M117 -198l65 202l-171 516h65l138 -417h1l134 417h63l-234 -718h-61zM190 563l-107 156h72l93 -156h-58z" />
    <glyph glyph-name="yacute" unicode="&#xfd;" horiz-adv-x="423" 
d="M117 -198l65 202l-171 516h65l138 -417h1l134 417h63l-234 -718h-61zM174 563l92 156h73l-108 -156h-57z" />
    <glyph glyph-name="ycircumflex" unicode="&#x177;" horiz-adv-x="423" 
d="M117 -198l65 202l-171 516h65l138 -417h1l134 417h63l-234 -718h-61zM60 563l112 156h77l112 -156h-55l-95 107l-94 -107h-57z" />
    <glyph glyph-name="ydieresis" unicode="&#xff;" horiz-adv-x="423" 
d="M117 -198l65 202l-171 516h65l138 -417h1l134 417h63l-234 -718h-61zM87 563v86h68v-86h-68zM267 563v86h68v-86h-68z" />
    <glyph glyph-name="zacute" unicode="&#x17a;" horiz-adv-x="409" 
d="M38 0v52l255 410h-249v58h321v-52l-255 -410h261v-58h-333zM167 563l92 156h73l-108 -156h-57z" />
    <glyph glyph-name="zdotaccent" unicode="&#x17c;" horiz-adv-x="409" 
d="M38 0v52l255 410h-249v58h321v-52l-255 -410h261v-58h-333zM169 563v89h70v-89h-70z" />
    <glyph glyph-name="zcaron" unicode="&#x17e;" horiz-adv-x="409" 
d="M38 0v52l255 410h-249v58h321v-52l-255 -410h261v-58h-333zM165 563l-112 156h55l95 -108l94 108h57l-112 -156h-77z" />
    <glyph glyph-name="schwa" unicode="&#x259;" horiz-adv-x="462" 
d="M228 -6c-138 0 -182 83 -182 191v84h303v66c0 80 -37 132 -121 132c-95 0 -108 -47 -117 -101l-62 10c7 65 40 150 179 150c128 0 184 -80 184 -197v-138c0 -119 -57 -197 -184 -197zM228 52c84 0 121 52 121 133v25h-240v-25c0 -93 37 -133 119 -133z" />
    <glyph glyph-name="a.salt_simple" horiz-adv-x="508" 
d="M226 -6c-132 0 -176 79 -176 197v138c0 117 48 197 180 197c69 0 111 -22 140 -64v58h63v-520h-63v60c-30 -44 -74 -66 -144 -66zM239 53c87 0 131 48 131 126v156c0 80 -42 133 -131 133s-126 -53 -126 -133v-150c0 -81 37 -132 126 -132z" />
    <glyph glyph-name="agrave.salt_simple" horiz-adv-x="508" 
d="M226 -6c-132 0 -176 79 -176 197v138c0 117 48 197 180 197c69 0 111 -22 140 -64v58h63v-520h-63v60c-30 -44 -74 -66 -144 -66zM239 53c87 0 131 48 131 126v156c0 80 -42 133 -131 133s-126 -53 -126 -133v-150c0 -81 37 -132 126 -132zM233 563l-107 156h72l93 -156
h-58z" />
    <glyph glyph-name="aacute.salt_simple" horiz-adv-x="508" 
d="M226 -6c-132 0 -176 79 -176 197v138c0 117 48 197 180 197c69 0 111 -22 140 -64v58h63v-520h-63v60c-30 -44 -74 -66 -144 -66zM239 53c87 0 131 48 131 126v156c0 80 -42 133 -131 133s-126 -53 -126 -133v-150c0 -81 37 -132 126 -132zM217 563l92 156h73l-108 -156
h-57z" />
    <glyph glyph-name="acircumflex.salt_simple" horiz-adv-x="508" 
d="M226 -6c-132 0 -176 79 -176 197v138c0 117 48 197 180 197c69 0 111 -22 140 -64v58h63v-520h-63v60c-30 -44 -74 -66 -144 -66zM239 53c87 0 131 48 131 126v156c0 80 -42 133 -131 133s-126 -53 -126 -133v-150c0 -81 37 -132 126 -132zM103 563l112 156h77l112 -156
h-55l-95 107l-94 -107h-57z" />
    <glyph glyph-name="atilde.salt_simple" horiz-adv-x="508" 
d="M226 -6c-132 0 -176 79 -176 197v138c0 117 48 197 180 197c69 0 111 -22 140 -64v58h63v-520h-63v60c-30 -44 -74 -66 -144 -66zM239 53c87 0 131 48 131 126v156c0 80 -42 133 -131 133s-126 -53 -126 -133v-150c0 -81 37 -132 126 -132zM150 563h-53
c0 42 7 108 83 108c50 0 114 -56 145 -56c25 0 33 19 33 56h54c0 -42 -8 -108 -84 -108c-49 0 -114 56 -145 56c-26 0 -33 -19 -33 -56z" />
    <glyph glyph-name="adieresis.salt_simple" horiz-adv-x="508" 
d="M226 -6c-132 0 -176 79 -176 197v138c0 117 48 197 180 197c69 0 111 -22 140 -64v58h63v-520h-63v60c-30 -44 -74 -66 -144 -66zM239 53c87 0 131 48 131 126v156c0 80 -42 133 -131 133s-126 -53 -126 -133v-150c0 -81 37 -132 126 -132zM130 563v86h68v-86h-68z
M310 563v86h68v-86h-68z" />
    <glyph glyph-name="aring.salt_simple" horiz-adv-x="508" 
d="M226 -6c-132 0 -176 79 -176 197v138c0 117 48 197 180 197c69 0 111 -22 140 -64v58h63v-520h-63v60c-30 -44 -74 -66 -144 -66zM239 53c87 0 131 48 131 126v156c0 80 -42 133 -131 133s-126 -53 -126 -133v-150c0 -81 37 -132 126 -132zM254 563
c-65 0 -106 27 -106 106s41 106 106 106s106 -27 106 -106s-41 -106 -106 -106zM254 610c33 0 56 14 56 59s-23 59 -56 59c-32 0 -56 -14 -56 -59s24 -59 56 -59z" />
    <glyph glyph-name="amacron.salt_simple" horiz-adv-x="508" 
d="M226 -6c-132 0 -176 79 -176 197v138c0 117 48 197 180 197c69 0 111 -22 140 -64v58h63v-520h-63v60c-30 -44 -74 -66 -144 -66zM239 53c87 0 131 48 131 126v156c0 80 -42 133 -131 133s-126 -53 -126 -133v-150c0 -81 37 -132 126 -132zM119 563v53h270v-53h-270z" />
    <glyph glyph-name="abreve.salt_simple" horiz-adv-x="508" 
d="M226 -6c-132 0 -176 79 -176 197v138c0 117 48 197 180 197c69 0 111 -22 140 -64v58h63v-520h-63v60c-30 -44 -74 -66 -144 -66zM239 53c87 0 131 48 131 126v156c0 80 -42 133 -131 133s-126 -53 -126 -133v-150c0 -81 37 -132 126 -132zM254 563
c-106 0 -151 58 -151 131h57c0 -40 25 -78 94 -78c68 0 94 38 94 78h57c0 -73 -45 -131 -151 -131z" />
    <glyph glyph-name="aogonek.salt_simple" horiz-adv-x="508" 
d="M226 -6c-132 0 -176 79 -176 197v138c0 117 48 197 180 197c69 0 111 -22 140 -64v58h63v-520h-29c8 7 17 16 28 25h-58l-4 -3v38c-30 -44 -74 -66 -144 -66zM239 53c87 0 131 48 131 126v156c0 80 -42 133 -131 133s-126 -53 -126 -133v-150c0 -81 37 -132 126 -132z
M449 -198h-27c-64 0 -124 10 -124 96c0 53 26 87 72 124v-22h34c-40 -37 -54 -60 -54 -97c0 -45 22 -53 72 -53h27v-48z" />
    <glyph glyph-name="g.salt_simple" horiz-adv-x="513" 
d="M250 -204c-140 0 -174 52 -184 138l63 10c12 -74 37 -89 121 -89s125 18 125 98v107c-30 -42 -79 -66 -149 -66c-132 0 -176 79 -176 197v138c0 117 48 197 180 197c69 0 116 -24 145 -64v58h63v-560c0 -118 -48 -164 -188 -164zM239 53c89 0 136 51 136 132v150
c0 80 -47 133 -136 133s-126 -53 -126 -133v-150c0 -81 37 -132 126 -132z" />
    <glyph glyph-name="gcircumflex.salt_simple" horiz-adv-x="513" 
d="M250 -204c-140 0 -174 52 -184 138l63 10c12 -74 37 -89 121 -89s125 18 125 98v107c-30 -42 -79 -66 -149 -66c-132 0 -176 79 -176 197v138c0 117 48 197 180 197c69 0 116 -24 145 -64v58h63v-560c0 -118 -48 -164 -188 -164zM239 53c89 0 136 51 136 132v150
c0 80 -47 133 -136 133s-126 -53 -126 -133v-150c0 -81 37 -132 126 -132zM105 563l112 156h77l112 -156h-55l-95 107l-94 -107h-57z" />
    <glyph glyph-name="gbreve.salt_simple" horiz-adv-x="513" 
d="M250 -204c-140 0 -174 52 -184 138l63 10c12 -74 37 -89 121 -89s125 18 125 98v107c-30 -42 -79 -66 -149 -66c-132 0 -176 79 -176 197v138c0 117 48 197 180 197c69 0 116 -24 145 -64v58h63v-560c0 -118 -48 -164 -188 -164zM239 53c89 0 136 51 136 132v150
c0 80 -47 133 -136 133s-126 -53 -126 -133v-150c0 -81 37 -132 126 -132zM256 563c-106 0 -151 58 -151 131h57c0 -40 25 -78 94 -78c68 0 94 38 94 78h57c0 -73 -45 -131 -151 -131z" />
    <glyph glyph-name="gdotaccent.salt_simple" horiz-adv-x="513" 
d="M250 -204c-140 0 -174 52 -184 138l63 10c12 -74 37 -89 121 -89s125 18 125 98v107c-30 -42 -79 -66 -149 -66c-132 0 -176 79 -176 197v138c0 117 48 197 180 197c69 0 116 -24 145 -64v58h63v-560c0 -118 -48 -164 -188 -164zM239 53c89 0 136 51 136 132v150
c0 80 -47 133 -136 133s-126 -53 -126 -133v-150c0 -81 37 -132 126 -132zM221 563v89h70v-89h-70z" />
    <glyph glyph-name="gcommaaccent.salt_simple" horiz-adv-x="513" 
d="M250 -204c-140 0 -174 52 -184 138l63 10c12 -74 37 -89 121 -89s125 18 125 98v107c-30 -42 -79 -66 -149 -66c-132 0 -176 79 -176 197v138c0 117 48 197 180 197c69 0 116 -24 145 -64v58h63v-560c0 -118 -48 -164 -188 -164zM239 53c89 0 136 51 136 132v150
c0 80 -47 133 -136 133s-126 -53 -126 -133v-150c0 -81 37 -132 126 -132zM220 563v88l29 95h40l-29 -95h31v-88h-71z" />
    <glyph glyph-name="u.salt_simple" horiz-adv-x="513" 
d="M256 -6c-133 0 -187 80 -187 197v329h62v-335c0 -80 37 -132 125 -132c89 0 125 52 125 132v335h63v-329c0 -117 -55 -197 -188 -197z" />
    <glyph glyph-name="ugrave.salt_simple" horiz-adv-x="513" 
d="M256 -6c-133 0 -187 80 -187 197v329h62v-335c0 -80 37 -132 125 -132c89 0 125 52 125 132v335h63v-329c0 -117 -55 -197 -188 -197zM235 563l-107 156h72l93 -156h-58z" />
    <glyph glyph-name="uacute.salt_simple" horiz-adv-x="513" 
d="M256 -6c-133 0 -187 80 -187 197v329h62v-335c0 -80 37 -132 125 -132c89 0 125 52 125 132v335h63v-329c0 -117 -55 -197 -188 -197zM219 563l92 156h73l-108 -156h-57z" />
    <glyph glyph-name="ucircumflex.salt_simple" horiz-adv-x="513" 
d="M256 -6c-133 0 -187 80 -187 197v329h62v-335c0 -80 37 -132 125 -132c89 0 125 52 125 132v335h63v-329c0 -117 -55 -197 -188 -197zM105 563l112 156h77l112 -156h-55l-95 107l-94 -107h-57z" />
    <glyph glyph-name="udieresis.salt_simple" horiz-adv-x="513" 
d="M256 -6c-133 0 -187 80 -187 197v329h62v-335c0 -80 37 -132 125 -132c89 0 125 52 125 132v335h63v-329c0 -117 -55 -197 -188 -197zM132 563v86h68v-86h-68zM312 563v86h68v-86h-68z" />
    <glyph glyph-name="utilde.salt_simple" horiz-adv-x="513" 
d="M256 -6c-133 0 -187 80 -187 197v329h62v-335c0 -80 37 -132 125 -132c89 0 125 52 125 132v335h63v-329c0 -117 -55 -197 -188 -197zM152 563h-53c0 42 7 108 83 108c50 0 114 -56 145 -56c25 0 33 19 33 56h54c0 -42 -8 -108 -84 -108c-49 0 -114 56 -145 56
c-26 0 -33 -19 -33 -56z" />
    <glyph glyph-name="umacron.salt_simple" horiz-adv-x="513" 
d="M256 -6c-133 0 -187 80 -187 197v329h62v-335c0 -80 37 -132 125 -132c89 0 125 52 125 132v335h63v-329c0 -117 -55 -197 -188 -197zM121 563v53h270v-53h-270z" />
    <glyph glyph-name="ubreve.salt_simple" horiz-adv-x="513" 
d="M256 -6c-133 0 -187 80 -187 197v329h62v-335c0 -80 37 -132 125 -132c89 0 125 52 125 132v335h63v-329c0 -117 -55 -197 -188 -197zM256 563c-106 0 -151 58 -151 131h57c0 -40 25 -78 94 -78c68 0 94 38 94 78h57c0 -73 -45 -131 -151 -131z" />
    <glyph glyph-name="uring.salt_simple" horiz-adv-x="513" 
d="M256 -6c-133 0 -187 80 -187 197v329h62v-335c0 -80 37 -132 125 -132c89 0 125 52 125 132v335h63v-329c0 -117 -55 -197 -188 -197zM256 563c-65 0 -106 27 -106 106s41 106 106 106s106 -27 106 -106s-41 -106 -106 -106zM256 610c33 0 56 14 56 59s-23 59 -56 59
c-32 0 -56 -14 -56 -59s24 -59 56 -59z" />
    <glyph glyph-name="uhungarumlaut.salt_simple" horiz-adv-x="513" 
d="M256 -6c-133 0 -187 80 -187 197v329h62v-335c0 -80 37 -132 125 -132c89 0 125 52 125 132v335h63v-329c0 -117 -55 -197 -188 -197zM155 563l93 156h67l-107 -156h-53zM297 563l92 156h68l-108 -156h-52z" />
    <glyph glyph-name="uogonek.salt_simple" horiz-adv-x="513" 
d="M314 -198c-64 0 -124 10 -124 96c0 40 15 69 42 97c-116 9 -163 86 -163 196v329h62v-335c0 -80 37 -132 125 -132c89 0 125 52 125 132v335h63v-329c0 -106 -45 -181 -152 -194c-37 -35 -50 -59 -50 -94c0 -45 22 -53 72 -53h27v-48h-27z" />
    <glyph glyph-name="l.salt_tail" horiz-adv-x="268" 
d="M206 0c-94 0 -125 45 -125 144v636h63v-636c0 -60 15 -86 62 -86h39v-58h-39z" />
    <glyph glyph-name="lacute.salt_tail" horiz-adv-x="268" 
d="M245 0h-39c-94 0 -125 45 -125 144v636h63v-636c0 -60 15 -86 62 -86h39v-58zM85 802l92 156h73l-108 -156h-57z" />
    <glyph glyph-name="lcommaaccent.salt_tail" horiz-adv-x="268" 
d="M245 0h-39c-94 0 -125 45 -125 144v636h63v-636c0 -60 15 -86 62 -86h39v-58zM85 -222l29 95h-31v88h71v-88l-29 -95h-40z" />
    <glyph glyph-name="lcaron.salt_tail" horiz-adv-x="268" 
d="M245 0h-39c-94 0 -125 45 -125 144v636h63v-636c0 -60 15 -86 62 -86h39v-58zM204 563l20 217h65l-33 -217h-52z" />
    <glyph glyph-name="y.salt_tail" horiz-adv-x="423" 
d="M51 -198v58h39c47 0 52 16 75 86l18 56l-172 518h65l138 -419h2l133 419h63l-199 -610c-25 -78 -51 -108 -123 -108h-39z" />
    <glyph glyph-name="yacute.salt_tail" horiz-adv-x="423" 
d="M51 -198v58h39c47 0 52 16 75 86l18 56l-172 518h65l138 -419h2l133 419h63l-199 -610c-25 -78 -51 -108 -123 -108h-39zM174 563l92 156h73l-108 -156h-57z" />
    <glyph glyph-name="ydieresis.salt_tail" horiz-adv-x="423" 
d="M51 -198v58h39c47 0 52 16 75 86l18 56l-172 518h65l138 -419h2l133 419h63l-199 -610c-25 -78 -51 -108 -123 -108h-39zM87 563v86h68v-86h-68zM267 563v86h68v-86h-68z" />
    <glyph glyph-name="ycircumflex.salt_tail" horiz-adv-x="423" 
d="M51 -198v58h39c47 0 52 16 75 86l18 56l-172 518h65l138 -419h2l133 419h63l-199 -610c-25 -78 -51 -108 -123 -108h-39zM60 563l112 156h77l112 -156h-55l-95 107l-94 -107h-57z" />
    <glyph glyph-name="ygrave.salt_tail" horiz-adv-x="423" 
d="M51 -198v58h39c47 0 52 16 75 86l18 56l-172 518h65l138 -419h2l133 419h63l-199 -610c-25 -78 -51 -108 -123 -108h-39zM190 563l-107 156h72l93 -156h-58z" />
    <glyph glyph-name="ldot.salt_tail" horiz-adv-x="268" 
d="M245 0h-39c-94 0 -125 45 -125 144v636h63v-636c0 -60 15 -86 62 -86h39v-58zM212 296v89h70v-89h-70z" />
    <glyph glyph-name="lslash.salt_tail" horiz-adv-x="268" 
d="M19 412v58l62 27v283h63v-255l101 45v-58l-101 -45v-323c0 -60 15 -86 62 -86h39v-58h-39c-94 0 -125 45 -125 144v295z" />
    <glyph glyph-name="f_f_l.salt_tail" horiz-adv-x="882" 
d="M113 0v462h-94v58h94v116c0 99 31 144 125 144h72v-59h-72c-48 0 -62 -25 -62 -85v-116h228v116c0 99 31 144 125 144h72v-59h-72c-48 0 -62 -25 -62 -85v-116h134v-58h-134v-462h-63v462h-228v-462h-63zM859 0h-39c-94 0 -125 45 -125 144v636h63v-636
c0 -60 15 -86 62 -86h39v-58z" />
    <glyph glyph-name="f_l.salt_tail" horiz-adv-x="591" 
d="M113 0v462h-94v58h94v116c0 99 31 144 125 144h72v-59h-72c-48 0 -62 -25 -62 -85v-116h134v-58h-134v-462h-63zM568 0h-39c-94 0 -125 45 -125 144v636h63v-636c0 -60 15 -86 62 -86h39v-58z" />
    <glyph glyph-name="I.salt_bar" horiz-adv-x="368" 
d="M35 0v59h118v632h-118v59h298v-59h-118v-632h118v-59h-298z" />
    <glyph glyph-name="Igrave.salt_bar" horiz-adv-x="368" 
d="M35 0v59h118v632h-118v59h298v-59h-118v-632h118v-59h-298zM163 782l-107 156h72l93 -156h-58z" />
    <glyph glyph-name="Iacute.salt_bar" horiz-adv-x="368" 
d="M35 0v59h118v632h-118v59h298v-59h-118v-632h118v-59h-298zM147 782l92 156h73l-108 -156h-57z" />
    <glyph glyph-name="Icircumflex.salt_bar" horiz-adv-x="368" 
d="M35 0v59h118v632h-118v59h298v-59h-118v-632h118v-59h-298zM33 782l112 156h77l112 -156h-55l-95 107l-94 -107h-57z" />
    <glyph glyph-name="Idieresis.salt_bar" horiz-adv-x="368" 
d="M35 0v59h118v632h-118v59h298v-59h-118v-632h118v-59h-298zM60 782v86h68v-86h-68zM240 782v86h68v-86h-68z" />
    <glyph glyph-name="Itilde.salt_bar" horiz-adv-x="368" 
d="M35 0v59h118v632h-118v59h298v-59h-118v-632h118v-59h-298zM80 782h-53c0 42 7 108 83 108c50 0 114 -56 145 -56c25 0 33 19 33 56h54c0 -42 -8 -108 -84 -108c-49 0 -114 56 -145 56c-26 0 -33 -19 -33 -56z" />
    <glyph glyph-name="Imacron.salt_bar" horiz-adv-x="368" 
d="M35 0v59h118v632h-118v59h298v-59h-118v-632h118v-59h-298zM49 782v53h270v-53h-270z" />
    <glyph glyph-name="Ibreve.salt_bar" horiz-adv-x="368" 
d="M35 0v59h118v632h-118v59h298v-59h-118v-632h118v-59h-298zM184 782c-106 0 -151 58 -151 131h57c0 -40 25 -78 94 -78c68 0 94 38 94 78h57c0 -73 -45 -131 -151 -131z" />
    <glyph glyph-name="Iogonek.salt_bar" horiz-adv-x="368" 
d="M35 0v59h118v632h-118v59h298v-59h-118v-632h118v-59h-129c-40 -37 -54 -60 -54 -97c0 -45 22 -53 72 -53h27v-48h-27c-64 0 -124 10 -124 96c0 42 17 73 47 102h-110z" />
    <glyph glyph-name="Idotaccent.salt_bar" horiz-adv-x="368" 
d="M35 0v59h118v632h-118v59h298v-59h-118v-632h118v-59h-298zM149 782v89h70v-89h-70z" />
    <glyph glyph-name="IJ.salt_bar" horiz-adv-x="655" 
d="M35 0v59h118v632h-118v59h298v-59h-118v-632h108v-59h-288zM387 0v59h17c101 0 114 30 114 147v544h62v-537c0 -162 -33 -213 -177 -213h-16z" />
    <glyph glyph-name="at" unicode="@" horiz-adv-x="771" 
d="M487 -150h-102c-209 0 -314 106 -314 281v338c0 176 108 281 314 281c207 0 304 -105 304 -281v-312c0 -68 -16 -113 -99 -113h-4c-57 0 -84 27 -90 71c-30 -57 -77 -78 -141 -78c-121 0 -163 73 -163 181v126c0 108 46 181 167 181c63 0 100 -20 126 -59v54h62v-353
c0 -59 12 -71 43 -71s45 12 45 73v300c0 144 -71 230 -250 230c-178 0 -260 -86 -260 -230v-338c0 -142 80 -230 260 -230h102v-51zM367 95c80 0 118 41 118 112v143c0 73 -36 119 -118 119c-81 0 -113 -46 -113 -119v-138c0 -74 32 -117 113 -117z" />
    <glyph glyph-name="registered" unicode="&#xae;" horiz-adv-x="553" 
d="M182 305v354h102c72 0 100 -29 100 -96v-21c0 -48 -17 -78 -57 -90l61 -147h-50l-58 140h-49v-140h-49zM279 204c-151 0 -224 75 -224 202v149c0 127 75 202 224 202c150 0 219 -75 219 -202v-149c0 -127 -69 -202 -219 -202zM279 244c125 0 176 62 176 163v147
c0 102 -51 163 -176 163s-182 -61 -182 -163v-147c0 -101 56 -163 182 -163zM231 487h50c44 0 57 11 57 56v19c0 45 -13 55 -53 55h-54v-130z" />
    <glyph glyph-name="registered.salt_big" horiz-adv-x="724" 
d="M242 123v506h132c92 0 130 -41 130 -136v-24c0 -77 -29 -119 -83 -133l83 -213h-51l-81 208h-80v-208h-50zM367 -6c-209 0 -304 106 -304 281v200c0 176 98 281 304 281c207 0 294 -105 294 -281v-200c0 -175 -87 -281 -294 -281zM367 41c179 0 244 92 244 234v200
c0 144 -65 234 -244 234c-178 0 -254 -90 -254 -234v-200c0 -142 74 -234 254 -234zM292 376h74c68 0 90 17 90 90v29c0 74 -22 89 -82 89h-82v-208z" />
    <glyph glyph-name="copyright" unicode="&#xa9;" horiz-adv-x="724" 
d="M359 125c-110 0 -141 59 -141 185v140c0 126 32 184 141 184c113 0 135 -67 143 -159l-53 -6c-7 73 -15 115 -90 115c-72 0 -87 -33 -87 -130v-149c0 -95 13 -129 87 -129c75 0 81 41 89 114l54 -6c-10 -94 -32 -159 -143 -159zM362 -6c-209 0 -299 106 -299 281v200
c0 176 93 281 299 281c207 0 299 -105 299 -281v-200c0 -175 -92 -281 -299 -281zM362 41c179 0 249 92 249 234v200c0 144 -70 234 -249 234c-178 0 -249 -90 -249 -234v-200c0 -142 69 -234 249 -234z" />
    <glyph glyph-name="copyrightsound" unicode="&#x2117;" horiz-adv-x="724" 
d="M367 -6c-209 0 -304 106 -304 281v200c0 176 98 281 304 281c207 0 294 -105 294 -281v-200c0 -175 -87 -281 -294 -281zM367 41c179 0 244 92 244 234v200c0 144 -65 234 -244 234c-178 0 -254 -90 -254 -234v-200c0 -142 74 -234 254 -234zM246 123v506h127
c91 0 133 -36 133 -136v-32c0 -99 -44 -138 -130 -138h-79v-200h-51zM297 369h67c69 0 91 16 91 90v36c0 74 -22 88 -82 88h-76v-214z" />
    <glyph glyph-name="trademark" unicode="&#x2122;" horiz-adv-x="786" 
d="M334 314v436h70l114 -359l110 359h70v-436h-59v310l-95 -310h-56l-98 310v-310h-56zM135 314v384h-102v52h263v-52h-103v-384h-58z" />
    <glyph glyph-name="estimated" unicode="&#x212e;" horiz-adv-x="697" 
d="M348 -12c-189 0 -310 150 -310 331c0 183 118 331 313 331s310 -150 313 -332h-490v-220c47 -46 105 -71 174 -71c119 0 184 62 237 145l37 -23c-62 -95 -136 -161 -274 -161zM174 358h351v182c-43 41 -108 71 -175 71c-68 0 -130 -24 -176 -71v-182z" />
    <glyph glyph-name="plus" unicode="+" horiz-adv-x="540" 
d="M239 156v192h-176v58h176v188h62v-188h177v-58h-177v-192h-62z" />
    <glyph glyph-name="minus" unicode="&#x2212;" horiz-adv-x="540" 
d="M63 348v58h415v-58h-415z" />
    <glyph glyph-name="multiply" unicode="&#xd7;" horiz-adv-x="540" 
d="M125 191l-40 40l145 145l-146 147l40 40l146 -147l146 148l40 -40l-146 -148l146 -145l-40 -40l-146 145z" />
    <glyph glyph-name="divide" unicode="&#xf7;" horiz-adv-x="540" 
d="M233 156v94h75v-94h-75zM63 348v58h415v-58h-415zM233 500v94h75v-94h-75z" />
    <glyph glyph-name="equal" unicode="=" horiz-adv-x="540" 
d="M63 254v59h415v-59h-415zM63 441v59h415v-59h-415z" />
    <glyph glyph-name="less" unicode="&#x3c;" horiz-adv-x="540" 
d="M478 181l-415 167v58l415 167v-59l-348 -138l348 -136v-59z" />
    <glyph glyph-name="greater" unicode="&#x3e;" horiz-adv-x="540" 
d="M67 181v59l348 136l-348 138v59l415 -167v-58z" />
    <glyph glyph-name="dollar" unicode="$" horiz-adv-x="530" 
d="M229 -125v120c-119 7 -175 69 -191 201l62 10c13 -102 51 -145 131 -152v316c-89 35 -178 73 -178 205c0 107 61 171 176 180v120h62v-121c111 -10 163 -73 173 -194l-61 -10c-8 91 -40 137 -114 146v-281c91 -34 186 -79 186 -221c0 -120 -62 -188 -184 -198v-121h-62z
M413 194c0 89 -56 126 -124 154v-294c86 9 124 55 124 140zM115 576c0 -79 51 -113 116 -140v260c-78 -8 -116 -51 -116 -120z" />
    <glyph glyph-name="cent" unicode="&#xa2;" horiz-adv-x="451" 
d="M201 -125v121c-106 12 -152 88 -152 195v138c0 108 47 182 152 195v101h61v-100c107 -9 143 -71 152 -151l-62 -10c-6 60 -30 95 -92 102v-412c71 8 82 48 90 97l60 -8c-7 -60 -33 -137 -148 -147v-121h-61zM112 335v-150c0 -70 28 -119 91 -130v410
c-63 -11 -91 -60 -91 -130z" />
    <glyph glyph-name="Euro" unicode="&#x20ac;" horiz-adv-x="591" 
d="M31 441v57h93v2c0 176 76 256 212 256c137 0 198 -66 210 -208l-61 -10c-11 123 -51 160 -149 160c-97 0 -150 -58 -150 -192v-8h203v-57h-203v-129h203v-57h-203v-11c0 -133 52 -191 150 -191c109 0 139 58 147 160l63 -10c-14 -129 -61 -209 -210 -209
c-137 0 -212 81 -212 256v5h-93v57h93v129h-93z" />
    <glyph glyph-name="sterling" unicode="&#xa3;" horiz-adv-x="509" 
d="M31 327v57h80c-15 59 -32 119 -32 185c0 119 61 187 201 187c136 0 188 -81 199 -208l-61 -10c-9 102 -44 160 -137 160c-102 0 -140 -48 -140 -129c0 -63 18 -124 33 -185h215v-57h-202c5 -26 8 -52 8 -77c0 -84 -29 -155 -59 -191h343v-59h-409v59c40 62 63 104 63 191
c0 26 -4 51 -9 77h-93z" />
    <glyph glyph-name="yen" unicode="&#xa5;" horiz-adv-x="515" 
d="M59 283v57h154l-197 410h66l177 -379h2l175 379h63l-197 -410h154v-57h-167v-129h167v-57h-167v-97h-63v97h-167v57h167v129h-167z" />
    <glyph glyph-name="florin" unicode="&#x192;" horiz-adv-x="380" 
d="M141 -198v575h-94v58h94v161c0 102 50 154 145 154h52v-59h-52c-59 0 -83 -35 -83 -95v-161h135v-58h-135v-575h-62z" />
    <glyph glyph-name="numbersign" unicode="#" horiz-adv-x="602" 
d="M114 0l27 234h-78v59h85l19 168h-104v59h110l28 230h63l-28 -230h162l28 230h62l-28 -230h80v-59h-86l-19 -168h105v-59h-112l-27 -234h-63l27 234h-162l-27 -234h-62zM209 291h165l20 172h-165z" />
    <glyph glyph-name="section" unicode="&#xa7;" horiz-adv-x="473" 
d="M238 -6c-116 0 -156 60 -166 143l62 10c7 -66 33 -95 104 -95c73 0 107 24 107 79c0 68 -51 83 -116 97c-81 18 -166 35 -166 152c0 54 22 94 62 118c-36 21 -62 55 -61 120c1 105 79 138 172 138c116 0 159 -60 169 -143l-62 -10c-7 66 -36 95 -107 95
c-73 0 -110 -24 -110 -79c0 -68 54 -83 119 -97c81 -18 166 -35 166 -152c0 -56 -20 -97 -61 -120c34 -21 57 -55 57 -118c-1 -105 -76 -138 -169 -138zM231 465c-15 3 -30 6 -45 10c-34 -16 -60 -53 -60 -94c0 -68 53 -82 117 -96l47 -12c35 15 58 53 58 96
c0 68 -53 82 -117 96z" />
    <glyph glyph-name="paragraph" unicode="&#xb6;" horiz-adv-x="519" 
d="M218 -198v417c-101 13 -159 73 -159 197v134c0 143 67 200 205 200h179v-948h-62v414h-101v-414h-62zM264 275h117v416h-117c-90 0 -143 -28 -143 -137v-141c0 -109 53 -138 143 -138z" />
    <glyph glyph-name="percent" unicode="%" horiz-adv-x="835" 
d="M195 325c-82 0 -140 46 -140 145v141c0 100 59 145 140 145s139 -45 139 -145v-141c0 -99 -58 -145 -139 -145zM195 379c58 0 80 26 80 87v149c0 60 -22 86 -80 86s-82 -26 -82 -86v-149c0 -61 23 -87 82 -87zM641 -6c-82 0 -140 46 -140 145v141c0 100 59 145 140 145
s139 -45 139 -145v-141c0 -99 -58 -145 -139 -145zM641 48c58 0 80 26 80 87v149c0 60 -22 86 -80 86s-82 -26 -82 -86v-149c0 -61 23 -87 82 -87zM198 0l373 750h65l-373 -750h-65z" />
    <glyph glyph-name="perthousand" unicode="&#x2030;" horiz-adv-x="1169" 
d="M195 325c-82 0 -140 46 -140 145v141c0 100 59 145 140 145s139 -45 139 -145v-141c0 -99 -58 -145 -139 -145zM195 379c58 0 80 26 80 87v149c0 60 -22 86 -80 86s-82 -26 -82 -86v-149c0 -61 23 -87 82 -87zM641 -6c-82 0 -140 46 -140 145v141c0 100 59 145 140 145
s139 -45 139 -145v-141c0 -99 -58 -145 -139 -145zM641 48c58 0 80 26 80 87v149c0 60 -22 86 -80 86s-82 -26 -82 -86v-149c0 -61 23 -87 82 -87zM975 -6c-82 0 -140 46 -140 145v141c0 100 59 145 140 145s139 -45 139 -145v-141c0 -99 -58 -145 -139 -145zM975 48
c58 0 80 26 80 87v149c0 60 -22 86 -80 86s-82 -26 -82 -86v-149c0 -61 23 -87 82 -87zM198 0l373 750h65l-373 -750h-65z" />
    <glyph glyph-name="degree" unicode="&#xb0;" horiz-adv-x="422" 
d="M211 306c-107 0 -155 70 -155 178v95c0 109 48 177 155 177c108 0 155 -68 155 -177v-95c0 -108 -47 -178 -155 -178zM211 363c76 0 95 45 95 125v87c0 81 -19 125 -95 125c-75 0 -95 -44 -95 -125v-87c0 -80 20 -125 95 -125z" />
    <glyph glyph-name="prime" unicode="&#x2032;" horiz-adv-x="278" 
d="M78 500l73 250h72l-87 -250h-58z" />
    <glyph glyph-name="primedbl" unicode="&#x2033;" horiz-adv-x="466" 
d="M78 500l73 250h72l-87 -250h-58zM266 500l72 250h73l-88 -250h-57z" />
    <glyph glyph-name="ordfeminine" unicode="&#xaa;" horiz-adv-x="438" 
d="M202 304c-115 0 -150 45 -150 136c0 99 60 132 177 132h81v50c0 48 -13 78 -83 78c-74 0 -87 -8 -98 -56l-59 9c15 78 59 103 159 103c110 0 141 -54 141 -134v-312h-60v47c-23 -33 -52 -53 -108 -53zM213 361c74 0 97 34 97 100v57h-81c-91 0 -117 -17 -117 -78
c0 -63 21 -79 101 -79z" />
    <glyph glyph-name="ordmasculine" unicode="&#xba;" horiz-adv-x="449" 
d="M224 362c76 0 108 38 108 106v125c0 69 -32 108 -108 108c-75 0 -107 -39 -107 -108v-125c0 -68 32 -106 107 -106zM224 305c-113 0 -168 68 -168 167v117c0 101 56 167 168 167s169 -66 169 -167v-117c0 -99 -57 -167 -169 -167z" />
    <glyph glyph-name="zero.tab" 
d="M310 -6c-145 0 -225 81 -225 256v250c0 176 81 256 225 256c143 0 225 -80 225 -256v-250c0 -175 -82 -256 -225 -256zM310 53c102 0 162 58 162 191v262c0 134 -60 192 -162 192c-103 0 -163 -58 -163 -192v-262c0 -133 59 -191 163 -191z" />
    <glyph glyph-name="zero.tab_salt_slash" 
d="M310 -6c-145 0 -225 81 -225 256v250c0 176 81 256 225 256c143 0 225 -80 225 -256v-250c0 -175 -82 -256 -225 -256zM147 506v-262c0 -51 8 -91 25 -121l235 549c-26 18 -58 26 -97 26c-103 0 -163 -58 -163 -192zM310 53c102 0 162 58 162 191v262c0 51 -9 90 -25 120
l-236 -547c26 -18 59 -26 99 -26z" />
    <glyph glyph-name="one.tab" 
d="M149 0v59h149v632h-156l8 59h211v-691h138v-59h-350z" />
    <glyph glyph-name="two.tab" 
d="M103 0v72c0 277 360 274 360 497c0 81 -48 129 -145 129c-96 0 -145 -58 -154 -160l-61 10c11 127 81 208 215 208c141 0 207 -68 207 -187c0 -263 -360 -249 -360 -497v-13h369v-59h-431z" />
    <glyph glyph-name="three.tab" 
d="M306 -6c-150 0 -210 81 -221 209l61 10c9 -103 55 -160 160 -160c97 0 151 33 151 160c0 118 -33 161 -129 161h-88v59h88c96 0 123 45 123 136c0 80 -38 129 -145 129c-96 0 -145 -58 -154 -160l-61 10c11 127 81 208 215 208c147 0 207 -65 207 -187
c0 -80 -15 -135 -95 -165c83 -22 101 -94 101 -191c0 -167 -77 -219 -213 -219z" />
    <glyph glyph-name="four.tab" 
d="M397 0v191h-325v59l325 500h70l-326 -500h256v193h62v-193h94v-59h-94v-191h-62z" />
    <glyph glyph-name="five.tab" 
d="M310 -6c-149 0 -209 72 -221 209l61 10c9 -103 54 -160 160 -160c97 0 151 47 151 170v33c0 128 -59 175 -150 175c-70 0 -123 -16 -152 -28l-52 33l8 314h377l-7 -59h-307l-8 -226c20 10 83 25 141 25c126 0 213 -55 213 -232v-35c0 -156 -82 -229 -214 -229z" />
    <glyph glyph-name="six.tab" 
d="M319 -6c-138 0 -220 72 -220 230v276c0 171 75 256 217 256c128 0 201 -56 213 -183l-62 -10c-8 102 -61 135 -151 135c-102 0 -154 -58 -154 -192v-98c34 51 92 75 157 75c136 0 220 -72 220 -230v-29c0 -158 -84 -230 -220 -230zM319 53c97 0 157 52 157 172v26
c0 122 -60 173 -157 173c-98 0 -157 -51 -157 -173v-26c0 -120 58 -172 157 -172z" />
    <glyph glyph-name="seven.tab" 
d="M177 0l267 691h-343l7 59h399v-59l-268 -691h-62z" />
    <glyph glyph-name="eight.tab" 
d="M310 -6c-177 0 -225 98 -225 199v40c0 73 28 132 106 167c-72 32 -100 87 -100 149v29c0 89 54 178 219 178s217 -89 217 -178v-29c0 -62 -29 -117 -100 -148c79 -35 107 -95 107 -168v-40c0 -101 -49 -199 -224 -199zM310 53c131 0 162 71 162 140v40
c0 69 -31 138 -162 138c-132 0 -163 -69 -163 -138v-40c0 -69 30 -140 163 -140zM310 430c120 0 154 63 154 119v29c0 56 -34 120 -154 120c-122 0 -156 -64 -156 -120v-29c0 -56 34 -119 156 -119z" />
    <glyph glyph-name="nine.tab" 
d="M302 -6c-127 0 -200 56 -211 184l61 10c9 -103 60 -135 150 -135c103 0 156 57 156 191v97c-32 -45 -95 -73 -158 -73c-137 0 -219 71 -219 230v28c0 158 82 230 219 230s220 -72 220 -230v-276c0 -176 -75 -256 -218 -256zM300 326c97 0 158 52 158 173v26
c0 120 -60 173 -158 173s-157 -53 -157 -173v-26c0 -121 59 -173 157 -173z" />
    <glyph glyph-name="plus.tab" 
d="M279 156v192h-176v58h176v188h62v-188h177v-58h-177v-192h-62z" />
    <glyph glyph-name="minus.tab" 
d="M103 348v58h415v-58h-415z" />
    <glyph glyph-name="multiply.tab" 
d="M165 191l-40 40l145 145l-146 147l40 40l146 -147l146 148l40 -40l-146 -148l146 -145l-40 -40l-146 145z" />
    <glyph glyph-name="divide.tab" 
d="M273 156v94h75v-94h-75zM103 348v58h415v-58h-415zM273 500v94h75v-94h-75z" />
    <glyph glyph-name="equal.tab" 
d="M103 254v59h415v-59h-415zM103 441v59h415v-59h-415z" />
    <glyph glyph-name="less.tab" 
d="M518 181l-415 167v58l415 167v-59l-348 -138l348 -136v-59z" />
    <glyph glyph-name="greater.tab" 
d="M107 181v59l348 136l-348 138v59l415 -167v-58z" />
    <glyph glyph-name="dollar.tab" 
d="M274 -125v120c-119 7 -175 69 -191 201l62 10c13 -102 51 -145 131 -152v316c-89 35 -178 73 -178 205c0 107 61 171 176 180v120h62v-121c111 -10 163 -73 173 -194l-61 -10c-8 91 -40 137 -114 146v-281c91 -34 186 -79 186 -221c0 -120 -62 -188 -184 -198v-121h-62z
M458 194c0 89 -56 126 -124 154v-294c86 9 124 55 124 140zM160 576c0 -79 51 -113 116 -140v260c-78 -8 -116 -51 -116 -120z" />
    <glyph glyph-name="cent.tab" 
d="M285 -125v121c-106 12 -152 88 -152 195v138c0 108 47 182 152 195v101h61v-100c107 -9 143 -71 152 -151l-62 -10c-6 60 -30 95 -92 102v-412c71 8 82 48 90 97l60 -8c-7 -60 -33 -137 -148 -147v-121h-61zM196 335v-150c0 -70 28 -119 91 -130v410
c-63 -11 -91 -60 -91 -130z" />
    <glyph glyph-name="Euro.tab" 
d="M45 441v57h93v2c0 176 76 256 212 256c137 0 198 -66 210 -208l-61 -10c-11 123 -51 160 -149 160c-97 0 -150 -58 -150 -192v-8h203v-57h-203v-129h203v-57h-203v-11c0 -133 52 -191 150 -191c109 0 139 58 147 160l63 -10c-14 -129 -61 -209 -210 -209
c-137 0 -212 81 -212 256v5h-93v57h93v129h-93z" />
    <glyph glyph-name="sterling.tab" 
d="M86 327v57h80c-15 59 -32 119 -32 185c0 119 61 187 201 187c136 0 188 -81 199 -208l-61 -10c-9 102 -44 160 -137 160c-102 0 -140 -48 -140 -129c0 -63 18 -124 33 -185h215v-57h-202c5 -26 8 -52 8 -77c0 -84 -29 -155 -59 -191h343v-59h-409v59c40 62 63 104 63 191
c0 26 -4 51 -9 77h-93z" />
    <glyph glyph-name="yen.tab" 
d="M91 283v57h174l-197 410h66l177 -379h2l175 379h63l-197 -410h174v-57h-187v-129h187v-57h-187v-97h-63v97h-187v57h187v129h-187z" />
    <glyph glyph-name="florin.tab" 
d="M261 -198v575h-114v58h114v161c0 102 50 154 145 154h72v-59h-72c-59 0 -83 -35 -83 -95v-161h155v-58h-155v-575h-62z" />
    <glyph glyph-name="numbersign.tab" 
d="M123 0l27 234h-78v59h85l19 168h-104v59h110l28 230h63l-28 -230h162l28 230h62l-28 -230h80v-59h-86l-19 -168h105v-59h-112l-27 -234h-63l27 234h-162l-27 -234h-62zM218 291h165l20 172h-165z" />
    <glyph glyph-name="prime.tab" horiz-adv-x="310" 
d="M94 500l73 250h72l-87 -250h-58z" />
    <glyph glyph-name="primedbl.tab" 
d="M155 500l73 250h72l-87 -250h-58zM343 500l72 250h73l-88 -250h-57z" />
    <glyph glyph-name="period.tab" horiz-adv-x="310" 
d="M117 0v94h75v-94h-75z" />
    <glyph glyph-name="comma.tab" horiz-adv-x="310" 
d="M117 -98l31 98h-31v94h75v-94l-31 -98h-44z" />
    <glyph glyph-name="colon.tab" horiz-adv-x="310" 
d="M117 0v94h75v-94h-75zM117 426v94h75v-94h-75z" />
    <glyph glyph-name="semicolon.tab" horiz-adv-x="310" 
d="M117 -98l31 98h-31v94h75v-94l-31 -98h-44zM117 426v94h75v-94h-75z" />
    <glyph glyph-name="hyphen.tab" 
d="M122 365v59h375v-59h-375z" />
    <glyph glyph-name="parenleft.tab" horiz-adv-x="310" 
d="M261 -70c-145 0 -194 82 -194 257v377c0 176 50 256 194 256h36v-59h-36c-103 0 -131 -57 -131 -191v-389c0 -133 27 -192 131 -192h36v-59h-36z" />
    <glyph glyph-name="parenright.tab" horiz-adv-x="310" 
d="M12 -70v59h36c104 0 131 59 131 192v389c0 134 -28 191 -131 191h-36v59h36c144 0 194 -80 194 -256v-377c0 -175 -49 -257 -194 -257h-36z" />
    <glyph glyph-name="endash.tab" unicode="&#x2012;" 
d="M61 365v59h498v-59h-498z" />
    <glyph glyph-name="space.tab" horiz-adv-x="310" 
 />
    <glyph glyph-name="space.tab_en" unicode="&#x2007;" 
 />
    <glyph glyph-name="space.tab_em" horiz-adv-x="1240" 
 />
    <glyph glyph-name="space.tab_thin" horiz-adv-x="155" 
 />
    <glyph glyph-name="zero.sups" unicode="&#x2070;" horiz-adv-x="470" 
d="M236 247c-105 0 -165 56 -165 179v175c0 123 61 179 165 179c102 0 163 -56 163 -179v-175c0 -123 -61 -179 -163 -179zM236 297c68 0 107 39 107 126v180c0 88 -39 126 -107 126c-70 0 -109 -38 -109 -126v-180c0 -87 39 -126 109 -126z" />
    <glyph glyph-name="one.sups" unicode="&#xb9;" horiz-adv-x="270" 
d="M121 251v473h-94l8 52h142v-525h-56z" />
    <glyph glyph-name="two.sups" unicode="&#xb2;" horiz-adv-x="427" 
d="M63 251v55c0 194 251 191 251 339c0 55 -32 86 -96 86s-95 -39 -101 -106l-54 7c7 88 57 148 155 148c107 0 151 -51 151 -135c0 -180 -251 -175 -251 -335v-9h257v-50h-312z" />
    <glyph glyph-name="three.sups" unicode="&#xb3;" horiz-adv-x="443" 
d="M220 247c-112 0 -154 57 -161 148l53 8c7 -70 37 -107 108 -107c66 0 101 23 101 105c0 78 -23 106 -87 106h-67v49h67c65 0 82 31 82 90c0 51 -24 85 -96 85c-66 0 -97 -37 -102 -106l-55 8c8 89 56 147 157 147c107 0 151 -46 151 -131c0 -57 -12 -95 -67 -115
c58 -17 72 -65 72 -134c0 -115 -55 -153 -156 -153z" />
    <glyph glyph-name="four.sups" unicode="&#x2074;" horiz-adv-x="447" 
d="M280 251v129h-228v49l223 347h61l-225 -347h169v132h55v-132h64v-49h-64v-129h-55z" />
    <glyph glyph-name="five.sups" unicode="&#x2075;" horiz-adv-x="444" 
d="M223 247c-109 0 -152 50 -161 148l55 8c5 -69 34 -106 106 -106c64 0 100 31 100 111v24c0 84 -39 115 -100 115c-46 0 -84 -12 -104 -20l-44 24l5 225h276l-7 -51h-214l-6 -147c15 8 58 18 97 18c90 0 152 -38 152 -162v-27c0 -110 -58 -160 -155 -160z" />
    <glyph glyph-name="six.sups" unicode="&#x2076;" horiz-adv-x="451" 
d="M231 247c-99 0 -159 50 -159 161v193c0 120 56 179 157 179c92 0 147 -39 155 -131l-54 -7c-6 66 -40 89 -101 89c-68 0 -102 -39 -102 -126v-65c23 34 63 50 107 50c97 0 157 -49 157 -160v-22c0 -112 -62 -161 -160 -161zM231 297c66 0 105 33 105 111v20
c0 79 -39 112 -105 112s-104 -33 -104 -112v-20c0 -78 38 -111 104 -111z" />
    <glyph glyph-name="seven.sups" unicode="&#x2077;" horiz-adv-x="381" 
d="M93 251l185 474h-239l7 51h288v-51l-184 -474h-57z" />
    <glyph glyph-name="eight.sups" unicode="&#x2078;" horiz-adv-x="457" 
d="M228 247c-126 0 -162 68 -162 139v27c0 52 18 93 74 118c-50 22 -70 60 -70 104v21c0 63 42 124 158 124c118 0 158 -60 158 -124v-21c0 -44 -20 -82 -70 -103c56 -25 75 -67 75 -119v-27c0 -71 -37 -139 -163 -139zM228 296c87 0 109 46 109 92v27c0 46 -22 92 -109 92
c-86 0 -108 -46 -108 -92v-27c0 -46 21 -92 108 -92zM228 555c79 0 103 40 103 78v20c0 37 -24 78 -103 78s-103 -41 -103 -78v-20c0 -38 24 -78 103 -78z" />
    <glyph glyph-name="nine.sups" unicode="&#x2079;" horiz-adv-x="451" 
d="M220 247c-90 0 -146 38 -154 131l55 7c5 -68 38 -88 99 -88c69 0 104 37 104 125v64c-22 -31 -65 -48 -108 -48c-97 0 -156 47 -156 159v22c0 111 61 161 159 161s160 -50 160 -161v-193c0 -123 -56 -179 -159 -179zM219 486c66 0 105 34 105 112v19
c0 78 -39 114 -105 114s-104 -36 -104 -114v-19c0 -78 38 -112 104 -112z" />
    <glyph glyph-name="zero.sinf" unicode="&#x2080;" horiz-adv-x="470" 
d="M236 -202c-105 0 -165 56 -165 179v175c0 123 61 179 165 179c102 0 163 -56 163 -179v-175c0 -123 -61 -179 -163 -179zM236 -152c68 0 107 39 107 126v180c0 88 -39 126 -107 126c-70 0 -109 -38 -109 -126v-180c0 -87 39 -126 109 -126z" />
    <glyph glyph-name="one.sinf" unicode="&#x2081;" horiz-adv-x="270" 
d="M121 -198v473h-94l8 52h142v-525h-56z" />
    <glyph glyph-name="two.sinf" unicode="&#x2082;" horiz-adv-x="427" 
d="M63 -198v55c0 194 251 191 251 339c0 55 -32 86 -96 86s-95 -39 -101 -106l-54 7c7 88 57 148 155 148c107 0 151 -51 151 -135c0 -180 -251 -175 -251 -335v-9h257v-50h-312z" />
    <glyph glyph-name="three.sinf" unicode="&#x2083;" horiz-adv-x="443" 
d="M220 -202c-112 0 -154 57 -161 148l53 8c7 -70 37 -107 108 -107c66 0 101 23 101 105c0 78 -23 106 -87 106h-67v49h67c65 0 82 31 82 90c0 51 -24 85 -96 85c-66 0 -97 -37 -102 -106l-55 8c8 89 56 147 157 147c107 0 151 -46 151 -131c0 -57 -12 -95 -67 -115
c58 -17 72 -65 72 -134c0 -115 -55 -153 -156 -153z" />
    <glyph glyph-name="four.sinf" unicode="&#x2084;" horiz-adv-x="447" 
d="M280 -198v129h-228v49l223 347h61l-225 -347h169v132h55v-132h64v-49h-64v-129h-55z" />
    <glyph glyph-name="five.sinf" unicode="&#x2085;" horiz-adv-x="444" 
d="M223 -202c-109 0 -152 50 -161 148l55 8c5 -69 34 -106 106 -106c64 0 100 31 100 111v24c0 84 -39 115 -100 115c-46 0 -84 -12 -104 -20l-44 24l5 225h276l-7 -51h-214l-6 -147c15 8 58 18 97 18c90 0 152 -38 152 -162v-27c0 -110 -58 -160 -155 -160z" />
    <glyph glyph-name="six.sinf" unicode="&#x2086;" horiz-adv-x="451" 
d="M231 -202c-99 0 -159 50 -159 161v193c0 120 56 179 157 179c92 0 147 -39 155 -131l-54 -7c-6 66 -40 89 -101 89c-68 0 -102 -39 -102 -126v-65c23 34 63 50 107 50c97 0 157 -49 157 -160v-22c0 -112 -62 -161 -160 -161zM231 -152c66 0 105 33 105 111v20
c0 79 -39 112 -105 112s-104 -33 -104 -112v-20c0 -78 38 -111 104 -111z" />
    <glyph glyph-name="seven.sinf" unicode="&#x2087;" horiz-adv-x="381" 
d="M93 -198l185 474h-239l7 51h288v-51l-184 -474h-57z" />
    <glyph glyph-name="eight.sinf" unicode="&#x2088;" horiz-adv-x="457" 
d="M228 -202c-126 0 -162 68 -162 139v27c0 52 18 93 74 118c-50 22 -70 60 -70 104v21c0 63 42 124 158 124c118 0 158 -60 158 -124v-21c0 -44 -20 -82 -70 -103c56 -25 75 -67 75 -119v-27c0 -71 -37 -139 -163 -139zM228 -153c87 0 109 46 109 92v27
c0 46 -22 92 -109 92c-86 0 -108 -46 -108 -92v-27c0 -46 21 -92 108 -92zM228 106c79 0 103 40 103 78v20c0 37 -24 78 -103 78s-103 -41 -103 -78v-20c0 -38 24 -78 103 -78z" />
    <glyph glyph-name="nine.sinf" unicode="&#x2089;" horiz-adv-x="451" 
d="M220 -202c-90 0 -146 38 -154 131l55 7c5 -68 38 -88 99 -88c69 0 104 37 104 125v64c-22 -31 -65 -48 -108 -48c-97 0 -156 47 -156 159v22c0 111 61 161 159 161s160 -50 160 -161v-193c0 -123 -56 -179 -159 -179zM219 37c66 0 105 34 105 112v19
c0 78 -39 114 -105 114s-104 -36 -104 -114v-19c0 -78 38 -112 104 -112z" />
    <glyph glyph-name="space.frac" horiz-adv-x="100" 
 />
    <glyph glyph-name="fraction" unicode="&#x2044;" horiz-adv-x="506" 
d="M0 0l446 750h60l-446 -750h-60z" />
    <glyph glyph-name="zero.numr" horiz-adv-x="410" 
d="M206 223c-105 0 -165 56 -165 179v175c0 123 61 179 165 179c102 0 163 -56 163 -179v-175c0 -123 -61 -179 -163 -179zM206 273c68 0 107 39 107 126v180c0 88 -39 126 -107 126c-70 0 -109 -38 -109 -126v-180c0 -87 39 -126 109 -126z" />
    <glyph glyph-name="one.numr" horiz-adv-x="210" 
d="M91 227v473h-94l8 52h142v-525h-56z" />
    <glyph glyph-name="two.numr" horiz-adv-x="367" 
d="M33 227v55c0 194 251 191 251 339c0 55 -32 86 -96 86s-95 -39 -101 -106l-54 7c7 88 57 148 155 148c107 0 151 -51 151 -135c0 -180 -251 -175 -251 -335v-9h257v-50h-312z" />
    <glyph glyph-name="three.numr" horiz-adv-x="383" 
d="M190 223c-112 0 -154 57 -161 148l53 8c7 -70 37 -107 108 -107c66 0 101 23 101 105c0 78 -23 106 -87 106h-67v49h67c65 0 82 31 82 90c0 51 -24 85 -96 85c-66 0 -97 -37 -102 -106l-55 8c8 89 56 147 157 147c107 0 151 -46 151 -131c0 -57 -12 -95 -67 -115
c58 -17 72 -65 72 -134c0 -115 -55 -153 -156 -153z" />
    <glyph glyph-name="four.numr" horiz-adv-x="387" 
d="M250 227v129h-228v49l223 347h61l-225 -347h169v132h55v-132h64v-49h-64v-129h-55z" />
    <glyph glyph-name="five.numr" horiz-adv-x="384" 
d="M193 223c-109 0 -152 50 -161 148l55 8c5 -69 34 -106 106 -106c64 0 100 31 100 111v24c0 84 -39 115 -100 115c-46 0 -84 -12 -104 -20l-44 24l5 225h276l-7 -51h-214l-6 -147c15 8 58 18 97 18c90 0 152 -38 152 -162v-27c0 -110 -58 -160 -155 -160z" />
    <glyph glyph-name="six.numr" horiz-adv-x="391" 
d="M201 223c-99 0 -159 50 -159 161v193c0 120 56 179 157 179c92 0 147 -39 155 -131l-54 -7c-6 66 -40 89 -101 89c-68 0 -102 -39 -102 -126v-65c23 34 63 50 107 50c97 0 157 -49 157 -160v-22c0 -112 -62 -161 -160 -161zM201 273c66 0 105 33 105 111v20
c0 79 -39 112 -105 112s-104 -33 -104 -112v-20c0 -78 38 -111 104 -111z" />
    <glyph glyph-name="seven.numr" horiz-adv-x="321" 
d="M63 227l185 474h-239l7 51h288v-51l-184 -474h-57z" />
    <glyph glyph-name="eight.numr" horiz-adv-x="397" 
d="M198 223c-126 0 -162 68 -162 139v27c0 52 18 93 74 118c-50 22 -70 60 -70 104v21c0 63 42 124 158 124c118 0 158 -60 158 -124v-21c0 -44 -20 -82 -70 -103c56 -25 75 -67 75 -119v-27c0 -71 -37 -139 -163 -139zM198 272c87 0 109 46 109 92v27c0 46 -22 92 -109 92
c-86 0 -108 -46 -108 -92v-27c0 -46 21 -92 108 -92zM198 531c79 0 103 40 103 78v20c0 37 -24 78 -103 78s-103 -41 -103 -78v-20c0 -38 24 -78 103 -78z" />
    <glyph glyph-name="nine.numr" horiz-adv-x="391" 
d="M190 223c-90 0 -146 38 -154 131l55 7c5 -68 38 -88 99 -88c69 0 104 37 104 125v64c-22 -31 -65 -48 -108 -48c-97 0 -156 47 -156 159v22c0 111 61 161 159 161s160 -50 160 -161v-193c0 -123 -56 -179 -159 -179zM189 462c66 0 105 34 105 112v19
c0 78 -39 114 -105 114s-104 -36 -104 -114v-19c0 -78 38 -112 104 -112z" />
    <glyph glyph-name="zero.dnom" horiz-adv-x="410" 
d="M206 -4c-105 0 -165 56 -165 179v175c0 123 61 179 165 179c102 0 163 -56 163 -179v-175c0 -123 -61 -179 -163 -179zM206 46c68 0 107 39 107 126v180c0 88 -39 126 -107 126c-70 0 -109 -38 -109 -126v-180c0 -87 39 -126 109 -126z" />
    <glyph glyph-name="one.dnom" horiz-adv-x="210" 
d="M91 0v473h-94l8 52h142v-525h-56z" />
    <glyph glyph-name="two.dnom" horiz-adv-x="367" 
d="M33 0v55c0 194 251 191 251 339c0 55 -32 86 -96 86s-95 -39 -101 -106l-54 7c7 88 57 148 155 148c107 0 151 -51 151 -135c0 -180 -251 -175 -251 -335v-9h257v-50h-312z" />
    <glyph glyph-name="three.dnom" horiz-adv-x="383" 
d="M190 -4c-112 0 -154 57 -161 148l53 8c7 -70 37 -107 108 -107c66 0 101 23 101 105c0 78 -23 106 -87 106h-67v49h67c65 0 82 31 82 90c0 51 -24 85 -96 85c-66 0 -97 -37 -102 -106l-55 8c8 89 56 147 157 147c107 0 151 -46 151 -131c0 -57 -12 -95 -67 -115
c58 -17 72 -65 72 -134c0 -115 -55 -153 -156 -153z" />
    <glyph glyph-name="four.dnom" horiz-adv-x="387" 
d="M250 0v129h-228v49l223 347h61l-225 -347h169v132h55v-132h64v-49h-64v-129h-55z" />
    <glyph glyph-name="five.dnom" horiz-adv-x="384" 
d="M193 -4c-109 0 -152 50 -161 148l55 8c5 -69 34 -106 106 -106c64 0 100 31 100 111v24c0 84 -39 115 -100 115c-46 0 -84 -12 -104 -20l-44 24l5 225h276l-7 -51h-214l-6 -147c15 8 58 18 97 18c90 0 152 -38 152 -162v-27c0 -110 -58 -160 -155 -160z" />
    <glyph glyph-name="six.dnom" horiz-adv-x="391" 
d="M201 -4c-99 0 -159 50 -159 161v193c0 120 56 179 157 179c92 0 147 -39 155 -131l-54 -7c-6 66 -40 89 -101 89c-68 0 -102 -39 -102 -126v-65c23 34 63 50 107 50c97 0 157 -49 157 -160v-22c0 -112 -62 -161 -160 -161zM201 46c66 0 105 33 105 111v20
c0 79 -39 112 -105 112s-104 -33 -104 -112v-20c0 -78 38 -111 104 -111z" />
    <glyph glyph-name="seven.dnom" horiz-adv-x="321" 
d="M63 0l185 474h-239l7 51h288v-51l-184 -474h-57z" />
    <glyph glyph-name="eight.dnom" horiz-adv-x="397" 
d="M198 -4c-126 0 -162 68 -162 139v27c0 52 18 93 74 118c-50 22 -70 60 -70 104v21c0 63 42 124 158 124c118 0 158 -60 158 -124v-21c0 -44 -20 -82 -70 -103c56 -25 75 -67 75 -119v-27c0 -71 -37 -139 -163 -139zM198 45c87 0 109 46 109 92v27c0 46 -22 92 -109 92
c-86 0 -108 -46 -108 -92v-27c0 -46 21 -92 108 -92zM198 304c79 0 103 40 103 78v20c0 37 -24 78 -103 78s-103 -41 -103 -78v-20c0 -38 24 -78 103 -78z" />
    <glyph glyph-name="nine.dnom" horiz-adv-x="391" 
d="M190 -4c-90 0 -146 38 -154 131l55 7c5 -68 38 -88 99 -88c69 0 104 37 104 125v64c-22 -31 -65 -48 -108 -48c-97 0 -156 47 -156 159v22c0 111 61 161 159 161s160 -50 160 -161v-193c0 -123 -56 -179 -159 -179zM189 235c66 0 105 34 105 112v19
c0 78 -39 114 -105 114s-104 -36 -104 -114v-19c0 -78 38 -112 104 -112z" />
    <glyph glyph-name="onehalf" unicode="&#xbd;" horiz-adv-x="873" 
d="M91 227v473h-94l8 52h142v-525h-56zM120 0l446 750h60l-446 -750h-60zM539 0v55c0 194 251 191 251 339c0 55 -32 86 -96 86s-95 -39 -101 -106l-54 7c7 88 57 148 155 148c107 0 151 -51 151 -135c0 -180 -251 -175 -251 -335v-9h257v-50h-312z" />
    <glyph glyph-name="onequarter" unicode="&#xbc;" horiz-adv-x="803" 
d="M91 227v473h-94l8 52h142v-525h-56zM120 0l446 750h60l-446 -750h-60zM666 0v129h-228v49l223 347h61l-225 -347h169v132h55v-132h64v-49h-64v-129h-55z" />
    <glyph glyph-name="threequarters" unicode="&#xbe;" horiz-adv-x="946" 
d="M190 223c-112 0 -154 57 -161 148l53 8c7 -70 37 -107 108 -107c66 0 101 23 101 105c0 78 -23 106 -87 106h-67v49h67c65 0 82 31 82 90c0 51 -24 85 -96 85c-66 0 -97 -37 -102 -106l-55 8c8 89 56 147 157 147c107 0 151 -46 151 -131c0 -57 -12 -95 -67 -115
c58 -17 72 -65 72 -134c0 -115 -55 -153 -156 -153zM263 0l446 750h60l-446 -750h-60zM809 0v129h-228v49l223 347h61l-225 -347h169v132h55v-132h64v-49h-64v-129h-55z" />
    <glyph glyph-name="asciicircum" unicode="^" horiz-adv-x="540" 
d="M73 315l167 435h61l167 -435h-61l-136 365l-138 -365h-60z" />
    <glyph glyph-name="asciitilde" unicode="~" horiz-adv-x="540" 
d="M60 338c0 42 19 110 105 110c60 0 165 -57 206 -57c35 0 54 20 54 57h54c0 -42 -19 -110 -105 -110c-59 0 -165 57 -206 57c-36 0 -54 -20 -54 -57h-54z" />
    <glyph glyph-name="lessequal" unicode="&#x2264;" horiz-adv-x="540" 
d="M473 231l-415 167v58l415 167v-59l-348 -138l348 -136v-59zM59 100v58h414v-58h-414z" />
    <glyph glyph-name="greaterequal" unicode="&#x2265;" horiz-adv-x="540" 
d="M67 231v59l348 136l-348 138v59l415 -167v-58zM67 100v58h414v-58h-414z" />
    <glyph glyph-name="plusminus" unicode="&#xb1;" horiz-adv-x="540" 
d="M239 226v192h-176v58h176v188h62v-188h177v-58h-177v-192h-62zM63 100v58h415v-58h-415z" />
    <glyph glyph-name="approxequal" unicode="&#x2248;" horiz-adv-x="540" 
d="M114 428h-54c0 42 19 110 105 110c60 0 165 -57 206 -57c35 0 54 20 54 57h54c0 -42 -19 -110 -105 -110c-59 0 -165 57 -206 57c-36 0 -54 -20 -54 -57zM114 239h-54c0 42 19 110 105 110c60 0 165 -57 206 -57c35 0 54 20 54 57h54c0 -42 -19 -110 -105 -110
c-59 0 -165 57 -206 57c-36 0 -54 -20 -54 -57z" />
    <glyph glyph-name="notequal" unicode="&#x2260;" horiz-adv-x="540" 
d="M83 124l79 130h-99v59h136l78 128h-214v59h249l80 130h66l-80 -130h100v-59h-137l-78 -128h215v-59h-250l-79 -130h-66z" />
    <glyph glyph-name="logicalnot" unicode="&#xac;" horiz-adv-x="560" 
d="M416 156v192h-353v58h415v-250h-62z" />
    <glyph glyph-name="radical" unicode="&#x221a;" horiz-adv-x="477" 
d="M177 0l-164 520h64l138 -440h1l207 670h62l-235 -750h-73z" />
    <glyph glyph-name="infinity" unicode="&#x221e;" horiz-adv-x="723" 
d="M498 151c-70 0 -114 25 -137 68c-24 -42 -68 -68 -137 -68c-113 0 -168 68 -168 167v117c0 101 56 167 168 167c69 0 113 -25 137 -68c24 43 68 68 137 68c112 0 169 -66 169 -167v-117c0 -99 -57 -167 -169 -167zM498 208c76 0 108 38 108 106v125
c0 69 -32 108 -108 108c-75 0 -107 -39 -107 -108v-125c0 -68 32 -106 107 -106zM224 208c76 0 108 38 108 106v125c0 69 -32 108 -108 108c-75 0 -107 -39 -107 -108v-125c0 -68 32 -106 107 -106z" />
    <glyph glyph-name="lozenge" unicode="&#x25ca;" horiz-adv-x="540" 
d="M229 0l-200 375l200 375h82l200 -375l-200 -375h-82zM270 39l179 336l-179 335l-179 -335z" />
    <glyph glyph-name="currency" unicode="&#xa4;" horiz-adv-x="540" 
d="M486 121l-85 84c-28 -33 -72 -53 -132 -53s-103 19 -131 52l-83 -83l-40 40l95 95c-6 19 -9 40 -9 63v117c0 22 3 43 8 61l-95 96l40 40l82 -83c28 34 72 53 133 53s105 -19 133 -53l84 84l40 -40l-96 -97c5 -18 8 -39 8 -61v-117c0 -22 -3 -43 -9 -62l97 -96zM269 209
c76 0 108 38 108 106v125c0 69 -32 108 -108 108c-75 0 -107 -39 -107 -108v-125c0 -68 32 -106 107 -106z" />
    <glyph glyph-name="mu" unicode="&#xb5;" horiz-adv-x="525" 
d="M75 -198v718h63v-367c0 -54 30 -100 112 -100c69 0 138 46 138 108v359h62v-520h-62v66c-30 -45 -82 -72 -150 -72c-43 0 -80 18 -100 36v-228h-63z" />
    <glyph glyph-name="mu" unicode="&#x3bc;" horiz-adv-x="525" 
d="M75 -198v718h63v-367c0 -54 30 -100 112 -100c69 0 138 46 138 108v359h62v-520h-62v66c-30 -45 -82 -72 -150 -72c-43 0 -80 18 -100 36v-228h-63z" />
    <glyph glyph-name="summation" unicode="&#x2211;" horiz-adv-x="470" 
d="M28 -198v59l266 435l-266 395v59h402l-10 -59h-323l249 -365v-59l-249 -406h323l10 -59h-402z" />
    <glyph glyph-name="product" unicode="&#x220f;" horiz-adv-x="623" 
d="M88 -198v948h447v-948h-62v889h-323v-889h-62z" />
    <glyph glyph-name="pi" unicode="&#x3c0;" horiz-adv-x="601" 
d="M113 0v462h-94v58h563v-58h-94v-462h-62v462h-250v-462h-63z" />
    <glyph glyph-name="integral" unicode="&#x222b;" horiz-adv-x="380" 
d="M6 -198v59h52c59 0 83 35 83 95v640c0 102 50 154 145 154h52v-59h-52c-59 0 -83 -35 -83 -95v-640c0 -102 -50 -154 -145 -154h-52z" />
    <glyph glyph-name="Omega" unicode="&#x3a9;" horiz-adv-x="596" 
d="M63 0v59h110v114c-67 28 -110 86 -110 230v97c0 176 84 256 235 256c150 0 235 -80 235 -256v-97c0 -145 -44 -202 -110 -230v-114h110v-59h-172v212c66 19 109 52 109 185v109c0 134 -65 192 -172 192c-108 0 -173 -58 -173 -192v-109c0 -130 44 -166 110 -185v-212
h-172z" />
    <glyph glyph-name="Omega" unicode="&#x2126;" horiz-adv-x="596" 
d="M63 0v59h110v114c-67 28 -110 86 -110 230v97c0 176 84 256 235 256c150 0 235 -80 235 -256v-97c0 -145 -44 -202 -110 -230v-114h110v-59h-172v212c66 19 109 52 109 185v109c0 134 -65 192 -172 192c-108 0 -173 -58 -173 -192v-109c0 -130 44 -166 110 -185v-212
h-172z" />
    <glyph glyph-name="partialdiff" unicode="&#x2202;" horiz-adv-x="478" 
d="M187 -6c-147 0 -188 96 -167 213l24 138c21 119 82 181 203 181c84 0 119 -31 134 -76l16 90c24 137 -18 181 -163 181h-14l11 59h6c171 0 255 -55 221 -251l-62 -353c-22 -126 -89 -182 -209 -182zM184 53c89 0 135 32 151 122l26 150c14 79 -14 143 -103 143
c-95 0 -137 -39 -152 -123l-26 -150c-14 -80 15 -142 104 -142z" />
    <glyph glyph-name="Delta" unicode="&#x394;" horiz-adv-x="535" 
d="M25 0l208 750h69l208 -750h-485zM100 56h332l-165 598h-1z" />
    <glyph glyph-name="acute" unicode="&#xb4;" horiz-adv-x="500" 
d="M213 563l92 156h73l-108 -156h-57z" />
    <glyph glyph-name="breve" unicode="&#x2d8;" horiz-adv-x="500" 
d="M250 563c-106 0 -151 58 -151 131h57c0 -40 25 -78 94 -78c68 0 94 38 94 78h57c0 -73 -45 -131 -151 -131z" />
    <glyph glyph-name="caron" unicode="&#x2c7;" horiz-adv-x="500" 
d="M211 563l-112 156h55l95 -108l94 108h57l-112 -156h-77z" />
    <glyph glyph-name="cedilla" unicode="&#xb8;" horiz-adv-x="500" 
d="M191 -214v48h28c62 0 81 7 81 43c0 35 -20 43 -75 43h-6v105h47v-65c52 -1 86 -23 86 -83s-37 -91 -123 -91h-38z" />
    <glyph glyph-name="circumflex" unicode="&#x2c6;" horiz-adv-x="500" 
d="M99 563l112 156h77l112 -156h-55l-95 107l-94 -107h-57z" />
    <glyph glyph-name="commaaccent" unicode="&#x326;" horiz-adv-x="500" 
d="M216 -222l29 95h-31v88h71v-88l-29 -95h-40z" />
    <glyph glyph-name="dieresis" unicode="&#xa8;" horiz-adv-x="500" 
d="M126 563v86h68v-86h-68zM306 563v86h68v-86h-68z" />
    <glyph glyph-name="dotaccent" unicode="&#x2d9;" horiz-adv-x="500" 
d="M215 563v89h70v-89h-70z" />
    <glyph glyph-name="grave" unicode="`" horiz-adv-x="500" 
d="M229 563l-107 156h72l93 -156h-58z" />
    <glyph glyph-name="hungarumlaut" unicode="&#x2dd;" horiz-adv-x="500" 
d="M149 563l93 156h67l-107 -156h-53zM291 563l92 156h68l-108 -156h-52z" />
    <glyph glyph-name="macron" unicode="&#xaf;" horiz-adv-x="500" 
d="M115 563v53h270v-53h-270z" />
    <glyph glyph-name="ogonek" unicode="&#x2db;" horiz-adv-x="500" 
d="M308 -198c-64 0 -124 10 -124 96c0 54 28 88 76 127h58c-61 -53 -82 -78 -82 -122c0 -45 22 -53 72 -53h27v-48h-27z" />
    <glyph glyph-name="ring" unicode="&#x2da;" horiz-adv-x="500" 
d="M250 563c-65 0 -106 27 -106 106s41 106 106 106s106 -27 106 -106s-41 -106 -106 -106zM250 610c33 0 56 14 56 59s-23 59 -56 59c-32 0 -56 -14 -56 -59s24 -59 56 -59z" />
    <glyph glyph-name="tilde" unicode="&#x2dc;" horiz-adv-x="500" 
d="M93 563c0 42 7 108 83 108c50 0 114 -56 145 -56c25 0 33 19 33 56h54c0 -42 -8 -108 -84 -108c-49 0 -114 56 -145 56c-26 0 -33 -19 -33 -56h-53z" />
    <glyph glyph-name="apple" unicode="&#xf8ff;" horiz-adv-x="556" 
d="M468 0h-206c-144 0 -219 57 -219 200v34c0 118 59 179 155 196l-155 320h67l152 -316h144v316h62v-750zM262 59h144v316h-144c-102 0 -156 -29 -156 -138v-41c0 -109 54 -137 156 -137z" />
    <glyph glyph-name="u2022.check" unicode="&#x2713;" horiz-adv-x="477" 
d="M177 0l-164 520h64l138 -440h1l207 670h62l-235 -750h-73z" />
    <glyph glyph-name="onesuperior" horiz-adv-x="270" 
d="M121 251v473h-94l8 52h142v-525h-56z" />
    <glyph glyph-name="twosuperior" horiz-adv-x="427" 
d="M63 251v55c0 194 251 191 251 339c0 55 -32 86 -96 86s-95 -39 -101 -106l-54 7c7 88 57 148 155 148c107 0 151 -51 151 -135c0 -180 -251 -175 -251 -335v-9h257v-50h-312z" />
    <glyph glyph-name="threesuperior" horiz-adv-x="443" 
d="M220 247c-112 0 -154 57 -161 148l53 8c7 -70 37 -107 108 -107c66 0 101 23 101 105c0 78 -23 106 -87 106h-67v49h67c65 0 82 31 82 90c0 51 -24 85 -96 85c-66 0 -97 -37 -102 -106l-55 8c8 89 56 147 157 147c107 0 151 -46 151 -131c0 -57 -12 -95 -67 -115
c58 -17 72 -65 72 -134c0 -115 -55 -153 -156 -153z" />
    </font>
</defs>
</svg>
